<svg width="113" height="46" viewBox="0 0 113 46" fill="none" xmlns="http://www.w3.org/2000/svg">
<rect width="112.163" height="45.588" rx="12.6258" fill="#E1EF9E"/>
<rect x="7.57544" y="7.57568" width="30.4371" height="30.4371" rx="11.0317" fill="white"/>
<g clip-path="url(#clip0_869_3712)">
<path d="M16.1296 19.5032C16.1296 18.4643 16.9719 17.622 18.0108 17.622C18.5506 17.622 19.0299 17.2766 19.2006 16.7645L19.2629 16.5776C19.2922 16.4895 19.3069 16.4454 19.3226 16.4063C19.5233 15.9072 19.9935 15.5683 20.5305 15.5357C20.5726 15.5332 20.619 15.5332 20.7119 15.5332H25.4728C25.5657 15.5332 25.6122 15.5332 25.6542 15.5357C26.1912 15.5683 26.6614 15.9072 26.8621 16.4063C26.8778 16.4454 26.8925 16.4895 26.9219 16.5776L26.9842 16.7645C27.1549 17.2766 27.6341 17.622 28.1739 17.622C29.2129 17.622 30.0551 18.4643 30.0551 19.5032V25.4203C30.0551 26.5901 30.0551 27.1751 29.8274 27.6219C29.6272 28.0149 29.3076 28.3345 28.9146 28.5347C28.4678 28.7624 27.8828 28.7624 26.713 28.7624H19.4718C18.3019 28.7624 17.717 28.7624 17.2702 28.5347C16.8771 28.3345 16.5576 28.0149 16.3573 27.6219C16.1296 27.1751 16.1296 26.5901 16.1296 25.4203V19.5032Z" fill="#1D4007"/>
<path d="M23.0924 25.6292C24.8228 25.6292 26.2256 24.2264 26.2256 22.4959C26.2256 20.7655 24.8228 19.3627 23.0924 19.3627C21.3619 19.3627 19.9591 20.7655 19.9591 22.4959C19.9591 24.2264 21.3619 25.6292 23.0924 25.6292Z" fill="#1D4007"/>
<path d="M16.1296 19.5032C16.1296 18.4643 16.9719 17.622 18.0108 17.622C18.5506 17.622 19.0299 17.2766 19.2006 16.7645L19.2629 16.5776C19.2922 16.4895 19.3069 16.4454 19.3226 16.4063C19.5233 15.9072 19.9935 15.5683 20.5305 15.5357C20.5726 15.5332 20.619 15.5332 20.7119 15.5332H25.4728C25.5657 15.5332 25.6122 15.5332 25.6542 15.5357C26.1912 15.5683 26.6614 15.9072 26.8621 16.4063C26.8778 16.4454 26.8925 16.4895 26.9219 16.5776L26.9842 16.7645C27.1549 17.2766 27.6341 17.622 28.1739 17.622C29.2129 17.622 30.0551 18.4643 30.0551 19.5032V25.4203C30.0551 26.5901 30.0551 27.1751 29.8274 27.6219C29.6272 28.0149 29.3076 28.3345 28.9146 28.5347C28.4678 28.7624 27.8828 28.7624 26.713 28.7624H19.4718C18.3019 28.7624 17.717 28.7624 17.2702 28.5347C16.8771 28.3345 16.5576 28.0149 16.3573 27.6219C16.1296 27.1751 16.1296 26.5901 16.1296 25.4203V19.5032Z" stroke="#1D4007" stroke-width="1.37896" stroke-linecap="round" stroke-linejoin="round"/>
<path d="M23.0924 25.6292C24.8228 25.6292 26.2256 24.2264 26.2256 22.4959C26.2256 20.7655 24.8228 19.3627 23.0924 19.3627C21.3619 19.3627 19.9591 20.7655 19.9591 22.4959C19.9591 24.2264 21.3619 25.6292 23.0924 25.6292Z" stroke="#1D4007" stroke-width="1.37896" stroke-linecap="round" stroke-linejoin="round"/>
<circle cx="23.0924" cy="22.4957" r="2.98403" fill="white"/>
</g>
<path d="M51.0694 28.4515C50.0929 28.4515 49.2633 28.2834 48.5808 27.9474C47.9088 27.6009 47.3942 27.1126 47.0372 26.4826C46.6802 25.8421 46.4807 25.0755 46.4387 24.183C46.4282 23.7525 46.4229 23.2904 46.4229 22.7969C46.4229 22.3034 46.4282 21.8308 46.4387 21.3793C46.4807 20.4973 46.6802 19.736 47.0372 19.0954C47.4047 18.4549 47.9245 17.9666 48.5965 17.6306C49.2791 17.2841 50.1034 17.1108 51.0694 17.1108C51.7835 17.1108 52.424 17.2053 52.991 17.3944C53.5581 17.5834 54.0411 17.8459 54.4401 18.1819C54.8391 18.5074 55.1489 18.8907 55.3694 19.3317C55.5899 19.7727 55.7054 20.2505 55.7159 20.765C55.7264 20.8595 55.6949 20.9383 55.6214 21.0013C55.5584 21.0643 55.4797 21.0958 55.3852 21.0958H53.8888C53.7733 21.0958 53.6788 21.0696 53.6053 21.0171C53.5318 20.9541 53.4793 20.8543 53.4478 20.7178C53.2798 20.0247 52.991 19.5522 52.5815 19.3002C52.172 19.0482 51.6627 18.9222 51.0537 18.9222C50.3501 18.9222 49.7884 19.1217 49.3683 19.5207C48.9483 19.9092 48.7226 20.555 48.6911 21.4581C48.6596 22.3191 48.6596 23.2012 48.6911 24.1042C48.7226 25.0073 48.9483 25.6583 49.3683 26.0573C49.7884 26.4458 50.3501 26.6401 51.0537 26.6401C51.6627 26.6401 52.172 26.5141 52.5815 26.2621C52.991 25.9996 53.2798 25.527 53.4478 24.8445C53.4793 24.6975 53.5318 24.5977 53.6053 24.5452C53.6788 24.4927 53.7733 24.4665 53.8888 24.4665H55.3852C55.4797 24.4665 55.5584 24.498 55.6214 24.561C55.6949 24.624 55.7264 24.7028 55.7159 24.7973C55.7054 25.3118 55.5899 25.7896 55.3694 26.2306C55.1489 26.6716 54.8391 27.0601 54.4401 27.3961C54.0411 27.7217 53.5581 27.9789 52.991 28.1679C52.424 28.3569 51.7835 28.4515 51.0694 28.4515ZM59.7732 28.4515C59.2272 28.4515 58.7337 28.3464 58.2927 28.1364C57.8516 27.9159 57.4999 27.6272 57.2374 27.2701C56.9853 26.9026 56.8593 26.4931 56.8593 26.0416C56.8593 25.3065 57.1534 24.7238 57.7414 24.2932C58.3399 23.8522 59.1275 23.5582 60.104 23.4112L62.2619 23.0962V22.7654C62.2619 22.3244 62.1516 21.9831 61.9311 21.7416C61.7106 21.5001 61.3326 21.3793 60.7971 21.3793C60.419 21.3793 60.1093 21.4581 59.8678 21.6156C59.6367 21.7626 59.4635 21.9621 59.348 22.2141C59.264 22.3506 59.1432 22.4189 58.9857 22.4189H57.7414C57.6259 22.4189 57.5366 22.3874 57.4736 22.3244C57.4211 22.2614 57.3949 22.1774 57.3949 22.0724C57.4054 21.9044 57.4736 21.6996 57.5996 21.4581C57.7256 21.2166 57.9251 20.9856 58.1982 20.765C58.4712 20.534 58.8229 20.3398 59.2535 20.1823C59.684 20.0248 60.2038 19.946 60.8128 19.946C61.4743 19.946 62.0309 20.03 62.4824 20.198C62.9444 20.3555 63.3119 20.5708 63.585 20.8438C63.858 21.1168 64.0575 21.4371 64.1835 21.8046C64.3095 22.1721 64.3725 22.5606 64.3725 22.9702V27.9159C64.3725 28.0209 64.3357 28.1102 64.2622 28.1837C64.1887 28.2572 64.0995 28.2939 63.9945 28.2939H62.7187C62.6032 28.2939 62.5086 28.2572 62.4351 28.1837C62.3721 28.1102 62.3406 28.0209 62.3406 27.9159V27.3016C62.2041 27.5012 62.0204 27.6902 61.7894 27.8687C61.5583 28.0367 61.2748 28.1784 60.9388 28.2939C60.6133 28.399 60.2248 28.4515 59.7732 28.4515ZM60.3088 26.9551C60.6763 26.9551 61.0071 26.8764 61.3011 26.7189C61.6056 26.5614 61.8419 26.3198 62.0099 25.9943C62.1884 25.6583 62.2776 25.2383 62.2776 24.7343V24.4035L60.7025 24.6555C60.083 24.75 59.621 24.9023 59.3165 25.1123C59.012 25.3223 58.8597 25.5795 58.8597 25.8841C58.8597 26.1151 58.928 26.3146 59.0645 26.4826C59.2115 26.6401 59.3952 26.7609 59.6157 26.8449C59.8363 26.9184 60.0673 26.9551 60.3088 26.9551ZM66.7712 28.2939C66.6662 28.2939 66.5769 28.2572 66.5034 28.1837C66.4299 28.1102 66.3932 28.0209 66.3932 27.9159V20.4815C66.3932 20.3765 66.4299 20.2873 66.5034 20.2138C66.5769 20.1403 66.6662 20.1035 66.7712 20.1035H67.9997C68.1047 20.1035 68.194 20.1403 68.2675 20.2138C68.341 20.2873 68.3778 20.3765 68.3778 20.4815V21.0171C68.5983 20.723 68.8923 20.4763 69.2598 20.2768C69.6378 20.0668 70.0841 19.9565 70.5986 19.946C71.7957 19.925 72.6305 20.3923 73.103 21.3478C73.3445 20.9278 73.6911 20.5918 74.1426 20.3398C74.6046 20.0773 75.1139 19.946 75.6704 19.946C76.2164 19.946 76.71 20.072 77.151 20.324C77.6025 20.576 77.9543 20.9593 78.2063 21.4738C78.4688 21.9779 78.6001 22.6184 78.6001 23.3954V27.9159C78.6001 28.0209 78.5633 28.1102 78.4898 28.1837C78.4163 28.2572 78.327 28.2939 78.222 28.2939H76.9305C76.8255 28.2939 76.7362 28.2572 76.6627 28.1837C76.5892 28.1102 76.5525 28.0209 76.5525 27.9159V23.5214C76.5525 23.0489 76.4842 22.6761 76.3477 22.4031C76.2112 22.1196 76.0274 21.9201 75.7964 21.8046C75.5654 21.6891 75.3081 21.6313 75.0246 21.6313C74.7936 21.6313 74.5626 21.6891 74.3316 21.8046C74.1006 21.9201 73.9116 22.1196 73.7646 22.4031C73.6175 22.6761 73.544 23.0489 73.544 23.5214V27.9159C73.544 28.0209 73.5073 28.1102 73.4338 28.1837C73.3603 28.2572 73.271 28.2939 73.166 28.2939H71.8745C71.7589 28.2939 71.6644 28.2572 71.5909 28.1837C71.5279 28.1102 71.4964 28.0209 71.4964 27.9159V23.5214C71.4964 23.0489 71.4229 22.6761 71.2759 22.4031C71.1289 22.1196 70.9399 21.9201 70.7089 21.8046C70.4779 21.6891 70.2311 21.6313 69.9686 21.6313C69.7271 21.6313 69.4908 21.6943 69.2598 21.8203C69.0288 21.9359 68.8398 22.1301 68.6928 22.4031C68.5458 22.6761 68.4723 23.0489 68.4723 23.5214V27.9159C68.4723 28.0209 68.4355 28.1102 68.362 28.1837C68.2885 28.2572 68.1993 28.2939 68.0942 28.2939H66.7712ZM84.134 28.4515C82.9685 28.4515 82.0444 28.1154 81.3619 27.4434C80.6793 26.7714 80.3118 25.8158 80.2593 24.5767C80.2488 24.4717 80.2436 24.3405 80.2436 24.183C80.2436 24.015 80.2488 23.8837 80.2593 23.7892C80.3013 23.0017 80.4798 22.3191 80.7948 21.7416C81.1204 21.1641 81.5666 20.723 82.1337 20.4185C82.7007 20.1035 83.3675 19.946 84.134 19.946C84.9846 19.946 85.6986 20.1245 86.2761 20.4815C86.8537 20.828 87.2894 21.3163 87.5835 21.9464C87.8775 22.5659 88.0245 23.2852 88.0245 24.1042V24.435C88.0245 24.54 87.9877 24.6292 87.9142 24.7028C87.8407 24.7763 87.7462 24.813 87.6307 24.813H82.4014C82.4014 24.813 82.4014 24.8288 82.4014 24.8603C82.4014 24.8918 82.4014 24.918 82.4014 24.939C82.4119 25.3065 82.4802 25.6478 82.6062 25.9628C82.7427 26.2673 82.937 26.5141 83.189 26.7031C83.4515 26.8921 83.7613 26.9866 84.1183 26.9866C84.4123 26.9866 84.6591 26.9446 84.8586 26.8606C85.0581 26.7661 85.2208 26.6611 85.3468 26.5456C85.4728 26.4301 85.5621 26.3356 85.6146 26.2621C85.7091 26.1361 85.7826 26.0626 85.8351 26.0416C85.8981 26.0101 85.9874 25.9943 86.1029 25.9943H87.4575C87.5625 25.9943 87.6465 26.0258 87.7095 26.0888C87.783 26.1518 87.8145 26.2306 87.804 26.3251C87.7935 26.4931 87.7042 26.6979 87.5362 26.9394C87.3787 27.1809 87.1477 27.4171 86.8432 27.6482C86.5387 27.8792 86.1554 28.0734 85.6934 28.2309C85.2418 28.3779 84.7221 28.4515 84.134 28.4515ZM82.4014 23.4899H85.8824V23.4427C85.8824 23.0332 85.8141 22.6761 85.6776 22.3716C85.5411 22.0671 85.3416 21.8256 85.0791 21.6471C84.8166 21.4686 84.5015 21.3793 84.134 21.3793C83.7665 21.3793 83.4515 21.4686 83.189 21.6471C82.9265 21.8256 82.727 22.0671 82.5904 22.3716C82.4644 22.6761 82.4014 23.0332 82.4014 23.4427V23.4899ZM90.0744 28.2939C89.9694 28.2939 89.8802 28.2572 89.8067 28.1837C89.7332 28.1102 89.6964 28.0209 89.6964 27.9159V20.4973C89.6964 20.3818 89.7332 20.2873 89.8067 20.2138C89.8802 20.1403 89.9694 20.1035 90.0744 20.1035H91.3503C91.4553 20.1035 91.5445 20.1403 91.618 20.2138C91.702 20.2873 91.744 20.3818 91.744 20.4973V21.1431C91.9855 20.807 92.2953 20.5498 92.6733 20.3713C93.0618 20.1928 93.5081 20.1035 94.0121 20.1035H94.6579C94.7734 20.1035 94.8627 20.1403 94.9257 20.2138C94.9992 20.2873 95.036 20.3765 95.036 20.4815V21.6156C95.036 21.7206 94.9992 21.8098 94.9257 21.8834C94.8627 21.9569 94.7734 21.9936 94.6579 21.9936H93.4294C92.9253 21.9936 92.5316 22.1354 92.248 22.4189C91.975 22.7024 91.8385 23.0909 91.8385 23.5844V27.9159C91.8385 28.0209 91.8018 28.1102 91.7283 28.1837C91.6548 28.2572 91.5603 28.2939 91.4448 28.2939H90.0744ZM98.5197 28.4515C97.9737 28.4515 97.4802 28.3464 97.0391 28.1364C96.5981 27.9159 96.2463 27.6272 95.9838 27.2701C95.7318 26.9026 95.6058 26.4931 95.6058 26.0416C95.6058 25.3065 95.8998 24.7238 96.4879 24.2932C97.0864 23.8522 97.8739 23.5582 98.8505 23.4112L101.008 23.0962V22.7654C101.008 22.3244 100.898 21.9831 100.678 21.7416C100.457 21.5001 100.079 21.3793 99.5435 21.3793C99.1655 21.3793 98.8557 21.4581 98.6142 21.6156C98.3832 21.7626 98.21 21.9621 98.0944 22.2141C98.0104 22.3506 97.8897 22.4189 97.7322 22.4189H96.4879C96.3724 22.4189 96.2831 22.3874 96.2201 22.3244C96.1676 22.2614 96.1413 22.1774 96.1413 22.0724C96.1518 21.9044 96.2201 21.6996 96.3461 21.4581C96.4721 21.2166 96.6716 20.9856 96.9446 20.765C97.2176 20.534 97.5694 20.3398 97.9999 20.1823C98.4305 20.0248 98.9502 19.946 99.5593 19.946C100.221 19.946 100.777 20.03 101.229 20.198C101.691 20.3555 102.058 20.5708 102.331 20.8438C102.604 21.1168 102.804 21.4371 102.93 21.8046C103.056 22.1721 103.119 22.5606 103.119 22.9702V27.9159C103.119 28.0209 103.082 28.1102 103.009 28.1837C102.935 28.2572 102.846 28.2939 102.741 28.2939H101.465C101.35 28.2939 101.255 28.2572 101.182 28.1837C101.119 28.1102 101.087 28.0209 101.087 27.9159V27.3016C100.951 27.5012 100.767 27.6902 100.536 27.8687C100.305 28.0367 100.021 28.1784 99.6853 28.2939C99.3598 28.399 98.9712 28.4515 98.5197 28.4515ZM99.0552 26.9551C99.4228 26.9551 99.7535 26.8764 100.048 26.7189C100.352 26.5614 100.588 26.3198 100.756 25.9943C100.935 25.6583 101.024 25.2383 101.024 24.7343V24.4035L99.449 24.6555C98.8295 24.75 98.3675 24.9023 98.0629 25.1123C97.7584 25.3223 97.6062 25.5795 97.6062 25.8841C97.6062 26.1151 97.6744 26.3146 97.8109 26.4826C97.9579 26.6401 98.1417 26.7609 98.3622 26.8449C98.5827 26.9184 98.8137 26.9551 99.0552 26.9551Z" fill="#1D4007"/>
<defs>
<clipPath id="clip0_869_3712">
<rect width="16.7106" height="16.7106" fill="white" transform="translate(14.7371 14.1406)"/>
</clipPath>
</defs>
</svg>
