<svg width="446" height="69" viewBox="0 0 446 69" fill="none" xmlns="http://www.w3.org/2000/svg">
<rect width="445.604" height="69" rx="12" fill="#F4F4F4"/>
<path d="M55.7023 30.1975L47.1017 21.5969M22.375 54.9242L29.6519 54.1156C30.5409 54.0168 30.9855 53.9675 31.401 53.8329C31.7696 53.7136 32.1204 53.545 32.4439 53.3317C32.8085 53.0913 33.1248 52.775 33.7573 52.1425L62.1528 23.7471C64.5277 21.3721 64.5277 17.5215 62.1528 15.1465C59.7778 12.7715 55.9272 12.7715 53.5522 15.1465L25.1567 43.5419C24.5242 44.1744 24.2079 44.4907 23.9675 44.8553C23.7542 45.1788 23.5856 45.5296 23.4662 45.8982C23.3317 46.3137 23.2823 46.7582 23.1835 47.6473L22.375 54.9242Z" stroke="#FF8845" stroke-width="3.09621" stroke-linecap="round" stroke-linejoin="round"/>
<path d="M81.9873 47V20.9722H89.2334C96.8555 20.9722 102.102 26.7827 102.102 33.9775C102.102 41.2065 96.8555 47 89.2334 47H81.9873ZM86.311 42.9155H89.0967C94.4629 42.9155 97.6758 38.6943 97.6758 33.9946C97.6758 29.2949 94.4629 25.0225 89.0967 25.0225H86.311V42.9155ZM113.74 47.3418C108.938 47.3418 104.905 43.5649 104.905 37.9766C104.905 32.4907 108.784 28.6626 113.757 28.6626C118.372 28.6626 121.892 32.0464 121.892 37.4639C121.892 37.9766 121.841 38.5405 121.79 38.8823H109.058C109.314 42.061 111.57 43.7188 113.843 43.7188C115.979 43.7188 117.483 42.5054 118.115 40.728L121.636 42.0269C120.73 45.1714 117.671 47.3418 113.74 47.3418ZM109.143 35.96H117.825C117.5 33.2427 115.706 31.8926 113.706 31.8926C111.587 31.8926 109.622 33.2939 109.143 35.96ZM132.009 47.3418C127.703 47.3418 124.541 44.6587 124.353 41.4287L128.198 40.8818C128.523 42.9497 130.164 44.1802 132.146 44.1802C133.958 44.1802 135.051 43.1719 135.051 41.9072C135.051 40.728 134.316 39.9761 132.744 39.6855L129.753 39.0874C126.711 38.5063 124.849 36.8486 124.849 34.1484C124.849 31.0552 128.062 28.6626 131.992 28.6626C135.701 28.6626 138.879 30.8159 139.187 34.2852L135.479 34.9517C135.273 33.106 133.821 31.7559 131.873 31.7559C130.061 31.7559 129.001 32.8325 129.001 33.9434C129.001 35.0542 129.668 35.6865 131.343 35.9941L134.624 36.5923C137.427 37.0879 139.29 38.626 139.29 41.5142C139.29 44.7783 136.538 47.3418 132.009 47.3418ZM143.34 47V29.1069H147.612V47H143.34ZM143.186 25.689V20.9722H147.783V25.689H143.186ZM160.361 54.605C155.422 54.605 152.244 51.6826 152.039 47.9399L156.123 47.4785C156.345 49.3242 157.781 51.0845 160.293 51.0845C162.617 51.0845 164.583 49.9565 164.583 46.2822V43.6675C163.352 45.2056 161.575 46.231 159.25 46.231C155.046 46.231 151.628 43.1035 151.628 37.4639C151.628 31.8242 155.046 28.6455 159.25 28.6455C161.814 28.6455 163.711 29.9102 164.941 31.7388V29.1069H168.855V46.5557C168.855 52.144 165.181 54.605 160.361 54.605ZM155.969 37.481C155.969 40.335 157.507 42.5737 160.259 42.5737C163.01 42.5737 164.583 40.4546 164.583 37.481C164.583 34.4902 163.01 32.3711 160.259 32.3711C157.507 32.3711 155.969 34.627 155.969 37.481ZM174.084 47V29.1069H178.015V31.4995H178.049C179.246 29.6367 181.108 28.6626 183.245 28.6626C186.628 28.6626 189.534 30.8843 189.534 35.5327V47H185.261V36.5068C185.261 34.0459 184.048 32.5762 181.997 32.5762C180.151 32.5762 178.545 33.9434 178.357 36.2505V47H174.084ZM205.171 47V20.9722H215.288C220.022 20.9722 222.842 24.3901 222.842 28.1841C222.842 31.8926 220.244 35.2764 215.459 35.2764H214.434L224.397 47H218.928L209.683 35.2764H209.495V47H205.171ZM209.495 31.9951H214.314C217.014 31.9951 218.381 30.3716 218.381 28.3379C218.381 26.3042 216.963 24.8003 214.382 24.8003H209.495V31.9951ZM234.668 47.3418C229.866 47.3418 225.833 43.5649 225.833 37.9766C225.833 32.4907 229.712 28.6626 234.685 28.6626C239.299 28.6626 242.82 32.0464 242.82 37.4639C242.82 37.9766 242.769 38.5405 242.717 38.8823H229.985C230.242 42.061 232.498 43.7188 234.771 43.7188C236.907 43.7188 238.411 42.5054 239.043 40.728L242.563 42.0269C241.658 45.1714 238.599 47.3418 234.668 47.3418ZM230.071 35.96H238.752C238.428 33.2427 236.633 31.8926 234.634 31.8926C232.515 31.8926 230.549 33.2939 230.071 35.96ZM262.781 53.9214H258.508V44.5562H258.457C257.209 46.1797 255.415 47.2563 253.108 47.2563C248.904 47.2563 245.486 43.8555 245.486 37.9766C245.486 32.0977 248.904 28.6455 253.108 28.6455C255.654 28.6455 257.568 29.9614 258.816 31.8926H258.867V29.1069H262.781V53.9214ZM249.827 37.9766C249.827 41.104 251.399 43.582 254.116 43.582C256.919 43.582 258.508 41.104 258.508 37.9766C258.508 34.8833 256.919 32.4053 254.116 32.4053C251.382 32.4053 249.827 34.8833 249.827 37.9766ZM273.872 47.2905C270.505 47.2905 267.6 45.0688 267.6 40.4204V29.1069H271.873V39.4634C271.873 41.9072 273.052 43.394 275.085 43.394C277.068 43.394 278.777 41.856 278.777 39.2754V29.1069H283.066V47H279.119V44.4878C277.939 46.2993 276.077 47.2905 273.872 47.2905ZM288.262 47V29.1069H292.534V47H288.262ZM288.108 25.689V20.9722H292.705V25.689H288.108ZM297.764 47V29.1069H301.711V32.4224H301.746C302.617 30.1323 304.36 28.8848 306.667 28.8848C307.368 28.8848 307.881 29.0215 308.12 29.1753V33.3965C307.864 33.311 307.266 33.1743 306.548 33.1743C303.455 33.1743 302.036 35.3447 302.036 38.7285V47H297.764ZM318.34 47.3418C313.538 47.3418 309.504 43.5649 309.504 37.9766C309.504 32.4907 313.384 28.6626 318.357 28.6626C322.971 28.6626 326.492 32.0464 326.492 37.4639C326.492 37.9766 326.44 38.5405 326.389 38.8823H313.657C313.914 42.061 316.169 43.7188 318.442 43.7188C320.579 43.7188 322.083 42.5054 322.715 40.728L326.235 42.0269C325.33 45.1714 322.271 47.3418 318.34 47.3418ZM313.743 35.96H322.424C322.1 33.2427 320.305 31.8926 318.306 31.8926C316.187 31.8926 314.221 33.2939 313.743 35.96ZM330.32 47V29.1069H334.25V31.4995C335.413 29.6367 337.258 28.6626 339.395 28.6626C341.787 28.6626 343.872 29.7734 344.897 32.0806C346.042 29.8247 348.025 28.6626 350.383 28.6626C353.75 28.6626 356.553 30.8843 356.553 35.5327V47H352.28V36.5068C352.28 34.0459 351.067 32.5762 349.016 32.5762C347.051 32.5762 345.564 34.1143 345.564 36.6948V47H341.292V36.5068C341.292 34.0459 340.078 32.5762 338.044 32.5762C336.182 32.5762 334.763 33.9263 334.592 36.2163V47H330.32ZM368.755 47.3418C363.953 47.3418 359.919 43.5649 359.919 37.9766C359.919 32.4907 363.799 28.6626 368.772 28.6626C373.386 28.6626 376.907 32.0464 376.907 37.4639C376.907 37.9766 376.855 38.5405 376.804 38.8823H364.072C364.329 42.061 366.584 43.7188 368.857 43.7188C370.994 43.7188 372.498 42.5054 373.13 40.728L376.65 42.0269C375.745 45.1714 372.686 47.3418 368.755 47.3418ZM364.158 35.96H372.839C372.515 33.2427 370.72 31.8926 368.721 31.8926C366.602 31.8926 364.636 33.2939 364.158 35.96ZM380.735 47V29.1069H384.666V31.4995H384.7C385.896 29.6367 387.759 28.6626 389.895 28.6626C393.279 28.6626 396.184 30.8843 396.184 35.5327V47H391.912V36.5068C391.912 34.0459 390.698 32.5762 388.647 32.5762C386.802 32.5762 385.195 33.9434 385.007 36.2505V47H380.735ZM407.207 47.188C403.96 47.188 401.755 45.7354 401.755 42.3687V32.9009H398.97V29.1069H401.79V23.5527H406.028V29.1069H409.429V32.9009H406.028V41.5142C406.028 42.8813 406.882 43.4282 408.062 43.4282C408.54 43.4282 408.899 43.3599 409.138 43.3086V46.9316C408.813 47.0684 408.232 47.188 407.207 47.188ZM419.426 47.3418C415.12 47.3418 411.958 44.6587 411.77 41.4287L415.615 40.8818C415.94 42.9497 417.581 44.1802 419.563 44.1802C421.375 44.1802 422.468 43.1719 422.468 41.9072C422.468 40.728 421.733 39.9761 420.161 39.6855L417.17 39.0874C414.128 38.5063 412.266 36.8486 412.266 34.1484C412.266 31.0552 415.479 28.6626 419.409 28.6626C423.118 28.6626 426.296 30.8159 426.604 34.2852L422.896 34.9517C422.69 33.106 421.238 31.7559 419.29 31.7559C417.478 31.7559 416.418 32.8325 416.418 33.9434C416.418 35.0542 417.085 35.6865 418.76 35.9941L422.041 36.5923C424.844 37.0879 426.707 38.626 426.707 41.5142C426.707 44.7783 423.955 47.3418 419.426 47.3418Z" fill="black"/>
</svg>
