<svg width="116" height="104" viewBox="0 0 116 104" fill="none" xmlns="http://www.w3.org/2000/svg">
<g clip-path="url(#clip0_785_11013)">
<g filter="url(#filter0_dd_785_11013)">
<path d="M27.0835 20.619C30.1625 16.1118 36.3126 14.954 40.8199 18.0328L52.747 26.1804L32.3365 56.059L20.4094 47.9114C15.9024 44.8323 14.7444 38.6822 17.8232 34.1749L27.0835 20.619Z" fill="#EC6868" stroke="white" stroke-width="6.08715"/>
<rect x="25.4297" y="51.3384" width="36.1841" height="14.7514" transform="rotate(-55.6624 25.4297 51.3384)" fill="#D9D9D9" stroke="white" stroke-width="6.08715"/>
<path d="M80.3543 52.5877C82.297 49.7443 86.1774 49.0142 89.021 50.9567L90.5055 51.9708C91.6442 52.7487 92.4904 53.8807 92.9162 55.1869L92.9961 55.4509L96.3587 67.5522C96.8506 69.3231 96.5359 71.2211 95.4991 72.7388L91.257 78.9487C90.2849 80.3717 88.7707 81.3247 87.0783 81.5912L86.7381 81.6356L74.2425 82.9039C72.779 83.0525 71.3097 82.6792 70.095 81.8494L68.6105 80.8353C65.7668 78.8927 65.0361 75.0118 66.9787 72.1681L80.3543 52.5877Z" fill="#FFEFDB" stroke="white" stroke-width="6.08715"/>
<path d="M48.8773 28.3286C50.1096 26.5247 52.5715 26.0612 54.3754 27.2935L90.0584 51.669C92.4102 53.2759 92.3274 56.736 89.9842 58.2508L89.7508 58.3917L84.1326 61.5174L84.117 66.8311C84.1122 68.3501 83.2394 69.7224 81.8883 70.3776L81.6112 70.4993L76.667 72.4462L75.7984 78.8164C75.4004 81.7295 72.0757 83.206 69.6478 81.5477L33.9649 57.1721L33.7996 57.0522C32.1339 55.7857 31.7361 53.4214 32.9297 51.674L48.8773 28.3286Z" fill="#FFD966" stroke="white" stroke-width="6.08715"/>
<path d="M90.4247 67.7548L90.5586 67.5743C91.2564 66.6988 92.3854 66.2719 93.4977 66.4799C94.684 66.7018 95.6275 67.6037 95.9022 68.7789L97.5906 76.0076C97.7847 76.8382 97.6216 77.7124 97.1406 78.4168C96.6594 79.1212 95.904 79.5916 95.0595 79.7129L87.7122 80.7681C86.5175 80.9396 85.3339 80.3895 84.6957 79.365C84.0576 78.3405 84.085 77.0354 84.7658 76.0387L90.4247 67.7548Z" fill="#D9D9D9" stroke="white" stroke-width="6.08715" stroke-linejoin="round"/>
<line x1="71.8706" y1="72.0183" x2="39.1113" y2="49.6399" stroke="white" stroke-width="6.08715"/>
<line x1="79.3311" y1="61.0986" x2="46.5718" y2="38.7203" stroke="white" stroke-width="6.08715"/>
</g>
<path d="M20.9164 36.288L30.1767 22.732C32.0888 19.9331 35.9079 19.2142 38.7069 21.126L47.5407 27.1606L31.3563 50.8527L22.5224 44.8181C19.7237 42.906 19.0047 39.087 20.9164 36.288Z" fill="#EC6868" stroke="#4A4444" stroke-width="1.40473"/>
<rect x="30.6358" y="50.3582" width="28.6922" height="7.25953" transform="rotate(-55.6624 30.6358 50.3582)" fill="#D9D9D9" stroke="#4A4444" stroke-width="1.40473"/>
<path d="M70.0719 74.2811L83.4476 54.7007C84.2233 53.5656 85.7727 53.2744 86.908 54.0499L88.3925 55.064C88.8167 55.3539 89.1394 55.7667 89.3188 56.2444L89.3869 56.4529L92.7489 68.5551C92.9453 69.2621 92.8198 70.0198 92.4059 70.6257L88.1638 76.8356C87.7756 77.4038 87.1712 77.7847 86.4955 77.8911L86.3596 77.9082L73.864 79.1766C73.2797 79.2359 72.693 79.0874 72.208 78.7562L70.7235 77.7421C69.5881 76.9664 69.2963 75.4165 70.0719 74.2811Z" fill="#FFEFDB" stroke="#4A4444" stroke-width="1.40473"/>
<path d="M36.023 53.7871L51.9706 30.4417C52.0359 30.3461 52.1668 30.3214 52.2624 30.3868L87.9453 54.7623C88.0575 54.8392 88.0652 54.9961 87.9744 55.085L87.9288 55.1188L81.2206 58.8517C80.7739 59.1003 80.4755 59.5432 80.4067 60.0414L80.3913 60.2579L80.371 66.8197C80.3707 66.9055 80.3181 66.9825 80.2383 67.014L74.1331 69.4191C73.6576 69.6064 73.3025 70.0057 73.1684 70.4903L73.1248 70.703L72.087 78.3094C72.0659 78.4637 71.8895 78.5421 71.7609 78.4544L36.0779 54.0789C35.9823 54.0136 35.9577 53.8827 36.023 53.7871Z" fill="#FFD966" stroke="#4A4444" stroke-width="1.40473"/>
<path d="M94.6273 76.7004L87.2793 77.7557L92.9382 69.4718L94.6273 76.7004Z" fill="#D9D9D9" stroke="#4A4444" stroke-width="1.40473" stroke-linejoin="round"/>
<line x1="73.1912" y1="70.0851" x2="40.4319" y2="47.7067" stroke="#4A4444" stroke-width="1.40473"/>
<line x1="80.6517" y1="59.1654" x2="47.8924" y2="36.787" stroke="#4A4444" stroke-width="1.40473"/>
</g>
<defs>
<filter id="filter0_dd_785_11013" x="7.39091" y="10.4096" width="97.1162" height="82.172" filterUnits="userSpaceOnUse" color-interpolation-filters="sRGB">
<feFlood flood-opacity="0" result="BackgroundImageFix"/>
<feColorMatrix in="SourceAlpha" type="matrix" values="0 0 0 0 0 0 0 0 0 0 0 0 0 0 0 0 0 0 127 0" result="hardAlpha"/>
<feOffset dx="0.468242" dy="0.468242"/>
<feGaussianBlur stdDeviation="0.632127"/>
<feComposite in2="hardAlpha" operator="out"/>
<feColorMatrix type="matrix" values="0 0 0 0 0 0 0 0 0 0 0 0 0 0 0 0 0 0 0.12 0"/>
<feBlend mode="normal" in2="BackgroundImageFix" result="effect1_dropShadow_785_11013"/>
<feColorMatrix in="SourceAlpha" type="matrix" values="0 0 0 0 0 0 0 0 0 0 0 0 0 0 0 0 0 0 127 0" result="hardAlpha"/>
<feOffset dx="-0.936485" dy="1.87297"/>
<feGaussianBlur stdDeviation="2.36462"/>
<feComposite in2="hardAlpha" operator="out"/>
<feColorMatrix type="matrix" values="0 0 0 0 0 0 0 0 0 0 0 0 0 0 0 0 0 0 0.12 0"/>
<feBlend mode="normal" in2="effect1_dropShadow_785_11013" result="effect2_dropShadow_785_11013"/>
<feBlend mode="normal" in="SourceGraphic" in2="effect2_dropShadow_785_11013" result="shape"/>
</filter>
<clipPath id="clip0_785_11013">
<rect width="116" height="104" fill="white"/>
</clipPath>
</defs>
</svg>
