<svg width="424" height="274" viewBox="0 0 424 274" fill="none" xmlns="http://www.w3.org/2000/svg">
<path d="M8.60501 25.1619C6.86991 25.1619 5.42977 24.919 4.28461 24.4331C3.13944 23.93 2.27189 23.2793 1.68196 22.4811C1.09202 21.683 0.779705 20.8328 0.745003 19.9305C0.745003 19.7917 0.797056 19.6703 0.901162 19.5662C1.02262 19.4447 1.16143 19.384 1.31759 19.384H4.59693C4.83984 19.384 5.02203 19.4274 5.14348 19.5141C5.28229 19.6009 5.40375 19.7137 5.50785 19.8525C5.64666 20.1127 5.83752 20.3643 6.08044 20.6072C6.3407 20.8502 6.67037 21.0497 7.06945 21.2058C7.48587 21.3447 7.99772 21.4141 8.60501 21.4141C9.61137 21.4141 10.3661 21.2579 10.8693 20.9456C11.3898 20.6333 11.6501 20.2082 11.6501 19.6703C11.6501 19.2886 11.5113 18.9762 11.2337 18.7333C10.9561 18.4731 10.5049 18.2475 9.88031 18.0566C9.27302 17.8484 8.45753 17.6402 7.43382 17.432C6.11514 17.1544 4.98732 16.7987 4.05037 16.3649C3.13077 15.9138 2.42805 15.3325 1.94222 14.6211C1.45639 13.8924 1.21348 12.9901 1.21348 11.9144C1.21348 10.856 1.50845 9.91034 2.09838 9.07749C2.70567 8.24465 3.54719 7.59398 4.62295 7.12551C5.69872 6.65703 6.97401 6.42279 8.44885 6.42279C9.64607 6.42279 10.6958 6.57895 11.5981 6.89127C12.5177 7.20358 13.2898 7.62001 13.9144 8.14054C14.5391 8.66107 15.0075 9.2163 15.3198 9.80624C15.6495 10.3788 15.823 10.9427 15.8404 11.498C15.8404 11.6368 15.7883 11.7669 15.6842 11.8884C15.5801 11.9925 15.45 12.0445 15.2938 12.0445H11.8583C11.6675 12.0445 11.5026 12.0098 11.3638 11.9404C11.225 11.871 11.1036 11.7582 10.9994 11.6021C10.8953 11.2203 10.6177 10.8907 10.1666 10.6131C9.73282 10.3181 9.16024 10.1706 8.44885 10.1706C7.68541 10.1706 7.0868 10.3094 6.65302 10.587C6.2366 10.8473 6.02838 11.255 6.02838 11.8103C6.02838 12.1573 6.14117 12.4609 6.36673 12.7212C6.60964 12.9815 7.00004 13.207 7.53792 13.3979C8.09315 13.5888 8.84792 13.7883 9.80223 13.9965C11.3812 14.2915 12.6565 14.6645 13.6281 15.1156C14.5998 15.5494 15.3112 16.122 15.7623 16.8334C16.2134 17.5274 16.439 18.4037 16.439 19.4621C16.439 20.6419 16.1006 21.6656 15.424 22.5332C14.7646 23.3834 13.845 24.0341 12.6651 24.4852C11.4853 24.9363 10.1319 25.1619 8.60501 25.1619ZM26.4881 25.1619C24.8918 25.1619 23.5037 24.9016 22.3238 24.3811C21.144 23.8606 20.2244 23.0798 19.565 22.0387C18.9057 20.9803 18.5413 19.6616 18.4719 18.0827C18.4546 17.3366 18.4459 16.5905 18.4459 15.8444C18.4459 15.0983 18.4546 14.3435 18.4719 13.5801C18.5413 12.0185 18.9057 10.7085 19.565 9.65008C20.2417 8.57431 21.17 7.76749 22.3499 7.22961C23.5297 6.69173 24.9091 6.42279 26.4881 6.42279C28.0497 6.42279 29.4204 6.69173 30.6003 7.22961C31.7975 7.76749 32.7344 8.57431 33.4111 9.65008C34.0878 10.7085 34.4522 12.0185 34.5042 13.5801C34.5389 14.3435 34.5563 15.0983 34.5563 15.8444C34.5563 16.5905 34.5389 17.3366 34.5042 18.0827C34.4348 19.6616 34.0705 20.9803 33.4111 22.0387C32.7518 23.0798 31.8322 23.8606 30.6523 24.3811C29.4724 24.9016 28.0844 25.1619 26.4881 25.1619ZM26.4881 21.4141C27.4077 21.4141 28.1538 21.1364 28.7263 20.5812C29.3163 20.026 29.6286 19.1411 29.6633 17.9265C29.698 17.1631 29.7154 16.443 29.7154 15.7663C29.7154 15.0896 29.698 14.3869 29.6633 13.6582C29.6286 12.8427 29.4724 12.1833 29.1948 11.6801C28.9346 11.1596 28.5702 10.7779 28.1017 10.535C27.6332 10.2921 27.0954 10.1706 26.4881 10.1706C25.8981 10.1706 25.3689 10.2921 24.9004 10.535C24.432 10.7779 24.0589 11.1596 23.7813 11.6801C23.5037 12.1833 23.3475 12.8427 23.3128 13.6582C23.2955 14.3869 23.2868 15.0896 23.2868 15.7663C23.2868 16.443 23.2955 17.1631 23.3128 17.9265C23.3649 19.1411 23.6772 20.026 24.2498 20.5812C24.8224 21.1364 25.5685 21.4141 26.4881 21.4141ZM45.0427 25.1619C43.3944 25.1619 41.9803 24.8929 40.8004 24.3551C39.6379 23.8172 38.727 23.0277 38.0676 21.9866C37.4256 20.9456 37.0699 19.6529 37.0005 18.1087C36.9832 17.3973 36.9745 16.6339 36.9745 15.8184C36.9745 15.0029 36.9832 14.2221 37.0005 13.476C37.0699 11.9664 37.4343 10.6911 38.0937 9.65008C38.753 8.59167 39.6726 7.79352 40.8525 7.25564C42.0323 6.70041 43.4291 6.42279 45.0427 6.42279C46.1879 6.42279 47.2463 6.57027 48.218 6.86524C49.1896 7.14286 50.0398 7.55928 50.7686 8.11451C51.4973 8.65239 52.0612 9.31173 52.4603 10.0925C52.8767 10.856 53.0936 11.7235 53.1109 12.6952C53.1283 12.8513 53.0762 12.9815 52.9548 13.0856C52.8507 13.1897 52.7206 13.2417 52.5644 13.2417H49.0508C48.8252 13.2417 48.6517 13.1984 48.5303 13.1116C48.4088 13.0075 48.3047 12.8253 48.218 12.565C47.9751 11.6454 47.576 11.0208 47.0207 10.6911C46.4829 10.3441 45.8148 10.1706 45.0167 10.1706C44.0624 10.1706 43.3076 10.4395 42.7524 10.9774C42.1972 11.498 41.8935 12.3742 41.8415 13.6061C41.7894 15.0289 41.7894 16.4864 41.8415 17.9786C41.8935 19.2105 42.1972 20.0954 42.7524 20.6333C43.3076 21.1538 44.0624 21.4141 45.0167 21.4141C45.8148 21.4141 46.4915 21.2405 47.0468 20.8935C47.602 20.5465 47.9924 19.9219 48.218 19.0196C48.2874 18.7594 48.3828 18.5858 48.5043 18.4991C48.6431 18.395 48.8252 18.3429 49.0508 18.3429H52.5644C52.7206 18.3429 52.8507 18.395 52.9548 18.4991C53.0762 18.6032 53.1283 18.7333 53.1109 18.8895C53.0936 19.8611 52.8767 20.7374 52.4603 21.5182C52.0612 22.2816 51.4973 22.9409 50.7686 23.4962C50.0398 24.0341 49.1896 24.4505 48.218 24.7455C47.2463 25.0231 46.1879 25.1619 45.0427 25.1619ZM56.4983 24.9016C56.3074 24.9016 56.1512 24.8409 56.0298 24.7194C55.9083 24.598 55.8476 24.4418 55.8476 24.2509V7.33372C55.8476 7.14286 55.9083 6.9867 56.0298 6.86524C56.1512 6.74378 56.3074 6.68305 56.4983 6.68305H59.9858C60.1767 6.68305 60.3328 6.74378 60.4543 6.86524C60.5757 6.9867 60.6365 7.14286 60.6365 7.33372V24.2509C60.6365 24.4418 60.5757 24.598 60.4543 24.7194C60.3328 24.8409 60.1767 24.9016 59.9858 24.9016H56.4983ZM64.9365 24.9016C64.7457 24.9016 64.5895 24.8409 64.4681 24.7194C64.3466 24.598 64.2859 24.4418 64.2859 24.2509V7.33372C64.2859 7.14286 64.3466 6.9867 64.4681 6.86524C64.5895 6.74378 64.7457 6.68305 64.9365 6.68305H77.0909C77.2818 6.68305 77.4379 6.74378 77.5594 6.86524C77.6809 6.9867 77.7416 7.14286 77.7416 7.33372V9.78021C77.7416 9.97107 77.6809 10.1272 77.5594 10.2487C77.4379 10.3701 77.2818 10.4309 77.0909 10.4309H68.7885V13.9445H76.5183C76.7092 13.9445 76.8654 14.0139 76.9868 14.1527C77.1083 14.2741 77.169 14.4303 77.169 14.6211V16.8854C77.169 17.059 77.1083 17.2151 76.9868 17.3539C76.8654 17.4754 76.7092 17.5361 76.5183 17.5361H68.7885V21.1538H77.2991C77.49 21.1538 77.6462 21.2145 77.7676 21.336C77.8891 21.4574 77.9498 21.6136 77.9498 21.8045V24.2509C77.9498 24.4418 77.8891 24.598 77.7676 24.7194C77.6462 24.8409 77.49 24.9016 77.2991 24.9016H64.9365ZM85.567 24.9016C85.3762 24.9016 85.22 24.8409 85.0985 24.7194C84.9771 24.598 84.9164 24.4418 84.9164 24.2509V10.7692H80.2836C80.0928 10.7692 79.9366 10.7085 79.8152 10.587C79.6937 10.4482 79.633 10.2921 79.633 10.1186V7.33372C79.633 7.14286 79.6937 6.9867 79.8152 6.86524C79.9366 6.74378 80.0928 6.68305 80.2836 6.68305H94.2859C94.4768 6.68305 94.6329 6.74378 94.7544 6.86524C94.8758 6.9867 94.9366 7.14286 94.9366 7.33372V10.1186C94.9366 10.2921 94.8758 10.4482 94.7544 10.587C94.6329 10.7085 94.4768 10.7692 94.2859 10.7692H89.6532V24.2509C89.6532 24.4418 89.5925 24.598 89.471 24.7194C89.3495 24.8409 89.1934 24.9016 89.0025 24.9016H85.567ZM97.9526 24.9016C97.7617 24.9016 97.6056 24.8409 97.4841 24.7194C97.3627 24.598 97.3019 24.4418 97.3019 24.2509V7.33372C97.3019 7.14286 97.3627 6.9867 97.4841 6.86524C97.6056 6.74378 97.7617 6.68305 97.9526 6.68305H101.44C101.631 6.68305 101.787 6.74378 101.909 6.86524C102.03 6.9867 102.091 7.14286 102.091 7.33372V24.2509C102.091 24.4418 102.03 24.598 101.909 24.7194C101.787 24.8409 101.631 24.9016 101.44 24.9016H97.9526ZM106.391 24.9016C106.2 24.9016 106.044 24.8409 105.922 24.7194C105.801 24.598 105.74 24.4418 105.74 24.2509V7.33372C105.74 7.14286 105.801 6.9867 105.922 6.86524C106.044 6.74378 106.2 6.68305 106.391 6.68305H118.545C118.736 6.68305 118.892 6.74378 119.014 6.86524C119.135 6.9867 119.196 7.14286 119.196 7.33372V9.78021C119.196 9.97107 119.135 10.1272 119.014 10.2487C118.892 10.3701 118.736 10.4309 118.545 10.4309H110.243V13.9445H117.973C118.164 13.9445 118.32 14.0139 118.441 14.1527C118.563 14.2741 118.623 14.4303 118.623 14.6211V16.8854C118.623 17.059 118.563 17.2151 118.441 17.3539C118.32 17.4754 118.164 17.5361 117.973 17.5361H110.243V21.1538H118.753C118.944 21.1538 119.1 21.2145 119.222 21.336C119.343 21.4574 119.404 21.6136 119.404 21.8045V24.2509C119.404 24.4418 119.343 24.598 119.222 24.7194C119.1 24.8409 118.944 24.9016 118.753 24.9016H106.391ZM129.156 25.1619C127.42 25.1619 125.98 24.919 124.835 24.4331C123.69 23.93 122.822 23.2793 122.232 22.4811C121.643 21.683 121.33 20.8328 121.296 19.9305C121.296 19.7917 121.348 19.6703 121.452 19.5662C121.573 19.4447 121.712 19.384 121.868 19.384H125.147C125.39 19.384 125.573 19.4274 125.694 19.5141C125.833 19.6009 125.954 19.7137 126.058 19.8525C126.197 20.1127 126.388 20.3643 126.631 20.6072C126.891 20.8502 127.221 21.0497 127.62 21.2058C128.036 21.3447 128.548 21.4141 129.156 21.4141C130.162 21.4141 130.917 21.2579 131.42 20.9456C131.94 20.6333 132.201 20.2082 132.201 19.6703C132.201 19.2886 132.062 18.9762 131.784 18.7333C131.507 18.4731 131.055 18.2475 130.431 18.0566C129.824 17.8484 129.008 17.6402 127.984 17.432C126.666 17.1544 125.538 16.7987 124.601 16.3649C123.681 15.9138 122.979 15.3325 122.493 14.6211C122.007 13.8924 121.764 12.9901 121.764 11.9144C121.764 10.856 122.059 9.91034 122.649 9.07749C123.256 8.24465 124.098 7.59398 125.173 7.12551C126.249 6.65703 127.525 6.42279 128.999 6.42279C130.197 6.42279 131.246 6.57895 132.149 6.89127C133.068 7.20358 133.84 7.62001 134.465 8.14054C135.09 8.66107 135.558 9.2163 135.87 9.80624C136.2 10.3788 136.374 10.9427 136.391 11.498C136.391 11.6368 136.339 11.7669 136.235 11.8884C136.131 11.9925 136 12.0445 135.844 12.0445H132.409C132.218 12.0445 132.053 12.0098 131.914 11.9404C131.776 11.871 131.654 11.7582 131.55 11.6021C131.446 11.2203 131.168 10.8907 130.717 10.6131C130.283 10.3181 129.711 10.1706 128.999 10.1706C128.236 10.1706 127.637 10.3094 127.204 10.587C126.787 10.8473 126.579 11.255 126.579 11.8103C126.579 12.1573 126.692 12.4609 126.917 12.7212C127.16 12.9815 127.551 13.207 128.088 13.3979C128.644 13.5888 129.398 13.7883 130.353 13.9965C131.932 14.2915 133.207 14.6645 134.179 15.1156C135.15 15.5494 135.862 16.122 136.313 16.8334C136.764 17.5274 136.99 18.4037 136.99 19.4621C136.99 20.6419 136.651 21.6656 135.974 22.5332C135.315 23.3834 134.396 24.0341 133.216 24.4852C132.036 24.9363 130.682 25.1619 129.156 25.1619ZM147.873 24.9016C147.578 24.9016 147.344 24.8149 147.17 24.6413C146.997 24.4678 146.893 24.2683 146.858 24.0427L144.021 7.4118C144.004 7.37709 143.995 7.34239 143.995 7.30769C143.995 7.27299 143.995 7.24696 143.995 7.22961C143.995 7.0908 144.047 6.96935 144.151 6.86524C144.273 6.74378 144.403 6.68305 144.541 6.68305H147.769C148.255 6.68305 148.524 6.87392 148.576 7.25564L150.267 17.432L152.141 11.4199C152.193 11.2811 152.28 11.1336 152.401 10.9774C152.523 10.8039 152.722 10.7172 153 10.7172H154.874C155.169 10.7172 155.377 10.8039 155.499 10.9774C155.62 11.1336 155.698 11.2811 155.733 11.4199L157.607 17.406L159.298 7.25564C159.351 6.87392 159.619 6.68305 160.105 6.68305H163.333C163.489 6.68305 163.619 6.74378 163.723 6.86524C163.827 6.96935 163.879 7.0908 163.879 7.22961C163.879 7.24696 163.879 7.27299 163.879 7.30769C163.879 7.34239 163.879 7.37709 163.879 7.4118L161.042 24.0427C161.008 24.2683 160.903 24.4678 160.73 24.6413C160.556 24.8149 160.322 24.9016 160.027 24.9016H157.555C157.26 24.9016 157.034 24.8235 156.878 24.6674C156.722 24.5112 156.618 24.3637 156.566 24.2249L153.937 16.7813L151.308 24.2249C151.256 24.3637 151.152 24.5112 150.996 24.6674C150.857 24.8235 150.64 24.9016 150.345 24.9016H147.873ZM167.213 24.9016C167.022 24.9016 166.866 24.8409 166.744 24.7194C166.623 24.598 166.562 24.4418 166.562 24.2509V7.33372C166.562 7.14286 166.623 6.9867 166.744 6.86524C166.866 6.74378 167.022 6.68305 167.213 6.68305H170.7C170.891 6.68305 171.047 6.74378 171.169 6.86524C171.29 6.9867 171.351 7.14286 171.351 7.33372V24.2509C171.351 24.4418 171.29 24.598 171.169 24.7194C171.047 24.8409 170.891 24.9016 170.7 24.9016H167.213ZM175.651 24.9016C175.46 24.9016 175.304 24.8409 175.182 24.7194C175.061 24.598 175 24.4418 175 24.2509V7.33372C175 7.14286 175.061 6.9867 175.182 6.86524C175.304 6.74378 175.46 6.68305 175.651 6.68305H179.086C179.26 6.68305 179.407 6.74378 179.529 6.86524C179.668 6.9867 179.737 7.14286 179.737 7.33372V20.9716H187.597C187.788 20.9716 187.944 21.041 188.066 21.1798C188.204 21.3013 188.274 21.4574 188.274 21.6483V24.2509C188.274 24.4418 188.204 24.598 188.066 24.7194C187.944 24.8409 187.788 24.9016 187.597 24.9016H175.651ZM191.18 24.9016C190.989 24.9016 190.833 24.8409 190.712 24.7194C190.59 24.598 190.53 24.4418 190.53 24.2509V7.33372C190.53 7.14286 190.59 6.9867 190.712 6.86524C190.833 6.74378 190.989 6.68305 191.18 6.68305H194.616C194.789 6.68305 194.937 6.74378 195.058 6.86524C195.197 6.9867 195.267 7.14286 195.267 7.33372V20.9716H203.127C203.317 20.9716 203.474 21.041 203.595 21.1798C203.734 21.3013 203.803 21.4574 203.803 21.6483V24.2509C203.803 24.4418 203.734 24.598 203.595 24.7194C203.474 24.8409 203.317 24.9016 203.127 24.9016H191.18ZM211.641 24.9016C211.45 24.9016 211.294 24.8409 211.172 24.7194C211.051 24.598 210.99 24.4418 210.99 24.2509V7.33372C210.99 7.14286 211.051 6.9867 211.172 6.86524C211.294 6.74378 211.45 6.68305 211.641 6.68305H219.579C221.071 6.68305 222.294 6.89127 223.248 7.30769C224.203 7.72412 224.905 8.32272 225.357 9.10352C225.825 9.86696 226.059 10.7779 226.059 11.8363C226.059 12.4609 225.938 13.0162 225.695 13.502C225.469 13.9705 225.183 14.3609 224.836 14.6732C224.506 14.9855 224.194 15.2111 223.899 15.3499C224.558 15.6622 225.14 16.1741 225.643 16.8854C226.163 17.5968 226.424 18.4297 226.424 19.384C226.424 20.5292 226.163 21.5182 225.643 22.351C225.14 23.1665 224.394 23.7998 223.405 24.2509C222.433 24.6847 221.236 24.9016 219.813 24.9016H211.641ZM215.649 21.5182H219.292C220.039 21.5182 220.602 21.3013 220.984 20.8675C221.366 20.4337 221.557 19.9392 221.557 19.384C221.557 18.7767 221.357 18.2649 220.958 17.8484C220.576 17.432 220.021 17.2238 219.292 17.2238H215.649V21.5182ZM215.649 13.9184H219.058C219.77 13.9184 220.299 13.7362 220.646 13.3719C221.01 13.0075 221.192 12.539 221.192 11.9664C221.192 11.4112 221.01 10.9601 220.646 10.6131C220.299 10.2487 219.77 10.0665 219.058 10.0665H215.649V13.9184ZM229.966 24.9016C229.775 24.9016 229.619 24.8409 229.497 24.7194C229.376 24.598 229.315 24.4418 229.315 24.2509V7.33372C229.315 7.14286 229.376 6.9867 229.497 6.86524C229.619 6.74378 229.775 6.68305 229.966 6.68305H242.12C242.311 6.68305 242.467 6.74378 242.589 6.86524C242.71 6.9867 242.771 7.14286 242.771 7.33372V9.78021C242.771 9.97107 242.71 10.1272 242.589 10.2487C242.467 10.3701 242.311 10.4309 242.12 10.4309H233.818V13.9445H241.548C241.739 13.9445 241.895 14.0139 242.016 14.1527C242.138 14.2741 242.198 14.4303 242.198 14.6211V16.8854C242.198 17.059 242.138 17.2151 242.016 17.3539C241.895 17.4754 241.739 17.5361 241.548 17.5361H233.818V21.1538H242.329C242.519 21.1538 242.676 21.2145 242.797 21.336C242.918 21.4574 242.979 21.6136 242.979 21.8045V24.2509C242.979 24.4418 242.918 24.598 242.797 24.7194C242.676 24.8409 242.519 24.9016 242.329 24.9016H229.966ZM258.922 25.1619C257.326 25.1619 255.938 24.9016 254.758 24.3811C253.578 23.8606 252.658 23.0798 251.999 22.0387C251.34 20.9803 250.975 19.6616 250.906 18.0827C250.889 17.3366 250.88 16.5905 250.88 15.8444C250.88 15.0983 250.889 14.3435 250.906 13.5801C250.975 12.0185 251.34 10.7085 251.999 9.65008C252.676 8.57431 253.604 7.76749 254.784 7.22961C255.964 6.69173 257.343 6.42279 258.922 6.42279C260.484 6.42279 261.854 6.69173 263.034 7.22961C264.231 7.76749 265.168 8.57431 265.845 9.65008C266.522 10.7085 266.886 12.0185 266.938 13.5801C266.973 14.3435 266.99 15.0983 266.99 15.8444C266.99 16.5905 266.973 17.3366 266.938 18.0827C266.869 19.6616 266.504 20.9803 265.845 22.0387C265.186 23.0798 264.266 23.8606 263.086 24.3811C261.906 24.9016 260.518 25.1619 258.922 25.1619ZM258.922 21.4141C259.842 21.4141 260.588 21.1364 261.16 20.5812C261.75 20.026 262.063 19.1411 262.097 17.9265C262.132 17.1631 262.149 16.443 262.149 15.7663C262.149 15.0896 262.132 14.3869 262.097 13.6582C262.063 12.8427 261.906 12.1833 261.629 11.6801C261.369 11.1596 261.004 10.7779 260.536 10.535C260.067 10.2921 259.529 10.1706 258.922 10.1706C258.332 10.1706 257.803 10.2921 257.334 10.535C256.866 10.7779 256.493 11.1596 256.215 11.6801C255.938 12.1833 255.782 12.8427 255.747 13.6582C255.729 14.3869 255.721 15.0896 255.721 15.7663C255.721 16.443 255.729 17.1631 255.747 17.9265C255.799 19.1411 256.111 20.026 256.684 20.5812C257.256 21.1364 258.002 21.4141 258.922 21.4141ZM270.658 24.9016C270.467 24.9016 270.311 24.8409 270.189 24.7194C270.068 24.598 270.007 24.4418 270.007 24.2509V7.33372C270.007 7.14286 270.068 6.9867 270.189 6.86524C270.311 6.74378 270.467 6.68305 270.658 6.68305H274.093C274.267 6.68305 274.414 6.74378 274.536 6.86524C274.675 6.9867 274.744 7.14286 274.744 7.33372V20.9716H282.604C282.795 20.9716 282.951 21.041 283.072 21.1798C283.211 21.3013 283.281 21.4574 283.281 21.6483V24.2509C283.281 24.4418 283.211 24.598 283.072 24.7194C282.951 24.8409 282.795 24.9016 282.604 24.9016H270.658ZM286.187 24.9016C285.996 24.9016 285.84 24.8409 285.719 24.7194C285.597 24.598 285.537 24.4418 285.537 24.2509V7.33372C285.537 7.14286 285.597 6.9867 285.719 6.86524C285.84 6.74378 285.996 6.68305 286.187 6.68305H292.954C294.655 6.68305 296.103 6.96067 297.301 7.5159C298.498 8.05378 299.417 8.85193 300.059 9.91034C300.701 10.9514 301.048 12.2441 301.1 13.7883C301.118 14.5517 301.126 15.2197 301.126 15.7923C301.126 16.3649 301.118 17.0243 301.1 17.7703C301.031 19.384 300.684 20.72 300.059 21.7784C299.452 22.8368 298.559 23.6263 297.379 24.1468C296.216 24.65 294.785 24.9016 293.084 24.9016H286.187ZM290.195 21.1538H292.954C293.7 21.1538 294.316 21.041 294.802 20.8154C295.305 20.5725 295.678 20.1995 295.921 19.6963C296.181 19.1931 296.32 18.5338 296.338 17.7183C296.372 17.2151 296.39 16.764 296.39 16.3649C296.407 15.9658 296.407 15.5668 296.39 15.1677C296.39 14.7686 296.372 14.3262 296.338 13.8403C296.303 12.6605 295.991 11.8016 295.401 11.2637C294.828 10.7085 293.969 10.4309 292.824 10.4309H290.195V21.1538ZM304.818 24.9016C304.627 24.9016 304.471 24.8409 304.349 24.7194C304.228 24.598 304.167 24.4418 304.167 24.2509V7.33372C304.167 7.14286 304.228 6.9867 304.349 6.86524C304.471 6.74378 304.627 6.68305 304.818 6.68305H316.972C317.163 6.68305 317.319 6.74378 317.44 6.86524C317.562 6.9867 317.623 7.14286 317.623 7.33372V9.78021C317.623 9.97107 317.562 10.1272 317.44 10.2487C317.319 10.3701 317.163 10.4309 316.972 10.4309H308.67V13.9445H316.399C316.59 13.9445 316.746 14.0139 316.868 14.1527C316.989 14.2741 317.05 14.4303 317.05 14.6211V16.8854C317.05 17.059 316.989 17.2151 316.868 17.3539C316.746 17.4754 316.59 17.5361 316.399 17.5361H308.67V21.1538H317.18C317.371 21.1538 317.527 21.2145 317.649 21.336C317.77 21.4574 317.831 21.6136 317.831 21.8045V24.2509C317.831 24.4418 317.77 24.598 317.649 24.7194C317.527 24.8409 317.371 24.9016 317.18 24.9016H304.818ZM321.44 24.9016C321.249 24.9016 321.093 24.8409 320.972 24.7194C320.85 24.598 320.789 24.4418 320.789 24.2509V7.33372C320.789 7.14286 320.85 6.9867 320.972 6.86524C321.093 6.74378 321.249 6.68305 321.44 6.68305H328.519C330.757 6.68305 332.519 7.20358 333.803 8.24464C335.104 9.26835 335.755 10.7258 335.755 12.6171C335.755 13.849 335.451 14.8901 334.844 15.7403C334.254 16.5905 333.473 17.2325 332.501 17.6662L336.093 24.0688C336.145 24.1729 336.171 24.2683 336.171 24.3551C336.171 24.4939 336.11 24.624 335.989 24.7455C335.885 24.8496 335.755 24.9016 335.598 24.9016H332.163C331.833 24.9016 331.59 24.8235 331.434 24.6674C331.278 24.4939 331.165 24.3377 331.096 24.1989L328.129 18.4731H325.448V24.2509C325.448 24.4418 325.387 24.598 325.266 24.7194C325.144 24.8409 324.988 24.9016 324.797 24.9016H321.44ZM325.448 14.8033H328.467C329.283 14.8033 329.89 14.6038 330.289 14.2047C330.705 13.8056 330.914 13.2591 330.914 12.565C330.914 11.8884 330.714 11.3418 330.315 10.9254C329.933 10.509 329.317 10.3007 328.467 10.3007H325.448V14.8033Z" fill="#3E424D"/>
<path d="M256.762 207.926C256.643 207.926 256.541 207.89 256.458 207.819C256.387 207.735 256.351 207.634 256.351 207.515V197.521L253.388 199.806C253.293 199.877 253.192 199.907 253.085 199.895C252.978 199.883 252.889 199.829 252.817 199.734L252.353 199.145C252.282 199.038 252.252 198.931 252.264 198.824C252.288 198.717 252.347 198.628 252.443 198.556L256.333 195.558C256.416 195.498 256.494 195.463 256.565 195.451C256.637 195.439 256.714 195.433 256.797 195.433H257.707C257.826 195.433 257.922 195.475 257.993 195.558C258.064 195.629 258.1 195.725 258.1 195.844V207.515C258.1 207.634 258.064 207.735 257.993 207.819C257.922 207.89 257.826 207.926 257.707 207.926H256.762ZM260.29 209.425C260.195 209.425 260.112 209.389 260.041 209.318C259.969 209.246 259.933 209.163 259.933 209.068C259.933 209.008 259.951 208.937 259.987 208.854L266.091 194.219C266.126 194.148 266.174 194.077 266.233 194.005C266.305 193.934 266.412 193.898 266.555 193.898H267.251C267.346 193.898 267.429 193.934 267.501 194.005C267.572 194.077 267.608 194.16 267.608 194.255C267.608 194.303 267.596 194.374 267.572 194.469L261.45 209.104C261.427 209.163 261.373 209.229 261.29 209.3C261.218 209.383 261.117 209.425 260.986 209.425H260.29ZM272.918 207.926C272.799 207.926 272.698 207.89 272.614 207.819C272.543 207.735 272.507 207.634 272.507 207.515V197.521L269.545 199.806C269.449 199.877 269.348 199.907 269.241 199.895C269.134 199.883 269.045 199.829 268.974 199.734L268.51 199.145C268.438 199.038 268.408 198.931 268.42 198.824C268.444 198.717 268.504 198.628 268.599 198.556L272.489 195.558C272.573 195.498 272.65 195.463 272.721 195.451C272.793 195.439 272.87 195.433 272.953 195.433H273.864C273.983 195.433 274.078 195.475 274.149 195.558C274.221 195.629 274.256 195.725 274.256 195.844V207.515C274.256 207.634 274.221 207.735 274.149 207.819C274.078 207.89 273.983 207.926 273.864 207.926H272.918ZM281.283 208.104C280.462 208.104 279.766 207.979 279.195 207.729C278.636 207.468 278.178 207.111 277.821 206.659C277.464 206.207 277.202 205.689 277.036 205.106C276.881 204.523 276.792 203.904 276.768 203.25C276.756 202.929 276.744 202.59 276.732 202.233C276.732 201.876 276.732 201.519 276.732 201.162C276.744 200.793 276.756 200.442 276.768 200.109C276.78 199.455 276.869 198.836 277.036 198.253C277.214 197.658 277.476 197.14 277.821 196.7C278.178 196.248 278.642 195.897 279.213 195.647C279.784 195.385 280.474 195.255 281.283 195.255C282.104 195.255 282.794 195.385 283.353 195.647C283.924 195.897 284.388 196.248 284.745 196.7C285.102 197.14 285.364 197.658 285.531 198.253C285.709 198.836 285.804 199.455 285.816 200.109C285.828 200.442 285.834 200.793 285.834 201.162C285.846 201.519 285.846 201.876 285.834 202.233C285.834 202.59 285.828 202.929 285.816 203.25C285.804 203.904 285.709 204.523 285.531 205.106C285.364 205.689 285.102 206.207 284.745 206.659C284.4 207.111 283.942 207.468 283.371 207.729C282.812 207.979 282.116 208.104 281.283 208.104ZM281.283 206.587C282.211 206.587 282.895 206.284 283.335 205.677C283.788 205.058 284.02 204.22 284.031 203.161C284.055 202.816 284.067 202.483 284.067 202.161C284.067 201.828 284.067 201.501 284.067 201.18C284.067 200.847 284.055 200.519 284.031 200.198C284.02 199.163 283.788 198.336 283.335 197.717C282.895 197.087 282.211 196.772 281.283 196.772C280.367 196.772 279.683 197.087 279.231 197.717C278.79 198.336 278.558 199.163 278.535 200.198C278.535 200.519 278.529 200.847 278.517 201.18C278.517 201.501 278.517 201.828 278.517 202.161C278.529 202.483 278.535 202.816 278.535 203.161C278.558 204.22 278.796 205.058 279.249 205.677C279.701 206.284 280.379 206.587 281.283 206.587ZM292.971 203.321C292.852 203.321 292.751 203.286 292.667 203.214C292.596 203.131 292.56 203.03 292.56 202.911V202.233C292.56 202.114 292.596 202.019 292.667 201.947C292.751 201.864 292.852 201.822 292.971 201.822H298.325C298.444 201.822 298.539 201.864 298.61 201.947C298.693 202.019 298.735 202.114 298.735 202.233V202.911C298.735 203.03 298.693 203.131 298.61 203.214C298.539 203.286 298.444 203.321 298.325 203.321H292.971ZM301.544 207.462C301.449 207.462 301.365 207.432 301.294 207.373C301.223 207.313 301.187 207.224 301.187 207.105V206.32C301.187 206.177 301.217 206.064 301.276 205.98C301.347 205.897 301.455 205.814 301.597 205.731L306.362 202.465L301.597 199.199C301.455 199.104 301.347 199.014 301.276 198.931C301.217 198.848 301.187 198.735 301.187 198.592V197.807C301.187 197.688 301.223 197.598 301.294 197.539C301.365 197.479 301.449 197.45 301.544 197.45C301.615 197.45 301.692 197.474 301.776 197.521C301.859 197.557 301.924 197.593 301.972 197.628L307.576 201.483C307.766 201.614 307.897 201.739 307.969 201.858C308.052 201.977 308.094 202.126 308.094 202.304V202.607C308.094 202.774 308.052 202.923 307.969 203.054C307.897 203.173 307.766 203.298 307.576 203.428L301.972 207.283C301.924 207.319 301.859 207.361 301.776 207.408C301.692 207.444 301.615 207.462 301.544 207.462ZM319.004 208.104C317.957 208.104 317.035 207.914 316.237 207.533C315.44 207.152 314.816 206.629 314.364 205.963C313.923 205.284 313.703 204.511 313.703 203.643C313.703 203.274 313.757 202.911 313.864 202.554C313.983 202.185 314.126 201.84 314.292 201.519C314.459 201.186 314.625 200.894 314.792 200.644C314.958 200.383 315.095 200.174 315.202 200.02L318.343 195.79C318.403 195.731 318.48 195.659 318.575 195.576C318.671 195.481 318.807 195.433 318.986 195.433H321.36C321.467 195.433 321.556 195.475 321.627 195.558C321.699 195.629 321.734 195.719 321.734 195.826C321.734 195.873 321.728 195.921 321.716 195.968C321.705 196.004 321.687 196.034 321.663 196.058L319.254 199.341C319.325 199.318 319.408 199.306 319.503 199.306C319.611 199.294 319.706 199.288 319.789 199.288C320.324 199.312 320.854 199.431 321.377 199.645C321.901 199.859 322.377 200.151 322.805 200.519C323.233 200.888 323.573 201.334 323.822 201.858C324.084 202.369 324.215 202.947 324.215 203.589C324.215 204.41 324.001 205.165 323.572 205.856C323.144 206.534 322.537 207.081 321.752 207.497C320.979 207.902 320.063 208.104 319.004 208.104ZM318.986 205.534C319.331 205.534 319.652 205.463 319.95 205.32C320.247 205.165 320.485 204.951 320.663 204.678C320.854 204.392 320.949 204.041 320.949 203.625C320.949 203.208 320.86 202.863 320.681 202.59C320.503 202.304 320.265 202.09 319.967 201.947C319.67 201.804 319.343 201.733 318.986 201.733C318.629 201.733 318.296 201.804 317.986 201.947C317.689 202.09 317.451 202.304 317.273 202.59C317.094 202.863 317.005 203.208 317.005 203.625C317.005 204.041 317.094 204.392 317.273 204.678C317.463 204.951 317.707 205.165 318.004 205.32C318.302 205.463 318.629 205.534 318.986 205.534ZM330.45 208.122C329.332 208.122 328.398 207.95 327.648 207.605C326.899 207.248 326.327 206.79 325.935 206.23C325.554 205.659 325.352 205.047 325.328 204.392C325.328 204.285 325.364 204.196 325.435 204.124C325.507 204.053 325.596 204.017 325.703 204.017H328.094C328.249 204.017 328.368 204.053 328.451 204.124C328.546 204.184 328.618 204.261 328.665 204.356C328.772 204.63 328.909 204.856 329.076 205.035C329.254 205.213 329.457 205.344 329.683 205.427C329.921 205.511 330.182 205.552 330.468 205.552C330.801 205.552 331.11 205.481 331.396 205.338C331.681 205.195 331.908 204.987 332.074 204.713C332.253 204.428 332.342 204.089 332.342 203.696C332.342 203.339 332.259 203.03 332.092 202.768C331.937 202.506 331.717 202.298 331.432 202.143C331.146 201.989 330.825 201.911 330.468 201.911C330.182 201.911 329.95 201.947 329.772 202.019C329.593 202.078 329.445 202.155 329.326 202.251C329.207 202.346 329.1 202.429 329.004 202.5C328.909 202.56 328.802 202.59 328.683 202.59H326.345C326.238 202.59 326.143 202.554 326.06 202.483C325.988 202.399 325.953 202.304 325.953 202.197L326.595 195.968C326.619 195.79 326.684 195.659 326.791 195.576C326.899 195.481 327.029 195.433 327.184 195.433H334.341C334.472 195.433 334.579 195.475 334.662 195.558C334.745 195.641 334.787 195.748 334.787 195.879V197.557C334.787 197.688 334.745 197.795 334.662 197.878C334.579 197.961 334.472 198.003 334.341 198.003H329.165L328.933 200.323C329.195 200.145 329.498 200.002 329.843 199.895C330.2 199.776 330.682 199.716 331.289 199.716C331.86 199.716 332.401 199.811 332.913 200.002C333.436 200.192 333.9 200.466 334.305 200.823C334.721 201.18 335.043 201.608 335.269 202.108C335.507 202.596 335.626 203.149 335.626 203.767C335.626 204.612 335.417 205.362 335.001 206.016C334.596 206.671 334.008 207.188 333.234 207.569C332.461 207.938 331.533 208.122 330.45 208.122ZM340.97 207.337C340.84 207.337 340.732 207.295 340.649 207.212C340.566 207.129 340.524 207.022 340.524 206.891V203.625H337.348C337.217 203.625 337.104 203.583 337.008 203.5C336.925 203.417 336.884 203.309 336.884 203.179V201.876C336.884 201.745 336.925 201.638 337.008 201.554C337.104 201.471 337.217 201.43 337.348 201.43H340.524V198.253C340.524 198.122 340.566 198.015 340.649 197.932C340.732 197.848 340.84 197.807 340.97 197.807H342.434C342.553 197.807 342.654 197.848 342.737 197.932C342.832 198.015 342.88 198.122 342.88 198.253V201.43H346.039C346.17 201.43 346.277 201.471 346.36 201.554C346.443 201.638 346.485 201.745 346.485 201.876V203.179C346.485 203.309 346.443 203.417 346.36 203.5C346.277 203.583 346.17 203.625 346.039 203.625H342.88V206.891C342.88 207.022 342.832 207.129 342.737 207.212C342.654 207.295 342.553 207.337 342.434 207.337H340.97ZM352.416 207.926C352.285 207.926 352.178 207.884 352.095 207.801C352.011 207.718 351.97 207.61 351.97 207.48V199.092C351.97 198.961 352.011 198.854 352.095 198.77C352.178 198.687 352.285 198.645 352.416 198.645H354.522C354.641 198.645 354.742 198.687 354.825 198.77C354.92 198.854 354.968 198.961 354.968 199.092V207.48C354.968 207.61 354.92 207.718 354.825 207.801C354.742 207.884 354.641 207.926 354.522 207.926H352.416ZM352.398 197.307C352.267 197.307 352.16 197.265 352.077 197.182C351.993 197.099 351.952 196.992 351.952 196.861V195.272C351.952 195.142 351.993 195.034 352.077 194.951C352.16 194.856 352.267 194.808 352.398 194.808H354.522C354.653 194.808 354.76 194.856 354.843 194.951C354.938 195.034 354.986 195.142 354.986 195.272V196.861C354.986 196.992 354.938 197.099 354.843 197.182C354.76 197.265 354.653 197.307 354.522 197.307H352.398ZM357.505 207.926C357.374 207.926 357.267 207.884 357.184 207.801C357.1 207.718 357.059 207.61 357.059 207.48V199.092C357.059 198.961 357.1 198.854 357.184 198.77C357.267 198.687 357.374 198.645 357.505 198.645H359.557C359.688 198.645 359.795 198.687 359.879 198.77C359.962 198.854 360.003 198.961 360.003 199.092V199.77C360.313 199.401 360.717 199.092 361.217 198.842C361.717 198.592 362.306 198.467 362.984 198.467C363.674 198.467 364.281 198.622 364.804 198.931C365.34 199.24 365.756 199.698 366.053 200.305C366.363 200.9 366.517 201.632 366.517 202.5V207.48C366.517 207.61 366.47 207.718 366.375 207.801C366.291 207.884 366.19 207.926 366.071 207.926H363.823C363.704 207.926 363.597 207.884 363.501 207.801C363.418 207.718 363.376 207.61 363.376 207.48V202.607C363.376 202.048 363.24 201.62 362.966 201.322C362.704 201.013 362.312 200.858 361.788 200.858C361.3 200.858 360.908 201.013 360.61 201.322C360.325 201.62 360.182 202.048 360.182 202.607V207.48C360.182 207.61 360.134 207.718 360.039 207.801C359.956 207.884 359.855 207.926 359.736 207.926H357.505Z" fill="#272727"/>
<path d="M372.451 207.926C372.321 207.926 372.207 207.884 372.112 207.801C372.029 207.718 371.987 207.61 371.987 207.48V206.212C371.987 206.129 372.011 206.004 372.059 205.838C372.106 205.659 372.231 205.493 372.434 205.338L374.29 203.518C375.241 202.792 376.021 202.179 376.628 201.679C377.246 201.168 377.704 200.716 378.002 200.323C378.299 199.93 378.448 199.562 378.448 199.217C378.448 198.812 378.341 198.479 378.127 198.217C377.924 197.943 377.567 197.807 377.056 197.807C376.711 197.807 376.419 197.884 376.181 198.039C375.955 198.181 375.783 198.372 375.664 198.61C375.545 198.848 375.462 199.092 375.414 199.341C375.366 199.496 375.283 199.603 375.164 199.663C375.057 199.722 374.938 199.752 374.807 199.752H372.576C372.469 199.752 372.38 199.716 372.309 199.645C372.237 199.574 372.202 199.484 372.202 199.377C372.213 198.806 372.332 198.271 372.558 197.771C372.796 197.271 373.124 196.831 373.54 196.45C373.968 196.058 374.474 195.754 375.057 195.54C375.652 195.326 376.318 195.219 377.056 195.219C378.067 195.219 378.924 195.38 379.626 195.701C380.34 196.022 380.881 196.474 381.25 197.057C381.619 197.628 381.803 198.3 381.803 199.074C381.803 199.657 381.672 200.204 381.41 200.716C381.161 201.215 380.798 201.697 380.322 202.161C379.858 202.613 379.305 203.083 378.662 203.571L377.02 205.231H381.607C381.738 205.231 381.845 205.273 381.928 205.356C382.023 205.439 382.071 205.546 382.071 205.677V207.48C382.071 207.61 382.023 207.718 381.928 207.801C381.845 207.884 381.738 207.926 381.607 207.926H372.451ZM388.913 208.104C388.056 208.104 387.313 207.985 386.682 207.747C386.052 207.497 385.528 207.158 385.112 206.73C384.707 206.302 384.398 205.802 384.184 205.231C383.97 204.66 383.845 204.047 383.809 203.393C383.797 203.071 383.785 202.709 383.773 202.304C383.773 201.888 383.773 201.471 383.773 201.055C383.785 200.626 383.797 200.246 383.809 199.913C383.845 199.258 383.97 198.651 384.184 198.092C384.41 197.521 384.731 197.027 385.147 196.611C385.576 196.183 386.099 195.849 386.718 195.612C387.349 195.374 388.08 195.255 388.913 195.255C389.758 195.255 390.49 195.374 391.108 195.612C391.727 195.849 392.244 196.183 392.661 196.611C393.089 197.027 393.416 197.521 393.642 198.092C393.869 198.651 393.993 199.258 394.017 199.913C394.041 200.246 394.053 200.626 394.053 201.055C394.065 201.471 394.065 201.888 394.053 202.304C394.053 202.709 394.041 203.071 394.017 203.393C393.993 204.047 393.869 204.66 393.642 205.231C393.428 205.802 393.113 206.302 392.697 206.73C392.292 207.158 391.774 207.497 391.144 207.747C390.525 207.985 389.782 208.104 388.913 208.104ZM388.913 205.516C389.532 205.516 389.978 205.32 390.252 204.928C390.537 204.523 390.686 203.982 390.698 203.303C390.722 202.958 390.733 202.596 390.733 202.215C390.745 201.834 390.745 201.453 390.733 201.073C390.733 200.692 390.722 200.341 390.698 200.02C390.686 199.365 390.537 198.836 390.252 198.431C389.978 198.027 389.532 197.819 388.913 197.807C388.294 197.819 387.848 198.027 387.575 198.431C387.301 198.836 387.152 199.365 387.128 200.02C387.116 200.341 387.105 200.692 387.093 201.073C387.093 201.453 387.093 201.834 387.093 202.215C387.105 202.596 387.116 202.958 387.128 203.303C387.152 203.982 387.307 204.523 387.592 204.928C387.878 205.32 388.318 205.516 388.913 205.516ZM396.189 207.926C396.058 207.926 395.945 207.884 395.85 207.801C395.767 207.718 395.725 207.61 395.725 207.48V206.212C395.725 206.129 395.749 206.004 395.796 205.838C395.844 205.659 395.969 205.493 396.171 205.338L398.027 203.518C398.979 202.792 399.758 202.179 400.365 201.679C400.984 201.168 401.442 200.716 401.739 200.323C402.037 199.93 402.185 199.562 402.185 199.217C402.185 198.812 402.078 198.479 401.864 198.217C401.662 197.943 401.305 197.807 400.793 197.807C400.448 197.807 400.157 197.884 399.919 198.039C399.693 198.181 399.52 198.372 399.401 198.61C399.282 198.848 399.199 199.092 399.152 199.341C399.104 199.496 399.021 199.603 398.902 199.663C398.795 199.722 398.676 199.752 398.545 199.752H396.314C396.207 199.752 396.118 199.716 396.046 199.645C395.975 199.574 395.939 199.484 395.939 199.377C395.951 198.806 396.07 198.271 396.296 197.771C396.534 197.271 396.861 196.831 397.278 196.45C397.706 196.058 398.212 195.754 398.795 195.54C399.389 195.326 400.056 195.219 400.793 195.219C401.805 195.219 402.661 195.38 403.363 195.701C404.077 196.022 404.619 196.474 404.987 197.057C405.356 197.628 405.541 198.3 405.541 199.074C405.541 199.657 405.41 200.204 405.148 200.716C404.898 201.215 404.535 201.697 404.059 202.161C403.595 202.613 403.042 203.083 402.4 203.571L400.758 205.231H405.344C405.475 205.231 405.582 205.273 405.666 205.356C405.761 205.439 405.808 205.546 405.808 205.677V207.48C405.808 207.61 405.761 207.718 405.666 207.801C405.582 207.884 405.475 207.926 405.344 207.926H396.189ZM411.544 207.926C411.425 207.926 411.318 207.884 411.223 207.801C411.14 207.718 411.098 207.61 411.098 207.48V198.985L408.653 200.858C408.546 200.942 408.433 200.971 408.314 200.948C408.207 200.924 408.112 200.858 408.028 200.751L406.975 199.377C406.904 199.27 406.874 199.157 406.886 199.038C406.91 198.907 406.981 198.806 407.1 198.735L411.205 195.558C411.276 195.51 411.342 195.481 411.401 195.469C411.473 195.445 411.55 195.433 411.633 195.433H413.864C413.983 195.433 414.084 195.475 414.168 195.558C414.263 195.641 414.31 195.748 414.31 195.879V207.48C414.31 207.61 414.263 207.718 414.168 207.801C414.084 207.884 413.983 207.926 413.864 207.926H411.544Z" fill="#3BB8EE"/>
<path d="M262.714 267.415C262.595 267.415 262.493 267.379 262.41 267.308C262.339 267.225 262.303 267.124 262.303 267.005V257.01L259.341 259.295C259.245 259.366 259.144 259.396 259.037 259.384C258.93 259.372 258.841 259.319 258.769 259.223L258.305 258.634C258.234 258.527 258.204 258.42 258.216 258.313C258.24 258.206 258.299 258.117 258.395 258.045L262.285 255.047C262.369 254.988 262.446 254.952 262.517 254.94C262.589 254.928 262.666 254.922 262.749 254.922H263.659C263.778 254.922 263.874 254.964 263.945 255.047C264.016 255.119 264.052 255.214 264.052 255.333V267.005C264.052 267.124 264.016 267.225 263.945 267.308C263.874 267.379 263.778 267.415 263.659 267.415H262.714ZM266.242 268.914C266.147 268.914 266.064 268.878 265.993 268.807C265.921 268.736 265.886 268.652 265.886 268.557C265.886 268.498 265.903 268.426 265.939 268.343L272.043 253.709C272.078 253.637 272.126 253.566 272.185 253.495C272.257 253.423 272.364 253.387 272.507 253.387H273.203C273.298 253.387 273.381 253.423 273.453 253.495C273.524 253.566 273.56 253.649 273.56 253.744C273.56 253.792 273.548 253.863 273.524 253.959L267.402 268.593C267.379 268.652 267.325 268.718 267.242 268.789C267.17 268.873 267.069 268.914 266.938 268.914H266.242ZM278.569 267.594C277.582 267.594 276.743 267.397 276.053 267.005C275.363 266.6 274.833 266.077 274.465 265.434C274.108 264.78 273.929 264.072 273.929 263.31C273.929 262.953 273.971 262.614 274.054 262.293C274.149 261.96 274.262 261.651 274.393 261.365C274.536 261.068 274.673 260.806 274.804 260.58C274.947 260.342 275.071 260.151 275.179 260.009L278.569 255.279C278.629 255.22 278.7 255.148 278.784 255.065C278.867 254.97 278.992 254.922 279.158 254.922H280.104C280.211 254.922 280.295 254.964 280.354 255.047C280.425 255.119 280.461 255.208 280.461 255.315C280.461 255.363 280.455 255.41 280.443 255.458C280.431 255.493 280.414 255.523 280.39 255.547L277.784 259.188C277.927 259.14 278.088 259.11 278.266 259.098C278.456 259.075 278.635 259.063 278.801 259.063C279.456 259.075 280.051 259.194 280.586 259.42C281.121 259.646 281.58 259.955 281.96 260.348C282.353 260.728 282.65 261.175 282.853 261.686C283.055 262.186 283.156 262.721 283.156 263.292C283.156 264.042 282.978 264.744 282.621 265.398C282.264 266.053 281.74 266.582 281.05 266.987C280.372 267.391 279.545 267.594 278.569 267.594ZM278.552 266.077C279.051 266.077 279.515 265.969 279.944 265.755C280.372 265.541 280.717 265.232 280.979 264.827C281.252 264.411 281.389 263.905 281.389 263.31C281.389 262.703 281.258 262.198 280.997 261.793C280.735 261.377 280.384 261.068 279.944 260.865C279.515 260.651 279.051 260.544 278.552 260.544C278.052 260.544 277.588 260.651 277.16 260.865C276.731 261.068 276.38 261.377 276.107 261.793C275.845 262.198 275.714 262.703 275.714 263.31C275.714 263.905 275.845 264.411 276.107 264.827C276.38 265.232 276.731 265.541 277.16 265.755C277.588 265.969 278.052 266.077 278.552 266.077ZM289.842 262.811C289.723 262.811 289.622 262.775 289.539 262.703C289.468 262.62 289.432 262.519 289.432 262.4V261.722C289.432 261.603 289.468 261.508 289.539 261.436C289.622 261.353 289.723 261.311 289.842 261.311H295.196C295.315 261.311 295.411 261.353 295.482 261.436C295.565 261.508 295.607 261.603 295.607 261.722V262.4C295.607 262.519 295.565 262.62 295.482 262.703C295.411 262.775 295.315 262.811 295.196 262.811H289.842ZM298.416 266.951C298.32 266.951 298.237 266.921 298.166 266.862C298.094 266.802 298.059 266.713 298.059 266.594V265.809C298.059 265.666 298.088 265.553 298.148 265.47C298.219 265.386 298.326 265.303 298.469 265.22L303.234 261.954L298.469 258.688C298.326 258.593 298.219 258.504 298.148 258.42C298.088 258.337 298.059 258.224 298.059 258.081V257.296C298.059 257.177 298.094 257.088 298.166 257.028C298.237 256.969 298.32 256.939 298.416 256.939C298.487 256.939 298.564 256.963 298.648 257.01C298.731 257.046 298.796 257.082 298.844 257.117L304.448 260.972C304.638 261.103 304.769 261.228 304.84 261.347C304.924 261.466 304.965 261.615 304.965 261.793V262.097C304.965 262.263 304.924 262.412 304.84 262.543C304.769 262.662 304.638 262.787 304.448 262.918L298.844 266.773C298.796 266.808 298.731 266.85 298.648 266.897C298.564 266.933 298.487 266.951 298.416 266.951ZM315.876 267.594C314.829 267.594 313.906 267.403 313.109 267.022C312.312 266.642 311.687 266.118 311.235 265.452C310.795 264.774 310.575 264 310.575 263.132C310.575 262.763 310.629 262.4 310.736 262.043C310.855 261.674 310.997 261.329 311.164 261.008C311.331 260.675 311.497 260.383 311.664 260.134C311.83 259.872 311.967 259.664 312.074 259.509L315.215 255.279C315.275 255.22 315.352 255.148 315.447 255.065C315.542 254.97 315.679 254.922 315.858 254.922H318.231C318.338 254.922 318.428 254.964 318.499 255.047C318.57 255.119 318.606 255.208 318.606 255.315C318.606 255.363 318.6 255.41 318.588 255.458C318.576 255.493 318.558 255.523 318.535 255.547L316.125 258.831C316.197 258.807 316.28 258.795 316.375 258.795C316.482 258.783 316.577 258.777 316.661 258.777C317.196 258.801 317.726 258.92 318.249 259.134C318.773 259.348 319.249 259.64 319.677 260.009C320.105 260.377 320.444 260.824 320.694 261.347C320.956 261.859 321.087 262.436 321.087 263.078C321.087 263.899 320.873 264.655 320.444 265.345C320.016 266.023 319.409 266.57 318.624 266.987C317.851 267.391 316.934 267.594 315.876 267.594ZM315.858 265.024C316.203 265.024 316.524 264.952 316.821 264.809C317.119 264.655 317.357 264.441 317.535 264.167C317.726 263.881 317.821 263.53 317.821 263.114C317.821 262.698 317.732 262.353 317.553 262.079C317.375 261.793 317.137 261.579 316.839 261.436C316.542 261.294 316.215 261.222 315.858 261.222C315.501 261.222 315.168 261.294 314.858 261.436C314.561 261.579 314.323 261.793 314.144 262.079C313.966 262.353 313.877 262.698 313.877 263.114C313.877 263.53 313.966 263.881 314.144 264.167C314.335 264.441 314.579 264.655 314.876 264.809C315.174 264.952 315.501 265.024 315.858 265.024ZM327.322 267.611C326.203 267.611 325.269 267.439 324.52 267.094C323.77 266.737 323.199 266.279 322.807 265.72C322.426 265.149 322.224 264.536 322.2 263.881C322.2 263.774 322.236 263.685 322.307 263.614C322.378 263.542 322.468 263.507 322.575 263.507H324.966C325.121 263.507 325.24 263.542 325.323 263.614C325.418 263.673 325.49 263.751 325.537 263.846C325.644 264.119 325.781 264.345 325.948 264.524C326.126 264.702 326.328 264.833 326.554 264.916C326.792 265 327.054 265.041 327.34 265.041C327.673 265.041 327.982 264.97 328.268 264.827C328.553 264.684 328.779 264.476 328.946 264.203C329.124 263.917 329.214 263.578 329.214 263.185C329.214 262.828 329.13 262.519 328.964 262.257C328.809 261.996 328.589 261.787 328.303 261.633C328.018 261.478 327.697 261.401 327.34 261.401C327.054 261.401 326.822 261.436 326.644 261.508C326.465 261.567 326.316 261.645 326.198 261.74C326.079 261.835 325.971 261.918 325.876 261.99C325.781 262.049 325.674 262.079 325.555 262.079H323.217C323.11 262.079 323.015 262.043 322.932 261.972C322.86 261.888 322.824 261.793 322.824 261.686L323.467 255.458C323.491 255.279 323.556 255.148 323.663 255.065C323.77 254.97 323.901 254.922 324.056 254.922H331.212C331.343 254.922 331.45 254.964 331.534 255.047C331.617 255.131 331.659 255.238 331.659 255.368V257.046C331.659 257.177 331.617 257.284 331.534 257.367C331.45 257.451 331.343 257.492 331.212 257.492H326.037L325.805 259.812C326.067 259.634 326.37 259.491 326.715 259.384C327.072 259.265 327.554 259.206 328.161 259.206C328.732 259.206 329.273 259.301 329.785 259.491C330.308 259.681 330.772 259.955 331.177 260.312C331.593 260.669 331.914 261.097 332.14 261.597C332.378 262.085 332.497 262.638 332.497 263.257C332.497 264.101 332.289 264.851 331.873 265.505C331.468 266.16 330.879 266.677 330.106 267.058C329.333 267.427 328.405 267.611 327.322 267.611ZM337.842 266.826C337.711 266.826 337.604 266.784 337.521 266.701C337.438 266.618 337.396 266.511 337.396 266.38V263.114H334.219C334.088 263.114 333.975 263.072 333.88 262.989C333.797 262.906 333.755 262.799 333.755 262.668V261.365C333.755 261.234 333.797 261.127 333.88 261.044C333.975 260.96 334.088 260.919 334.219 260.919H337.396V257.742C337.396 257.611 337.438 257.504 337.521 257.421C337.604 257.338 337.711 257.296 337.842 257.296H339.306C339.425 257.296 339.526 257.338 339.609 257.421C339.704 257.504 339.752 257.611 339.752 257.742V260.919H342.911C343.042 260.919 343.149 260.96 343.232 261.044C343.315 261.127 343.357 261.234 343.357 261.365V262.668C343.357 262.799 343.315 262.906 343.232 262.989C343.149 263.072 343.042 263.114 342.911 263.114H339.752V266.38C339.752 266.511 339.704 266.618 339.609 266.701C339.526 266.784 339.425 266.826 339.306 266.826H337.842ZM349.288 267.415C349.157 267.415 349.05 267.373 348.966 267.29C348.883 267.207 348.841 267.1 348.841 266.969V258.581C348.841 258.45 348.883 258.343 348.966 258.26C349.05 258.176 349.157 258.135 349.288 258.135H351.393C351.512 258.135 351.614 258.176 351.697 258.26C351.792 258.343 351.84 258.45 351.84 258.581V266.969C351.84 267.1 351.792 267.207 351.697 267.29C351.614 267.373 351.512 267.415 351.393 267.415H349.288ZM349.27 256.796C349.139 256.796 349.032 256.755 348.948 256.671C348.865 256.588 348.824 256.481 348.824 256.35V254.762C348.824 254.631 348.865 254.524 348.948 254.44C349.032 254.345 349.139 254.298 349.27 254.298H351.393C351.524 254.298 351.631 254.345 351.715 254.44C351.81 254.524 351.858 254.631 351.858 254.762V256.35C351.858 256.481 351.81 256.588 351.715 256.671C351.631 256.755 351.524 256.796 351.393 256.796H349.27ZM354.377 267.415C354.246 267.415 354.139 267.373 354.055 267.29C353.972 267.207 353.931 267.1 353.931 266.969V258.581C353.931 258.45 353.972 258.343 354.055 258.26C354.139 258.176 354.246 258.135 354.377 258.135H356.429C356.56 258.135 356.667 258.176 356.75 258.26C356.834 258.343 356.875 258.45 356.875 258.581V259.259C357.185 258.89 357.589 258.581 358.089 258.331C358.589 258.081 359.177 257.956 359.856 257.956C360.546 257.956 361.152 258.111 361.676 258.42C362.211 258.73 362.628 259.188 362.925 259.794C363.235 260.389 363.389 261.121 363.389 261.99V266.969C363.389 267.1 363.342 267.207 363.247 267.29C363.163 267.373 363.062 267.415 362.943 267.415H360.694C360.575 267.415 360.468 267.373 360.373 267.29C360.29 267.207 360.248 267.1 360.248 266.969V262.097C360.248 261.538 360.111 261.109 359.838 260.812C359.576 260.502 359.183 260.348 358.66 260.348C358.172 260.348 357.779 260.502 357.482 260.812C357.196 261.109 357.054 261.538 357.054 262.097V266.969C357.054 267.1 357.006 267.207 356.911 267.29C356.828 267.373 356.727 267.415 356.608 267.415H354.377Z" fill="#272727"/>
<path d="M369.323 267.415C369.192 267.415 369.079 267.373 368.984 267.29C368.901 267.207 368.859 267.1 368.859 266.969V265.702C368.859 265.618 368.883 265.494 368.931 265.327C368.978 265.149 369.103 264.982 369.305 264.827L371.161 263.007C372.113 262.281 372.893 261.668 373.499 261.169C374.118 260.657 374.576 260.205 374.874 259.812C375.171 259.42 375.32 259.051 375.32 258.706C375.32 258.301 375.213 257.968 374.998 257.706C374.796 257.433 374.439 257.296 373.928 257.296C373.583 257.296 373.291 257.373 373.053 257.528C372.827 257.671 372.655 257.861 372.536 258.099C372.417 258.337 372.333 258.581 372.286 258.831C372.238 258.985 372.155 259.093 372.036 259.152C371.929 259.211 371.81 259.241 371.679 259.241H369.448C369.341 259.241 369.252 259.206 369.18 259.134C369.109 259.063 369.073 258.974 369.073 258.866C369.085 258.295 369.204 257.76 369.43 257.26C369.668 256.761 369.995 256.32 370.412 255.94C370.84 255.547 371.346 255.244 371.929 255.029C372.524 254.815 373.19 254.708 373.928 254.708C374.939 254.708 375.796 254.869 376.498 255.19C377.211 255.511 377.753 255.963 378.122 256.546C378.49 257.117 378.675 257.79 378.675 258.563C378.675 259.146 378.544 259.693 378.282 260.205C378.032 260.705 377.67 261.187 377.194 261.651C376.73 262.103 376.176 262.573 375.534 263.06L373.892 264.72H378.479C378.609 264.72 378.717 264.762 378.8 264.845C378.895 264.928 378.943 265.035 378.943 265.166V266.969C378.943 267.1 378.895 267.207 378.8 267.29C378.717 267.373 378.609 267.415 378.479 267.415H369.323ZM385.785 267.594C384.928 267.594 384.185 267.475 383.554 267.237C382.923 266.987 382.4 266.648 381.984 266.219C381.579 265.791 381.27 265.291 381.055 264.72C380.841 264.149 380.716 263.536 380.681 262.882C380.669 262.561 380.657 262.198 380.645 261.793C380.645 261.377 380.645 260.96 380.645 260.544C380.657 260.116 380.669 259.735 380.681 259.402C380.716 258.747 380.841 258.141 381.055 257.581C381.282 257.01 381.603 256.517 382.019 256.1C382.448 255.672 382.971 255.339 383.59 255.101C384.22 254.863 384.952 254.744 385.785 254.744C386.63 254.744 387.361 254.863 387.98 255.101C388.599 255.339 389.116 255.672 389.533 256.1C389.961 256.517 390.288 257.01 390.514 257.581C390.74 258.141 390.865 258.747 390.889 259.402C390.913 259.735 390.925 260.116 390.925 260.544C390.937 260.96 390.937 261.377 390.925 261.793C390.925 262.198 390.913 262.561 390.889 262.882C390.865 263.536 390.74 264.149 390.514 264.72C390.3 265.291 389.985 265.791 389.568 266.219C389.164 266.648 388.646 266.987 388.016 267.237C387.397 267.475 386.653 267.594 385.785 267.594ZM385.785 265.006C386.404 265.006 386.85 264.809 387.123 264.417C387.409 264.012 387.558 263.471 387.57 262.793C387.593 262.448 387.605 262.085 387.605 261.704C387.617 261.323 387.617 260.943 387.605 260.562C387.605 260.181 387.593 259.83 387.57 259.509C387.558 258.855 387.409 258.325 387.123 257.921C386.85 257.516 386.404 257.308 385.785 257.296C385.166 257.308 384.72 257.516 384.446 257.921C384.173 258.325 384.024 258.855 384 259.509C383.988 259.83 383.976 260.181 383.965 260.562C383.965 260.943 383.965 261.323 383.965 261.704C383.976 262.085 383.988 262.448 384 262.793C384.024 263.471 384.179 264.012 384.464 264.417C384.75 264.809 385.19 265.006 385.785 265.006ZM397.576 267.611C396.458 267.611 395.524 267.439 394.774 267.094C394.024 266.737 393.453 266.279 393.061 265.72C392.68 265.149 392.478 264.536 392.454 263.881C392.454 263.774 392.49 263.685 392.561 263.614C392.632 263.542 392.722 263.507 392.829 263.507H395.22C395.375 263.507 395.494 263.542 395.577 263.614C395.672 263.673 395.744 263.751 395.791 263.846C395.898 264.119 396.035 264.345 396.202 264.524C396.38 264.702 396.583 264.833 396.809 264.916C397.047 265 397.308 265.041 397.594 265.041C397.927 265.041 398.236 264.97 398.522 264.827C398.807 264.684 399.033 264.476 399.2 264.203C399.379 263.917 399.468 263.578 399.468 263.185C399.468 262.828 399.384 262.519 399.218 262.257C399.063 261.996 398.843 261.787 398.558 261.633C398.272 261.478 397.951 261.401 397.594 261.401C397.308 261.401 397.076 261.436 396.898 261.508C396.719 261.567 396.571 261.645 396.452 261.74C396.333 261.835 396.226 261.918 396.13 261.99C396.035 262.049 395.928 262.079 395.809 262.079H393.471C393.364 262.079 393.269 262.043 393.186 261.972C393.114 261.888 393.079 261.793 393.079 261.686L393.721 255.458C393.745 255.279 393.81 255.148 393.917 255.065C394.024 254.97 394.155 254.922 394.31 254.922H401.467C401.597 254.922 401.705 254.964 401.788 255.047C401.871 255.131 401.913 255.238 401.913 255.368V257.046C401.913 257.177 401.871 257.284 401.788 257.367C401.705 257.451 401.597 257.492 401.467 257.492H396.291L396.059 259.812C396.321 259.634 396.624 259.491 396.969 259.384C397.326 259.265 397.808 259.206 398.415 259.206C398.986 259.206 399.527 259.301 400.039 259.491C400.562 259.681 401.026 259.955 401.431 260.312C401.847 260.669 402.169 261.097 402.395 261.597C402.633 262.085 402.752 262.638 402.752 263.257C402.752 264.101 402.543 264.851 402.127 265.505C401.722 266.16 401.133 266.677 400.36 267.058C399.587 267.427 398.659 267.611 397.576 267.611ZM409.453 267.594C408.596 267.594 407.852 267.475 407.222 267.237C406.591 266.987 406.068 266.648 405.651 266.219C405.247 265.791 404.938 265.291 404.723 264.72C404.509 264.149 404.384 263.536 404.349 262.882C404.337 262.561 404.325 262.198 404.313 261.793C404.313 261.377 404.313 260.96 404.313 260.544C404.325 260.116 404.337 259.735 404.349 259.402C404.384 258.747 404.509 258.141 404.723 257.581C404.949 257.01 405.271 256.517 405.687 256.1C406.115 255.672 406.639 255.339 407.258 255.101C407.888 254.863 408.62 254.744 409.453 254.744C410.297 254.744 411.029 254.863 411.648 255.101C412.267 255.339 412.784 255.672 413.201 256.1C413.629 256.517 413.956 257.01 414.182 257.581C414.408 258.141 414.533 258.747 414.557 259.402C414.581 259.735 414.593 260.116 414.593 260.544C414.604 260.96 414.604 261.377 414.593 261.793C414.593 262.198 414.581 262.561 414.557 262.882C414.533 263.536 414.408 264.149 414.182 264.72C413.968 265.291 413.653 265.791 413.236 266.219C412.832 266.648 412.314 266.987 411.684 267.237C411.065 267.475 410.321 267.594 409.453 267.594ZM409.453 265.006C410.071 265.006 410.518 264.809 410.791 264.417C411.077 264.012 411.226 263.471 411.237 262.793C411.261 262.448 411.273 262.085 411.273 261.704C411.285 261.323 411.285 260.943 411.273 260.562C411.273 260.181 411.261 259.83 411.237 259.509C411.226 258.855 411.077 258.325 410.791 257.921C410.518 257.516 410.071 257.308 409.453 257.296C408.834 257.308 408.388 257.516 408.114 257.921C407.841 258.325 407.692 258.855 407.668 259.509C407.656 259.83 407.644 260.181 407.632 260.562C407.632 260.943 407.632 261.323 407.632 261.704C407.644 262.085 407.656 262.448 407.668 262.793C407.692 263.471 407.847 264.012 408.132 264.417C408.418 264.809 408.858 265.006 409.453 265.006Z" fill="#EC748E"/>
<g clip-path="url(#clip0_828_8387)">
<path d="M21.0205 151.557V163.486C21.0205 163.955 20.6512 164.353 20.1896 164.376H16.9812L16.0117 175.743C15.9656 176.212 15.5963 176.54 15.1346 176.54H7.17133C6.70969 176.54 6.34038 176.212 6.29422 175.743L5.32477 164.376H2.09329C1.63165 164.376 1.23926 163.978 1.23926 163.509V151.58C1.23926 148.744 3.50129 146.447 6.29422 146.424H15.9656C18.7585 146.424 21.0205 148.744 21.0205 151.58V151.557ZM11.1414 143.588C14.119 143.588 16.5195 141.127 16.4965 138.104C16.4734 135.081 14.0728 132.667 11.0953 132.667C8.14077 132.667 5.74025 135.128 5.74025 138.127C5.74025 141.151 8.16386 143.588 11.1414 143.588ZM25.6831 153.713C23.9981 153.713 22.6132 155.119 22.6132 156.83V157.814C22.6132 158.306 23.0056 158.705 23.4903 158.705C23.975 158.705 24.3674 158.306 24.3674 157.814V156.83C24.3674 156.08 24.9676 155.471 25.7062 155.471C26.4448 155.471 27.0449 156.08 27.0449 156.83V175.649C27.0449 176.142 27.4373 176.54 27.922 176.54C28.4068 176.54 28.7992 176.142 28.7992 175.649V156.806C28.7992 155.096 27.4373 153.689 25.7293 153.689L25.6831 153.713Z" fill="#3BB8EE"/>
</g>
<g clip-path="url(#clip1_828_8387)">
<path d="M21.0205 245.994V257.924C21.0205 258.392 20.6512 258.791 20.1896 258.814H16.9812L16.0117 270.181C15.9656 270.65 15.5963 270.978 15.1346 270.978H7.17133C6.70969 270.978 6.34038 270.65 6.29422 270.181L5.32477 258.814H2.09329C1.63165 258.814 1.23926 258.416 1.23926 257.947V246.018C1.23926 243.182 3.50129 240.885 6.29422 240.862H15.9656C18.7585 240.862 21.0205 243.182 21.0205 246.018V245.994ZM11.1414 238.026C14.119 238.026 16.5195 235.565 16.4965 232.542C16.4734 229.518 14.0728 227.104 11.0953 227.104C8.14077 227.104 5.74025 229.565 5.74025 232.565C5.74025 235.589 8.16386 238.026 11.1414 238.026ZM25.6831 248.151C23.9981 248.151 22.6132 249.557 22.6132 251.268V252.252C22.6132 252.744 23.0056 253.143 23.4903 253.143C23.975 253.143 24.3674 252.744 24.3674 252.252V251.268C24.3674 250.518 24.9676 249.908 25.7062 249.908C26.4448 249.908 27.0449 250.518 27.0449 251.268V270.087C27.0449 270.579 27.4373 270.978 27.922 270.978C28.4068 270.978 28.7992 270.579 28.7992 270.087V251.244C28.7992 249.533 27.4373 248.127 25.7293 248.127L25.6831 248.151Z" fill="#EC748E"/>
</g>
<g clip-path="url(#clip2_828_8387)">
<path d="M64.895 151.557V163.486C64.895 163.955 64.5257 164.353 64.0641 164.376H60.8557L59.8862 175.743C59.8401 176.212 59.4708 176.54 59.0091 176.54H51.0458C50.5842 176.54 50.2149 176.212 50.1687 175.743L49.1993 164.376H45.9678C45.5062 164.376 45.1138 163.978 45.1138 163.509V151.58C45.1138 148.744 47.3758 146.447 50.1687 146.424H59.8401C62.633 146.424 64.895 148.744 64.895 151.58V151.557ZM55.0159 143.588C57.9935 143.588 60.3941 141.127 60.371 138.104C60.3479 135.081 57.9474 132.667 54.9698 132.667C52.0153 132.667 49.6148 135.128 49.6148 138.127C49.6148 141.151 52.0384 143.588 55.0159 143.588Z" fill="#B0AFAF"/>
</g>
<g clip-path="url(#clip3_828_8387)">
<path d="M64.895 245.994V257.924C64.895 258.392 64.5257 258.791 64.0641 258.814H60.8557L59.8862 270.181C59.8401 270.65 59.4708 270.978 59.0091 270.978H51.0458C50.5842 270.978 50.2149 270.65 50.1687 270.181L49.1993 258.814H45.9678C45.5062 258.814 45.1138 258.416 45.1138 257.947V246.018C45.1138 243.182 47.3758 240.885 50.1687 240.862H59.8401C62.633 240.862 64.895 243.182 64.895 246.018V245.994ZM55.0159 238.026C57.9935 238.026 60.3941 235.565 60.371 232.542C60.3479 229.518 57.9474 227.104 54.9698 227.104C52.0153 227.104 49.6148 229.565 49.6148 232.565C49.6148 235.589 52.0384 238.026 55.0159 238.026Z" fill="#B0AFAF"/>
</g>
<g clip-path="url(#clip4_828_8387)">
<path d="M108.767 151.557V163.486C108.767 163.955 108.398 164.353 107.936 164.376H104.728L103.758 175.743C103.712 176.212 103.343 176.54 102.881 176.54H94.9179C94.4563 176.54 94.087 176.212 94.0408 175.743L93.0714 164.376H89.8399C89.3782 164.376 88.9858 163.978 88.9858 163.509V151.58C88.9858 148.744 91.2479 146.447 94.0408 146.424H103.712C106.505 146.424 108.767 148.744 108.767 151.58V151.557ZM98.888 143.588C101.866 143.588 104.266 141.127 104.243 138.104C104.22 135.081 101.819 132.667 98.8419 132.667C95.8874 132.667 93.4868 135.128 93.4868 138.127C93.4868 141.151 95.9104 143.588 98.888 143.588Z" fill="#B0AFAF"/>
</g>
<g clip-path="url(#clip5_828_8387)">
<path d="M108.767 245.994V257.924C108.767 258.392 108.398 258.791 107.936 258.814H104.728L103.758 270.181C103.712 270.65 103.343 270.978 102.881 270.978H94.9179C94.4563 270.978 94.087 270.65 94.0408 270.181L93.0714 258.814H89.8399C89.3782 258.814 88.9858 258.416 88.9858 257.947V246.018C88.9858 243.182 91.2479 240.885 94.0408 240.862H103.712C106.505 240.862 108.767 243.182 108.767 246.018V245.994ZM98.888 238.026C101.866 238.026 104.266 235.565 104.243 232.542C104.22 229.518 101.819 227.104 98.8419 227.104C95.8874 227.104 93.4868 229.565 93.4868 232.565C93.4868 235.589 95.9104 238.026 98.888 238.026Z" fill="#B0AFAF"/>
</g>
<g clip-path="url(#clip6_828_8387)">
<path d="M152.639 151.557V163.486C152.639 163.955 152.27 164.353 151.808 164.376H148.6L147.63 175.743C147.584 176.212 147.215 176.54 146.753 176.54H138.79C138.328 176.54 137.959 176.212 137.913 175.743L136.943 164.376H133.712C133.25 164.376 132.858 163.978 132.858 163.509V151.58C132.858 148.744 135.12 146.447 137.913 146.424H147.584C150.377 146.424 152.639 148.744 152.639 151.58V151.557ZM142.76 143.588C145.738 143.588 148.138 141.127 148.115 138.104C148.092 135.081 145.691 132.667 142.714 132.667C139.759 132.667 137.359 135.128 137.359 138.127C137.359 141.151 139.783 143.588 142.76 143.588Z" fill="#B0AFAF"/>
</g>
<g clip-path="url(#clip7_828_8387)">
<path d="M152.639 245.994V257.924C152.639 258.392 152.27 258.791 151.808 258.814H148.6L147.63 270.181C147.584 270.65 147.215 270.978 146.753 270.978H138.79C138.328 270.978 137.959 270.65 137.913 270.181L136.943 258.814H133.712C133.25 258.814 132.858 258.416 132.858 257.947V246.018C132.858 243.182 135.12 240.885 137.913 240.862H147.584C150.377 240.862 152.639 243.182 152.639 246.018V245.994ZM142.76 238.026C145.738 238.026 148.138 235.565 148.115 232.542C148.092 229.518 145.691 227.104 142.714 227.104C139.759 227.104 137.359 229.565 137.359 232.565C137.359 235.589 139.783 238.026 142.76 238.026Z" fill="#B0AFAF"/>
</g>
<g clip-path="url(#clip8_828_8387)">
<path d="M196.514 151.557V163.486C196.514 163.955 196.144 164.353 195.683 164.376H192.474L191.505 175.743C191.459 176.212 191.089 176.54 190.628 176.54H182.664C182.203 176.54 181.834 176.212 181.787 175.743L180.818 164.376H177.586C177.125 164.376 176.732 163.978 176.732 163.509V151.58C176.732 148.744 178.994 146.447 181.787 146.424H191.459C194.252 146.424 196.514 148.744 196.514 151.58V151.557ZM186.635 143.588C189.612 143.588 192.013 141.127 191.99 138.104C191.967 135.081 189.566 132.667 186.588 132.667C183.634 132.667 181.233 135.128 181.233 138.127C181.233 141.151 183.657 143.588 186.635 143.588Z" fill="#B0AFAF"/>
</g>
<g clip-path="url(#clip9_828_8387)">
<path d="M196.514 245.994V257.924C196.514 258.392 196.144 258.791 195.683 258.814H192.474L191.505 270.181C191.459 270.65 191.089 270.978 190.628 270.978H182.664C182.203 270.978 181.834 270.65 181.787 270.181L180.818 258.814H177.586C177.125 258.814 176.732 258.416 176.732 257.947V246.018C176.732 243.182 178.994 240.885 181.787 240.862H191.459C194.252 240.862 196.514 243.182 196.514 246.018V245.994ZM186.635 238.026C189.612 238.026 192.013 235.565 191.99 232.542C191.967 229.518 189.566 227.104 186.588 227.104C183.634 227.104 181.233 229.565 181.233 232.565C181.233 235.589 183.657 238.026 186.635 238.026Z" fill="#B0AFAF"/>
</g>
<g clip-path="url(#clip10_828_8387)">
<path d="M240.388 151.557V163.486C240.388 163.955 240.019 164.353 239.557 164.376H236.349L235.379 175.743C235.333 176.212 234.964 176.54 234.502 176.54H226.539C226.077 176.54 225.708 176.212 225.662 175.743L224.692 164.376H221.461C220.999 164.376 220.607 163.978 220.607 163.509V151.58C220.607 148.744 222.869 146.447 225.662 146.424H235.333C238.126 146.424 240.388 148.744 240.388 151.58V151.557ZM230.509 143.588C233.487 143.588 235.887 141.127 235.864 138.104C235.841 135.081 233.441 132.667 230.463 132.667C227.508 132.667 225.108 135.128 225.108 138.127C225.108 141.151 227.532 143.588 230.509 143.588Z" fill="#B0AFAF"/>
</g>
<g clip-path="url(#clip11_828_8387)">
<path d="M240.388 245.994V257.924C240.388 258.392 240.019 258.791 239.557 258.814H236.349L235.379 270.181C235.333 270.65 234.964 270.978 234.502 270.978H226.539C226.077 270.978 225.708 270.65 225.662 270.181L224.692 258.814H221.461C220.999 258.814 220.607 258.416 220.607 257.947V246.018C220.607 243.182 222.869 240.885 225.662 240.862H235.333C238.126 240.862 240.388 243.182 240.388 246.018V245.994ZM230.509 238.026C233.487 238.026 235.887 235.565 235.864 232.542C235.841 229.518 233.441 227.104 230.463 227.104C227.508 227.104 225.108 229.565 225.108 232.565C225.108 235.589 227.532 238.026 230.509 238.026Z" fill="#B0AFAF"/>
</g>
<g clip-path="url(#clip12_828_8387)">
<path d="M284.26 151.557V163.486C284.26 163.955 283.891 164.353 283.429 164.376H280.221L279.251 175.743C279.205 176.212 278.836 176.54 278.374 176.54H270.411C269.949 176.54 269.58 176.212 269.534 175.743L268.564 164.376H265.333C264.871 164.376 264.479 163.978 264.479 163.509V151.58C264.479 148.744 266.741 146.447 269.534 146.424H279.205C281.998 146.424 284.26 148.744 284.26 151.58V151.557ZM274.381 143.588C277.359 143.588 279.759 141.127 279.736 138.104C279.713 135.081 277.312 132.667 274.335 132.667C271.38 132.667 268.98 135.128 268.98 138.127C268.98 141.151 271.403 143.588 274.381 143.588Z" fill="#B0AFAF"/>
</g>
<g clip-path="url(#clip13_828_8387)">
<path d="M328.132 151.557V163.486C328.132 163.955 327.763 164.353 327.301 164.376H324.093L323.123 175.743C323.077 176.212 322.708 176.54 322.246 176.54H314.283C313.821 176.54 313.452 176.212 313.406 175.743L312.436 164.376H309.205C308.743 164.376 308.351 163.978 308.351 163.509V151.58C308.351 148.744 310.613 146.447 313.406 146.424H323.077C325.87 146.424 328.132 148.744 328.132 151.58V151.557ZM318.253 143.588C321.231 143.588 323.631 141.127 323.608 138.104C323.585 135.081 321.184 132.667 318.207 132.667C315.252 132.667 312.852 135.128 312.852 138.127C312.852 141.151 315.275 143.588 318.253 143.588Z" fill="#B0AFAF"/>
</g>
<g clip-path="url(#clip14_828_8387)">
<path d="M372.006 151.557V163.486C372.006 163.955 371.637 164.353 371.176 164.376H367.967L366.998 175.743C366.952 176.212 366.582 176.54 366.121 176.54H358.157C357.696 176.54 357.326 176.212 357.28 175.743L356.311 164.376H353.079C352.618 164.376 352.225 163.978 352.225 163.509V151.58C352.225 148.744 354.487 146.447 357.28 146.424H366.952C369.744 146.424 372.006 148.744 372.006 151.58V151.557ZM362.127 143.588C365.105 143.588 367.506 141.127 367.482 138.104C367.459 135.081 365.059 132.667 362.081 132.667C359.127 132.667 356.726 135.128 356.726 138.127C356.726 141.151 359.15 143.588 362.127 143.588Z" fill="#B0AFAF"/>
</g>
<g clip-path="url(#clip15_828_8387)">
<path d="M415.881 151.557V163.486C415.881 163.955 415.512 164.353 415.05 164.376H411.842L410.872 175.743C410.826 176.212 410.457 176.54 409.995 176.54H402.032C401.57 176.54 401.201 176.212 401.155 175.743L400.185 164.376H396.954C396.492 164.376 396.1 163.978 396.1 163.509V151.58C396.1 148.744 398.362 146.447 401.155 146.424H410.826C413.619 146.424 415.881 148.744 415.881 151.58V151.557ZM406.002 143.588C408.98 143.588 411.38 141.127 411.357 138.104C411.334 135.081 408.934 132.667 405.956 132.667C403.001 132.667 400.601 135.128 400.601 138.127C400.601 141.151 403.025 143.588 406.002 143.588Z" fill="#B0AFAF"/>
</g>
<path d="M211.87 185.884C211.692 185.781 211.465 185.842 211.362 186.02L209.685 188.916C209.583 189.093 209.643 189.321 209.821 189.424C209.999 189.527 210.226 189.466 210.329 189.288L211.819 186.714L214.393 188.204C214.571 188.307 214.799 188.247 214.902 188.069C215.004 187.891 214.944 187.664 214.766 187.561L211.87 185.884ZM211.684 186.206L211.325 186.302C212.334 190.087 215.127 195.444 220.236 199.257C225.361 203.082 232.787 205.331 243.001 202.927L242.916 202.566L242.83 202.204C232.818 204.56 225.62 202.347 220.681 198.661C215.727 194.964 213.017 189.761 212.043 186.11L211.684 186.206Z" fill="#3BB8EE"/>
<defs>
<clipPath id="clip0_828_8387">
<rect width="27.5137" height="43.8733" fill="white" transform="translate(1.23901 132.667)"/>
</clipPath>
<clipPath id="clip1_828_8387">
<rect width="27.5137" height="43.8733" fill="white" transform="translate(1.23901 227.104)"/>
</clipPath>
<clipPath id="clip2_828_8387">
<rect width="27.5137" height="43.8733" fill="white" transform="translate(45.1135 132.667)"/>
</clipPath>
<clipPath id="clip3_828_8387">
<rect width="27.5137" height="43.8733" fill="white" transform="translate(45.1135 227.104)"/>
</clipPath>
<clipPath id="clip4_828_8387">
<rect width="27.5137" height="43.8733" fill="white" transform="translate(88.9858 132.667)"/>
</clipPath>
<clipPath id="clip5_828_8387">
<rect width="27.5137" height="43.8733" fill="white" transform="translate(88.9858 227.104)"/>
</clipPath>
<clipPath id="clip6_828_8387">
<rect width="27.5137" height="43.8733" fill="white" transform="translate(132.858 132.667)"/>
</clipPath>
<clipPath id="clip7_828_8387">
<rect width="27.5137" height="43.8733" fill="white" transform="translate(132.858 227.104)"/>
</clipPath>
<clipPath id="clip8_828_8387">
<rect width="27.5137" height="43.8733" fill="white" transform="translate(176.732 132.667)"/>
</clipPath>
<clipPath id="clip9_828_8387">
<rect width="27.5137" height="43.8733" fill="white" transform="translate(176.732 227.104)"/>
</clipPath>
<clipPath id="clip10_828_8387">
<rect width="27.5137" height="43.8733" fill="white" transform="translate(220.607 132.667)"/>
</clipPath>
<clipPath id="clip11_828_8387">
<rect width="27.5137" height="43.8733" fill="white" transform="translate(220.607 227.104)"/>
</clipPath>
<clipPath id="clip12_828_8387">
<rect width="27.5137" height="43.8733" fill="white" transform="translate(264.479 132.667)"/>
</clipPath>
<clipPath id="clip13_828_8387">
<rect width="27.5137" height="43.8733" fill="white" transform="translate(308.351 132.667)"/>
</clipPath>
<clipPath id="clip14_828_8387">
<rect width="27.5137" height="43.8733" fill="white" transform="translate(352.226 132.667)"/>
</clipPath>
<clipPath id="clip15_828_8387">
<rect width="27.5137" height="43.8733" fill="white" transform="translate(396.1 132.667)"/>
</clipPath>
</defs>
</svg>
