<svg width="352" height="368" viewBox="0 0 352 368" fill="none" xmlns="http://www.w3.org/2000/svg">
<path d="M81.4746 4.63086L76.5527 18H75.3027L80.6738 3.78125H81.543L81.4746 4.63086ZM85.9473 18L81.0156 4.63086L80.9473 3.78125H81.8164L87.1973 18H85.9473ZM85.0684 12.9805V14.0156H77.5195V12.9805H85.0684ZM92.8516 7.43359V8.39062H87.5586V7.43359H92.8516ZM89.502 4.71875H90.6641V15.4316C90.6641 15.9199 90.7292 16.2878 90.8594 16.5352C90.9896 16.7826 91.1589 16.9486 91.3672 17.0332C91.5755 17.1178 91.8001 17.1602 92.041 17.1602C92.2168 17.1602 92.3861 17.1504 92.5488 17.1309C92.7116 17.1048 92.8581 17.0788 92.9883 17.0527L93.0371 18.0391C92.8939 18.0846 92.7083 18.1204 92.4805 18.1465C92.2526 18.179 92.0247 18.1953 91.7969 18.1953C91.3477 18.1953 90.9505 18.1139 90.6055 17.9512C90.2604 17.7819 89.9902 17.4954 89.7949 17.0918C89.5996 16.6816 89.502 16.125 89.502 15.4219V4.71875ZM101.484 3V18H100.322V3H101.484ZM108.76 18.1953C108.07 18.1953 107.435 18.0684 106.855 17.8145C106.283 17.5605 105.781 17.2025 105.352 16.7402C104.928 16.278 104.6 15.7311 104.365 15.0996C104.137 14.4616 104.023 13.765 104.023 13.0098V12.5898C104.023 11.776 104.144 11.0404 104.385 10.3828C104.626 9.72526 104.958 9.16211 105.381 8.69336C105.804 8.22461 106.286 7.86654 106.826 7.61914C107.373 7.36523 107.946 7.23828 108.545 7.23828C109.215 7.23828 109.811 7.35872 110.332 7.59961C110.853 7.83398 111.289 8.16927 111.641 8.60547C111.999 9.03516 112.269 9.54622 112.451 10.1387C112.633 10.7246 112.725 11.3724 112.725 12.082V12.7949H104.727V11.7988H111.562V11.6621C111.549 11.0697 111.429 10.5163 111.201 10.002C110.98 9.48112 110.648 9.05794 110.205 8.73242C109.762 8.4069 109.209 8.24414 108.545 8.24414C108.05 8.24414 107.594 8.34831 107.178 8.55664C106.768 8.76497 106.413 9.06445 106.113 9.45508C105.82 9.83919 105.592 10.2982 105.43 10.832C105.273 11.3594 105.195 11.9453 105.195 12.5898V13.0098C105.195 13.5957 105.28 14.1426 105.449 14.6504C105.625 15.1517 105.872 15.5944 106.191 15.9785C106.517 16.3626 106.901 16.6621 107.344 16.877C107.786 17.0918 108.275 17.1992 108.809 17.1992C109.434 17.1992 109.987 17.0853 110.469 16.8574C110.951 16.623 111.383 16.2552 111.768 15.7539L112.5 16.3203C112.272 16.6589 111.986 16.9714 111.641 17.2578C111.302 17.5443 110.895 17.7721 110.42 17.9414C109.945 18.1107 109.391 18.1953 108.76 18.1953ZM121.455 16.1055V10.6562C121.455 10.1549 121.351 9.72201 121.143 9.35742C120.934 8.99284 120.628 8.71289 120.225 8.51758C119.821 8.32227 119.323 8.22461 118.73 8.22461C118.184 8.22461 117.695 8.32227 117.266 8.51758C116.842 8.70638 116.507 8.96354 116.26 9.28906C116.019 9.60807 115.898 9.96289 115.898 10.3535L114.727 10.3438C114.727 9.94661 114.824 9.5625 115.02 9.19141C115.215 8.82031 115.492 8.48828 115.85 8.19531C116.208 7.90234 116.634 7.67122 117.129 7.50195C117.63 7.32617 118.18 7.23828 118.779 7.23828C119.535 7.23828 120.199 7.36523 120.771 7.61914C121.351 7.87305 121.803 8.25391 122.129 8.76172C122.454 9.26953 122.617 9.90755 122.617 10.6758V15.7832C122.617 16.1478 122.643 16.5254 122.695 16.916C122.754 17.3066 122.835 17.6289 122.939 17.8828V18H121.699C121.621 17.7656 121.559 17.4727 121.514 17.1211C121.475 16.763 121.455 16.4245 121.455 16.1055ZM121.729 11.8477L121.748 12.7461H119.453C118.854 12.7461 118.317 12.8014 117.842 12.9121C117.373 13.0163 116.976 13.1725 116.65 13.3809C116.325 13.5827 116.074 13.8268 115.898 14.1133C115.729 14.3997 115.645 14.7253 115.645 15.0898C115.645 15.4674 115.739 15.8125 115.928 16.125C116.123 16.4375 116.396 16.6882 116.748 16.877C117.106 17.0592 117.529 17.1504 118.018 17.1504C118.669 17.1504 119.242 17.0299 119.736 16.7891C120.238 16.5482 120.651 16.2324 120.977 15.8418C121.302 15.4512 121.52 15.0247 121.631 14.5625L122.139 15.2363C122.054 15.5618 121.898 15.8971 121.67 16.2422C121.449 16.5807 121.159 16.8997 120.801 17.1992C120.443 17.4922 120.02 17.7331 119.531 17.9219C119.049 18.1042 118.503 18.1953 117.891 18.1953C117.201 18.1953 116.598 18.0651 116.084 17.8047C115.576 17.5443 115.179 17.1895 114.893 16.7402C114.613 16.2845 114.473 15.7702 114.473 15.1973C114.473 14.6764 114.583 14.2109 114.805 13.8008C115.026 13.3841 115.345 13.0326 115.762 12.7461C116.185 12.4531 116.693 12.2318 117.285 12.082C117.884 11.9258 118.555 11.8477 119.297 11.8477H121.729ZM132.08 15.3047C132.08 15.0182 132.008 14.735 131.865 14.4551C131.722 14.1751 131.445 13.918 131.035 13.6836C130.632 13.4492 130.036 13.2507 129.248 13.0879C128.662 12.9577 128.138 12.8112 127.676 12.6484C127.22 12.4857 126.836 12.2904 126.523 12.0625C126.211 11.8346 125.973 11.5612 125.811 11.2422C125.648 10.9232 125.566 10.5456 125.566 10.1094C125.566 9.71875 125.651 9.35091 125.82 9.00586C125.996 8.6543 126.243 8.34831 126.562 8.08789C126.888 7.82096 127.279 7.61263 127.734 7.46289C128.197 7.31315 128.714 7.23828 129.287 7.23828C130.101 7.23828 130.798 7.37826 131.377 7.6582C131.963 7.93164 132.409 8.30599 132.715 8.78125C133.027 9.25651 133.184 9.79362 133.184 10.3926H132.021C132.021 10.028 131.914 9.68294 131.699 9.35742C131.491 9.0319 131.182 8.76497 130.771 8.55664C130.368 8.34831 129.873 8.24414 129.287 8.24414C128.682 8.24414 128.19 8.33529 127.812 8.51758C127.435 8.69987 127.158 8.93099 126.982 9.21094C126.813 9.49089 126.729 9.7806 126.729 10.0801C126.729 10.3145 126.764 10.5293 126.836 10.7246C126.914 10.9134 127.051 11.0892 127.246 11.252C127.448 11.4147 127.734 11.5677 128.105 11.7109C128.477 11.8542 128.958 11.9941 129.551 12.1309C130.404 12.3197 131.1 12.5508 131.641 12.8242C132.188 13.0911 132.591 13.4232 132.852 13.8203C133.112 14.2109 133.242 14.6862 133.242 15.2461C133.242 15.6823 133.151 16.0827 132.969 16.4473C132.786 16.8053 132.523 17.1146 132.178 17.375C131.839 17.6354 131.429 17.8372 130.947 17.9805C130.472 18.1237 129.938 18.1953 129.346 18.1953C128.454 18.1953 127.699 18.0488 127.08 17.7559C126.468 17.4564 126.003 17.0658 125.684 16.584C125.371 16.0957 125.215 15.5781 125.215 15.0312H126.377C126.416 15.5781 126.589 16.0111 126.895 16.3301C127.201 16.6426 127.575 16.8639 128.018 16.9941C128.467 17.1243 128.91 17.1895 129.346 17.1895C129.945 17.1895 130.446 17.1016 130.85 16.9258C131.253 16.75 131.559 16.5189 131.768 16.2324C131.976 15.946 132.08 15.6367 132.08 15.3047ZM139.883 7.43359V8.39062H134.59V7.43359H139.883ZM136.533 4.71875H137.695V15.4316C137.695 15.9199 137.76 16.2878 137.891 16.5352C138.021 16.7826 138.19 16.9486 138.398 17.0332C138.607 17.1178 138.831 17.1602 139.072 17.1602C139.248 17.1602 139.417 17.1504 139.58 17.1309C139.743 17.1048 139.889 17.0788 140.02 17.0527L140.068 18.0391C139.925 18.0846 139.74 18.1204 139.512 18.1465C139.284 18.179 139.056 18.1953 138.828 18.1953C138.379 18.1953 137.982 18.1139 137.637 17.9512C137.292 17.7819 137.021 17.4954 136.826 17.0918C136.631 16.6816 136.533 16.125 136.533 15.4219V4.71875ZM156.387 15.8027V18H146.66V16.125L151.26 11.1934C151.722 10.679 152.087 10.2266 152.354 9.83594C152.62 9.4388 152.812 9.08398 152.93 8.77148C153.053 8.45247 153.115 8.14974 153.115 7.86328C153.115 7.43359 153.044 7.06576 152.9 6.75977C152.757 6.44727 152.546 6.20638 152.266 6.03711C151.992 5.86784 151.654 5.7832 151.25 5.7832C150.82 5.7832 150.449 5.88737 150.137 6.0957C149.831 6.30404 149.596 6.59375 149.434 6.96484C149.277 7.33594 149.199 7.75586 149.199 8.22461H146.377C146.377 7.37826 146.579 6.60352 146.982 5.90039C147.386 5.19076 147.956 4.6276 148.691 4.21094C149.427 3.78776 150.299 3.57617 151.309 3.57617C152.305 3.57617 153.145 3.73893 153.828 4.06445C154.518 4.38346 155.039 4.8457 155.391 5.45117C155.749 6.05013 155.928 6.76628 155.928 7.59961C155.928 8.06836 155.853 8.52734 155.703 8.97656C155.553 9.41927 155.339 9.86198 155.059 10.3047C154.785 10.7409 154.453 11.1836 154.062 11.6328C153.672 12.082 153.239 12.5475 152.764 13.0293L150.293 15.8027H156.387ZM158.398 16.6426C158.398 16.2259 158.542 15.8776 158.828 15.5977C159.121 15.3177 159.508 15.1777 159.99 15.1777C160.472 15.1777 160.856 15.3177 161.143 15.5977C161.436 15.8776 161.582 16.2259 161.582 16.6426C161.582 17.0592 161.436 17.4076 161.143 17.6875C160.856 17.9674 160.472 18.1074 159.99 18.1074C159.508 18.1074 159.121 17.9674 158.828 17.6875C158.542 17.4076 158.398 17.0592 158.398 16.6426ZM173.672 15.8027V18H163.945V16.125L168.545 11.1934C169.007 10.679 169.372 10.2266 169.639 9.83594C169.906 9.4388 170.098 9.08398 170.215 8.77148C170.339 8.45247 170.4 8.14974 170.4 7.86328C170.4 7.43359 170.329 7.06576 170.186 6.75977C170.042 6.44727 169.831 6.20638 169.551 6.03711C169.277 5.86784 168.939 5.7832 168.535 5.7832C168.105 5.7832 167.734 5.88737 167.422 6.0957C167.116 6.30404 166.882 6.59375 166.719 6.96484C166.562 7.33594 166.484 7.75586 166.484 8.22461H163.662C163.662 7.37826 163.864 6.60352 164.268 5.90039C164.671 5.19076 165.241 4.6276 165.977 4.21094C166.712 3.78776 167.585 3.57617 168.594 3.57617C169.59 3.57617 170.43 3.73893 171.113 4.06445C171.803 4.38346 172.324 4.8457 172.676 5.45117C173.034 6.05013 173.213 6.76628 173.213 7.59961C173.213 8.06836 173.138 8.52734 172.988 8.97656C172.839 9.41927 172.624 9.86198 172.344 10.3047C172.07 10.7409 171.738 11.1836 171.348 11.6328C170.957 12.082 170.524 12.5475 170.049 13.0293L167.578 15.8027H173.672ZM180.527 3H183.34V15.5781L183.057 18H180.527V3ZM190.029 12.6094V12.8145C190.029 13.6022 189.945 14.3249 189.775 14.9824C189.613 15.64 189.359 16.2096 189.014 16.6914C188.669 17.1667 188.239 17.5378 187.725 17.8047C187.217 18.0651 186.618 18.1953 185.928 18.1953C185.283 18.1953 184.723 18.0651 184.248 17.8047C183.779 17.5443 183.385 17.1764 183.066 16.7012C182.747 16.2259 182.49 15.6693 182.295 15.0312C182.1 14.3932 181.953 13.6966 181.855 12.9414V12.4922C181.953 11.737 182.1 11.0404 182.295 10.4023C182.49 9.76432 182.747 9.20768 183.066 8.73242C183.385 8.25716 183.779 7.88932 184.248 7.62891C184.717 7.36849 185.27 7.23828 185.908 7.23828C186.605 7.23828 187.21 7.37174 187.725 7.63867C188.245 7.89909 188.675 8.27018 189.014 8.75195C189.359 9.22721 189.613 9.79362 189.775 10.4512C189.945 11.1022 190.029 11.8216 190.029 12.6094ZM187.217 12.8145V12.6094C187.217 12.1797 187.184 11.776 187.119 11.3984C187.061 11.0143 186.956 10.679 186.807 10.3926C186.657 10.0996 186.452 9.86849 186.191 9.69922C185.938 9.52995 185.609 9.44531 185.205 9.44531C184.821 9.44531 184.495 9.51042 184.229 9.64062C183.962 9.77083 183.74 9.95312 183.564 10.1875C183.395 10.4219 183.268 10.7018 183.184 11.0273C183.099 11.3464 183.047 11.6979 183.027 12.082V13.3613C183.047 13.8757 183.132 14.3314 183.281 14.7285C183.438 15.1191 183.672 15.4284 183.984 15.6562C184.303 15.8776 184.717 15.9883 185.225 15.9883C185.622 15.9883 185.951 15.9102 186.211 15.7539C186.471 15.5977 186.673 15.3763 186.816 15.0898C186.966 14.8034 187.07 14.4681 187.129 14.084C187.188 13.6934 187.217 13.2702 187.217 12.8145ZM194.746 7.43359V18H191.924V7.43359H194.746ZM191.748 4.67969C191.748 4.26953 191.891 3.93099 192.178 3.66406C192.464 3.39714 192.848 3.26367 193.33 3.26367C193.805 3.26367 194.186 3.39714 194.473 3.66406C194.766 3.93099 194.912 4.26953 194.912 4.67969C194.912 5.08984 194.766 5.42839 194.473 5.69531C194.186 5.96224 193.805 6.0957 193.33 6.0957C192.848 6.0957 192.464 5.96224 192.178 5.69531C191.891 5.42839 191.748 5.08984 191.748 4.67969ZM200.039 3V18H197.217V3H200.039ZM205.332 3V18H202.51V3H205.332ZM210.625 7.43359V18H207.803V7.43359H210.625ZM207.627 4.67969C207.627 4.26953 207.77 3.93099 208.057 3.66406C208.343 3.39714 208.727 3.26367 209.209 3.26367C209.684 3.26367 210.065 3.39714 210.352 3.66406C210.645 3.93099 210.791 4.26953 210.791 4.67969C210.791 5.08984 210.645 5.42839 210.352 5.69531C210.065 5.96224 209.684 6.0957 209.209 6.0957C208.727 6.0957 208.343 5.96224 208.057 5.69531C207.77 5.42839 207.627 5.08984 207.627 4.67969ZM212.5 12.8242V12.6191C212.5 11.8444 212.611 11.1315 212.832 10.4805C213.053 9.82292 213.376 9.25326 213.799 8.77148C214.222 8.28971 214.743 7.91536 215.361 7.64844C215.98 7.375 216.689 7.23828 217.49 7.23828C218.291 7.23828 219.004 7.375 219.629 7.64844C220.254 7.91536 220.778 8.28971 221.201 8.77148C221.631 9.25326 221.956 9.82292 222.178 10.4805C222.399 11.1315 222.51 11.8444 222.51 12.6191V12.8242C222.51 13.5924 222.399 14.3053 222.178 14.9629C221.956 15.6139 221.631 16.1836 221.201 16.6719C220.778 17.1536 220.257 17.528 219.639 17.7949C219.02 18.0618 218.311 18.1953 217.51 18.1953C216.709 18.1953 215.996 18.0618 215.371 17.7949C214.753 17.528 214.229 17.1536 213.799 16.6719C213.376 16.1836 213.053 15.6139 212.832 14.9629C212.611 14.3053 212.5 13.5924 212.5 12.8242ZM215.312 12.6191V12.8242C215.312 13.2669 215.352 13.6803 215.43 14.0645C215.508 14.4486 215.632 14.7871 215.801 15.0801C215.977 15.3665 216.204 15.5911 216.484 15.7539C216.764 15.9167 217.106 15.998 217.51 15.998C217.9 15.998 218.236 15.9167 218.516 15.7539C218.796 15.5911 219.02 15.3665 219.189 15.0801C219.359 14.7871 219.482 14.4486 219.561 14.0645C219.645 13.6803 219.688 13.2669 219.688 12.8242V12.6191C219.688 12.1895 219.645 11.7858 219.561 11.4082C219.482 11.0241 219.355 10.6855 219.18 10.3926C219.01 10.0931 218.786 9.85872 218.506 9.68945C218.226 9.52018 217.887 9.43555 217.49 9.43555C217.093 9.43555 216.755 9.52018 216.475 9.68945C216.201 9.85872 215.977 10.0931 215.801 10.3926C215.632 10.6855 215.508 11.0241 215.43 11.4082C215.352 11.7858 215.312 12.1895 215.312 12.6191ZM226.992 9.68945V18H224.18V7.43359H226.816L226.992 9.68945ZM226.582 12.3457H225.82C225.82 11.5645 225.921 10.8613 226.123 10.2363C226.325 9.60482 226.608 9.06771 226.973 8.625C227.337 8.17578 227.77 7.83398 228.271 7.59961C228.779 7.35872 229.346 7.23828 229.971 7.23828C230.465 7.23828 230.918 7.3099 231.328 7.45312C231.738 7.59635 232.09 7.82422 232.383 8.13672C232.682 8.44922 232.91 8.86263 233.066 9.37695C233.229 9.89128 233.311 10.5195 233.311 11.2617V18H230.479V11.252C230.479 10.7832 230.413 10.4186 230.283 10.1582C230.153 9.89779 229.961 9.71549 229.707 9.61133C229.46 9.50065 229.154 9.44531 228.789 9.44531C228.411 9.44531 228.083 9.52018 227.803 9.66992C227.529 9.81966 227.301 10.028 227.119 10.2949C226.943 10.5553 226.81 10.8613 226.719 11.2129C226.628 11.5645 226.582 11.9421 226.582 12.3457ZM242.021 9.46484V22.0625H240.85V7.43359H241.943L242.021 9.46484ZM249.365 12.6191V12.8242C249.365 13.612 249.274 14.3346 249.092 14.9922C248.91 15.6497 248.646 16.2194 248.301 16.7012C247.962 17.1764 247.542 17.5443 247.041 17.8047C246.54 18.0651 245.97 18.1953 245.332 18.1953C244.701 18.1953 244.137 18.0977 243.643 17.9023C243.148 17.707 242.721 17.4303 242.363 17.0723C242.012 16.7077 241.729 16.2845 241.514 15.8027C241.305 15.3145 241.159 14.7806 241.074 14.2012V11.4961C241.172 10.8581 241.331 10.2786 241.553 9.75781C241.774 9.23698 242.057 8.78776 242.402 8.41016C242.754 8.03255 243.171 7.74284 243.652 7.54102C244.134 7.33919 244.684 7.23828 245.303 7.23828C245.947 7.23828 246.52 7.36523 247.021 7.61914C247.529 7.86654 247.956 8.22786 248.301 8.70312C248.652 9.17188 248.916 9.73828 249.092 10.4023C249.274 11.0599 249.365 11.7988 249.365 12.6191ZM248.193 12.8242V12.6191C248.193 12.0007 248.128 11.4277 247.998 10.9004C247.874 10.373 247.682 9.91406 247.422 9.52344C247.168 9.1263 246.842 8.81706 246.445 8.5957C246.055 8.37435 245.589 8.26367 245.049 8.26367C244.489 8.26367 244.01 8.35807 243.613 8.54688C243.223 8.72917 242.897 8.97331 242.637 9.2793C242.376 9.57878 242.171 9.90755 242.021 10.2656C241.872 10.6237 241.761 10.9753 241.689 11.3203V14.4355C241.813 14.9303 242.012 15.3893 242.285 15.8125C242.559 16.2292 242.923 16.5645 243.379 16.8184C243.841 17.0658 244.404 17.1895 245.068 17.1895C245.602 17.1895 246.064 17.0788 246.455 16.8574C246.846 16.6361 247.168 16.3268 247.422 15.9297C247.682 15.5326 247.874 15.0703 247.998 14.543C248.128 14.0156 248.193 13.4427 248.193 12.8242ZM256.045 18.1953C255.355 18.1953 254.72 18.0684 254.141 17.8145C253.568 17.5605 253.066 17.2025 252.637 16.7402C252.214 16.278 251.885 15.7311 251.65 15.0996C251.423 14.4616 251.309 13.765 251.309 13.0098V12.5898C251.309 11.776 251.429 11.0404 251.67 10.3828C251.911 9.72526 252.243 9.16211 252.666 8.69336C253.089 8.22461 253.571 7.86654 254.111 7.61914C254.658 7.36523 255.231 7.23828 255.83 7.23828C256.501 7.23828 257.096 7.35872 257.617 7.59961C258.138 7.83398 258.574 8.16927 258.926 8.60547C259.284 9.03516 259.554 9.54622 259.736 10.1387C259.919 10.7246 260.01 11.3724 260.01 12.082V12.7949H252.012V11.7988H258.848V11.6621C258.835 11.0697 258.714 10.5163 258.486 10.002C258.265 9.48112 257.933 9.05794 257.49 8.73242C257.048 8.4069 256.494 8.24414 255.83 8.24414C255.335 8.24414 254.88 8.34831 254.463 8.55664C254.053 8.76497 253.698 9.06445 253.398 9.45508C253.105 9.83919 252.878 10.2982 252.715 10.832C252.559 11.3594 252.48 11.9453 252.48 12.5898V13.0098C252.48 13.5957 252.565 14.1426 252.734 14.6504C252.91 15.1517 253.158 15.5944 253.477 15.9785C253.802 16.3626 254.186 16.6621 254.629 16.877C255.072 17.0918 255.56 17.1992 256.094 17.1992C256.719 17.1992 257.272 17.0853 257.754 16.8574C258.236 16.623 258.669 16.2552 259.053 15.7539L259.785 16.3203C259.557 16.6589 259.271 16.9714 258.926 17.2578C258.587 17.5443 258.18 17.7721 257.705 17.9414C257.23 18.1107 256.676 18.1953 256.045 18.1953ZM261.67 12.8828V12.5605C261.67 11.7923 261.781 11.0827 262.002 10.4316C262.223 9.7806 262.539 9.21745 262.949 8.74219C263.366 8.26693 263.864 7.89909 264.443 7.63867C265.023 7.37174 265.667 7.23828 266.377 7.23828C267.093 7.23828 267.741 7.37174 268.32 7.63867C268.9 7.89909 269.398 8.26693 269.814 8.74219C270.231 9.21745 270.55 9.7806 270.771 10.4316C270.993 11.0827 271.104 11.7923 271.104 12.5605V12.8828C271.104 13.651 270.993 14.3607 270.771 15.0117C270.55 15.6562 270.231 16.2161 269.814 16.6914C269.404 17.1667 268.91 17.5378 268.33 17.8047C267.751 18.0651 267.106 18.1953 266.396 18.1953C265.68 18.1953 265.033 18.0651 264.453 17.8047C263.874 17.5378 263.376 17.1667 262.959 16.6914C262.542 16.2161 262.223 15.6562 262.002 15.0117C261.781 14.3607 261.67 13.651 261.67 12.8828ZM262.832 12.5605V12.8828C262.832 13.4622 262.91 14.0124 263.066 14.5332C263.223 15.0475 263.451 15.5065 263.75 15.9102C264.049 16.3073 264.421 16.6198 264.863 16.8477C265.306 17.0755 265.817 17.1895 266.396 17.1895C266.969 17.1895 267.474 17.0755 267.91 16.8477C268.353 16.6198 268.724 16.3073 269.023 15.9102C269.323 15.5065 269.548 15.0475 269.697 14.5332C269.854 14.0124 269.932 13.4622 269.932 12.8828V12.5605C269.932 11.9876 269.854 11.444 269.697 10.9297C269.548 10.4154 269.32 9.95638 269.014 9.55273C268.714 9.14909 268.343 8.83008 267.9 8.5957C267.458 8.36133 266.95 8.24414 266.377 8.24414C265.804 8.24414 265.296 8.36133 264.854 8.5957C264.417 8.83008 264.046 9.14909 263.74 9.55273C263.441 9.95638 263.213 10.4154 263.057 10.9297C262.907 11.444 262.832 11.9876 262.832 12.5605ZM274.678 9.46484V22.0625H273.506V7.43359H274.6L274.678 9.46484ZM282.021 12.6191V12.8242C282.021 13.612 281.93 14.3346 281.748 14.9922C281.566 15.6497 281.302 16.2194 280.957 16.7012C280.618 17.1764 280.199 17.5443 279.697 17.8047C279.196 18.0651 278.626 18.1953 277.988 18.1953C277.357 18.1953 276.794 18.0977 276.299 17.9023C275.804 17.707 275.378 17.4303 275.02 17.0723C274.668 16.7077 274.385 16.2845 274.17 15.8027C273.962 15.3145 273.815 14.7806 273.73 14.2012V11.4961C273.828 10.8581 273.988 10.2786 274.209 9.75781C274.43 9.23698 274.714 8.78776 275.059 8.41016C275.41 8.03255 275.827 7.74284 276.309 7.54102C276.79 7.33919 277.34 7.23828 277.959 7.23828C278.604 7.23828 279.176 7.36523 279.678 7.61914C280.186 7.86654 280.612 8.22786 280.957 8.70312C281.309 9.17188 281.572 9.73828 281.748 10.4023C281.93 11.0599 282.021 11.7988 282.021 12.6191ZM280.85 12.8242V12.6191C280.85 12.0007 280.785 11.4277 280.654 10.9004C280.531 10.373 280.339 9.91406 280.078 9.52344C279.824 9.1263 279.499 8.81706 279.102 8.5957C278.711 8.37435 278.245 8.26367 277.705 8.26367C277.145 8.26367 276.667 8.35807 276.27 8.54688C275.879 8.72917 275.553 8.97331 275.293 9.2793C275.033 9.57878 274.827 9.90755 274.678 10.2656C274.528 10.6237 274.417 10.9753 274.346 11.3203V14.4355C274.469 14.9303 274.668 15.3893 274.941 15.8125C275.215 16.2292 275.579 16.5645 276.035 16.8184C276.497 17.0658 277.061 17.1895 277.725 17.1895C278.258 17.1895 278.721 17.0788 279.111 16.8574C279.502 16.6361 279.824 16.3268 280.078 15.9297C280.339 15.5326 280.531 15.0703 280.654 14.543C280.785 14.0156 280.85 13.4427 280.85 12.8242ZM285.918 3V18H284.756V3H285.918ZM293.193 18.1953C292.503 18.1953 291.868 18.0684 291.289 17.8145C290.716 17.5605 290.215 17.2025 289.785 16.7402C289.362 16.278 289.033 15.7311 288.799 15.0996C288.571 14.4616 288.457 13.765 288.457 13.0098V12.5898C288.457 11.776 288.577 11.0404 288.818 10.3828C289.059 9.72526 289.391 9.16211 289.814 8.69336C290.238 8.22461 290.719 7.86654 291.26 7.61914C291.807 7.36523 292.38 7.23828 292.979 7.23828C293.649 7.23828 294.245 7.35872 294.766 7.59961C295.286 7.83398 295.723 8.16927 296.074 8.60547C296.432 9.03516 296.702 9.54622 296.885 10.1387C297.067 10.7246 297.158 11.3724 297.158 12.082V12.7949H289.16V11.7988H295.996V11.6621C295.983 11.0697 295.863 10.5163 295.635 10.002C295.413 9.48112 295.081 9.05794 294.639 8.73242C294.196 8.4069 293.643 8.24414 292.979 8.24414C292.484 8.24414 292.028 8.34831 291.611 8.55664C291.201 8.76497 290.846 9.06445 290.547 9.45508C290.254 9.83919 290.026 10.2982 289.863 10.832C289.707 11.3594 289.629 11.9453 289.629 12.5898V13.0098C289.629 13.5957 289.714 14.1426 289.883 14.6504C290.059 15.1517 290.306 15.5944 290.625 15.9785C290.951 16.3626 291.335 16.6621 291.777 16.877C292.22 17.0918 292.708 17.1992 293.242 17.1992C293.867 17.1992 294.421 17.0853 294.902 16.8574C295.384 16.623 295.817 16.2552 296.201 15.7539L296.934 16.3203C296.706 16.6589 296.419 16.9714 296.074 17.2578C295.736 17.5443 295.329 17.7721 294.854 17.9414C294.378 18.1107 293.825 18.1953 293.193 18.1953ZM305.645 3V18H304.482V3H305.645ZM310.137 7.43359V18H308.975V7.43359H310.137ZM308.77 4.37695C308.77 4.1556 308.838 3.97005 308.975 3.82031C309.118 3.66406 309.313 3.58594 309.561 3.58594C309.808 3.58594 310.003 3.66406 310.146 3.82031C310.296 3.97005 310.371 4.1556 310.371 4.37695C310.371 4.5918 310.296 4.77734 310.146 4.93359C310.003 5.08333 309.808 5.1582 309.561 5.1582C309.313 5.1582 309.118 5.08333 308.975 4.93359C308.838 4.77734 308.77 4.5918 308.77 4.37695ZM316.445 16.877L319.834 7.43359H321.035L317.08 18H316.23L316.445 16.877ZM313.379 7.43359L316.807 16.9062L316.992 18H316.133L312.168 7.43359H313.379ZM326.904 18.1953C326.214 18.1953 325.579 18.0684 325 17.8145C324.427 17.5605 323.926 17.2025 323.496 16.7402C323.073 16.278 322.744 15.7311 322.51 15.0996C322.282 14.4616 322.168 13.765 322.168 13.0098V12.5898C322.168 11.776 322.288 11.0404 322.529 10.3828C322.77 9.72526 323.102 9.16211 323.525 8.69336C323.949 8.22461 324.43 7.86654 324.971 7.61914C325.518 7.36523 326.09 7.23828 326.689 7.23828C327.36 7.23828 327.956 7.35872 328.477 7.59961C328.997 7.83398 329.434 8.16927 329.785 8.60547C330.143 9.03516 330.413 9.54622 330.596 10.1387C330.778 10.7246 330.869 11.3724 330.869 12.082V12.7949H322.871V11.7988H329.707V11.6621C329.694 11.0697 329.574 10.5163 329.346 10.002C329.124 9.48112 328.792 9.05794 328.35 8.73242C327.907 8.4069 327.354 8.24414 326.689 8.24414C326.195 8.24414 325.739 8.34831 325.322 8.55664C324.912 8.76497 324.557 9.06445 324.258 9.45508C323.965 9.83919 323.737 10.2982 323.574 10.832C323.418 11.3594 323.34 11.9453 323.34 12.5898V13.0098C323.34 13.5957 323.424 14.1426 323.594 14.6504C323.77 15.1517 324.017 15.5944 324.336 15.9785C324.661 16.3626 325.046 16.6621 325.488 16.877C325.931 17.0918 326.419 17.1992 326.953 17.1992C327.578 17.1992 328.132 17.0853 328.613 16.8574C329.095 16.623 329.528 16.2552 329.912 15.7539L330.645 16.3203C330.417 16.6589 330.13 16.9714 329.785 17.2578C329.447 17.5443 329.04 17.7721 328.564 17.9414C328.089 18.1107 327.536 18.1953 326.904 18.1953ZM79.4629 38.5293L82.0117 30.4336H82.832L82.3438 32.6113L79.6777 41H78.8574L79.4629 38.5293ZM76.8164 30.4336L79.0527 38.5781L79.5312 41H78.6816L75.6152 30.4336H76.8164ZM86.0059 38.5488L88.1836 30.4336H89.3848L86.3184 41H85.4785L86.0059 38.5488ZM82.998 30.4336L85.5078 38.4609L86.1426 41H85.3223L82.5977 32.6016L82.1387 30.4336H82.998ZM92.9297 30.4336V41H91.7676V30.4336H92.9297ZM91.5625 27.377C91.5625 27.1556 91.6309 26.9701 91.7676 26.8203C91.9108 26.6641 92.1061 26.5859 92.3535 26.5859C92.6009 26.5859 92.7962 26.6641 92.9395 26.8203C93.0892 26.9701 93.1641 27.1556 93.1641 27.377C93.1641 27.5918 93.0892 27.7773 92.9395 27.9336C92.7962 28.0833 92.6009 28.1582 92.3535 28.1582C92.1061 28.1582 91.9108 28.0833 91.7676 27.9336C91.6309 27.7773 91.5625 27.5918 91.5625 27.377ZM100.117 30.4336V31.3906H94.8242V30.4336H100.117ZM96.7676 27.7188H97.9297V38.4316C97.9297 38.9199 97.9948 39.2878 98.125 39.5352C98.2552 39.7826 98.4245 39.9486 98.6328 40.0332C98.8411 40.1178 99.0658 40.1602 99.3066 40.1602C99.4824 40.1602 99.6517 40.1504 99.8145 40.1309C99.9772 40.1048 100.124 40.0788 100.254 40.0527L100.303 41.0391C100.16 41.0846 99.974 41.1204 99.7461 41.1465C99.5182 41.179 99.2904 41.1953 99.0625 41.1953C98.6133 41.1953 98.2161 41.1139 97.8711 40.9512C97.526 40.7819 97.2559 40.4954 97.0605 40.0918C96.8652 39.6816 96.7676 39.125 96.7676 38.4219V27.7188ZM103.73 26V41H102.568V26H103.73ZM103.467 35.0625L102.949 34.7695C102.988 34.1445 103.115 33.5586 103.33 33.0117C103.545 32.4648 103.835 31.9831 104.199 31.5664C104.57 31.1497 105.003 30.8242 105.498 30.5898C105.999 30.3555 106.553 30.2383 107.158 30.2383C107.686 30.2383 108.158 30.3099 108.574 30.4531C108.991 30.5964 109.346 30.8242 109.639 31.1367C109.932 31.4492 110.153 31.8496 110.303 32.3379C110.459 32.8262 110.537 33.4219 110.537 34.125V41H109.365V34.1152C109.365 33.3861 109.264 32.8164 109.062 32.4062C108.861 31.9896 108.574 31.6934 108.203 31.5176C107.832 31.3418 107.393 31.2539 106.885 31.2539C106.325 31.2539 105.833 31.3776 105.41 31.625C104.993 31.8659 104.642 32.1816 104.355 32.5723C104.076 32.9564 103.861 33.3698 103.711 33.8125C103.561 34.2487 103.48 34.6654 103.467 35.0625ZM124.854 39.1055V33.6562C124.854 33.1549 124.749 32.722 124.541 32.3574C124.333 31.9928 124.027 31.7129 123.623 31.5176C123.219 31.3223 122.721 31.2246 122.129 31.2246C121.582 31.2246 121.094 31.3223 120.664 31.5176C120.241 31.7064 119.906 31.9635 119.658 32.2891C119.417 32.6081 119.297 32.9629 119.297 33.3535L118.125 33.3438C118.125 32.9466 118.223 32.5625 118.418 32.1914C118.613 31.8203 118.89 31.4883 119.248 31.1953C119.606 30.9023 120.033 30.6712 120.527 30.502C121.029 30.3262 121.579 30.2383 122.178 30.2383C122.933 30.2383 123.597 30.3652 124.17 30.6191C124.749 30.873 125.202 31.2539 125.527 31.7617C125.853 32.2695 126.016 32.9076 126.016 33.6758V38.7832C126.016 39.1478 126.042 39.5254 126.094 39.916C126.152 40.3066 126.234 40.6289 126.338 40.8828V41H125.098C125.02 40.7656 124.958 40.4727 124.912 40.1211C124.873 39.763 124.854 39.4245 124.854 39.1055ZM125.127 34.8477L125.146 35.7461H122.852C122.253 35.7461 121.715 35.8014 121.24 35.9121C120.771 36.0163 120.374 36.1725 120.049 36.3809C119.723 36.5827 119.473 36.8268 119.297 37.1133C119.128 37.3997 119.043 37.7253 119.043 38.0898C119.043 38.4674 119.137 38.8125 119.326 39.125C119.521 39.4375 119.795 39.6882 120.146 39.877C120.505 40.0592 120.928 40.1504 121.416 40.1504C122.067 40.1504 122.64 40.0299 123.135 39.7891C123.636 39.5482 124.049 39.2324 124.375 38.8418C124.701 38.4512 124.919 38.0247 125.029 37.5625L125.537 38.2363C125.452 38.5618 125.296 38.8971 125.068 39.2422C124.847 39.5807 124.557 39.8997 124.199 40.1992C123.841 40.4922 123.418 40.7331 122.93 40.9219C122.448 41.1042 121.901 41.1953 121.289 41.1953C120.599 41.1953 119.997 41.0651 119.482 40.8047C118.975 40.5443 118.577 40.1895 118.291 39.7402C118.011 39.2845 117.871 38.7702 117.871 38.1973C117.871 37.6764 117.982 37.2109 118.203 36.8008C118.424 36.3841 118.743 36.0326 119.16 35.7461C119.583 35.4531 120.091 35.2318 120.684 35.082C121.283 34.9258 121.953 34.8477 122.695 34.8477H125.127ZM137.148 39.877L140.537 30.4336H141.738L137.783 41H136.934L137.148 39.877ZM134.082 30.4336L137.51 39.9062L137.695 41H136.836L132.871 30.4336H134.082ZM144.961 30.4336V41H143.799V30.4336H144.961ZM143.594 27.377C143.594 27.1556 143.662 26.9701 143.799 26.8203C143.942 26.6641 144.137 26.5859 144.385 26.5859C144.632 26.5859 144.827 26.6641 144.971 26.8203C145.12 26.9701 145.195 27.1556 145.195 27.377C145.195 27.5918 145.12 27.7773 144.971 27.9336C144.827 28.0833 144.632 28.1582 144.385 28.1582C144.137 28.1582 143.942 28.0833 143.799 27.9336C143.662 27.7773 143.594 27.5918 143.594 27.377ZM154.482 38.3047C154.482 38.0182 154.411 37.735 154.268 37.4551C154.124 37.1751 153.848 36.918 153.438 36.6836C153.034 36.4492 152.438 36.2507 151.65 36.0879C151.064 35.9577 150.54 35.8112 150.078 35.6484C149.622 35.4857 149.238 35.2904 148.926 35.0625C148.613 34.8346 148.376 34.5612 148.213 34.2422C148.05 33.9232 147.969 33.5456 147.969 33.1094C147.969 32.7188 148.053 32.3509 148.223 32.0059C148.398 31.6543 148.646 31.3483 148.965 31.0879C149.29 30.821 149.681 30.6126 150.137 30.4629C150.599 30.3132 151.117 30.2383 151.689 30.2383C152.503 30.2383 153.2 30.3783 153.779 30.6582C154.365 30.9316 154.811 31.306 155.117 31.7812C155.43 32.2565 155.586 32.7936 155.586 33.3926H154.424C154.424 33.028 154.316 32.6829 154.102 32.3574C153.893 32.0319 153.584 31.765 153.174 31.5566C152.77 31.3483 152.275 31.2441 151.689 31.2441C151.084 31.2441 150.592 31.3353 150.215 31.5176C149.837 31.6999 149.561 31.931 149.385 32.2109C149.215 32.4909 149.131 32.7806 149.131 33.0801C149.131 33.3145 149.167 33.5293 149.238 33.7246C149.316 33.9134 149.453 34.0892 149.648 34.252C149.85 34.4147 150.137 34.5677 150.508 34.7109C150.879 34.8542 151.361 34.9941 151.953 35.1309C152.806 35.3197 153.503 35.5508 154.043 35.8242C154.59 36.0911 154.993 36.4232 155.254 36.8203C155.514 37.2109 155.645 37.6862 155.645 38.2461C155.645 38.6823 155.553 39.0827 155.371 39.4473C155.189 39.8053 154.925 40.1146 154.58 40.375C154.242 40.6354 153.831 40.8372 153.35 40.9805C152.874 41.1237 152.34 41.1953 151.748 41.1953C150.856 41.1953 150.101 41.0488 149.482 40.7559C148.87 40.4564 148.405 40.0658 148.086 39.584C147.773 39.0957 147.617 38.5781 147.617 38.0312H148.779C148.818 38.5781 148.991 39.0111 149.297 39.3301C149.603 39.6426 149.977 39.8639 150.42 39.9941C150.869 40.1243 151.312 40.1895 151.748 40.1895C152.347 40.1895 152.848 40.1016 153.252 39.9258C153.656 39.75 153.962 39.5189 154.17 39.2324C154.378 38.946 154.482 38.6367 154.482 38.3047ZM159.59 30.4336V41H158.428V30.4336H159.59ZM158.223 27.377C158.223 27.1556 158.291 26.9701 158.428 26.8203C158.571 26.6641 158.766 26.5859 159.014 26.5859C159.261 26.5859 159.456 26.6641 159.6 26.8203C159.749 26.9701 159.824 27.1556 159.824 27.377C159.824 27.5918 159.749 27.7773 159.6 27.9336C159.456 28.0833 159.261 28.1582 159.014 28.1582C158.766 28.1582 158.571 28.0833 158.428 27.9336C158.291 27.7773 158.223 27.5918 158.223 27.377ZM162.139 35.8828V35.5605C162.139 34.7923 162.249 34.0827 162.471 33.4316C162.692 32.7806 163.008 32.2174 163.418 31.7422C163.835 31.2669 164.333 30.8991 164.912 30.6387C165.492 30.3717 166.136 30.2383 166.846 30.2383C167.562 30.2383 168.21 30.3717 168.789 30.6387C169.368 30.8991 169.867 31.2669 170.283 31.7422C170.7 32.2174 171.019 32.7806 171.24 33.4316C171.462 34.0827 171.572 34.7923 171.572 35.5605V35.8828C171.572 36.651 171.462 37.3607 171.24 38.0117C171.019 38.6562 170.7 39.2161 170.283 39.6914C169.873 40.1667 169.378 40.5378 168.799 40.8047C168.219 41.0651 167.575 41.1953 166.865 41.1953C166.149 41.1953 165.501 41.0651 164.922 40.8047C164.342 40.5378 163.844 40.1667 163.428 39.6914C163.011 39.2161 162.692 38.6562 162.471 38.0117C162.249 37.3607 162.139 36.651 162.139 35.8828ZM163.301 35.5605V35.8828C163.301 36.4622 163.379 37.0124 163.535 37.5332C163.691 38.0475 163.919 38.5065 164.219 38.9102C164.518 39.3073 164.889 39.6198 165.332 39.8477C165.775 40.0755 166.286 40.1895 166.865 40.1895C167.438 40.1895 167.943 40.0755 168.379 39.8477C168.822 39.6198 169.193 39.3073 169.492 38.9102C169.792 38.5065 170.016 38.0475 170.166 37.5332C170.322 37.0124 170.4 36.4622 170.4 35.8828V35.5605C170.4 34.9876 170.322 34.444 170.166 33.9297C170.016 33.4154 169.788 32.9564 169.482 32.5527C169.183 32.1491 168.812 31.8301 168.369 31.5957C167.926 31.3613 167.419 31.2441 166.846 31.2441C166.273 31.2441 165.765 31.3613 165.322 31.5957C164.886 31.8301 164.515 32.1491 164.209 32.5527C163.91 32.9564 163.682 33.4154 163.525 33.9297C163.376 34.444 163.301 34.9876 163.301 35.5605ZM175.156 32.6895V41H173.994V30.4336H175.107L175.156 32.6895ZM174.893 35.0625L174.375 34.7695C174.414 34.1445 174.541 33.5586 174.756 33.0117C174.971 32.4648 175.26 31.9831 175.625 31.5664C175.996 31.1497 176.429 30.8242 176.924 30.5898C177.425 30.3555 177.979 30.2383 178.584 30.2383C179.111 30.2383 179.583 30.3099 180 30.4531C180.417 30.5964 180.771 30.8242 181.064 31.1367C181.357 31.4492 181.579 31.8496 181.729 32.3379C181.885 32.8262 181.963 33.4219 181.963 34.125V41H180.791V34.1152C180.791 33.3861 180.69 32.8164 180.488 32.4062C180.286 31.9896 180 31.6934 179.629 31.5176C179.258 31.3418 178.818 31.2539 178.311 31.2539C177.751 31.2539 177.259 31.3776 176.836 31.625C176.419 31.8659 176.068 32.1816 175.781 32.5723C175.501 32.9564 175.286 33.3698 175.137 33.8125C174.987 34.2487 174.906 34.6654 174.893 35.0625ZM191.172 30.4336V41H190.01V30.4336H191.172ZM189.805 27.377C189.805 27.1556 189.873 26.9701 190.01 26.8203C190.153 26.6641 190.348 26.5859 190.596 26.5859C190.843 26.5859 191.038 26.6641 191.182 26.8203C191.331 26.9701 191.406 27.1556 191.406 27.377C191.406 27.5918 191.331 27.7773 191.182 27.9336C191.038 28.0833 190.843 28.1582 190.596 28.1582C190.348 28.1582 190.153 28.0833 190.01 27.9336C189.873 27.7773 189.805 27.5918 189.805 27.377ZM195.469 32.6211V41H194.297V30.4336H195.42L195.469 32.6211ZM195.254 35.0625L194.688 34.7695C194.727 34.1445 194.844 33.5586 195.039 33.0117C195.241 32.4648 195.521 31.9831 195.879 31.5664C196.237 31.1497 196.667 30.8242 197.168 30.5898C197.669 30.3555 198.239 30.2383 198.877 30.2383C199.391 30.2383 199.857 30.3099 200.273 30.4531C200.697 30.5898 201.055 30.8079 201.348 31.1074C201.647 31.4004 201.878 31.7845 202.041 32.2598C202.204 32.735 202.285 33.3047 202.285 33.9688V41H201.123V34.0078C201.123 33.3047 201.012 32.7546 200.791 32.3574C200.576 31.9603 200.273 31.6771 199.883 31.5078C199.499 31.3385 199.053 31.2539 198.545 31.2539C197.946 31.2539 197.438 31.3776 197.021 31.625C196.611 31.8659 196.276 32.1816 196.016 32.5723C195.762 32.9564 195.573 33.3698 195.449 33.8125C195.326 34.2487 195.26 34.6654 195.254 35.0625ZM202.275 34.1445L201.494 34.1641C201.527 33.6497 201.644 33.1582 201.846 32.6895C202.054 32.2207 202.337 31.804 202.695 31.4395C203.053 31.0684 203.48 30.7754 203.975 30.5605C204.476 30.3457 205.039 30.2383 205.664 30.2383C206.211 30.2383 206.699 30.3132 207.129 30.4629C207.559 30.6061 207.92 30.8372 208.213 31.1562C208.512 31.4688 208.74 31.8691 208.896 32.3574C209.053 32.8457 209.131 33.4316 209.131 34.1152V41H207.959V34.1055C207.959 33.3568 207.848 32.7773 207.627 32.3672C207.412 31.9505 207.113 31.6608 206.729 31.498C206.344 31.3353 205.895 31.2539 205.381 31.2539C204.873 31.2604 204.427 31.3548 204.043 31.5371C203.659 31.7129 203.337 31.9473 203.076 32.2402C202.822 32.5267 202.627 32.8359 202.49 33.168C202.36 33.5 202.288 33.8255 202.275 34.1445ZM213.252 32.4648V45.0625H212.08V30.4336H213.174L213.252 32.4648ZM220.596 35.6191V35.8242C220.596 36.612 220.505 37.3346 220.322 37.9922C220.14 38.6497 219.876 39.2194 219.531 39.7012C219.193 40.1764 218.773 40.5443 218.271 40.8047C217.77 41.0651 217.201 41.1953 216.562 41.1953C215.931 41.1953 215.368 41.0977 214.873 40.9023C214.378 40.707 213.952 40.4303 213.594 40.0723C213.242 39.7077 212.959 39.2845 212.744 38.8027C212.536 38.3145 212.389 37.7806 212.305 37.2012V34.4961C212.402 33.8581 212.562 33.2786 212.783 32.7578C213.005 32.237 213.288 31.7878 213.633 31.4102C213.984 31.0326 214.401 30.7428 214.883 30.541C215.365 30.3392 215.915 30.2383 216.533 30.2383C217.178 30.2383 217.751 30.3652 218.252 30.6191C218.76 30.8665 219.186 31.2279 219.531 31.7031C219.883 32.1719 220.146 32.7383 220.322 33.4023C220.505 34.0599 220.596 34.7988 220.596 35.6191ZM219.424 35.8242V35.6191C219.424 35.0007 219.359 34.4277 219.229 33.9004C219.105 33.373 218.913 32.9141 218.652 32.5234C218.398 32.1263 218.073 31.8171 217.676 31.5957C217.285 31.3743 216.82 31.2637 216.279 31.2637C215.719 31.2637 215.241 31.3581 214.844 31.5469C214.453 31.7292 214.128 31.9733 213.867 32.2793C213.607 32.5788 213.402 32.9076 213.252 33.2656C213.102 33.6237 212.992 33.9753 212.92 34.3203V37.4355C213.044 37.9303 213.242 38.3893 213.516 38.8125C213.789 39.2292 214.154 39.5645 214.609 39.8184C215.072 40.0658 215.635 40.1895 216.299 40.1895C216.833 40.1895 217.295 40.0788 217.686 39.8574C218.076 39.6361 218.398 39.3268 218.652 38.9297C218.913 38.5326 219.105 38.0703 219.229 37.543C219.359 37.0156 219.424 36.4427 219.424 35.8242ZM229.619 39.1055V33.6562C229.619 33.1549 229.515 32.722 229.307 32.3574C229.098 31.9928 228.792 31.7129 228.389 31.5176C227.985 31.3223 227.487 31.2246 226.895 31.2246C226.348 31.2246 225.859 31.3223 225.43 31.5176C225.007 31.7064 224.671 31.9635 224.424 32.2891C224.183 32.6081 224.062 32.9629 224.062 33.3535L222.891 33.3438C222.891 32.9466 222.988 32.5625 223.184 32.1914C223.379 31.8203 223.656 31.4883 224.014 31.1953C224.372 30.9023 224.798 30.6712 225.293 30.502C225.794 30.3262 226.344 30.2383 226.943 30.2383C227.699 30.2383 228.363 30.3652 228.936 30.6191C229.515 30.873 229.967 31.2539 230.293 31.7617C230.618 32.2695 230.781 32.9076 230.781 33.6758V38.7832C230.781 39.1478 230.807 39.5254 230.859 39.916C230.918 40.3066 230.999 40.6289 231.104 40.8828V41H229.863C229.785 40.7656 229.723 40.4727 229.678 40.1211C229.639 39.763 229.619 39.4245 229.619 39.1055ZM229.893 34.8477L229.912 35.7461H227.617C227.018 35.7461 226.481 35.8014 226.006 35.9121C225.537 36.0163 225.14 36.1725 224.814 36.3809C224.489 36.5827 224.238 36.8268 224.062 37.1133C223.893 37.3997 223.809 37.7253 223.809 38.0898C223.809 38.4674 223.903 38.8125 224.092 39.125C224.287 39.4375 224.561 39.6882 224.912 39.877C225.27 40.0592 225.693 40.1504 226.182 40.1504C226.833 40.1504 227.406 40.0299 227.9 39.7891C228.402 39.5482 228.815 39.2324 229.141 38.8418C229.466 38.4512 229.684 38.0247 229.795 37.5625L230.303 38.2363C230.218 38.5618 230.062 38.8971 229.834 39.2422C229.613 39.5807 229.323 39.8997 228.965 40.1992C228.607 40.4922 228.184 40.7331 227.695 40.9219C227.214 41.1042 226.667 41.1953 226.055 41.1953C225.365 41.1953 224.762 41.0651 224.248 40.8047C223.74 40.5443 223.343 40.1895 223.057 39.7402C222.777 39.2845 222.637 38.7702 222.637 38.1973C222.637 37.6764 222.747 37.2109 222.969 36.8008C223.19 36.3841 223.509 36.0326 223.926 35.7461C224.349 35.4531 224.857 35.2318 225.449 35.082C226.048 34.9258 226.719 34.8477 227.461 34.8477H229.893ZM235.215 30.4336V41H234.053V30.4336H235.215ZM233.848 27.377C233.848 27.1556 233.916 26.9701 234.053 26.8203C234.196 26.6641 234.391 26.5859 234.639 26.5859C234.886 26.5859 235.081 26.6641 235.225 26.8203C235.374 26.9701 235.449 27.1556 235.449 27.377C235.449 27.5918 235.374 27.7773 235.225 27.9336C235.081 28.0833 234.886 28.1582 234.639 28.1582C234.391 28.1582 234.196 28.0833 234.053 27.9336C233.916 27.7773 233.848 27.5918 233.848 27.377ZM239.57 32.1816V41H238.408V30.4336H239.541L239.57 32.1816ZM243.311 30.3555L243.281 31.4297C243.151 31.4102 243.024 31.3939 242.9 31.3809C242.777 31.3678 242.643 31.3613 242.5 31.3613C241.992 31.3613 241.546 31.4557 241.162 31.6445C240.785 31.8268 240.465 32.084 240.205 32.416C239.945 32.7415 239.746 33.1257 239.609 33.5684C239.473 34.0046 239.395 34.4733 239.375 34.9746L238.945 35.1406C238.945 34.4505 239.017 33.8092 239.16 33.2168C239.303 32.6243 239.521 32.1068 239.814 31.6641C240.114 31.2148 240.488 30.8665 240.938 30.6191C241.393 30.3652 241.927 30.2383 242.539 30.2383C242.689 30.2383 242.835 30.2513 242.979 30.2773C243.128 30.2969 243.239 30.3229 243.311 30.3555ZM246.25 32.6211V41H245.078V30.4336H246.201L246.25 32.6211ZM246.035 35.0625L245.469 34.7695C245.508 34.1445 245.625 33.5586 245.82 33.0117C246.022 32.4648 246.302 31.9831 246.66 31.5664C247.018 31.1497 247.448 30.8242 247.949 30.5898C248.451 30.3555 249.02 30.2383 249.658 30.2383C250.173 30.2383 250.638 30.3099 251.055 30.4531C251.478 30.5898 251.836 30.8079 252.129 31.1074C252.428 31.4004 252.66 31.7845 252.822 32.2598C252.985 32.735 253.066 33.3047 253.066 33.9688V41H251.904V34.0078C251.904 33.3047 251.794 32.7546 251.572 32.3574C251.357 31.9603 251.055 31.6771 250.664 31.5078C250.28 31.3385 249.834 31.2539 249.326 31.2539C248.727 31.2539 248.219 31.3776 247.803 31.625C247.393 31.8659 247.057 32.1816 246.797 32.5723C246.543 32.9564 246.354 33.3698 246.23 33.8125C246.107 34.2487 246.042 34.6654 246.035 35.0625ZM253.057 34.1445L252.275 34.1641C252.308 33.6497 252.425 33.1582 252.627 32.6895C252.835 32.2207 253.118 31.804 253.477 31.4395C253.835 31.0684 254.261 30.7754 254.756 30.5605C255.257 30.3457 255.82 30.2383 256.445 30.2383C256.992 30.2383 257.48 30.3132 257.91 30.4629C258.34 30.6061 258.701 30.8372 258.994 31.1562C259.294 31.4688 259.521 31.8691 259.678 32.3574C259.834 32.8457 259.912 33.4316 259.912 34.1152V41H258.74V34.1055C258.74 33.3568 258.63 32.7773 258.408 32.3672C258.193 31.9505 257.894 31.6608 257.51 31.498C257.126 31.3353 256.676 31.2539 256.162 31.2539C255.654 31.2604 255.208 31.3548 254.824 31.5371C254.44 31.7129 254.118 31.9473 253.857 32.2402C253.604 32.5267 253.408 32.8359 253.271 33.168C253.141 33.5 253.07 33.8255 253.057 34.1445ZM266.963 41.1953C266.273 41.1953 265.638 41.0684 265.059 40.8145C264.486 40.5605 263.984 40.2025 263.555 39.7402C263.132 39.278 262.803 38.7311 262.568 38.0996C262.34 37.4616 262.227 36.765 262.227 36.0098V35.5898C262.227 34.776 262.347 34.0404 262.588 33.3828C262.829 32.7253 263.161 32.1621 263.584 31.6934C264.007 31.2246 264.489 30.8665 265.029 30.6191C265.576 30.3652 266.149 30.2383 266.748 30.2383C267.419 30.2383 268.014 30.3587 268.535 30.5996C269.056 30.834 269.492 31.1693 269.844 31.6055C270.202 32.0352 270.472 32.5462 270.654 33.1387C270.837 33.7246 270.928 34.3724 270.928 35.082V35.7949H262.93V34.7988H269.766V34.6621C269.753 34.0697 269.632 33.5163 269.404 33.002C269.183 32.4811 268.851 32.0579 268.408 31.7324C267.965 31.4069 267.412 31.2441 266.748 31.2441C266.253 31.2441 265.798 31.3483 265.381 31.5566C264.971 31.765 264.616 32.0645 264.316 32.4551C264.023 32.8392 263.796 33.2982 263.633 33.832C263.477 34.3594 263.398 34.9453 263.398 35.5898V36.0098C263.398 36.5957 263.483 37.1426 263.652 37.6504C263.828 38.1517 264.076 38.5944 264.395 38.9785C264.72 39.3626 265.104 39.6621 265.547 39.877C265.99 40.0918 266.478 40.1992 267.012 40.1992C267.637 40.1992 268.19 40.0853 268.672 39.8574C269.154 39.623 269.587 39.2552 269.971 38.7539L270.703 39.3203C270.475 39.6589 270.189 39.9714 269.844 40.2578C269.505 40.5443 269.098 40.7721 268.623 40.9414C268.148 41.1107 267.594 41.1953 266.963 41.1953ZM274.395 32.6895V41H273.232V30.4336H274.346L274.395 32.6895ZM274.131 35.0625L273.613 34.7695C273.652 34.1445 273.779 33.5586 273.994 33.0117C274.209 32.4648 274.499 31.9831 274.863 31.5664C275.234 31.1497 275.667 30.8242 276.162 30.5898C276.663 30.3555 277.217 30.2383 277.822 30.2383C278.35 30.2383 278.822 30.3099 279.238 30.4531C279.655 30.5964 280.01 30.8242 280.303 31.1367C280.596 31.4492 280.817 31.8496 280.967 32.3379C281.123 32.8262 281.201 33.4219 281.201 34.125V41H280.029V34.1152C280.029 33.3861 279.928 32.8164 279.727 32.4062C279.525 31.9896 279.238 31.6934 278.867 31.5176C278.496 31.3418 278.057 31.2539 277.549 31.2539C276.989 31.2539 276.497 31.3776 276.074 31.625C275.658 31.8659 275.306 32.1816 275.02 32.5723C274.74 32.9564 274.525 33.3698 274.375 33.8125C274.225 34.2487 274.144 34.6654 274.131 35.0625ZM288.223 30.4336V31.3906H282.93V30.4336H288.223ZM284.873 27.7188H286.035V38.4316C286.035 38.9199 286.1 39.2878 286.23 39.5352C286.361 39.7826 286.53 39.9486 286.738 40.0332C286.947 40.1178 287.171 40.1602 287.412 40.1602C287.588 40.1602 287.757 40.1504 287.92 40.1309C288.083 40.1048 288.229 40.0788 288.359 40.0527L288.408 41.0391C288.265 41.0846 288.079 41.1204 287.852 41.1465C287.624 41.179 287.396 41.1953 287.168 41.1953C286.719 41.1953 286.322 41.1139 285.977 40.9512C285.632 40.7819 285.361 40.4954 285.166 40.0918C284.971 39.6816 284.873 39.125 284.873 38.4219V27.7188Z" fill="black"/>
<circle cx="176.291" cy="190.499" r="101.499" fill="#D9D9D9"/>
<ellipse cx="209.5" cy="183" rx="42.5" ry="42" fill="black"/>
<path d="M176.292 89.0012C111.926 89.3313 33.9449 157.08 3 190.913C34.22 224.196 112.586 290.762 176.292 290.762C239.997 290.762 318.088 224.196 349.171 190.913C318.363 156.805 240.657 88.6711 176.292 89.0012Z" stroke="#9F9F9F" stroke-width="3"/>
<line x1="56.5" y1="6" x2="56.5" y2="169" stroke="black"/>
<path d="M205.832 325.752V340H203.02V328.994L199.641 330.068V327.852L205.529 325.752H205.832ZM220.422 334.688V336.895H210.178L210.041 335.186L215.969 325.781H218.205L215.783 329.834L212.834 334.688H220.422ZM218.811 325.781V340H215.998V325.781H218.811ZM221.906 329.268V328.516C221.906 327.975 222.023 327.484 222.258 327.041C222.492 326.598 222.837 326.243 223.293 325.977C223.749 325.71 224.309 325.576 224.973 325.576C225.656 325.576 226.226 325.71 226.682 325.977C227.144 326.243 227.489 326.598 227.717 327.041C227.951 327.484 228.068 327.975 228.068 328.516V329.268C228.068 329.795 227.951 330.28 227.717 330.723C227.489 331.165 227.147 331.52 226.691 331.787C226.236 332.054 225.673 332.188 225.002 332.188C224.325 332.188 223.755 332.054 223.293 331.787C222.837 331.52 222.492 331.165 222.258 330.723C222.023 330.28 221.906 329.795 221.906 329.268ZM223.771 328.516V329.268C223.771 329.495 223.814 329.714 223.898 329.922C223.99 330.124 224.126 330.29 224.309 330.42C224.497 330.544 224.725 330.605 224.992 330.605C225.272 330.605 225.5 330.544 225.676 330.42C225.852 330.29 225.982 330.124 226.066 329.922C226.151 329.714 226.193 329.495 226.193 329.268V328.516C226.193 328.275 226.148 328.053 226.057 327.852C225.972 327.643 225.839 327.477 225.656 327.354C225.48 327.223 225.253 327.158 224.973 327.158C224.712 327.158 224.491 327.223 224.309 327.354C224.126 327.477 223.99 327.643 223.898 327.852C223.814 328.053 223.771 328.275 223.771 328.516ZM228.703 337.266V336.514C228.703 335.98 228.82 335.492 229.055 335.049C229.296 334.606 229.644 334.251 230.1 333.984C230.562 333.717 231.128 333.584 231.799 333.584C232.476 333.584 233.042 333.717 233.498 333.984C233.954 334.251 234.299 334.606 234.533 335.049C234.768 335.492 234.885 335.98 234.885 336.514V337.266C234.885 337.799 234.768 338.288 234.533 338.73C234.305 339.173 233.964 339.528 233.508 339.795C233.052 340.062 232.489 340.195 231.818 340.195C231.141 340.195 230.572 340.062 230.109 339.795C229.647 339.528 229.296 339.173 229.055 338.73C228.82 338.288 228.703 337.799 228.703 337.266ZM230.578 336.514V337.266C230.578 337.5 230.63 337.721 230.734 337.93C230.839 338.138 230.982 338.304 231.164 338.428C231.353 338.551 231.571 338.613 231.818 338.613C232.131 338.613 232.375 338.551 232.551 338.428C232.727 338.304 232.847 338.138 232.912 337.93C232.984 337.721 233.02 337.5 233.02 337.266V336.514C233.02 336.279 232.974 336.061 232.883 335.859C232.792 335.651 232.655 335.485 232.473 335.361C232.297 335.231 232.072 335.166 231.799 335.166C231.525 335.166 231.298 335.231 231.115 335.361C230.939 335.485 230.806 335.651 230.715 335.859C230.624 336.061 230.578 336.279 230.578 336.514ZM232.492 327.812L225.549 338.926L224.182 338.203L231.125 327.09L232.492 327.812ZM248.693 338.105V332.656C248.693 332.155 248.589 331.722 248.381 331.357C248.173 330.993 247.867 330.713 247.463 330.518C247.059 330.322 246.561 330.225 245.969 330.225C245.422 330.225 244.934 330.322 244.504 330.518C244.081 330.706 243.745 330.964 243.498 331.289C243.257 331.608 243.137 331.963 243.137 332.354L241.965 332.344C241.965 331.947 242.062 331.562 242.258 331.191C242.453 330.82 242.73 330.488 243.088 330.195C243.446 329.902 243.872 329.671 244.367 329.502C244.868 329.326 245.419 329.238 246.018 329.238C246.773 329.238 247.437 329.365 248.01 329.619C248.589 329.873 249.042 330.254 249.367 330.762C249.693 331.27 249.855 331.908 249.855 332.676V337.783C249.855 338.148 249.882 338.525 249.934 338.916C249.992 339.307 250.074 339.629 250.178 339.883V340H248.938C248.859 339.766 248.798 339.473 248.752 339.121C248.713 338.763 248.693 338.424 248.693 338.105ZM248.967 333.848L248.986 334.746H246.691C246.092 334.746 245.555 334.801 245.08 334.912C244.611 335.016 244.214 335.173 243.889 335.381C243.563 335.583 243.312 335.827 243.137 336.113C242.967 336.4 242.883 336.725 242.883 337.09C242.883 337.467 242.977 337.812 243.166 338.125C243.361 338.438 243.635 338.688 243.986 338.877C244.344 339.059 244.768 339.15 245.256 339.15C245.907 339.15 246.48 339.03 246.975 338.789C247.476 338.548 247.889 338.232 248.215 337.842C248.54 337.451 248.758 337.025 248.869 336.562L249.377 337.236C249.292 337.562 249.136 337.897 248.908 338.242C248.687 338.581 248.397 338.9 248.039 339.199C247.681 339.492 247.258 339.733 246.77 339.922C246.288 340.104 245.741 340.195 245.129 340.195C244.439 340.195 243.837 340.065 243.322 339.805C242.814 339.544 242.417 339.189 242.131 338.74C241.851 338.285 241.711 337.77 241.711 337.197C241.711 336.676 241.822 336.211 242.043 335.801C242.264 335.384 242.583 335.033 243 334.746C243.423 334.453 243.931 334.232 244.523 334.082C245.122 333.926 245.793 333.848 246.535 333.848H248.967ZM254.152 331.182V340H252.99V329.434H254.123L254.152 331.182ZM257.893 329.355L257.863 330.43C257.733 330.41 257.606 330.394 257.482 330.381C257.359 330.368 257.225 330.361 257.082 330.361C256.574 330.361 256.128 330.456 255.744 330.645C255.367 330.827 255.048 331.084 254.787 331.416C254.527 331.742 254.328 332.126 254.191 332.568C254.055 333.005 253.977 333.473 253.957 333.975L253.527 334.141C253.527 333.451 253.599 332.809 253.742 332.217C253.885 331.624 254.104 331.107 254.396 330.664C254.696 330.215 255.07 329.867 255.52 329.619C255.975 329.365 256.509 329.238 257.121 329.238C257.271 329.238 257.417 329.251 257.561 329.277C257.71 329.297 257.821 329.323 257.893 329.355ZM263.615 340.195C262.925 340.195 262.29 340.068 261.711 339.814C261.138 339.561 260.637 339.202 260.207 338.74C259.784 338.278 259.455 337.731 259.221 337.1C258.993 336.462 258.879 335.765 258.879 335.01V334.59C258.879 333.776 258.999 333.04 259.24 332.383C259.481 331.725 259.813 331.162 260.236 330.693C260.66 330.225 261.141 329.867 261.682 329.619C262.229 329.365 262.801 329.238 263.4 329.238C264.071 329.238 264.667 329.359 265.188 329.6C265.708 329.834 266.145 330.169 266.496 330.605C266.854 331.035 267.124 331.546 267.307 332.139C267.489 332.725 267.58 333.372 267.58 334.082V334.795H259.582V333.799H266.418V333.662C266.405 333.07 266.285 332.516 266.057 332.002C265.835 331.481 265.503 331.058 265.061 330.732C264.618 330.407 264.064 330.244 263.4 330.244C262.906 330.244 262.45 330.348 262.033 330.557C261.623 330.765 261.268 331.064 260.969 331.455C260.676 331.839 260.448 332.298 260.285 332.832C260.129 333.359 260.051 333.945 260.051 334.59V335.01C260.051 335.596 260.135 336.143 260.305 336.65C260.48 337.152 260.728 337.594 261.047 337.979C261.372 338.363 261.757 338.662 262.199 338.877C262.642 339.092 263.13 339.199 263.664 339.199C264.289 339.199 264.842 339.085 265.324 338.857C265.806 338.623 266.239 338.255 266.623 337.754L267.355 338.32C267.128 338.659 266.841 338.971 266.496 339.258C266.158 339.544 265.751 339.772 265.275 339.941C264.8 340.111 264.247 340.195 263.615 340.195ZM203.43 362.189C203.924 362.189 204.387 362.098 204.816 361.916C205.253 361.727 205.611 361.451 205.891 361.086C206.177 360.715 206.34 360.262 206.379 359.729H207.492C207.46 360.399 207.255 360.998 206.877 361.525C206.506 362.046 206.018 362.456 205.412 362.756C204.813 363.049 204.152 363.195 203.43 363.195C202.694 363.195 202.043 363.062 201.477 362.795C200.917 362.528 200.448 362.157 200.07 361.682C199.693 361.2 199.406 360.64 199.211 360.002C199.022 359.357 198.928 358.664 198.928 357.922V357.512C198.928 356.77 199.022 356.079 199.211 355.441C199.406 354.797 199.693 354.237 200.07 353.762C200.448 353.28 200.917 352.906 201.477 352.639C202.036 352.372 202.684 352.238 203.42 352.238C204.175 352.238 204.852 352.391 205.451 352.697C206.057 353.003 206.538 353.436 206.896 353.996C207.261 354.556 207.46 355.22 207.492 355.988H206.379C206.346 355.422 206.197 354.934 205.93 354.523C205.663 354.113 205.311 353.798 204.875 353.576C204.439 353.355 203.954 353.244 203.42 353.244C202.821 353.244 202.31 353.361 201.887 353.596C201.464 353.824 201.118 354.139 200.852 354.543C200.591 354.94 200.399 355.396 200.275 355.91C200.152 356.418 200.09 356.952 200.09 357.512V357.922C200.09 358.488 200.148 359.029 200.266 359.543C200.389 360.051 200.581 360.503 200.842 360.9C201.109 361.298 201.454 361.613 201.877 361.848C202.307 362.076 202.824 362.189 203.43 362.189ZM209.201 357.883V357.561C209.201 356.792 209.312 356.083 209.533 355.432C209.755 354.781 210.07 354.217 210.48 353.742C210.897 353.267 211.395 352.899 211.975 352.639C212.554 352.372 213.199 352.238 213.908 352.238C214.624 352.238 215.272 352.372 215.852 352.639C216.431 352.899 216.929 353.267 217.346 353.742C217.762 354.217 218.081 354.781 218.303 355.432C218.524 356.083 218.635 356.792 218.635 357.561V357.883C218.635 358.651 218.524 359.361 218.303 360.012C218.081 360.656 217.762 361.216 217.346 361.691C216.936 362.167 216.441 362.538 215.861 362.805C215.282 363.065 214.637 363.195 213.928 363.195C213.212 363.195 212.564 363.065 211.984 362.805C211.405 362.538 210.907 362.167 210.49 361.691C210.074 361.216 209.755 360.656 209.533 360.012C209.312 359.361 209.201 358.651 209.201 357.883ZM210.363 357.561V357.883C210.363 358.462 210.441 359.012 210.598 359.533C210.754 360.048 210.982 360.507 211.281 360.91C211.581 361.307 211.952 361.62 212.395 361.848C212.837 362.076 213.348 362.189 213.928 362.189C214.501 362.189 215.005 362.076 215.441 361.848C215.884 361.62 216.255 361.307 216.555 360.91C216.854 360.507 217.079 360.048 217.229 359.533C217.385 359.012 217.463 358.462 217.463 357.883V357.561C217.463 356.988 217.385 356.444 217.229 355.93C217.079 355.415 216.851 354.956 216.545 354.553C216.245 354.149 215.874 353.83 215.432 353.596C214.989 353.361 214.481 353.244 213.908 353.244C213.335 353.244 212.827 353.361 212.385 353.596C211.949 353.83 211.577 354.149 211.271 354.553C210.972 354.956 210.744 355.415 210.588 355.93C210.438 356.444 210.363 356.988 210.363 357.561ZM222.16 354.621V363H220.988V352.434H222.111L222.16 354.621ZM221.945 357.062L221.379 356.77C221.418 356.145 221.535 355.559 221.73 355.012C221.932 354.465 222.212 353.983 222.57 353.566C222.928 353.15 223.358 352.824 223.859 352.59C224.361 352.355 224.93 352.238 225.568 352.238C226.083 352.238 226.548 352.31 226.965 352.453C227.388 352.59 227.746 352.808 228.039 353.107C228.339 353.4 228.57 353.785 228.732 354.26C228.895 354.735 228.977 355.305 228.977 355.969V363H227.814V356.008C227.814 355.305 227.704 354.755 227.482 354.357C227.268 353.96 226.965 353.677 226.574 353.508C226.19 353.339 225.744 353.254 225.236 353.254C224.637 353.254 224.13 353.378 223.713 353.625C223.303 353.866 222.967 354.182 222.707 354.572C222.453 354.956 222.264 355.37 222.141 355.812C222.017 356.249 221.952 356.665 221.945 357.062ZM228.967 356.145L228.186 356.164C228.218 355.65 228.335 355.158 228.537 354.689C228.745 354.221 229.029 353.804 229.387 353.439C229.745 353.068 230.171 352.775 230.666 352.561C231.167 352.346 231.73 352.238 232.355 352.238C232.902 352.238 233.391 352.313 233.82 352.463C234.25 352.606 234.611 352.837 234.904 353.156C235.204 353.469 235.432 353.869 235.588 354.357C235.744 354.846 235.822 355.432 235.822 356.115V363H234.65V356.105C234.65 355.357 234.54 354.777 234.318 354.367C234.104 353.951 233.804 353.661 233.42 353.498C233.036 353.335 232.587 353.254 232.072 353.254C231.564 353.26 231.118 353.355 230.734 353.537C230.35 353.713 230.028 353.947 229.768 354.24C229.514 354.527 229.318 354.836 229.182 355.168C229.051 355.5 228.98 355.826 228.967 356.145ZM239.943 354.465V367.062H238.771V352.434H239.865L239.943 354.465ZM247.287 357.619V357.824C247.287 358.612 247.196 359.335 247.014 359.992C246.831 360.65 246.568 361.219 246.223 361.701C245.884 362.176 245.464 362.544 244.963 362.805C244.462 363.065 243.892 363.195 243.254 363.195C242.622 363.195 242.059 363.098 241.564 362.902C241.07 362.707 240.643 362.43 240.285 362.072C239.934 361.708 239.65 361.285 239.436 360.803C239.227 360.314 239.081 359.781 238.996 359.201V356.496C239.094 355.858 239.253 355.279 239.475 354.758C239.696 354.237 239.979 353.788 240.324 353.41C240.676 353.033 241.092 352.743 241.574 352.541C242.056 352.339 242.606 352.238 243.225 352.238C243.869 352.238 244.442 352.365 244.943 352.619C245.451 352.867 245.878 353.228 246.223 353.703C246.574 354.172 246.838 354.738 247.014 355.402C247.196 356.06 247.287 356.799 247.287 357.619ZM246.115 357.824V357.619C246.115 357.001 246.05 356.428 245.92 355.9C245.796 355.373 245.604 354.914 245.344 354.523C245.09 354.126 244.764 353.817 244.367 353.596C243.977 353.374 243.511 353.264 242.971 353.264C242.411 353.264 241.932 353.358 241.535 353.547C241.145 353.729 240.819 353.973 240.559 354.279C240.298 354.579 240.093 354.908 239.943 355.266C239.794 355.624 239.683 355.975 239.611 356.32V359.436C239.735 359.93 239.934 360.389 240.207 360.812C240.48 361.229 240.845 361.564 241.301 361.818C241.763 362.066 242.326 362.189 242.99 362.189C243.524 362.189 243.986 362.079 244.377 361.857C244.768 361.636 245.09 361.327 245.344 360.93C245.604 360.533 245.796 360.07 245.92 359.543C246.05 359.016 246.115 358.443 246.115 357.824ZM251.184 348V363H250.021V348H251.184ZM258.459 363.195C257.769 363.195 257.134 363.068 256.555 362.814C255.982 362.561 255.48 362.202 255.051 361.74C254.628 361.278 254.299 360.731 254.064 360.1C253.837 359.462 253.723 358.765 253.723 358.01V357.59C253.723 356.776 253.843 356.04 254.084 355.383C254.325 354.725 254.657 354.162 255.08 353.693C255.503 353.225 255.985 352.867 256.525 352.619C257.072 352.365 257.645 352.238 258.244 352.238C258.915 352.238 259.51 352.359 260.031 352.6C260.552 352.834 260.988 353.169 261.34 353.605C261.698 354.035 261.968 354.546 262.15 355.139C262.333 355.725 262.424 356.372 262.424 357.082V357.795H254.426V356.799H261.262V356.662C261.249 356.07 261.128 355.516 260.9 355.002C260.679 354.481 260.347 354.058 259.904 353.732C259.462 353.407 258.908 353.244 258.244 353.244C257.749 353.244 257.294 353.348 256.877 353.557C256.467 353.765 256.112 354.064 255.812 354.455C255.52 354.839 255.292 355.298 255.129 355.832C254.973 356.359 254.895 356.945 254.895 357.59V358.01C254.895 358.596 254.979 359.143 255.148 359.65C255.324 360.152 255.572 360.594 255.891 360.979C256.216 361.363 256.6 361.662 257.043 361.877C257.486 362.092 257.974 362.199 258.508 362.199C259.133 362.199 259.686 362.085 260.168 361.857C260.65 361.623 261.083 361.255 261.467 360.754L262.199 361.32C261.971 361.659 261.685 361.971 261.34 362.258C261.001 362.544 260.594 362.772 260.119 362.941C259.644 363.111 259.09 363.195 258.459 363.195ZM268.723 352.434V353.391H263.43V352.434H268.723ZM265.373 349.719H266.535V360.432C266.535 360.92 266.6 361.288 266.73 361.535C266.861 361.783 267.03 361.949 267.238 362.033C267.447 362.118 267.671 362.16 267.912 362.16C268.088 362.16 268.257 362.15 268.42 362.131C268.583 362.105 268.729 362.079 268.859 362.053L268.908 363.039C268.765 363.085 268.579 363.12 268.352 363.146C268.124 363.179 267.896 363.195 267.668 363.195C267.219 363.195 266.822 363.114 266.477 362.951C266.132 362.782 265.861 362.495 265.666 362.092C265.471 361.682 265.373 361.125 265.373 360.422V349.719ZM275.256 363.195C274.566 363.195 273.931 363.068 273.352 362.814C272.779 362.561 272.277 362.202 271.848 361.74C271.424 361.278 271.096 360.731 270.861 360.1C270.633 359.462 270.52 358.765 270.52 358.01V357.59C270.52 356.776 270.64 356.04 270.881 355.383C271.122 354.725 271.454 354.162 271.877 353.693C272.3 353.225 272.782 352.867 273.322 352.619C273.869 352.365 274.442 352.238 275.041 352.238C275.712 352.238 276.307 352.359 276.828 352.6C277.349 352.834 277.785 353.169 278.137 353.605C278.495 354.035 278.765 354.546 278.947 355.139C279.13 355.725 279.221 356.372 279.221 357.082V357.795H271.223V356.799H278.059V356.662C278.046 356.07 277.925 355.516 277.697 355.002C277.476 354.481 277.144 354.058 276.701 353.732C276.258 353.407 275.705 353.244 275.041 353.244C274.546 353.244 274.09 353.348 273.674 353.557C273.264 353.765 272.909 354.064 272.609 354.455C272.316 354.839 272.089 355.298 271.926 355.832C271.77 356.359 271.691 356.945 271.691 357.59V358.01C271.691 358.596 271.776 359.143 271.945 359.65C272.121 360.152 272.368 360.594 272.688 360.979C273.013 361.363 273.397 361.662 273.84 361.877C274.283 362.092 274.771 362.199 275.305 362.199C275.93 362.199 276.483 362.085 276.965 361.857C277.447 361.623 277.88 361.255 278.264 360.754L278.996 361.32C278.768 361.659 278.482 361.971 278.137 362.258C277.798 362.544 277.391 362.772 276.916 362.941C276.441 363.111 275.887 363.195 275.256 363.195ZM282.824 348V363H281.662V348H282.824ZM289.152 361.945L292.443 352.434H293.703L289.23 364.699C289.139 364.94 289.022 365.207 288.879 365.5C288.742 365.793 288.56 366.073 288.332 366.34C288.111 366.613 287.831 366.835 287.492 367.004C287.16 367.18 286.753 367.268 286.271 367.268C286.148 367.268 285.988 367.251 285.793 367.219C285.604 367.193 285.467 367.167 285.383 367.141L285.373 366.154C285.445 366.174 285.549 366.19 285.686 366.203C285.822 366.216 285.917 366.223 285.969 366.223C286.392 366.223 286.747 366.151 287.033 366.008C287.326 365.865 287.57 365.65 287.766 365.363C287.961 365.083 288.133 364.732 288.283 364.309L289.152 361.945ZM286.076 352.434L289.445 361.506L289.758 362.727L288.908 363.205L284.807 352.434H286.076ZM300.393 348H301.564V360.949L301.486 363H300.393V348ZM308.918 357.619V357.824C308.918 358.612 308.827 359.335 308.645 359.992C308.462 360.65 308.199 361.219 307.854 361.701C307.508 362.176 307.085 362.544 306.584 362.805C306.089 363.065 305.52 363.195 304.875 363.195C304.243 363.195 303.684 363.098 303.195 362.902C302.707 362.701 302.29 362.417 301.945 362.053C301.6 361.682 301.324 361.249 301.115 360.754C300.907 360.253 300.76 359.702 300.676 359.104V356.496C300.773 355.858 300.93 355.279 301.145 354.758C301.359 354.237 301.636 353.788 301.975 353.41C302.32 353.033 302.73 352.743 303.205 352.541C303.687 352.339 304.237 352.238 304.855 352.238C305.5 352.238 306.073 352.365 306.574 352.619C307.082 352.867 307.508 353.228 307.854 353.703C308.199 354.172 308.462 354.738 308.645 355.402C308.827 356.06 308.918 356.799 308.918 357.619ZM307.736 357.824V357.619C307.736 357.001 307.678 356.428 307.561 355.9C307.443 355.373 307.258 354.914 307.004 354.523C306.757 354.126 306.438 353.817 306.047 353.596C305.656 353.374 305.188 353.264 304.641 353.264C304.081 353.264 303.602 353.358 303.205 353.547C302.814 353.729 302.489 353.973 302.229 354.279C301.975 354.579 301.773 354.908 301.623 355.266C301.473 355.624 301.363 355.975 301.291 356.32V359.357C301.402 359.846 301.594 360.305 301.867 360.734C302.141 361.164 302.508 361.512 302.971 361.779C303.433 362.04 303.996 362.17 304.66 362.17C305.194 362.17 305.653 362.059 306.037 361.838C306.428 361.617 306.747 361.311 306.994 360.92C307.248 360.529 307.434 360.07 307.551 359.543C307.674 359.016 307.736 358.443 307.736 357.824ZM312.805 348V363H311.643V348H312.805ZM317.297 352.434V363H316.135V352.434H317.297ZM315.93 349.377C315.93 349.156 315.998 348.97 316.135 348.82C316.278 348.664 316.473 348.586 316.721 348.586C316.968 348.586 317.163 348.664 317.307 348.82C317.456 348.97 317.531 349.156 317.531 349.377C317.531 349.592 317.456 349.777 317.307 349.934C317.163 350.083 316.968 350.158 316.721 350.158C316.473 350.158 316.278 350.083 316.135 349.934C315.998 349.777 315.93 349.592 315.93 349.377ZM321.652 354.689V363H320.49V352.434H321.604L321.652 354.689ZM321.389 357.062L320.871 356.77C320.91 356.145 321.037 355.559 321.252 355.012C321.467 354.465 321.757 353.983 322.121 353.566C322.492 353.15 322.925 352.824 323.42 352.59C323.921 352.355 324.475 352.238 325.08 352.238C325.607 352.238 326.079 352.31 326.496 352.453C326.913 352.596 327.268 352.824 327.561 353.137C327.854 353.449 328.075 353.85 328.225 354.338C328.381 354.826 328.459 355.422 328.459 356.125V363H327.287V356.115C327.287 355.386 327.186 354.816 326.984 354.406C326.783 353.99 326.496 353.693 326.125 353.518C325.754 353.342 325.314 353.254 324.807 353.254C324.247 353.254 323.755 353.378 323.332 353.625C322.915 353.866 322.564 354.182 322.277 354.572C321.997 354.956 321.783 355.37 321.633 355.812C321.483 356.249 321.402 356.665 321.389 357.062ZM338.352 360.949V348H339.523V363H338.43L338.352 360.949ZM331.018 357.824V357.619C331.018 356.799 331.112 356.06 331.301 355.402C331.49 354.738 331.76 354.172 332.111 353.703C332.469 353.228 332.899 352.867 333.4 352.619C333.902 352.365 334.468 352.238 335.1 352.238C335.718 352.238 336.265 352.339 336.74 352.541C337.215 352.743 337.622 353.033 337.961 353.41C338.306 353.788 338.583 354.237 338.791 354.758C339.006 355.279 339.162 355.858 339.26 356.496V359.104C339.182 359.702 339.038 360.253 338.83 360.754C338.622 361.249 338.345 361.682 338 362.053C337.655 362.417 337.238 362.701 336.75 362.902C336.268 363.098 335.712 363.195 335.08 363.195C334.455 363.195 333.892 363.065 333.391 362.805C332.889 362.544 332.463 362.176 332.111 361.701C331.76 361.219 331.49 360.65 331.301 359.992C331.112 359.335 331.018 358.612 331.018 357.824ZM332.189 357.619V357.824C332.189 358.443 332.251 359.016 332.375 359.543C332.499 360.07 332.688 360.529 332.941 360.92C333.195 361.311 333.518 361.617 333.908 361.838C334.299 362.059 334.761 362.17 335.295 362.17C335.965 362.17 336.529 362.043 336.984 361.789C337.44 361.529 337.805 361.187 338.078 360.764C338.352 360.334 338.55 359.865 338.674 359.357V356.32C338.596 355.975 338.482 355.624 338.332 355.266C338.182 354.908 337.977 354.579 337.717 354.279C337.463 353.973 337.137 353.729 336.74 353.547C336.35 353.358 335.874 353.264 335.314 353.264C334.774 353.264 334.309 353.374 333.918 353.596C333.527 353.817 333.202 354.126 332.941 354.523C332.688 354.914 332.499 355.373 332.375 355.9C332.251 356.428 332.189 357.001 332.189 357.619Z" fill="black"/>
<path d="M26.5566 336.104C26.5566 336.995 26.3483 337.747 25.9316 338.359C25.515 338.965 24.9421 339.424 24.2129 339.736C23.4902 340.042 22.6699 340.195 21.752 340.195C20.834 340.195 20.0104 340.042 19.2812 339.736C18.5521 339.424 17.9759 338.965 17.5527 338.359C17.1296 337.747 16.918 336.995 16.918 336.104C16.918 335.505 17.0384 334.964 17.2793 334.482C17.5202 333.994 17.8555 333.577 18.2852 333.232C18.7214 332.881 19.2324 332.614 19.8184 332.432C20.4043 332.243 21.0423 332.148 21.7324 332.148C22.6569 332.148 23.4837 332.311 24.2129 332.637C24.9421 332.962 25.515 333.421 25.9316 334.014C26.3483 334.606 26.5566 335.303 26.5566 336.104ZM23.7246 335.918C23.7246 335.482 23.64 335.107 23.4707 334.795C23.3079 334.476 23.0768 334.232 22.7773 334.062C22.4779 333.893 22.1296 333.809 21.7324 333.809C21.3353 333.809 20.987 333.893 20.6875 334.062C20.388 334.232 20.1536 334.476 19.9844 334.795C19.8216 335.107 19.7402 335.482 19.7402 335.918C19.7402 336.348 19.8216 336.719 19.9844 337.031C20.1536 337.344 20.388 337.585 20.6875 337.754C20.9935 337.917 21.3483 337.998 21.752 337.998C22.1556 337.998 22.5039 337.917 22.7969 337.754C23.0964 337.585 23.3242 337.344 23.4805 337.031C23.6432 336.719 23.7246 336.348 23.7246 335.918ZM26.2539 329.551C26.2539 330.273 26.0618 330.915 25.6777 331.475C25.2936 332.028 24.7598 332.461 24.0762 332.773C23.3991 333.086 22.6243 333.242 21.752 333.242C20.873 333.242 20.0918 333.086 19.4082 332.773C18.7246 332.461 18.1908 332.028 17.8066 331.475C17.4225 330.915 17.2305 330.273 17.2305 329.551C17.2305 328.691 17.4225 327.969 17.8066 327.383C18.1973 326.79 18.7311 326.341 19.4082 326.035C20.0918 325.729 20.8665 325.576 21.7324 325.576C22.6113 325.576 23.3893 325.729 24.0664 326.035C24.75 326.341 25.2839 326.79 25.668 327.383C26.0586 327.969 26.2539 328.691 26.2539 329.551ZM23.4414 329.678C23.4414 329.294 23.373 328.962 23.2363 328.682C23.0996 328.395 22.9043 328.174 22.6504 328.018C22.403 327.861 22.097 327.783 21.7324 327.783C21.3809 327.783 21.0781 327.858 20.8242 328.008C20.5768 328.158 20.3848 328.376 20.248 328.662C20.1178 328.942 20.0527 329.281 20.0527 329.678C20.0527 330.062 20.1178 330.4 20.248 330.693C20.3848 330.98 20.5801 331.204 20.834 331.367C21.0879 331.53 21.3939 331.611 21.752 331.611C22.11 331.611 22.4128 331.53 22.6602 331.367C22.9141 331.204 23.1061 330.98 23.2363 330.693C23.373 330.4 23.4414 330.062 23.4414 329.678ZM35.7168 325.635H36.127V327.881H35.9609C35.2188 327.881 34.5579 327.992 33.9785 328.213C33.3991 328.434 32.9076 328.75 32.5039 329.16C32.1068 329.564 31.8008 330.052 31.5859 330.625C31.3776 331.198 31.2734 331.839 31.2734 332.549V334.912C31.2734 335.42 31.3223 335.869 31.4199 336.26C31.5241 336.644 31.6706 336.966 31.8594 337.227C32.0547 337.48 32.2826 337.673 32.543 337.803C32.8034 337.926 33.0964 337.988 33.4219 337.988C33.7279 337.988 34.0046 337.923 34.252 337.793C34.5059 337.663 34.7207 337.48 34.8965 337.246C35.0788 337.005 35.2155 336.725 35.3066 336.406C35.4043 336.081 35.4531 335.726 35.4531 335.342C35.4531 334.958 35.4043 334.603 35.3066 334.277C35.2155 333.952 35.0788 333.672 34.8965 333.438C34.7142 333.197 34.4928 333.011 34.2324 332.881C33.972 332.751 33.679 332.686 33.3535 332.686C32.9108 332.686 32.5202 332.79 32.1816 332.998C31.8496 333.2 31.5892 333.46 31.4004 333.779C31.2116 334.098 31.1107 334.434 31.0977 334.785L30.248 334.238C30.2676 333.737 30.3717 333.262 30.5605 332.812C30.7559 332.363 31.0228 331.966 31.3613 331.621C31.7064 331.27 32.1198 330.996 32.6016 330.801C33.0833 330.599 33.627 330.498 34.2324 330.498C34.8965 330.498 35.4792 330.625 35.9805 330.879C36.4883 331.133 36.9115 331.481 37.25 331.924C37.5885 332.367 37.8424 332.878 38.0117 333.457C38.181 334.036 38.2656 334.655 38.2656 335.312C38.2656 336.003 38.1517 336.644 37.9238 337.236C37.7025 337.829 37.3802 338.346 36.957 338.789C36.5404 339.232 36.0391 339.577 35.4531 339.824C34.8672 340.072 34.2096 340.195 33.4805 340.195C32.7253 340.195 32.0384 340.059 31.4199 339.785C30.8079 339.505 30.2806 339.115 29.8379 338.613C29.3952 338.112 29.0534 337.516 28.8125 336.826C28.5781 336.136 28.4609 335.381 28.4609 334.561V333.467C28.4609 332.321 28.627 331.273 28.959 330.322C29.2975 329.365 29.7826 328.538 30.4141 327.842C31.0456 327.139 31.8073 326.595 32.6992 326.211C33.5911 325.827 34.597 325.635 35.7168 325.635ZM39.9062 329.268V328.516C39.9062 327.975 40.0234 327.484 40.2578 327.041C40.4922 326.598 40.8372 326.243 41.293 325.977C41.7487 325.71 42.3086 325.576 42.9727 325.576C43.6562 325.576 44.2259 325.71 44.6816 325.977C45.1439 326.243 45.4889 326.598 45.7168 327.041C45.9512 327.484 46.0684 327.975 46.0684 328.516V329.268C46.0684 329.795 45.9512 330.28 45.7168 330.723C45.4889 331.165 45.1471 331.52 44.6914 331.787C44.2357 332.054 43.6725 332.188 43.002 332.188C42.3249 332.188 41.7552 332.054 41.293 331.787C40.8372 331.52 40.4922 331.165 40.2578 330.723C40.0234 330.28 39.9062 329.795 39.9062 329.268ZM41.7715 328.516V329.268C41.7715 329.495 41.8138 329.714 41.8984 329.922C41.9896 330.124 42.1263 330.29 42.3086 330.42C42.4974 330.544 42.7253 330.605 42.9922 330.605C43.2721 330.605 43.5 330.544 43.6758 330.42C43.8516 330.29 43.9818 330.124 44.0664 329.922C44.151 329.714 44.1934 329.495 44.1934 329.268V328.516C44.1934 328.275 44.1478 328.053 44.0566 327.852C43.972 327.643 43.8385 327.477 43.6562 327.354C43.4805 327.223 43.2526 327.158 42.9727 327.158C42.7122 327.158 42.4909 327.223 42.3086 327.354C42.1263 327.477 41.9896 327.643 41.8984 327.852C41.8138 328.053 41.7715 328.275 41.7715 328.516ZM46.7031 337.266V336.514C46.7031 335.98 46.8203 335.492 47.0547 335.049C47.2956 334.606 47.6439 334.251 48.0996 333.984C48.5618 333.717 49.1283 333.584 49.7988 333.584C50.4759 333.584 51.0423 333.717 51.498 333.984C51.9538 334.251 52.2988 334.606 52.5332 335.049C52.7676 335.492 52.8848 335.98 52.8848 336.514V337.266C52.8848 337.799 52.7676 338.288 52.5332 338.73C52.3053 339.173 51.9635 339.528 51.5078 339.795C51.0521 340.062 50.4889 340.195 49.8184 340.195C49.1413 340.195 48.5716 340.062 48.1094 339.795C47.6471 339.528 47.2956 339.173 47.0547 338.73C46.8203 338.288 46.7031 337.799 46.7031 337.266ZM48.5781 336.514V337.266C48.5781 337.5 48.6302 337.721 48.7344 337.93C48.8385 338.138 48.9818 338.304 49.1641 338.428C49.3529 338.551 49.571 338.613 49.8184 338.613C50.1309 338.613 50.375 338.551 50.5508 338.428C50.7266 338.304 50.847 338.138 50.9121 337.93C50.9837 337.721 51.0195 337.5 51.0195 337.266V336.514C51.0195 336.279 50.974 336.061 50.8828 335.859C50.7917 335.651 50.6549 335.485 50.4727 335.361C50.2969 335.231 50.0723 335.166 49.7988 335.166C49.5254 335.166 49.2975 335.231 49.1152 335.361C48.9395 335.485 48.806 335.651 48.7148 335.859C48.6237 336.061 48.5781 336.279 48.5781 336.514ZM50.4922 327.812L43.5488 338.926L42.1816 338.203L49.125 327.09L50.4922 327.812ZM66.5957 337.305C66.5957 337.018 66.5241 336.735 66.3809 336.455C66.2376 336.175 65.9609 335.918 65.5508 335.684C65.1471 335.449 64.5514 335.251 63.7637 335.088C63.1777 334.958 62.6536 334.811 62.1914 334.648C61.7357 334.486 61.3516 334.29 61.0391 334.062C60.7266 333.835 60.4889 333.561 60.3262 333.242C60.1634 332.923 60.082 332.546 60.082 332.109C60.082 331.719 60.1667 331.351 60.3359 331.006C60.5117 330.654 60.7591 330.348 61.0781 330.088C61.4036 329.821 61.7943 329.613 62.25 329.463C62.7122 329.313 63.2298 329.238 63.8027 329.238C64.6165 329.238 65.3132 329.378 65.8926 329.658C66.4785 329.932 66.9245 330.306 67.2305 330.781C67.543 331.257 67.6992 331.794 67.6992 332.393H66.5371C66.5371 332.028 66.4297 331.683 66.2148 331.357C66.0065 331.032 65.6973 330.765 65.2871 330.557C64.8835 330.348 64.3887 330.244 63.8027 330.244C63.1973 330.244 62.7057 330.335 62.3281 330.518C61.9505 330.7 61.6738 330.931 61.498 331.211C61.3288 331.491 61.2441 331.781 61.2441 332.08C61.2441 332.314 61.2799 332.529 61.3516 332.725C61.4297 332.913 61.5664 333.089 61.7617 333.252C61.9635 333.415 62.25 333.568 62.6211 333.711C62.9922 333.854 63.474 333.994 64.0664 334.131C64.9193 334.32 65.6159 334.551 66.1562 334.824C66.7031 335.091 67.1068 335.423 67.3672 335.82C67.6276 336.211 67.7578 336.686 67.7578 337.246C67.7578 337.682 67.6667 338.083 67.4844 338.447C67.3021 338.805 67.0384 339.115 66.6934 339.375C66.3548 339.635 65.9447 339.837 65.4629 339.98C64.9876 340.124 64.4538 340.195 63.8613 340.195C62.9694 340.195 62.2142 340.049 61.5957 339.756C60.9837 339.456 60.5182 339.066 60.1992 338.584C59.8867 338.096 59.7305 337.578 59.7305 337.031H60.8926C60.9316 337.578 61.1042 338.011 61.4102 338.33C61.7161 338.643 62.0905 338.864 62.5332 338.994C62.9824 339.124 63.4251 339.189 63.8613 339.189C64.4603 339.189 64.9616 339.102 65.3652 338.926C65.7689 338.75 66.0749 338.519 66.2832 338.232C66.4915 337.946 66.5957 337.637 66.5957 337.305ZM77.1719 337.559V329.434H78.3438V340H77.2207L77.1719 337.559ZM77.3867 335.605L77.9922 335.586C77.9922 336.25 77.9141 336.862 77.7578 337.422C77.6016 337.982 77.3574 338.47 77.0254 338.887C76.6934 339.303 76.2637 339.626 75.7363 339.854C75.209 340.081 74.5742 340.195 73.832 340.195C73.3177 340.195 72.8457 340.124 72.416 339.98C71.9928 339.831 71.6283 339.596 71.3223 339.277C71.0163 338.958 70.7786 338.545 70.6094 338.037C70.4466 337.529 70.3652 336.914 70.3652 336.191V329.434H71.5273V336.211C71.5273 336.777 71.5892 337.249 71.7129 337.627C71.8431 338.005 72.0189 338.307 72.2402 338.535C72.4681 338.763 72.7285 338.926 73.0215 339.023C73.3145 339.121 73.6302 339.17 73.9688 339.17C74.8281 339.17 75.5052 339.004 76 338.672C76.5013 338.34 76.8561 337.904 77.0645 337.363C77.2793 336.816 77.3867 336.23 77.3867 335.605ZM83.4023 340H82.2402V328.125C82.2402 327.402 82.3639 326.794 82.6113 326.299C82.8652 325.804 83.2233 325.43 83.6855 325.176C84.1543 324.922 84.7109 324.795 85.3555 324.795C85.5573 324.795 85.7656 324.808 85.9805 324.834C86.1953 324.854 86.4036 324.896 86.6055 324.961L86.5176 325.947C86.3548 325.902 86.1888 325.872 86.0195 325.859C85.8568 325.84 85.6647 325.83 85.4434 325.83C85.0202 325.83 84.6556 325.921 84.3496 326.104C84.0436 326.279 83.8092 326.536 83.6465 326.875C83.4837 327.214 83.4023 327.63 83.4023 328.125V340ZM85.9219 329.434V330.391H80.4922V329.434H85.9219ZM90.0234 340H88.8613V328.125C88.8613 327.402 88.985 326.794 89.2324 326.299C89.4863 325.804 89.8444 325.43 90.3066 325.176C90.7754 324.922 91.332 324.795 91.9766 324.795C92.1784 324.795 92.3867 324.808 92.6016 324.834C92.8164 324.854 93.0247 324.896 93.2266 324.961L93.1387 325.947C92.9759 325.902 92.8099 325.872 92.6406 325.859C92.4779 325.84 92.2858 325.83 92.0645 325.83C91.6413 325.83 91.2767 325.921 90.9707 326.104C90.6647 326.279 90.4303 326.536 90.2676 326.875C90.1048 327.214 90.0234 327.63 90.0234 328.125V340ZM92.543 329.434V330.391H87.1133V329.434H92.543ZM98.4902 340.195C97.8001 340.195 97.1654 340.068 96.5859 339.814C96.013 339.561 95.5117 339.202 95.082 338.74C94.6589 338.278 94.3301 337.731 94.0957 337.1C93.8678 336.462 93.7539 335.765 93.7539 335.01V334.59C93.7539 333.776 93.8743 333.04 94.1152 332.383C94.3561 331.725 94.6882 331.162 95.1113 330.693C95.5345 330.225 96.0163 329.867 96.5566 329.619C97.1035 329.365 97.6764 329.238 98.2754 329.238C98.946 329.238 99.5417 329.359 100.062 329.6C100.583 329.834 101.02 330.169 101.371 330.605C101.729 331.035 101.999 331.546 102.182 332.139C102.364 332.725 102.455 333.372 102.455 334.082V334.795H94.457V333.799H101.293V333.662C101.28 333.07 101.16 332.516 100.932 332.002C100.71 331.481 100.378 331.058 99.9355 330.732C99.4928 330.407 98.9395 330.244 98.2754 330.244C97.7806 330.244 97.3249 330.348 96.9082 330.557C96.498 330.765 96.1432 331.064 95.8438 331.455C95.5508 331.839 95.3229 332.298 95.1602 332.832C95.0039 333.359 94.9258 333.945 94.9258 334.59V335.01C94.9258 335.596 95.0104 336.143 95.1797 336.65C95.3555 337.152 95.6029 337.594 95.9219 337.979C96.2474 338.363 96.6315 338.662 97.0742 338.877C97.5169 339.092 98.0052 339.199 98.5391 339.199C99.1641 339.199 99.7174 339.085 100.199 338.857C100.681 338.623 101.114 338.255 101.498 337.754L102.23 338.32C102.003 338.659 101.716 338.971 101.371 339.258C101.033 339.544 100.626 339.772 100.15 339.941C99.6751 340.111 99.1217 340.195 98.4902 340.195ZM105.922 331.182V340H104.76V329.434H105.893L105.922 331.182ZM109.662 329.355L109.633 330.43C109.503 330.41 109.376 330.394 109.252 330.381C109.128 330.368 108.995 330.361 108.852 330.361C108.344 330.361 107.898 330.456 107.514 330.645C107.136 330.827 106.817 331.084 106.557 331.416C106.296 331.742 106.098 332.126 105.961 332.568C105.824 333.005 105.746 333.473 105.727 333.975L105.297 334.141C105.297 333.451 105.368 332.809 105.512 332.217C105.655 331.624 105.873 331.107 106.166 330.664C106.465 330.215 106.84 329.867 107.289 329.619C107.745 329.365 108.279 329.238 108.891 329.238C109.04 329.238 109.187 329.251 109.33 329.277C109.48 329.297 109.59 329.323 109.662 329.355ZM118.383 340H117.221V328.125C117.221 327.402 117.344 326.794 117.592 326.299C117.846 325.804 118.204 325.43 118.666 325.176C119.135 324.922 119.691 324.795 120.336 324.795C120.538 324.795 120.746 324.808 120.961 324.834C121.176 324.854 121.384 324.896 121.586 324.961L121.498 325.947C121.335 325.902 121.169 325.872 121 325.859C120.837 325.84 120.645 325.83 120.424 325.83C120.001 325.83 119.636 325.921 119.33 326.104C119.024 326.279 118.79 326.536 118.627 326.875C118.464 327.214 118.383 327.63 118.383 328.125V340ZM120.902 329.434V330.391H115.473V329.434H120.902ZM124.164 331.182V340H123.002V329.434H124.135L124.164 331.182ZM127.904 329.355L127.875 330.43C127.745 330.41 127.618 330.394 127.494 330.381C127.37 330.368 127.237 330.361 127.094 330.361C126.586 330.361 126.14 330.456 125.756 330.645C125.378 330.827 125.059 331.084 124.799 331.416C124.538 331.742 124.34 332.126 124.203 332.568C124.066 333.005 123.988 333.473 123.969 333.975L123.539 334.141C123.539 333.451 123.611 332.809 123.754 332.217C123.897 331.624 124.115 331.107 124.408 330.664C124.708 330.215 125.082 329.867 125.531 329.619C125.987 329.365 126.521 329.238 127.133 329.238C127.283 329.238 127.429 329.251 127.572 329.277C127.722 329.297 127.833 329.323 127.904 329.355ZM128.9 334.883V334.561C128.9 333.792 129.011 333.083 129.232 332.432C129.454 331.781 129.77 331.217 130.18 330.742C130.596 330.267 131.094 329.899 131.674 329.639C132.253 329.372 132.898 329.238 133.607 329.238C134.324 329.238 134.971 329.372 135.551 329.639C136.13 329.899 136.628 330.267 137.045 330.742C137.462 331.217 137.781 331.781 138.002 332.432C138.223 333.083 138.334 333.792 138.334 334.561V334.883C138.334 335.651 138.223 336.361 138.002 337.012C137.781 337.656 137.462 338.216 137.045 338.691C136.635 339.167 136.14 339.538 135.561 339.805C134.981 340.065 134.337 340.195 133.627 340.195C132.911 340.195 132.263 340.065 131.684 339.805C131.104 339.538 130.606 339.167 130.189 338.691C129.773 338.216 129.454 337.656 129.232 337.012C129.011 336.361 128.9 335.651 128.9 334.883ZM130.062 334.561V334.883C130.062 335.462 130.141 336.012 130.297 336.533C130.453 337.048 130.681 337.507 130.98 337.91C131.28 338.307 131.651 338.62 132.094 338.848C132.536 339.076 133.048 339.189 133.627 339.189C134.2 339.189 134.704 339.076 135.141 338.848C135.583 338.62 135.954 338.307 136.254 337.91C136.553 337.507 136.778 337.048 136.928 336.533C137.084 336.012 137.162 335.462 137.162 334.883V334.561C137.162 333.988 137.084 333.444 136.928 332.93C136.778 332.415 136.55 331.956 136.244 331.553C135.945 331.149 135.574 330.83 135.131 330.596C134.688 330.361 134.18 330.244 133.607 330.244C133.035 330.244 132.527 330.361 132.084 330.596C131.648 330.83 131.277 331.149 130.971 331.553C130.671 331.956 130.443 332.415 130.287 332.93C130.137 333.444 130.062 333.988 130.062 334.561ZM141.859 331.621V340H140.688V329.434H141.811L141.859 331.621ZM141.645 334.062L141.078 333.77C141.117 333.145 141.234 332.559 141.43 332.012C141.632 331.465 141.911 330.983 142.27 330.566C142.628 330.15 143.057 329.824 143.559 329.59C144.06 329.355 144.63 329.238 145.268 329.238C145.782 329.238 146.247 329.31 146.664 329.453C147.087 329.59 147.445 329.808 147.738 330.107C148.038 330.4 148.269 330.785 148.432 331.26C148.594 331.735 148.676 332.305 148.676 332.969V340H147.514V333.008C147.514 332.305 147.403 331.755 147.182 331.357C146.967 330.96 146.664 330.677 146.273 330.508C145.889 330.339 145.443 330.254 144.936 330.254C144.337 330.254 143.829 330.378 143.412 330.625C143.002 330.866 142.667 331.182 142.406 331.572C142.152 331.956 141.964 332.37 141.84 332.812C141.716 333.249 141.651 333.665 141.645 334.062ZM148.666 333.145L147.885 333.164C147.917 332.65 148.035 332.158 148.236 331.689C148.445 331.221 148.728 330.804 149.086 330.439C149.444 330.068 149.87 329.775 150.365 329.561C150.867 329.346 151.43 329.238 152.055 329.238C152.602 329.238 153.09 329.313 153.52 329.463C153.949 329.606 154.311 329.837 154.604 330.156C154.903 330.469 155.131 330.869 155.287 331.357C155.443 331.846 155.521 332.432 155.521 333.115V340H154.35V333.105C154.35 332.357 154.239 331.777 154.018 331.367C153.803 330.951 153.503 330.661 153.119 330.498C152.735 330.335 152.286 330.254 151.771 330.254C151.264 330.26 150.818 330.355 150.434 330.537C150.049 330.713 149.727 330.947 149.467 331.24C149.213 331.527 149.018 331.836 148.881 332.168C148.751 332.5 148.679 332.826 148.666 333.145ZM18.832 348V363H17.6699V348H18.832ZM21.3809 357.883V357.561C21.3809 356.792 21.4915 356.083 21.7129 355.432C21.9342 354.781 22.25 354.217 22.6602 353.742C23.0768 353.267 23.5749 352.899 24.1543 352.639C24.7337 352.372 25.3783 352.238 26.0879 352.238C26.804 352.238 27.4518 352.372 28.0312 352.639C28.6107 352.899 29.1087 353.267 29.5254 353.742C29.9421 354.217 30.2611 354.781 30.4824 355.432C30.7038 356.083 30.8145 356.792 30.8145 357.561V357.883C30.8145 358.651 30.7038 359.361 30.4824 360.012C30.2611 360.656 29.9421 361.216 29.5254 361.691C29.1152 362.167 28.6204 362.538 28.041 362.805C27.4616 363.065 26.8171 363.195 26.1074 363.195C25.3913 363.195 24.7435 363.065 24.1641 362.805C23.5846 362.538 23.0866 362.167 22.6699 361.691C22.2533 361.216 21.9342 360.656 21.7129 360.012C21.4915 359.361 21.3809 358.651 21.3809 357.883ZM22.543 357.561V357.883C22.543 358.462 22.6211 359.012 22.7773 359.533C22.9336 360.048 23.1615 360.507 23.4609 360.91C23.7604 361.307 24.1315 361.62 24.5742 361.848C25.0169 362.076 25.528 362.189 26.1074 362.189C26.6803 362.189 27.1849 362.076 27.6211 361.848C28.0638 361.62 28.4349 361.307 28.7344 360.91C29.0339 360.507 29.2585 360.048 29.4082 359.533C29.5645 359.012 29.6426 358.462 29.6426 357.883V357.561C29.6426 356.988 29.5645 356.444 29.4082 355.93C29.2585 355.415 29.0306 354.956 28.7246 354.553C28.4251 354.149 28.054 353.83 27.6113 353.596C27.1686 353.361 26.6608 353.244 26.0879 353.244C25.515 353.244 25.0072 353.361 24.5645 353.596C24.1283 353.83 23.7572 354.149 23.4512 354.553C23.1517 354.956 22.9238 355.415 22.7676 355.93C22.6178 356.444 22.543 356.988 22.543 357.561ZM36.166 360.529L38.7148 352.434H39.5352L39.0469 354.611L36.3809 363H35.5605L36.166 360.529ZM33.5195 352.434L35.7559 360.578L36.2344 363H35.3848L32.3184 352.434H33.5195ZM42.709 360.549L44.8867 352.434H46.0879L43.0215 363H42.1816L42.709 360.549ZM39.7012 352.434L42.2109 360.461L42.8457 363H42.0254L39.3008 354.602L38.8418 352.434H39.7012ZM56.332 361.877L59.7207 352.434H60.9219L56.9668 363H56.1172L56.332 361.877ZM53.2656 352.434L56.6934 361.906L56.8789 363H56.0195L52.0547 352.434H53.2656ZM64.1445 352.434V363H62.9824V352.434H64.1445ZM62.7773 349.377C62.7773 349.156 62.8457 348.97 62.9824 348.82C63.1257 348.664 63.321 348.586 63.5684 348.586C63.8158 348.586 64.0111 348.664 64.1543 348.82C64.304 348.97 64.3789 349.156 64.3789 349.377C64.3789 349.592 64.304 349.777 64.1543 349.934C64.0111 350.083 63.8158 350.158 63.5684 350.158C63.321 350.158 63.1257 350.083 62.9824 349.934C62.8457 349.777 62.7773 349.592 62.7773 349.377ZM73.666 360.305C73.666 360.018 73.5944 359.735 73.4512 359.455C73.3079 359.175 73.0312 358.918 72.6211 358.684C72.2174 358.449 71.6217 358.251 70.834 358.088C70.248 357.958 69.724 357.811 69.2617 357.648C68.806 357.486 68.4219 357.29 68.1094 357.062C67.7969 356.835 67.5592 356.561 67.3965 356.242C67.2337 355.923 67.1523 355.546 67.1523 355.109C67.1523 354.719 67.237 354.351 67.4062 354.006C67.582 353.654 67.8294 353.348 68.1484 353.088C68.474 352.821 68.8646 352.613 69.3203 352.463C69.7826 352.313 70.3001 352.238 70.873 352.238C71.6868 352.238 72.3835 352.378 72.9629 352.658C73.5488 352.932 73.9948 353.306 74.3008 353.781C74.6133 354.257 74.7695 354.794 74.7695 355.393H73.6074C73.6074 355.028 73.5 354.683 73.2852 354.357C73.0768 354.032 72.7676 353.765 72.3574 353.557C71.9538 353.348 71.459 353.244 70.873 353.244C70.2676 353.244 69.776 353.335 69.3984 353.518C69.0208 353.7 68.7441 353.931 68.5684 354.211C68.3991 354.491 68.3145 354.781 68.3145 355.08C68.3145 355.314 68.3503 355.529 68.4219 355.725C68.5 355.913 68.6367 356.089 68.832 356.252C69.0339 356.415 69.3203 356.568 69.6914 356.711C70.0625 356.854 70.5443 356.994 71.1367 357.131C71.9896 357.32 72.6862 357.551 73.2266 357.824C73.7734 358.091 74.1771 358.423 74.4375 358.82C74.6979 359.211 74.8281 359.686 74.8281 360.246C74.8281 360.682 74.737 361.083 74.5547 361.447C74.3724 361.805 74.1087 362.115 73.7637 362.375C73.4251 362.635 73.015 362.837 72.5332 362.98C72.0579 363.124 71.5241 363.195 70.9316 363.195C70.0397 363.195 69.2845 363.049 68.666 362.756C68.054 362.456 67.5885 362.066 67.2695 361.584C66.957 361.096 66.8008 360.578 66.8008 360.031H67.9629C68.002 360.578 68.1745 361.011 68.4805 361.33C68.7865 361.643 69.1608 361.864 69.6035 361.994C70.0527 362.124 70.4954 362.189 70.9316 362.189C71.5306 362.189 72.0319 362.102 72.4355 361.926C72.8392 361.75 73.1452 361.519 73.3535 361.232C73.5618 360.946 73.666 360.637 73.666 360.305ZM78.7734 352.434V363H77.6113V352.434H78.7734ZM77.4062 349.377C77.4062 349.156 77.4746 348.97 77.6113 348.82C77.7546 348.664 77.9499 348.586 78.1973 348.586C78.4447 348.586 78.64 348.664 78.7832 348.82C78.9329 348.97 79.0078 349.156 79.0078 349.377C79.0078 349.592 78.9329 349.777 78.7832 349.934C78.64 350.083 78.4447 350.158 78.1973 350.158C77.9499 350.158 77.7546 350.083 77.6113 349.934C77.4746 349.777 77.4062 349.592 77.4062 349.377ZM81.3223 357.883V357.561C81.3223 356.792 81.4329 356.083 81.6543 355.432C81.8757 354.781 82.1914 354.217 82.6016 353.742C83.0182 353.267 83.5163 352.899 84.0957 352.639C84.6751 352.372 85.3197 352.238 86.0293 352.238C86.7454 352.238 87.3932 352.372 87.9727 352.639C88.5521 352.899 89.0501 353.267 89.4668 353.742C89.8835 354.217 90.2025 354.781 90.4238 355.432C90.6452 356.083 90.7559 356.792 90.7559 357.561V357.883C90.7559 358.651 90.6452 359.361 90.4238 360.012C90.2025 360.656 89.8835 361.216 89.4668 361.691C89.0566 362.167 88.5618 362.538 87.9824 362.805C87.403 363.065 86.7585 363.195 86.0488 363.195C85.3327 363.195 84.6849 363.065 84.1055 362.805C83.526 362.538 83.028 362.167 82.6113 361.691C82.1947 361.216 81.8757 360.656 81.6543 360.012C81.4329 359.361 81.3223 358.651 81.3223 357.883ZM82.4844 357.561V357.883C82.4844 358.462 82.5625 359.012 82.7188 359.533C82.875 360.048 83.1029 360.507 83.4023 360.91C83.7018 361.307 84.0729 361.62 84.5156 361.848C84.9583 362.076 85.4694 362.189 86.0488 362.189C86.6217 362.189 87.1263 362.076 87.5625 361.848C88.0052 361.62 88.3763 361.307 88.6758 360.91C88.9753 360.507 89.1999 360.048 89.3496 359.533C89.5059 359.012 89.584 358.462 89.584 357.883V357.561C89.584 356.988 89.5059 356.444 89.3496 355.93C89.1999 355.415 88.972 354.956 88.666 354.553C88.3665 354.149 87.9954 353.83 87.5527 353.596C87.11 353.361 86.6022 353.244 86.0293 353.244C85.4564 353.244 84.9486 353.361 84.5059 353.596C84.0697 353.83 83.6986 354.149 83.3926 354.553C83.0931 354.956 82.8652 355.415 82.709 355.93C82.5592 356.444 82.4844 356.988 82.4844 357.561ZM94.3398 354.689V363H93.1777V352.434H94.291L94.3398 354.689ZM94.0762 357.062L93.5586 356.77C93.5977 356.145 93.7246 355.559 93.9395 355.012C94.1543 354.465 94.444 353.983 94.8086 353.566C95.1797 353.15 95.6126 352.824 96.1074 352.59C96.6087 352.355 97.1621 352.238 97.7676 352.238C98.2949 352.238 98.7669 352.31 99.1836 352.453C99.6003 352.596 99.9551 352.824 100.248 353.137C100.541 353.449 100.762 353.85 100.912 354.338C101.068 354.826 101.146 355.422 101.146 356.125V363H99.9746V356.115C99.9746 355.386 99.8737 354.816 99.6719 354.406C99.4701 353.99 99.1836 353.693 98.8125 353.518C98.4414 353.342 98.002 353.254 97.4941 353.254C96.9342 353.254 96.4427 353.378 96.0195 353.625C95.6029 353.866 95.2513 354.182 94.9648 354.572C94.6849 354.956 94.4701 355.37 94.3203 355.812C94.1706 356.249 94.0892 356.665 94.0762 357.062Z" fill="black"/>
<line x1="209.5" y1="313" x2="209.5" y2="191" stroke="black"/>
<line x1="121.5" y1="312" x2="121.5" y2="241" stroke="black"/>
</svg>
