<svg width="66" height="43" viewBox="0 0 66 43" fill="none" xmlns="http://www.w3.org/2000/svg">
<g clip-path="url(#clip0_818_11832)">
<path d="M43.8825 36.1256C42.1196 36.1219 40.6934 34.6897 40.6971 32.9268L40.7468 9.21415C40.7505 7.45121 42.1827 6.02506 43.9456 6.02876L45.7436 6.03253C46.4967 6.03411 47.2249 6.30188 47.7996 6.78851L57.385 14.9047C58.1031 15.5127 58.5163 16.4066 58.5144 17.3475L58.507 20.8798L58.4986 24.868C58.4966 25.8089 58.0796 26.701 57.359 27.3061L47.7397 35.382C47.1629 35.8662 46.4336 36.1309 45.6805 36.1294L43.8825 36.1256Z" fill="#FFEFDB"/>
<path d="M57.1023 20.8769L58.5066 20.8798L58.4982 24.8681L57.0939 24.8652L57.1023 20.8769ZM57.1097 17.3447L58.514 17.3476L58.5066 20.8798L57.1023 20.8769L57.1097 17.3447ZM45.7408 7.43704L43.943 7.43327C42.956 7.4312 42.1535 8.22971 42.1511 9.21663L42.1014 32.9295C42.0993 33.9166 42.8986 34.7192 43.8857 34.7213L45.6836 34.7251C46.1052 34.7259 46.5139 34.5777 46.8368 34.3066L56.4553 26.2301C56.8588 25.8913 57.0928 25.392 57.0939 24.8652L58.4982 24.8681L58.493 25.0439C58.4462 25.861 58.0874 26.6293 57.4904 27.1893L57.3593 27.3062L47.7398 35.3817C47.2353 35.8053 46.6138 36.0609 45.9619 36.1173L45.6807 36.1294L43.8828 36.1256C42.1751 36.122 40.7829 34.7781 40.7007 33.0916L40.6971 32.9265L40.7468 9.21368L40.7511 9.04963C40.8402 7.36332 42.2381 6.02539 43.9459 6.02897L45.7438 6.03274L46.025 6.04505C46.6765 6.10407 47.297 6.36238 47.7998 6.78803L57.3853 14.9048L57.5159 15.0223C58.1105 15.5848 58.4662 16.3545 58.5095 17.1718L58.514 17.3476L57.1097 17.3447C57.1108 16.8178 56.8789 16.3176 56.4768 15.9771L46.8923 7.86035L46.7675 7.76439C46.4681 7.55308 46.1098 7.43784 45.7408 7.43704Z" fill="#4A4444"/>
<path d="M1.92765 36.0405C1.42395 36.0394 1.01648 35.6302 1.01754 35.1265L1.07681 6.85377C1.07787 6.35007 1.48705 5.9426 1.99075 5.94366L45.2043 6.03426C45.8823 6.03568 46.3218 6.75009 46.0173 7.35586L42.5696 14.2151C42.4215 14.51 42.4441 14.8618 42.6288 15.1352L46.302 20.5729C46.5112 20.8825 46.5103 21.2884 46.2999 21.5971L42.6039 27.0194C42.418 27.292 42.3939 27.6438 42.5409 27.9392L45.9597 34.8129C46.2616 35.4199 45.8192 36.1325 45.1412 36.1311L1.92765 36.0405Z" fill="#69CE1F"/>
<path d="M44.3466 34.7251L41.2833 28.5644L41.2182 28.4227C40.939 27.7515 40.9913 26.9873 41.3592 26.3604L41.4435 26.2278L44.9504 21.0828L41.4651 15.9212L41.3814 15.7892C41.016 15.1608 40.9671 14.3963 41.249 13.7264L41.3147 13.584L44.4038 7.43709L2.48008 7.3492L2.42286 34.6372L44.3466 34.7251ZM45.2046 6.03447L45.3286 6.04255C45.8941 6.11903 46.2523 6.70219 46.0654 7.24136L46.0173 7.35552L42.5693 14.2155C42.4213 14.5102 42.4443 14.8622 42.6289 15.1355L46.3021 20.5729L46.3702 20.6932C46.4878 20.9413 46.4872 21.2298 46.3685 21.4774L46.2999 21.5974L42.604 27.0193C42.4182 27.2919 42.3937 27.6437 42.5405 27.9391L45.9597 34.8125L46.0073 34.9278C46.1919 35.4677 45.8313 36.0495 45.2655 36.1235L45.1415 36.1311L1.92773 36.0405C1.45566 36.0395 1.06816 35.68 1.02222 35.2202L1.01754 35.1265L1.07681 6.85407L1.08189 6.76033C1.12966 6.30064 1.51869 5.94288 1.99083 5.94387L45.2046 6.03447Z" fill="#4A4444"/>
<path d="M63.0652 21.1201L57.5825 26.1248L57.6036 16.0925L63.0652 21.1201Z" fill="#69CE1F"/>
<path d="M56.9014 16.0911L56.9094 15.9876C56.945 15.7517 57.0988 15.5471 57.3217 15.4494C57.545 15.3518 57.8007 15.3771 57.9983 15.5114L58.0793 15.576L63.5404 20.6031C63.6851 20.7364 63.7681 20.9245 63.7678 21.1212C63.7674 21.3181 63.6836 21.5065 63.5382 21.6392L58.056 26.6434C57.8503 26.8312 57.5527 26.8795 57.298 26.7668C57.0435 26.654 56.8798 26.4017 56.8804 26.1233L56.9014 16.0911ZM62.0256 21.1185L58.3024 17.6908L58.288 24.5296L62.0256 21.1185Z" fill="#4A4444"/>
<path d="M1.94491 28.3228L1.94785 26.9185L41.6206 27.0017L41.6177 28.406L1.94491 28.3228Z" fill="#4A4444"/>
<path d="M1.97372 15.098L1.97666 13.6937L41.6494 13.7769L41.6465 15.1812L1.97372 15.098Z" fill="#4A4444"/>
</g>
<defs>
<clipPath id="clip0_818_11832">
<rect width="66" height="43" fill="white"/>
</clipPath>
</defs>
</svg>
