<svg width="131" height="48" viewBox="0 0 131 48" fill="none" xmlns="http://www.w3.org/2000/svg">
<rect width="130.922" height="47.3466" rx="12.6258" fill="#FFDBCD"/>
<rect x="7.57544" y="7.57568" width="32.1957" height="32.1957" rx="10.1006" fill="white"/>
<circle cx="23.989" cy="23.3581" r="3.15644" fill="#6F1B00"/>
<path fill-rule="evenodd" clip-rule="evenodd" d="M23.9836 18.5726C22.4059 16.7281 19.775 16.232 17.7982 17.921C15.8214 19.6099 15.5431 22.4338 17.0955 24.4314C18.268 25.9402 21.599 28.9692 23.1589 30.3612C23.4456 30.6171 23.589 30.745 23.7569 30.7954C23.9026 30.8391 24.0646 30.8391 24.2103 30.7954C24.3782 30.745 24.5216 30.6171 24.8083 30.3612C26.3682 28.9692 29.6992 25.9402 30.8717 24.4314C32.4241 22.4338 32.1797 19.5922 30.169 17.921C28.1583 16.2497 25.5613 16.7281 23.9836 18.5726Z" fill="#6F1B00" stroke="#6F1B00" stroke-width="1.26258" stroke-linecap="round" stroke-linejoin="round"/>
<path d="M48.969 29.1733C48.8535 29.1733 48.759 29.1366 48.6855 29.0631C48.612 28.9896 48.5752 28.9003 48.5752 28.7953V18.5415C48.5752 18.426 48.612 18.3315 48.6855 18.258C48.759 18.1845 48.8535 18.1477 48.969 18.1477H50.2133C50.3603 18.1477 50.4706 18.1897 50.5441 18.2738C50.6176 18.3473 50.6649 18.405 50.6859 18.447L53.7258 24.1173L56.7972 18.447C56.8182 18.405 56.8654 18.3473 56.9389 18.2738C57.0125 18.1897 57.1227 18.1477 57.2697 18.1477H58.4983C58.6138 18.1477 58.7083 18.1845 58.7818 18.258C58.8553 18.3315 58.8921 18.426 58.8921 18.5415V28.7953C58.8921 28.9003 58.8553 28.9896 58.7818 29.0631C58.7083 29.1366 58.6138 29.1733 58.4983 29.1733H57.1752C57.0597 29.1733 56.9652 29.1366 56.8917 29.0631C56.8287 28.9896 56.7972 28.9003 56.7972 28.7953V21.9752L54.5921 26.1807C54.5396 26.2752 54.4713 26.3592 54.3873 26.4327C54.3033 26.4957 54.193 26.5272 54.0565 26.5272H53.4108C53.2637 26.5272 53.1482 26.4957 53.0642 26.4327C52.9907 26.3592 52.9277 26.2752 52.8752 26.1807L50.6701 21.9752V28.7953C50.6701 28.9003 50.6334 28.9896 50.5599 29.0631C50.4863 29.1366 50.3971 29.1733 50.2921 29.1733H48.969ZM62.6336 32.166C62.5496 32.166 62.4761 32.1345 62.4131 32.0715C62.3501 32.0085 62.3186 31.935 62.3186 31.851C62.3186 31.809 62.3186 31.767 62.3186 31.725C62.3291 31.6935 62.3501 31.6515 62.3816 31.599L63.6102 28.6851L60.586 21.5499C60.544 21.4449 60.523 21.3714 60.523 21.3294C60.5335 21.2349 60.5703 21.1562 60.6333 21.0932C60.6963 21.0197 60.775 20.9829 60.8695 20.9829H62.1453C62.2713 20.9829 62.3659 21.0144 62.4289 21.0774C62.4919 21.1404 62.5391 21.2087 62.5706 21.2822L64.6655 26.4327L66.8233 21.2822C66.8548 21.1982 66.9021 21.1299 66.9651 21.0774C67.0281 21.0144 67.1226 20.9829 67.2486 20.9829H68.5087C68.5927 20.9829 68.6662 21.0144 68.7292 21.0774C68.8027 21.1404 68.8394 21.2139 68.8394 21.2979C68.8394 21.3609 68.8184 21.4449 68.7764 21.5499L64.319 31.8667C64.277 31.9507 64.2245 32.019 64.1614 32.0715C64.0984 32.1345 64.0039 32.166 63.8779 32.166H62.6336ZM73.9485 29.1733C73.8435 29.1733 73.7542 29.1418 73.6807 29.0788C73.6072 29.0053 73.5705 28.9108 73.5705 28.7953V18.5415C73.5705 18.426 73.6072 18.3315 73.6807 18.258C73.7542 18.1845 73.8435 18.1477 73.9485 18.1477H75.3818C75.4973 18.1477 75.5866 18.1845 75.6496 18.258C75.7231 18.3315 75.7599 18.426 75.7599 18.5415V22.6052H80.4064V18.5415C80.4064 18.426 80.4431 18.3315 80.5166 18.258C80.5901 18.1845 80.6794 18.1477 80.7844 18.1477H82.2019C82.3175 18.1477 82.412 18.1845 82.4855 18.258C82.559 18.3315 82.5957 18.426 82.5957 18.5415V28.7953C82.5957 28.9003 82.559 28.9896 82.4855 29.0631C82.412 29.1366 82.3175 29.1733 82.2019 29.1733H80.7844C80.6794 29.1733 80.5901 29.1366 80.5166 29.0631C80.4431 28.9896 80.4064 28.9003 80.4064 28.7953V24.5741H75.7599V28.7953C75.7599 28.9003 75.7231 28.9896 75.6496 29.0631C75.5866 29.1366 75.4973 29.1733 75.3818 29.1733H73.9485ZM88.3844 29.3308C87.2188 29.3308 86.2948 28.9948 85.6123 28.3228C84.9297 27.6508 84.5622 26.6952 84.5097 25.4561C84.4992 25.3511 84.4939 25.2199 84.4939 25.0624C84.4939 24.8944 84.4992 24.7631 84.5097 24.6686C84.5517 23.8811 84.7302 23.1985 85.0452 22.621C85.3707 22.0435 85.817 21.6024 86.384 21.2979C86.9511 20.9829 87.6179 20.8254 88.3844 20.8254C89.2349 20.8254 89.949 21.0039 90.5265 21.3609C91.1041 21.7074 91.5398 22.1957 91.8338 22.8257C92.1279 23.4453 92.2749 24.1646 92.2749 24.9836V25.3144C92.2749 25.4194 92.2381 25.5086 92.1646 25.5821C92.0911 25.6557 91.9966 25.6924 91.8811 25.6924H86.6518C86.6518 25.6924 86.6518 25.7082 86.6518 25.7397C86.6518 25.7712 86.6518 25.7974 86.6518 25.8184C86.6623 26.1859 86.7306 26.5272 86.8566 26.8422C86.9931 27.1467 87.1873 27.3935 87.4394 27.5825C87.7019 27.7715 88.0116 27.866 88.3687 27.866C88.6627 27.866 88.9094 27.824 89.1089 27.74C89.3085 27.6455 89.4712 27.5405 89.5972 27.425C89.7232 27.3095 89.8125 27.215 89.865 27.1415C89.9595 27.0155 90.033 26.942 90.0855 26.921C90.1485 26.8895 90.2378 26.8737 90.3533 26.8737H91.7078C91.8128 26.8737 91.8968 26.9052 91.9598 26.9682C92.0334 27.0312 92.0649 27.11 92.0544 27.2045C92.0439 27.3725 91.9546 27.5773 91.7866 27.8188C91.6291 28.0603 91.3981 28.2965 91.0935 28.5276C90.789 28.7586 90.4058 28.9528 89.9437 29.1103C89.4922 29.2573 88.9724 29.3308 88.3844 29.3308ZM86.6518 24.3693H90.1327V24.3221C90.1327 23.9126 90.0645 23.5555 89.928 23.251C89.7915 22.9465 89.592 22.705 89.3295 22.5265C89.0669 22.348 88.7519 22.2587 88.3844 22.2587C88.0169 22.2587 87.7019 22.348 87.4394 22.5265C87.1768 22.705 86.9773 22.9465 86.8408 23.251C86.7148 23.5555 86.6518 23.9126 86.6518 24.3221V24.3693ZM96.3252 29.3308C95.7791 29.3308 95.2856 29.2258 94.8446 29.0158C94.4036 28.7953 94.0518 28.5066 93.7893 28.1495C93.5373 27.782 93.4113 27.3725 93.4113 26.921C93.4113 26.1859 93.7053 25.6031 94.2933 25.1726C94.8918 24.7316 95.6794 24.4376 96.6559 24.2906L98.8138 23.9756V23.6448C98.8138 23.2038 98.7035 22.8625 98.483 22.621C98.2625 22.3795 97.8845 22.2587 97.349 22.2587C96.971 22.2587 96.6612 22.3375 96.4197 22.495C96.1887 22.642 96.0154 22.8415 95.8999 23.0935C95.8159 23.23 95.6951 23.2983 95.5376 23.2983H94.2933C94.1778 23.2983 94.0885 23.2668 94.0255 23.2038C93.973 23.1408 93.9468 23.0568 93.9468 22.9518C93.9573 22.7837 94.0255 22.579 94.1516 22.3375C94.2776 22.096 94.4771 21.8649 94.7501 21.6444C95.0231 21.4134 95.3749 21.2192 95.8054 21.0617C96.2359 20.9041 96.7557 20.8254 97.3647 20.8254C98.0263 20.8254 98.5828 20.9094 99.0343 21.0774C99.4963 21.2349 99.8639 21.4502 100.137 21.7232C100.41 21.9962 100.609 22.3165 100.735 22.684C100.861 23.0515 100.924 23.44 100.924 23.8496V28.7953C100.924 28.9003 100.888 28.9896 100.814 29.0631C100.741 29.1366 100.651 29.1733 100.546 29.1733H99.2706C99.1551 29.1733 99.0606 29.1366 98.9871 29.0631C98.9241 28.9896 98.8926 28.9003 98.8926 28.7953V28.181C98.756 28.3805 98.5723 28.5696 98.3413 28.7481C98.1103 28.9161 97.8267 29.0578 97.4907 29.1733C97.1652 29.2783 96.7767 29.3308 96.3252 29.3308ZM96.8607 27.8345C97.2282 27.8345 97.559 27.7558 97.853 27.5983C98.1575 27.4407 98.3938 27.1992 98.5618 26.8737C98.7403 26.5377 98.8296 26.1177 98.8296 25.6136V25.2829L97.2545 25.5349C96.6349 25.6294 96.1729 25.7817 95.8684 25.9917C95.5639 26.2017 95.4116 26.4589 95.4116 26.7635C95.4116 26.9945 95.4799 27.194 95.6164 27.362C95.7634 27.5195 95.9471 27.6403 96.1677 27.7243C96.3882 27.7978 96.6192 27.8345 96.8607 27.8345ZM103.339 29.1733C103.234 29.1733 103.145 29.1366 103.071 29.0631C102.998 28.9896 102.961 28.9003 102.961 28.7953V18.3683C102.961 18.2633 102.998 18.174 103.071 18.1005C103.145 18.027 103.234 17.9902 103.339 17.9902H104.646C104.751 17.9902 104.84 18.027 104.914 18.1005C104.987 18.174 105.024 18.2633 105.024 18.3683V28.7953C105.024 28.9003 104.987 28.9896 104.914 29.0631C104.84 29.1366 104.751 29.1733 104.646 29.1733H103.339ZM110.815 29.1733C110.185 29.1733 109.655 29.0631 109.224 28.8426C108.794 28.6221 108.473 28.2965 108.263 27.866C108.053 27.425 107.948 26.879 107.948 26.2279V22.6525H106.704C106.599 22.6525 106.51 22.6157 106.436 22.5422C106.363 22.4687 106.326 22.3795 106.326 22.2745V21.3609C106.326 21.2559 106.363 21.1667 106.436 21.0932C106.51 21.0197 106.599 20.9829 106.704 20.9829H107.948V18.3683C107.948 18.2633 107.98 18.174 108.043 18.1005C108.116 18.027 108.211 17.9902 108.326 17.9902H109.602C109.707 17.9902 109.796 18.027 109.87 18.1005C109.943 18.174 109.98 18.2633 109.98 18.3683V20.9829H111.949C112.054 20.9829 112.143 21.0197 112.217 21.0932C112.29 21.1667 112.327 21.2559 112.327 21.3609V22.2745C112.327 22.3795 112.29 22.4687 112.217 22.5422C112.143 22.6157 112.054 22.6525 111.949 22.6525H109.98V26.0704C109.98 26.5009 110.054 26.837 110.201 27.0785C110.358 27.32 110.626 27.4407 111.004 27.4407H112.091C112.196 27.4407 112.285 27.4775 112.359 27.551C112.432 27.6245 112.469 27.7138 112.469 27.8188V28.7953C112.469 28.9003 112.432 28.9896 112.359 29.0631C112.285 29.1366 112.196 29.1733 112.091 29.1733H110.815ZM114.26 29.1733C114.155 29.1733 114.066 29.1366 113.992 29.0631C113.919 28.9896 113.882 28.9003 113.882 28.7953V18.3683C113.882 18.2633 113.919 18.174 113.992 18.1005C114.066 18.027 114.155 17.9902 114.26 17.9902H115.662C115.777 17.9902 115.866 18.027 115.929 18.1005C116.003 18.174 116.04 18.2633 116.04 18.3683V21.9595C116.323 21.6234 116.67 21.3504 117.079 21.1404C117.489 20.9304 117.993 20.8254 118.591 20.8254C119.232 20.8254 119.788 20.9724 120.261 21.2664C120.744 21.5499 121.117 21.9542 121.379 22.4792C121.642 23.0043 121.773 23.6343 121.773 24.3693V28.7953C121.773 28.9003 121.736 28.9896 121.663 29.0631C121.589 29.1366 121.5 29.1733 121.395 29.1733H119.977C119.872 29.1733 119.783 29.1366 119.71 29.0631C119.636 28.9896 119.599 28.9003 119.599 28.7953V24.4638C119.599 23.8548 119.447 23.377 119.143 23.0305C118.849 22.684 118.418 22.5107 117.851 22.5107C117.305 22.5107 116.864 22.684 116.528 23.0305C116.202 23.377 116.04 23.8548 116.04 24.4638V28.7953C116.04 28.9003 116.003 28.9896 115.929 29.0631C115.866 29.1366 115.777 29.1733 115.662 29.1733H114.26Z" fill="#721C02"/>
</svg>
