<svg width="116" height="101" viewBox="0 0 116 101" fill="none" xmlns="http://www.w3.org/2000/svg">
<g filter="url(#filter0_dd_804_11591)">
<path d="M71.153 29.0859C79.7413 28.9857 85.6085 37.1837 85.6984 44.8942C85.8806 60.5096 62.08 73.5752 61.6466 73.5803C61.2131 73.5853 37.1142 61.0785 36.932 45.4632C36.842 37.7526 42.5163 29.42 51.1046 29.3198C56.0354 29.2623 59.2889 31.7486 61.1842 33.9457C63.0276 31.705 66.2222 29.1434 71.153 29.0859Z" fill="#F25555"/>
<path d="M71.153 29.0859C79.7413 28.9857 85.6085 37.1837 85.6984 44.8942C85.8806 60.5096 62.08 73.5752 61.6466 73.5803C61.2131 73.5853 37.1142 61.0785 36.932 45.4632C36.842 37.7526 42.5163 29.42 51.1046 29.3198C56.0354 29.2623 59.2889 31.7486 61.1842 33.9457C63.0276 31.705 66.2222 29.1434 71.153 29.0859Z" stroke="white" stroke-width="11.7047" stroke-linecap="round" stroke-linejoin="round"/>
</g>
<path d="M71.153 29.0859C79.7413 28.9857 85.6085 37.1837 85.6984 44.8942C85.8806 60.5096 62.08 73.5752 61.6466 73.5803C61.2131 73.5853 37.1142 61.0785 36.932 45.4632C36.842 37.7526 42.5163 29.42 51.1046 29.3198C56.0354 29.2623 59.2889 31.7486 61.1842 33.9457C63.0276 31.705 66.2222 29.1434 71.153 29.0859Z" fill="#F25555" stroke="#343131" stroke-width="1.46309" stroke-linecap="round" stroke-linejoin="round"/>
<defs>
<filter id="filter0_dd_804_11591" x="25.1775" y="20.2576" width="70.3246" height="66.0516" filterUnits="userSpaceOnUse" color-interpolation-filters="sRGB">
<feFlood flood-opacity="0" result="BackgroundImageFix"/>
<feColorMatrix in="SourceAlpha" type="matrix" values="0 0 0 0 0 0 0 0 0 0 0 0 0 0 0 0 0 0 127 0" result="hardAlpha"/>
<feOffset dx="0.487697" dy="0.487697"/>
<feGaussianBlur stdDeviation="0.658392"/>
<feComposite in2="hardAlpha" operator="out"/>
<feColorMatrix type="matrix" values="0 0 0 0 0 0 0 0 0 0 0 0 0 0 0 0 0 0 0.12 0"/>
<feBlend mode="normal" in2="BackgroundImageFix" result="effect1_dropShadow_804_11591"/>
<feColorMatrix in="SourceAlpha" type="matrix" values="0 0 0 0 0 0 0 0 0 0 0 0 0 0 0 0 0 0 127 0" result="hardAlpha"/>
<feOffset dx="-0.975395" dy="1.95079"/>
<feGaussianBlur stdDeviation="2.46287"/>
<feComposite in2="hardAlpha" operator="out"/>
<feColorMatrix type="matrix" values="0 0 0 0 0 0 0 0 0 0 0 0 0 0 0 0 0 0 0.12 0"/>
<feBlend mode="normal" in2="effect1_dropShadow_804_11591" result="effect2_dropShadow_804_11591"/>
<feBlend mode="normal" in="SourceGraphic" in2="effect2_dropShadow_804_11591" result="shape"/>
</filter>
</defs>
</svg>
