<svg width="82" height="97" viewBox="0 0 82 97" fill="none" xmlns="http://www.w3.org/2000/svg">
<path id="Icon" d="M54.875 4V10.2417C54.875 12.7386 54.875 13.987 54.3709 14.9407C53.9275 15.7796 53.22 16.4616 52.3497 16.8891C51.3604 17.375 50.0652 17.375 47.475 17.375H34.525C31.9348 17.375 30.6396 17.375 29.6503 16.8891C28.78 16.4616 28.0725 15.7796 27.6291 14.9407C27.125 13.987 27.125 12.7386 27.125 10.2417V4M18.8 93.1667H63.2C68.3805 93.1667 70.9707 93.1667 72.9494 92.1948C74.6899 91.3399 76.105 89.9759 76.9918 88.2981C78 86.3907 78 83.8938 78 78.9V18.2667C78 13.2729 78 10.776 76.9918 8.86858C76.105 7.19081 74.6899 5.82673 72.9494 4.97186C70.9707 4 68.3805 4 63.2 4H18.8C13.6195 4 11.0293 4 9.05059 4.97186C7.31009 5.82673 5.89502 7.19081 5.00819 8.86858C4 10.776 4 13.2729 4 18.2667V78.9C4 83.8938 4 86.3907 5.00819 88.2981C5.89502 89.9759 7.31009 91.3399 9.05059 92.1948C11.0293 93.1667 13.6195 93.1667 18.8 93.1667Z" stroke="#EEA73B" stroke-width="7" stroke-linecap="round" stroke-linejoin="round"/>
</svg>
