<svg width="100" height="87" viewBox="0 0 100 87" fill="none" xmlns="http://www.w3.org/2000/svg">
<path id="Icon" d="M66.4375 41.8958H61.8125L54.875 55.2708L45.625 28.5208L38.6875 41.8958H34.0625M50.2183 13.5222C40.9713 3.1012 25.5513 0.297989 13.9655 9.84048C2.3796 19.383 0.748476 35.3375 9.84692 46.6235C16.7192 55.148 36.2422 72.2613 45.3845 80.1255C47.0652 81.5712 47.9055 82.294 48.8895 82.5786C49.7437 82.8256 50.693 82.8256 51.5472 82.5786C52.5312 82.294 53.3715 81.5712 55.0521 80.1255C64.1944 72.2613 83.7175 55.148 90.5897 46.6235C99.6882 35.3375 98.2562 19.2826 86.4712 9.84048C74.6862 0.398367 59.4653 3.1012 50.2183 13.5222Z" stroke="#FF5A5A" stroke-width="7" stroke-linecap="round" stroke-linejoin="round"/>
</svg>
