<svg width="117" height="108" viewBox="0 0 117 108" fill="none" xmlns="http://www.w3.org/2000/svg">
<g filter="url(#filter0_dd_747_6493)">
<circle cx="77.9796" cy="37.9001" r="15.4541" fill="#F5793C" stroke="white" stroke-width="9.47738" stroke-linejoin="round"/>
<path d="M48.1996 32.5268C34.5043 36.3791 30.5029 47.6902 31.1463 54.9192C31.4727 58.5865 34.6777 60.915 38.0316 62.4337L62.0325 73.302C65.535 74.888 69.4266 75.8914 73.1455 74.9156C88.4444 70.9015 85.0884 53.1498 80.9954 43.8917C78.5059 38.5881 68.0163 26.9528 48.1996 32.5268Z" fill="#F5793C" stroke="white" stroke-width="9.47738" stroke-linejoin="round"/>
<path d="M53.718 81.5586C30.0141 82.5327 31.3129 61.1018 34.56 52.984L52.497 41.9459C54.2911 40.8418 56.6313 41.2901 57.8903 42.9791L68.9794 57.8547C73.2006 56.8806 74.4995 58.8288 74.8242 63.0501C75.0839 66.4271 71.1441 68.1372 68.9794 68.5702C69.4989 76.8827 63.1346 80.5844 53.718 81.5586Z" fill="#FFE9DF" stroke="white" stroke-width="9.47738" stroke-linejoin="round"/>
<circle cx="56.4882" cy="60.0385" r="1.41008" fill="white"/>
<circle cx="46.6137" cy="60.0385" r="1.41008" fill="white"/>
<path d="M43.6373 54.5808L46.769 54.2147" stroke="white" stroke-width="9.47738" stroke-linecap="round" stroke-linejoin="round"/>
<path d="M59.4688 54.4396L56.3169 54.3555" stroke="white" stroke-width="9.47738" stroke-linecap="round" stroke-linejoin="round"/>
<path d="M52.255 61.4485L51.8398 61.4794C49.3833 61.6621 49.1537 65.1783 51.5655 65.679V65.679" stroke="white" stroke-width="9.47738" stroke-linecap="round" stroke-linejoin="round"/>
<line x1="63.2047" y1="67.6709" x2="64.8229" y2="63.8951" stroke="#EC6868" stroke-width="9.47738" stroke-linecap="round" stroke-linejoin="round"/>
<line x1="42.0494" y1="67.6709" x2="43.6676" y2="63.8951" stroke="#EC6868" stroke-width="9.47738" stroke-linecap="round" stroke-linejoin="round"/>
<line x1="66.026" y1="67.6709" x2="67.6442" y2="63.8951" stroke="#EC6868" stroke-width="9.47738" stroke-linecap="round" stroke-linejoin="round"/>
<line x1="44.8746" y1="67.6709" x2="46.4928" y2="63.8951" stroke="#EC6868" stroke-width="9.47738" stroke-linecap="round" stroke-linejoin="round"/>
<path d="M49.0859 70.342V70.342C50.0865 72.1839 52.7259 72.1964 53.7439 70.3641L54.2809 69.3975" stroke="#EC6868" stroke-width="9.47738" stroke-linecap="round" stroke-linejoin="round"/>
<circle cx="41.5388" cy="59.8573" r="4.73869" stroke="white" stroke-width="9.23299" stroke-linejoin="round"/>
<circle cx="61.6897" cy="59.8573" r="4.73869" stroke="white" stroke-width="9.23299" stroke-linejoin="round"/>
<path d="M32.5196 62.2542C30.6798 62.2542 27 63.2282 27 67.1244" stroke="white" stroke-width="9.47738" stroke-linecap="round" stroke-linejoin="round"/>
</g>
<circle cx="78.7692" cy="36.7155" r="10.1231" fill="#202020" stroke="#504A4A" stroke-width="1.18467"/>
<path d="M48.9896 31.3421C35.2943 35.1944 31.2929 46.5055 31.9364 53.7345C32.2628 57.4018 35.4677 59.7303 38.8216 61.249L62.8225 72.1173C66.325 73.7033 70.2166 74.7067 73.9356 73.7309C89.2345 69.7169 85.8785 51.9651 81.7854 42.707C79.296 37.4034 68.8064 25.7681 48.9896 31.3421Z" fill="#202020" stroke="#504A4A" stroke-width="1.18467"/>
<path d="M54.5075 80.3739C30.8036 81.348 32.1025 59.9171 35.3496 51.7993L53.2866 40.7612C55.0807 39.6571 57.4208 40.1054 58.6798 41.7944L69.7689 56.67C73.9902 55.6959 75.289 57.6441 75.6137 61.8654C75.8735 65.2424 71.9337 66.9525 69.7689 67.3855C70.2885 75.6981 63.9241 79.3998 54.5075 80.3739Z" fill="#FFE9DF" stroke="#504A4A" stroke-width="1.18467"/>
<circle cx="57.2782" cy="58.8538" r="1.41008" fill="#504A4A"/>
<circle cx="47.4037" cy="58.8538" r="1.41008" fill="#504A4A"/>
<path d="M44.4273 53.3961L47.559 53.03" stroke="#504A4A" stroke-width="1.18467" stroke-linecap="round"/>
<path d="M60.2584 53.2549L57.1065 53.1708" stroke="#504A4A" stroke-width="1.18467" stroke-linecap="round"/>
<path d="M53.0445 60.2638L52.6293 60.2947C50.1728 60.4774 49.9432 63.9936 52.3551 64.4943V64.4943" stroke="#504A4A" stroke-width="1.18467" stroke-linecap="round"/>
<line x1="61.8165" y1="61.0418" x2="60.168" y2="64.8882" stroke="#EC6868" stroke-width="1.18467" stroke-linecap="round"/>
<line x1="40.6612" y1="61.0418" x2="39.0128" y2="64.8882" stroke="#EC6868" stroke-width="1.18467" stroke-linecap="round"/>
<line x1="64.6378" y1="61.0418" x2="62.9893" y2="64.8882" stroke="#EC6868" stroke-width="1.18467" stroke-linecap="round"/>
<line x1="43.4869" y1="61.0418" x2="41.8384" y2="64.8882" stroke="#EC6868" stroke-width="1.18467" stroke-linecap="round"/>
<path d="M49.8755 69.1573V69.1573C50.876 70.9992 53.5155 71.0117 54.5334 69.1794L55.0704 68.2128" stroke="#EC6868" stroke-width="1.18467" stroke-linecap="round"/>
<circle cx="42.3283" cy="58.6726" r="8.76285" stroke="#504A4A" stroke-width="1.18467"/>
<circle cx="62.4792" cy="58.6726" r="8.76285" stroke="#504A4A" stroke-width="1.18467"/>
<path d="M33.3097 61.0695C31.4698 61.0695 27.79 62.0435 27.79 65.9397" stroke="#504A4A" stroke-width="1.18467"/>
<defs>
<filter id="filter0_dd_747_6493" x="17.4831" y="15.2984" width="83.8879" height="76.5989" filterUnits="userSpaceOnUse" color-interpolation-filters="sRGB">
<feFlood flood-opacity="0" result="BackgroundImageFix"/>
<feColorMatrix in="SourceAlpha" type="matrix" values="0 0 0 0 0 0 0 0 0 0 0 0 0 0 0 0 0 0 127 0" result="hardAlpha"/>
<feOffset dx="0.394891" dy="0.394891"/>
<feGaussianBlur stdDeviation="0.533102"/>
<feComposite in2="hardAlpha" operator="out"/>
<feColorMatrix type="matrix" values="0 0 0 0 0 0 0 0 0 0 0 0 0 0 0 0 0 0 0.12 0"/>
<feBlend mode="normal" in2="BackgroundImageFix" result="effect1_dropShadow_747_6493"/>
<feColorMatrix in="SourceAlpha" type="matrix" values="0 0 0 0 0 0 0 0 0 0 0 0 0 0 0 0 0 0 127 0" result="hardAlpha"/>
<feOffset dx="-0.789781" dy="1.57956"/>
<feGaussianBlur stdDeviation="1.9942"/>
<feComposite in2="hardAlpha" operator="out"/>
<feColorMatrix type="matrix" values="0 0 0 0 0 0 0 0 0 0 0 0 0 0 0 0 0 0 0.12 0"/>
<feBlend mode="normal" in2="effect1_dropShadow_747_6493" result="effect2_dropShadow_747_6493"/>
<feBlend mode="normal" in="SourceGraphic" in2="effect2_dropShadow_747_6493" result="shape"/>
</filter>
</defs>
</svg>
