<svg width="527" height="117" viewBox="0 0 527 117" fill="none" xmlns="http://www.w3.org/2000/svg">
<path d="M456.683 105.246V106H450.011V105.319L453.504 101.356C453.939 100.863 454.286 100.431 454.544 100.06C454.803 99.6841 454.989 99.3423 455.101 99.0347C455.218 98.7222 455.277 98.4194 455.277 98.1265C455.277 97.6968 455.191 97.3184 455.021 96.9912C454.854 96.6641 454.605 96.4077 454.273 96.2222C453.941 96.0366 453.531 95.9438 453.043 95.9438C452.555 95.9438 452.13 96.0488 451.769 96.2588C451.407 96.4688 451.129 96.7617 450.934 97.1377C450.743 97.5088 450.648 97.9312 450.648 98.4048H449.776C449.776 97.8188 449.906 97.2817 450.165 96.7935C450.428 96.3052 450.804 95.917 451.292 95.6289C451.781 95.3359 452.364 95.1895 453.043 95.1895C453.688 95.1895 454.242 95.3042 454.706 95.5337C455.169 95.7583 455.526 96.083 455.775 96.5078C456.029 96.9326 456.156 97.4453 456.156 98.0459C456.156 98.3682 456.097 98.6929 455.98 99.02C455.868 99.3472 455.711 99.6743 455.511 100.001C455.316 100.324 455.091 100.644 454.837 100.961C454.588 101.278 454.327 101.591 454.054 101.898L451.08 105.246H456.683ZM458.39 105.465C458.39 105.294 458.443 105.15 458.551 105.033C458.663 104.911 458.814 104.85 459.005 104.85C459.2 104.85 459.354 104.909 459.466 105.026C459.579 105.143 459.635 105.29 459.635 105.465C459.635 105.631 459.579 105.773 459.466 105.89C459.354 106.007 459.2 106.066 459.005 106.066C458.814 106.066 458.663 106.007 458.551 105.89C458.443 105.773 458.39 105.631 458.39 105.465ZM463.868 100.185H464.762C465.309 100.185 465.765 100.092 466.131 99.9062C466.502 99.7158 466.781 99.4644 466.966 99.1519C467.157 98.8394 467.252 98.4927 467.252 98.1118C467.252 97.6821 467.171 97.3062 467.01 96.9839C466.849 96.6567 466.603 96.4028 466.271 96.2222C465.943 96.0366 465.523 95.9438 465.011 95.9438C464.562 95.9438 464.161 96.0317 463.81 96.2075C463.458 96.3833 463.18 96.6348 462.975 96.9619C462.77 97.2891 462.667 97.6797 462.667 98.1338H461.795C461.795 97.5527 461.935 97.0425 462.213 96.603C462.491 96.1587 462.875 95.812 463.363 95.563C463.851 95.314 464.4 95.1895 465.011 95.1895C465.641 95.1895 466.188 95.3042 466.651 95.5337C467.12 95.7632 467.481 96.0977 467.735 96.5371C467.994 96.9766 468.124 97.5112 468.124 98.1411C468.124 98.4634 468.053 98.7808 467.911 99.0933C467.774 99.4058 467.569 99.689 467.296 99.9429C467.022 100.192 466.683 100.392 466.278 100.543C465.873 100.695 465.401 100.771 464.864 100.771H463.868V100.185ZM463.868 100.939V100.36H464.864C465.475 100.36 465.997 100.431 466.432 100.573C466.866 100.709 467.223 100.905 467.501 101.159C467.784 101.408 467.992 101.698 468.124 102.03C468.255 102.362 468.321 102.719 468.321 103.1C468.321 103.588 468.241 104.02 468.08 104.396C467.918 104.772 467.689 105.092 467.391 105.355C467.098 105.614 466.751 105.812 466.351 105.949C465.956 106.081 465.521 106.146 465.047 106.146C464.618 106.146 464.198 106.083 463.788 105.956C463.382 105.829 463.016 105.641 462.689 105.392C462.367 105.138 462.11 104.821 461.92 104.44C461.729 104.054 461.634 103.61 461.634 103.107H462.506C462.506 103.556 462.613 103.954 462.828 104.301C463.043 104.643 463.341 104.911 463.722 105.106C464.107 105.297 464.549 105.392 465.047 105.392C465.55 105.392 465.98 105.307 466.336 105.136C466.698 104.96 466.974 104.704 467.164 104.367C467.354 104.03 467.45 103.617 467.45 103.129C467.45 102.616 467.335 102.199 467.105 101.876C466.881 101.554 466.566 101.317 466.161 101.166C465.76 101.015 465.294 100.939 464.762 100.939H463.868ZM474.869 99.7158V106H473.99V98.0752H474.833L474.869 99.7158ZM474.708 101.547L474.283 101.327C474.312 100.858 474.4 100.419 474.547 100.009C474.698 99.5986 474.908 99.2373 475.177 98.9248C475.445 98.6123 475.768 98.3682 476.144 98.1924C476.52 98.0166 476.947 97.9287 477.425 97.9287C477.811 97.9287 478.16 97.9824 478.473 98.0898C478.79 98.1924 479.059 98.356 479.278 98.5806C479.503 98.8003 479.676 99.0884 479.798 99.4448C479.92 99.8013 479.981 100.229 479.981 100.727V106H479.11V100.756C479.11 100.229 479.027 99.8159 478.861 99.5181C478.7 99.2202 478.473 99.0078 478.18 98.8809C477.892 98.7539 477.557 98.6904 477.176 98.6904C476.727 98.6904 476.346 98.7832 476.034 98.9688C475.726 99.1494 475.475 99.3862 475.279 99.6792C475.089 99.9673 474.947 100.277 474.854 100.609C474.762 100.937 474.713 101.249 474.708 101.547ZM479.974 100.858L479.388 100.873C479.413 100.487 479.5 100.119 479.652 99.7671C479.808 99.4155 480.021 99.103 480.289 98.8296C480.558 98.5513 480.877 98.3315 481.249 98.1704C481.625 98.0093 482.047 97.9287 482.516 97.9287C482.926 97.9287 483.292 97.9849 483.614 98.0972C483.937 98.2046 484.208 98.3779 484.427 98.6172C484.652 98.8516 484.823 99.1519 484.94 99.5181C485.057 99.8843 485.116 100.324 485.116 100.836V106H484.237V100.829C484.237 100.268 484.154 99.833 483.988 99.5254C483.827 99.2129 483.602 98.9956 483.314 98.8735C483.026 98.7515 482.689 98.6904 482.303 98.6904C481.922 98.6953 481.588 98.7661 481.3 98.9028C481.012 99.0347 480.77 99.2104 480.575 99.4302C480.384 99.645 480.238 99.877 480.135 100.126C480.038 100.375 479.984 100.619 479.974 100.858ZM488.17 99.7158V106H487.291V98.0752H488.133L488.17 99.7158ZM488.009 101.547L487.584 101.327C487.613 100.858 487.701 100.419 487.848 100.009C487.999 99.5986 488.209 99.2373 488.478 98.9248C488.746 98.6123 489.068 98.3682 489.444 98.1924C489.82 98.0166 490.248 97.9287 490.726 97.9287C491.112 97.9287 491.461 97.9824 491.773 98.0898C492.091 98.1924 492.359 98.356 492.579 98.5806C492.804 98.8003 492.977 99.0884 493.099 99.4448C493.221 99.8013 493.282 100.229 493.282 100.727V106H492.411V100.756C492.411 100.229 492.328 99.8159 492.162 99.5181C492 99.2202 491.773 99.0078 491.48 98.8809C491.192 98.7539 490.858 98.6904 490.477 98.6904C490.028 98.6904 489.647 98.7832 489.334 98.9688C489.027 99.1494 488.775 99.3862 488.58 99.6792C488.39 99.9673 488.248 100.277 488.155 100.609C488.062 100.937 488.014 101.249 488.009 101.547ZM493.275 100.858L492.689 100.873C492.713 100.487 492.801 100.119 492.953 99.7671C493.109 99.4155 493.321 99.103 493.59 98.8296C493.858 98.5513 494.178 98.3315 494.549 98.1704C494.925 98.0093 495.348 97.9287 495.816 97.9287C496.227 97.9287 496.593 97.9849 496.915 98.0972C497.237 98.2046 497.508 98.3779 497.728 98.6172C497.953 98.8516 498.124 99.1519 498.241 99.5181C498.358 99.8843 498.417 100.324 498.417 100.836V106H497.538V100.829C497.538 100.268 497.455 99.833 497.289 99.5254C497.127 99.2129 496.903 98.9956 496.615 98.8735C496.327 98.7515 495.99 98.6904 495.604 98.6904C495.223 98.6953 494.889 98.7661 494.601 98.9028C494.312 99.0347 494.071 99.2104 493.875 99.4302C493.685 99.645 493.539 99.877 493.436 100.126C493.338 100.375 493.285 100.619 493.275 100.858Z" fill="black"/>
<path d="M517.185 68.041L517.185 67.1475C517.185 66.6006 517.092 66.144 516.906 65.7778C516.716 65.4067 516.464 65.1284 516.152 64.9429C515.839 64.7524 515.493 64.6572 515.112 64.6572C514.682 64.6572 514.306 64.7378 513.984 64.8989C513.657 65.0601 513.403 65.3066 513.222 65.6387C513.037 65.9658 512.944 66.3857 512.944 66.8984C512.944 67.3477 513.032 67.748 513.208 68.0996C513.383 68.4512 513.635 68.7295 513.962 68.9346C514.289 69.1396 514.68 69.2422 515.134 69.2422L515.134 70.1138C514.553 70.1138 514.042 69.9746 513.603 69.6963C513.159 69.418 512.812 69.0347 512.563 68.5464C512.314 68.0581 512.189 67.5088 512.189 66.8984C512.189 66.2686 512.304 65.7217 512.534 65.2578C512.763 64.7891 513.098 64.4277 513.537 64.1738C513.977 63.915 514.511 63.7856 515.141 63.7856C515.463 63.7856 515.781 63.8564 516.093 63.998C516.406 64.1348 516.689 64.3398 516.943 64.6133C517.192 64.8867 517.392 65.2261 517.543 65.6313C517.695 66.0366 517.771 66.5078 517.771 67.0449L517.771 68.041L517.185 68.041ZM517.939 68.041L517.36 68.041L517.36 67.0449C517.36 66.4346 517.431 65.9121 517.573 65.4775C517.709 65.043 517.905 64.6865 518.159 64.4082C518.408 64.125 518.698 63.9175 519.03 63.7856C519.362 63.6538 519.719 63.5879 520.1 63.5879C520.588 63.5879 521.02 63.6685 521.396 63.8296C521.772 63.9907 522.092 64.2202 522.355 64.5181C522.614 64.811 522.812 65.1577 522.949 65.5581C523.081 65.9536 523.146 66.3882 523.146 66.8618C523.146 67.2915 523.083 67.7114 522.956 68.1216C522.829 68.5269 522.641 68.8931 522.392 69.2202C522.138 69.5425 521.821 69.7988 521.44 69.9893C521.054 70.1797 520.61 70.2749 520.107 70.2749L520.107 69.4033C520.556 69.4033 520.954 69.2959 521.301 69.0811C521.643 68.8662 521.911 68.5684 522.106 68.1875C522.297 67.8018 522.392 67.3599 522.392 66.8618C522.392 66.3589 522.307 65.9292 522.136 65.5728C521.96 65.2114 521.704 64.9355 521.367 64.7451C521.03 64.5547 520.617 64.4595 520.129 64.4595C519.616 64.4595 519.199 64.5742 518.876 64.8037C518.554 65.0283 518.317 65.3433 518.166 65.7485C518.015 66.1489 517.939 66.6152 517.939 67.1475L517.939 68.041ZM522.465 61.6104C522.294 61.6104 522.15 61.5566 522.033 61.4492C521.911 61.3369 521.85 61.1855 521.85 60.9951C521.85 60.7998 521.909 60.646 522.026 60.5337C522.143 60.4214 522.29 60.3652 522.465 60.3652C522.631 60.3652 522.773 60.4214 522.89 60.5337C523.007 60.646 523.066 60.7998 523.066 60.9951C523.066 61.1855 523.007 61.3369 522.89 61.4492C522.773 61.5566 522.631 61.6104 522.465 61.6104ZM522.246 51.4077L523 51.4077L523 58.0801L522.319 58.0801L518.356 54.5864C517.863 54.1519 517.431 53.8052 517.06 53.5464C516.684 53.2876 516.342 53.1021 516.035 52.9897C515.722 52.8726 515.419 52.814 515.126 52.814C514.697 52.814 514.318 52.8994 513.991 53.0703C513.664 53.2363 513.408 53.4854 513.222 53.8174C513.037 54.1494 512.944 54.5596 512.944 55.0479C512.944 55.5361 513.049 55.9609 513.259 56.3223C513.469 56.6836 513.762 56.9619 514.138 57.1572C514.509 57.3477 514.931 57.4429 515.405 57.4429L515.405 58.3145C514.819 58.3145 514.282 58.1851 513.793 57.9263C513.305 57.6626 512.917 57.2866 512.629 56.7983C512.336 56.3101 512.189 55.7266 512.189 55.0479C512.189 54.4033 512.304 53.8491 512.534 53.3853C512.758 52.9214 513.083 52.5649 513.508 52.3159C513.933 52.062 514.445 51.9351 515.046 51.9351C515.368 51.9351 515.693 51.9937 516.02 52.1108C516.347 52.2231 516.674 52.3794 517.001 52.5796C517.324 52.7749 517.644 52.9995 517.961 53.2534C518.278 53.5024 518.591 53.7637 518.898 54.0371L522.246 57.0107L522.246 51.4077ZM516.716 45.1309L523 45.1309L523 46.0098L515.075 46.0098L515.075 45.1675L516.716 45.1309ZM518.547 45.292L518.327 45.7168C517.858 45.6875 517.419 45.5996 517.009 45.4531C516.599 45.3018 516.237 45.0918 515.925 44.8232C515.612 44.5547 515.368 44.2324 515.192 43.8564C515.017 43.4805 514.929 43.0532 514.929 42.5747C514.929 42.189 514.982 41.8398 515.09 41.5273C515.192 41.21 515.356 40.9414 515.581 40.7217C515.8 40.4971 516.088 40.3237 516.445 40.2017C516.801 40.0796 517.229 40.0186 517.727 40.0186L523 40.0186L523 40.8901L517.756 40.8901C517.229 40.8901 516.816 40.9731 516.518 41.1392C516.22 41.3003 516.008 41.5273 515.881 41.8203C515.754 42.1084 515.69 42.4429 515.69 42.8237C515.69 43.2729 515.783 43.6538 515.969 43.9663C516.149 44.2739 516.386 44.5254 516.679 44.7207C516.967 44.9111 517.277 45.0527 517.609 45.1455C517.937 45.2383 518.249 45.2871 518.547 45.292ZM517.858 40.0259L517.873 40.6118C517.487 40.5874 517.119 40.4995 516.767 40.3481C516.416 40.1919 516.103 39.9795 515.83 39.7109C515.551 39.4424 515.332 39.1226 515.17 38.7515C515.009 38.3755 514.929 37.9531 514.929 37.4844C514.929 37.0742 514.985 36.708 515.097 36.3857C515.205 36.0635 515.378 35.7925 515.617 35.5728C515.852 35.3481 516.152 35.1772 516.518 35.0601C516.884 34.9429 517.324 34.8843 517.836 34.8843L523 34.8843L523 35.7632L517.829 35.7632C517.268 35.7632 516.833 35.8462 516.525 36.0122C516.213 36.1733 515.996 36.3979 515.874 36.686C515.751 36.9741 515.69 37.311 515.69 37.6968C515.695 38.0776 515.766 38.4121 515.903 38.7002C516.035 38.9883 516.21 39.23 516.43 39.4253C516.645 39.6157 516.877 39.7622 517.126 39.8647C517.375 39.9624 517.619 40.0161 517.858 40.0259ZM516.716 31.8301L523 31.8301L523 32.709L515.075 32.709L515.075 31.8667L516.716 31.8301ZM518.547 31.9912L518.327 32.416C517.858 32.3867 517.419 32.2988 517.009 32.1523C516.599 32.001 516.237 31.791 515.925 31.5225C515.612 31.2539 515.368 30.9316 515.192 30.5557C515.017 30.1797 514.929 29.7524 514.929 29.2739C514.929 28.8882 514.982 28.5391 515.09 28.2266C515.192 27.9092 515.356 27.6406 515.581 27.4209C515.8 27.1963 516.088 27.0229 516.445 26.9009C516.801 26.7788 517.229 26.7178 517.727 26.7178L523 26.7178L523 27.5894L517.756 27.5894C517.229 27.5894 516.816 27.6724 516.518 27.8384C516.22 27.9995 516.008 28.2266 515.881 28.5195C515.754 28.8076 515.69 29.1421 515.69 29.5229C515.69 29.9722 515.783 30.353 515.969 30.6655C516.149 30.9731 516.386 31.2246 516.679 31.4199C516.967 31.6104 517.277 31.752 517.609 31.8447C517.937 31.9375 518.249 31.9863 518.547 31.9912ZM517.858 26.7251L517.873 27.311C517.487 27.2866 517.119 27.1987 516.767 27.0474C516.416 26.8911 516.103 26.6787 515.83 26.4102C515.551 26.1416 515.332 25.8218 515.17 25.4507C515.009 25.0747 514.929 24.6523 514.929 24.1836C514.929 23.7734 514.985 23.4072 515.097 23.085C515.205 22.7627 515.378 22.4917 515.617 22.272C515.852 22.0474 516.152 21.8765 516.518 21.7593C516.884 21.6421 517.324 21.5835 517.836 21.5835L523 21.5835L523 22.4624L517.829 22.4624C517.268 22.4624 516.833 22.5454 516.525 22.7114C516.213 22.8726 515.996 23.0972 515.874 23.3853C515.751 23.6733 515.69 24.0103 515.69 24.396C515.695 24.7769 515.766 25.1113 515.903 25.3994C516.035 25.6875 516.21 25.9292 516.43 26.1245C516.645 26.3149 516.877 26.4614 517.126 26.564C517.375 26.6616 517.619 26.7153 517.858 26.7251Z" fill="black"/>
<circle cx="457" cy="16" r="6.5" stroke="black"/>
<circle cx="457" cy="40" r="7" fill="black"/>
<circle cx="457" cy="64" r="7" fill="black"/>
<circle cx="484" cy="16" r="7" fill="black"/>
<circle cx="484" cy="40" r="7" fill="black"/>
<circle cx="484" cy="64" r="7" fill="black"/>
<path d="M10.21 35.3975H4.77539V31.9697H10.21C11.0498 31.9697 11.7334 31.833 12.2607 31.5596C12.7881 31.2764 13.1738 30.8857 13.418 30.3877C13.6621 29.8896 13.7842 29.3281 13.7842 28.7031C13.7842 28.0684 13.6621 27.4775 13.418 26.9307C13.1738 26.3838 12.7881 25.9443 12.2607 25.6123C11.7334 25.2803 11.0498 25.1143 10.21 25.1143H6.29883V43H1.9043V21.6719H10.21C11.8799 21.6719 13.3105 21.9746 14.502 22.5801C15.7031 23.1758 16.6211 24.001 17.2559 25.0557C17.8906 26.1104 18.208 27.3164 18.208 28.6738C18.208 30.0508 17.8906 31.2422 17.2559 32.248C16.6211 33.2539 15.7031 34.0303 14.502 34.5771C13.3105 35.124 11.8799 35.3975 10.21 35.3975ZM25.9131 21.6719V43H21.5332V21.6719H25.9131ZM41.8066 21.6719H46.1865V35.7637C46.1865 37.4043 45.835 38.7861 45.1318 39.9092C44.4385 41.0322 43.4766 41.877 42.2461 42.4434C41.0254 43.0098 39.6191 43.293 38.0273 43.293C36.4355 43.293 35.0195 43.0098 33.7793 42.4434C32.5488 41.877 31.582 41.0322 30.8789 39.9092C30.1855 38.7861 29.8389 37.4043 29.8389 35.7637V21.6719H34.2334V35.7637C34.2334 36.7207 34.3848 37.502 34.6875 38.1074C34.9902 38.7129 35.4248 39.1572 35.9912 39.4404C36.5674 39.7236 37.2461 39.8652 38.0273 39.8652C38.8281 39.8652 39.5068 39.7236 40.0635 39.4404C40.6299 39.1572 41.0596 38.7129 41.3525 38.1074C41.6553 37.502 41.8066 36.7207 41.8066 35.7637V21.6719ZM35.9619 20.4707L38.833 15.959H43.418L39.3896 20.4707H35.9619Z" fill="black"/>
<path d="M209.21 102.397H203.775V98.9697H209.21C210.05 98.9697 210.733 98.833 211.261 98.5596C211.788 98.2764 212.174 97.8857 212.418 97.3877C212.662 96.8896 212.784 96.3281 212.784 95.7031C212.784 95.0684 212.662 94.4775 212.418 93.9307C212.174 93.3838 211.788 92.9443 211.261 92.6123C210.733 92.2803 210.05 92.1143 209.21 92.1143H205.299V110H200.904V88.6719H209.21C210.88 88.6719 212.311 88.9746 213.502 89.5801C214.703 90.1758 215.621 91.001 216.256 92.0557C216.891 93.1104 217.208 94.3164 217.208 95.6738C217.208 97.0508 216.891 98.2422 216.256 99.248C215.621 100.254 214.703 101.03 213.502 101.577C212.311 102.124 210.88 102.397 209.21 102.397Z" fill="black"/>
<path d="M278.577 88.6719V110H274.197V88.6719H278.577Z" fill="black"/>
<path d="M348.682 88.6719H353.062V102.764C353.062 104.404 352.71 105.786 352.007 106.909C351.313 108.032 350.352 108.877 349.121 109.443C347.9 110.01 346.494 110.293 344.902 110.293C343.311 110.293 341.895 110.01 340.654 109.443C339.424 108.877 338.457 108.032 337.754 106.909C337.061 105.786 336.714 104.404 336.714 102.764V88.6719H341.108V102.764C341.108 103.721 341.26 104.502 341.562 105.107C341.865 105.713 342.3 106.157 342.866 106.44C343.442 106.724 344.121 106.865 344.902 106.865C345.703 106.865 346.382 106.724 346.938 106.44C347.505 106.157 347.935 105.713 348.228 105.107C348.53 104.502 348.682 103.721 348.682 102.764V88.6719ZM342.837 87.4707L345.708 82.959H350.293L346.265 87.4707H342.837Z" fill="black"/>
<circle cx="195" cy="7" r="7" fill="black"/>
<circle cx="195" cy="31" r="7" fill="black"/>
<circle cx="195" cy="55" r="7" fill="black"/>
<circle cx="222" cy="7" r="7" fill="black"/>
<circle cx="222" cy="31" r="6.5" stroke="black"/>
<circle cx="222" cy="55" r="6.5" stroke="black"/>
<circle cx="263" cy="7" r="6.5" stroke="black"/>
<circle cx="263" cy="31" r="7" fill="black"/>
<circle cx="263" cy="55" r="6.5" stroke="black"/>
<circle cx="290" cy="7" r="7" fill="black"/>
<circle cx="290" cy="31" r="6.5" stroke="black"/>
<circle cx="290" cy="55" r="6.5" stroke="black"/>
<circle cx="331" cy="7" r="6.5" stroke="black"/>
<circle cx="331" cy="31" r="7" fill="black"/>
<circle cx="331" cy="55" r="7" fill="black"/>
<circle cx="358" cy="7" r="7" fill="black"/>
<circle cx="358" cy="31" r="7" fill="black"/>
<circle cx="358" cy="55" r="7" fill="black"/>
<path d="M150.354 31.8536C150.549 31.6583 150.549 31.3417 150.354 31.1464L147.172 27.9645C146.976 27.7692 146.66 27.7692 146.464 27.9645C146.269 28.1597 146.269 28.4763 146.464 28.6716L149.293 31.5L146.464 34.3284C146.269 34.5237 146.269 34.8403 146.464 35.0355C146.66 35.2308 146.976 35.2308 147.172 35.0355L150.354 31.8536ZM75 31.5V32H150V31.5V31H75V31.5Z" fill="black"/>
<path d="M450 83H491" stroke="#969696"/>
<line x1="491.5" y1="80" x2="491.5" y2="86" stroke="#969696"/>
<line x1="450.5" y1="80" x2="450.5" y2="86" stroke="#969696"/>
<path d="M500 9L500 71" stroke="#969696"/>
<line x1="503" y1="71.5" x2="497" y2="71.5" stroke="#969696"/>
<line x1="503" y1="9.5" x2="497" y2="9.5" stroke="#969696"/>
</svg>
