<svg width="500" height="107" viewBox="0 0 500 107" fill="none" xmlns="http://www.w3.org/2000/svg">
<path d="M2.25586 67.3359V78H1.35498V67.3359H2.25586ZM7.22168 72.2432V73.0195H1.95557V72.2432H7.22168ZM7.96143 67.3359V68.1123H1.95557V67.3359H7.96143ZM10.2686 71.3862V78H9.39697V70.0752H10.2466L10.2686 71.3862ZM13.0737 70.0166L13.0518 70.8223C12.9541 70.8076 12.8589 70.7954 12.7661 70.7856C12.6733 70.7759 12.5732 70.771 12.4658 70.771C12.085 70.771 11.7505 70.8418 11.4624 70.9834C11.1792 71.1201 10.9399 71.313 10.7446 71.562C10.5493 71.8062 10.4004 72.0942 10.2979 72.4263C10.1953 72.7534 10.1367 73.105 10.1221 73.481L9.7998 73.6055C9.7998 73.0879 9.85352 72.6069 9.96094 72.1626C10.0684 71.7183 10.2319 71.3301 10.4517 70.998C10.6763 70.6611 10.957 70.3999 11.2939 70.2144C11.6357 70.0239 12.0361 69.9287 12.4951 69.9287C12.6074 69.9287 12.7173 69.9385 12.8247 69.958C12.937 69.9727 13.02 69.9922 13.0737 70.0166ZM13.8208 74.1621V73.9204C13.8208 73.3442 13.9038 72.812 14.0698 72.3237C14.2358 71.8354 14.4727 71.4131 14.7803 71.0566C15.0928 70.7002 15.4663 70.4243 15.9009 70.229C16.3354 70.0288 16.8188 69.9287 17.3511 69.9287C17.8882 69.9287 18.374 70.0288 18.8086 70.229C19.2432 70.4243 19.6167 70.7002 19.9292 71.0566C20.2417 71.4131 20.481 71.8354 20.647 72.3237C20.813 72.812 20.896 73.3442 20.896 73.9204V74.1621C20.896 74.7383 20.813 75.2705 20.647 75.7588C20.481 76.2422 20.2417 76.6621 19.9292 77.0186C19.6216 77.375 19.2505 77.6533 18.8159 77.8535C18.3813 78.0488 17.8979 78.1465 17.3657 78.1465C16.8286 78.1465 16.3428 78.0488 15.9082 77.8535C15.4736 77.6533 15.1001 77.375 14.7876 77.0186C14.4751 76.6621 14.2358 76.2422 14.0698 75.7588C13.9038 75.2705 13.8208 74.7383 13.8208 74.1621ZM14.6924 73.9204V74.1621C14.6924 74.5967 14.751 75.0093 14.8682 75.3999C14.9854 75.7856 15.1562 76.1299 15.3809 76.4326C15.6055 76.7305 15.8838 76.9648 16.2158 77.1357C16.5479 77.3066 16.9312 77.3921 17.3657 77.3921C17.7954 77.3921 18.1738 77.3066 18.501 77.1357C18.833 76.9648 19.1113 76.7305 19.3359 76.4326C19.5605 76.1299 19.729 75.7856 19.8413 75.3999C19.9585 75.0093 20.0171 74.5967 20.0171 74.1621V73.9204C20.0171 73.4907 19.9585 73.083 19.8413 72.6973C19.729 72.3115 19.5581 71.9673 19.3286 71.6646C19.104 71.3618 18.8257 71.1226 18.4937 70.9468C18.1616 70.771 17.7808 70.6831 17.3511 70.6831C16.9214 70.6831 16.5405 70.771 16.2085 70.9468C15.8813 71.1226 15.603 71.3618 15.3735 71.6646C15.1489 71.9673 14.978 72.3115 14.8608 72.6973C14.7485 73.083 14.6924 73.4907 14.6924 73.9204ZM23.54 71.7158V78H22.6611V70.0752H23.5034L23.54 71.7158ZM23.3789 73.5469L22.9541 73.3271C22.9834 72.8584 23.0713 72.4189 23.2178 72.0088C23.3691 71.5986 23.5791 71.2373 23.8477 70.9248C24.1162 70.6123 24.4385 70.3682 24.8145 70.1924C25.1904 70.0166 25.6177 69.9287 26.0962 69.9287C26.4819 69.9287 26.8311 69.9824 27.1436 70.0898C27.4609 70.1924 27.7295 70.356 27.9492 70.5806C28.1738 70.8003 28.3472 71.0884 28.4692 71.4448C28.5913 71.8013 28.6523 72.2285 28.6523 72.7266V78H27.7808V72.7559C27.7808 72.2285 27.6978 71.8159 27.5317 71.5181C27.3706 71.2202 27.1436 71.0078 26.8506 70.8809C26.5625 70.7539 26.228 70.6904 25.8472 70.6904C25.3979 70.6904 25.0171 70.7832 24.7046 70.9688C24.397 71.1494 24.1455 71.3862 23.9502 71.6792C23.7598 71.9673 23.6182 72.2773 23.5254 72.6094C23.4326 72.9365 23.3838 73.249 23.3789 73.5469ZM28.645 72.8584L28.0591 72.873C28.0835 72.4873 28.1714 72.1187 28.3228 71.7671C28.479 71.4155 28.6914 71.103 28.96 70.8296C29.2285 70.5513 29.5483 70.3315 29.9194 70.1704C30.2954 70.0093 30.7178 69.9287 31.1865 69.9287C31.5967 69.9287 31.9629 69.9849 32.2852 70.0972C32.6074 70.2046 32.8784 70.3779 33.0981 70.6172C33.3228 70.8516 33.4937 71.1519 33.6108 71.5181C33.728 71.8843 33.7866 72.3237 33.7866 72.8364V78H32.9077V72.8291C32.9077 72.2676 32.8247 71.833 32.6587 71.5254C32.4976 71.2129 32.2729 70.9956 31.9849 70.8735C31.6968 70.7515 31.3599 70.6904 30.9741 70.6904C30.5933 70.6953 30.2588 70.7661 29.9707 70.9028C29.6826 71.0347 29.4409 71.2104 29.2456 71.4302C29.0552 71.645 28.9087 71.877 28.8062 72.126C28.7085 72.375 28.6548 72.6191 28.645 72.8584ZM40.6494 66.75V78H39.7778V66.75H40.6494ZM46.106 78.1465C45.5884 78.1465 45.1123 78.0513 44.6777 77.8608C44.248 77.6704 43.8721 77.4019 43.5498 77.0552C43.2324 76.7085 42.9858 76.2983 42.8101 75.8247C42.6392 75.3462 42.5537 74.8237 42.5537 74.2573V73.9424C42.5537 73.332 42.644 72.7803 42.8247 72.2871C43.0054 71.7939 43.2544 71.3716 43.5718 71.02C43.8892 70.6685 44.2505 70.3999 44.6558 70.2144C45.0659 70.0239 45.4956 69.9287 45.9448 69.9287C46.4478 69.9287 46.8945 70.019 47.2852 70.1997C47.6758 70.3755 48.0029 70.627 48.2666 70.9541C48.5352 71.2764 48.7378 71.6597 48.8745 72.104C49.0112 72.5435 49.0796 73.0293 49.0796 73.5615V74.0962H43.0811V73.3491H48.208V73.2466C48.1982 72.8022 48.1079 72.3872 47.937 72.0015C47.771 71.6108 47.522 71.2935 47.1899 71.0493C46.8579 70.8052 46.4429 70.6831 45.9448 70.6831C45.5737 70.6831 45.2319 70.7612 44.9194 70.9175C44.6118 71.0737 44.3457 71.2983 44.1211 71.5913C43.9014 71.8794 43.7305 72.2236 43.6084 72.624C43.4912 73.0195 43.4326 73.459 43.4326 73.9424V74.2573C43.4326 74.6968 43.4961 75.1069 43.623 75.4878C43.7549 75.8638 43.9404 76.1958 44.1797 76.4839C44.4238 76.772 44.7119 76.9966 45.0439 77.1577C45.376 77.3188 45.7422 77.3994 46.1426 77.3994C46.6113 77.3994 47.0264 77.314 47.3877 77.1431C47.749 76.9673 48.0737 76.6914 48.3618 76.3154L48.9111 76.7402C48.7402 76.9941 48.5254 77.2285 48.2666 77.4434C48.0127 77.6582 47.7075 77.8291 47.3511 77.9561C46.9946 78.083 46.5796 78.1465 46.106 78.1465ZM52.3096 78H51.438V69.0938C51.438 68.5518 51.5308 68.0952 51.7163 67.7241C51.9067 67.353 52.1753 67.0723 52.522 66.8818C52.8735 66.6914 53.291 66.5962 53.7744 66.5962C53.9258 66.5962 54.082 66.606 54.2432 66.6255C54.4043 66.6401 54.5605 66.6719 54.7119 66.7207L54.646 67.4604C54.5239 67.4263 54.3994 67.4043 54.2725 67.3945C54.1504 67.3799 54.0063 67.3726 53.8403 67.3726C53.5229 67.3726 53.2495 67.4409 53.02 67.5776C52.7905 67.7095 52.6147 67.9023 52.4927 68.1562C52.3706 68.4102 52.3096 68.7227 52.3096 69.0938V78ZM54.1992 70.0752V70.793H50.127V70.0752H54.1992ZM58.7695 70.0752V70.793H54.7998V70.0752H58.7695ZM56.2573 68.0391H57.1289V76.0737C57.1289 76.4399 57.1777 76.7158 57.2754 76.9014C57.373 77.0869 57.5 77.2114 57.6562 77.2749C57.8125 77.3384 57.981 77.3701 58.1616 77.3701C58.2935 77.3701 58.4204 77.3628 58.5425 77.3481C58.6646 77.3286 58.7744 77.3091 58.8721 77.2896L58.9087 78.0293C58.8013 78.0635 58.6621 78.0903 58.4912 78.1099C58.3203 78.1343 58.1494 78.1465 57.9785 78.1465C57.6416 78.1465 57.3438 78.0854 57.085 77.9634C56.8262 77.8364 56.6235 77.6216 56.4771 77.3188C56.3306 77.0112 56.2573 76.5938 56.2573 76.0664V68.0391ZM4.14551 88.0752V88.793H0.175781V88.0752H4.14551ZM1.6333 86.0391H2.50488V94.0737C2.50488 94.4399 2.55371 94.7158 2.65137 94.9014C2.74902 95.0869 2.87598 95.2114 3.03223 95.2749C3.18848 95.3384 3.35693 95.3701 3.5376 95.3701C3.66943 95.3701 3.79639 95.3628 3.91846 95.3481C4.04053 95.3286 4.15039 95.3091 4.24805 95.2896L4.28467 96.0293C4.17725 96.0635 4.03809 96.0903 3.86719 96.1099C3.69629 96.1343 3.52539 96.1465 3.35449 96.1465C3.01758 96.1465 2.71973 96.0854 2.46094 95.9634C2.20215 95.8364 1.99951 95.6216 1.85303 95.3188C1.70654 95.0112 1.6333 94.5938 1.6333 94.0664V86.0391ZM5.354 92.1621V91.9204C5.354 91.3442 5.43701 90.812 5.60303 90.3237C5.76904 89.8354 6.00586 89.4131 6.31348 89.0566C6.62598 88.7002 6.99951 88.4243 7.43408 88.229C7.86865 88.0288 8.35205 87.9287 8.88428 87.9287C9.42139 87.9287 9.90723 88.0288 10.3418 88.229C10.7764 88.4243 11.1499 88.7002 11.4624 89.0566C11.7749 89.4131 12.0142 89.8354 12.1802 90.3237C12.3462 90.812 12.4292 91.3442 12.4292 91.9204V92.1621C12.4292 92.7383 12.3462 93.2705 12.1802 93.7588C12.0142 94.2422 11.7749 94.6621 11.4624 95.0186C11.1548 95.375 10.7837 95.6533 10.3491 95.8535C9.91455 96.0488 9.43115 96.1465 8.89893 96.1465C8.36182 96.1465 7.87598 96.0488 7.44141 95.8535C7.00684 95.6533 6.6333 95.375 6.3208 95.0186C6.0083 94.6621 5.76904 94.2422 5.60303 93.7588C5.43701 93.2705 5.354 92.7383 5.354 92.1621ZM6.22559 91.9204V92.1621C6.22559 92.5967 6.28418 93.0093 6.40137 93.3999C6.51855 93.7856 6.68945 94.1299 6.91406 94.4326C7.13867 94.7305 7.41699 94.9648 7.74902 95.1357C8.08105 95.3066 8.46436 95.3921 8.89893 95.3921C9.32861 95.3921 9.70703 95.3066 10.0342 95.1357C10.3662 94.9648 10.6445 94.7305 10.8691 94.4326C11.0938 94.1299 11.2622 93.7856 11.3745 93.3999C11.4917 93.0093 11.5503 92.5967 11.5503 92.1621V91.9204C11.5503 91.4907 11.4917 91.083 11.3745 90.6973C11.2622 90.3115 11.0913 89.9673 10.8618 89.6646C10.6372 89.3618 10.3589 89.1226 10.0269 88.9468C9.69482 88.771 9.31396 88.6831 8.88428 88.6831C8.45459 88.6831 8.07373 88.771 7.7417 88.9468C7.41455 89.1226 7.13623 89.3618 6.90674 89.6646C6.68213 89.9673 6.51123 90.3115 6.39404 90.6973C6.28174 91.083 6.22559 91.4907 6.22559 91.9204ZM18.7793 89.3862V96H17.9077V88.0752H18.7573L18.7793 89.3862ZM21.5845 88.0166L21.5625 88.8223C21.4648 88.8076 21.3696 88.7954 21.2769 88.7856C21.1841 88.7759 21.084 88.771 20.9766 88.771C20.5957 88.771 20.2612 88.8418 19.9731 88.9834C19.6899 89.1201 19.4507 89.313 19.2554 89.562C19.0601 89.8062 18.9111 90.0942 18.8086 90.4263C18.7061 90.7534 18.6475 91.105 18.6328 91.481L18.3105 91.6055C18.3105 91.0879 18.3643 90.6069 18.4717 90.1626C18.5791 89.7183 18.7427 89.3301 18.9624 88.998C19.187 88.6611 19.4678 88.3999 19.8047 88.2144C20.1465 88.0239 20.5469 87.9287 21.0059 87.9287C21.1182 87.9287 21.228 87.9385 21.3354 87.958C21.4478 87.9727 21.5308 87.9922 21.5845 88.0166ZM23.9355 88.0752V96H23.064V88.0752H23.9355ZM22.9102 85.7827C22.9102 85.6167 22.9614 85.4775 23.064 85.3652C23.1714 85.248 23.3179 85.1895 23.5034 85.1895C23.689 85.1895 23.8354 85.248 23.9429 85.3652C24.0552 85.4775 24.1113 85.6167 24.1113 85.7827C24.1113 85.9438 24.0552 86.083 23.9429 86.2002C23.8354 86.3125 23.689 86.3687 23.5034 86.3687C23.3179 86.3687 23.1714 86.3125 23.064 86.2002C22.9614 86.083 22.9102 85.9438 22.9102 85.7827ZM31.5454 88.0752H32.3584V95.8608C32.3584 96.5493 32.2266 97.1401 31.9629 97.6333C31.7041 98.1265 31.3354 98.5049 30.8569 98.7686C30.3833 99.0322 29.8242 99.1641 29.1797 99.1641C28.8525 99.1641 28.5156 99.1128 28.1689 99.0103C27.8271 98.9126 27.5024 98.7612 27.1948 98.5562C26.8921 98.356 26.6333 98.1069 26.4185 97.8091L26.9092 97.2744C27.2314 97.665 27.5757 97.9507 27.9419 98.1313C28.3081 98.3169 28.7036 98.4097 29.1284 98.4097C29.6313 98.4097 30.0562 98.3096 30.4028 98.1094C30.7544 97.9092 31.0205 97.6211 31.2012 97.2451C31.3867 96.8691 31.4795 96.4175 31.4795 95.8901V89.8184L31.5454 88.0752ZM25.979 92.1182V91.9644C25.979 91.3491 26.0474 90.7949 26.1841 90.3018C26.3257 89.8037 26.5283 89.3789 26.792 89.0273C27.0557 88.6709 27.3755 88.3999 27.7515 88.2144C28.1323 88.0239 28.562 87.9287 29.0405 87.9287C29.4995 87.9287 29.9072 88.0044 30.2637 88.1558C30.6201 88.3071 30.9277 88.5244 31.1865 88.8076C31.4453 89.0908 31.6528 89.4277 31.8091 89.8184C31.9702 90.209 32.0874 90.6436 32.1606 91.1221V93.0776C32.1021 93.5269 31.9946 93.9395 31.8384 94.3154C31.6821 94.6865 31.4746 95.0112 31.2158 95.2896C30.957 95.563 30.6445 95.7754 30.2783 95.9268C29.917 96.0732 29.4995 96.1465 29.0259 96.1465C28.5522 96.1465 28.1274 96.0488 27.7515 95.8535C27.3755 95.6582 27.0557 95.3823 26.792 95.0259C26.5283 94.6646 26.3257 94.2373 26.1841 93.7441C26.0474 93.251 25.979 92.709 25.979 92.1182ZM26.8579 91.9644V92.1182C26.8579 92.582 26.9043 93.0117 26.9971 93.4072C27.0898 93.8027 27.2314 94.147 27.4219 94.4399C27.6123 94.7329 27.854 94.9624 28.147 95.1284C28.4399 95.2944 28.7842 95.3774 29.1797 95.3774C29.6826 95.3774 30.105 95.2822 30.4468 95.0918C30.7886 94.8965 31.0596 94.6401 31.2598 94.3228C31.46 94.0005 31.6064 93.6489 31.6992 93.2681V90.9902C31.6455 90.7314 31.5625 90.4678 31.4502 90.1992C31.3428 89.9307 31.1914 89.6841 30.9961 89.4595C30.8057 89.23 30.5615 89.0469 30.2637 88.9102C29.9707 88.7686 29.6143 88.6978 29.1943 88.6978C28.7939 88.6978 28.4448 88.7808 28.147 88.9468C27.854 89.1128 27.6123 89.3447 27.4219 89.6426C27.2314 89.9355 27.0898 90.2798 26.9971 90.6753C26.9043 91.0708 26.8579 91.5005 26.8579 91.9644ZM35.5225 84.75V96H34.6509V84.75H35.5225ZM35.3247 91.5469L34.9365 91.3271C34.9658 90.8584 35.061 90.4189 35.2222 90.0088C35.3833 89.5986 35.6006 89.2373 35.874 88.9248C36.1523 88.6123 36.4771 88.3682 36.8481 88.1924C37.2241 88.0166 37.6392 87.9287 38.0933 87.9287C38.4888 87.9287 38.8428 87.9824 39.1553 88.0898C39.4678 88.1973 39.7339 88.3682 39.9536 88.6025C40.1733 88.8369 40.3394 89.1372 40.4517 89.5034C40.5688 89.8696 40.6274 90.3164 40.6274 90.8438V96H39.7485V90.8364C39.7485 90.2896 39.6729 89.8623 39.5215 89.5547C39.3701 89.2422 39.1553 89.02 38.877 88.8882C38.5986 88.7563 38.269 88.6904 37.8882 88.6904C37.4683 88.6904 37.0996 88.7832 36.7822 88.9688C36.4697 89.1494 36.2061 89.3862 35.9912 89.6792C35.7812 89.9673 35.6201 90.2773 35.5078 90.6094C35.3955 90.9365 35.3345 91.249 35.3247 91.5469ZM45.8789 88.0752V88.793H41.9092V88.0752H45.8789ZM43.3667 86.0391H44.2383V94.0737C44.2383 94.4399 44.2871 94.7158 44.3848 94.9014C44.4824 95.0869 44.6094 95.2114 44.7656 95.2749C44.9219 95.3384 45.0903 95.3701 45.271 95.3701C45.4028 95.3701 45.5298 95.3628 45.6519 95.3481C45.7739 95.3286 45.8838 95.3091 45.9814 95.2896L46.0181 96.0293C45.9106 96.0635 45.7715 96.0903 45.6006 96.1099C45.4297 96.1343 45.2588 96.1465 45.0879 96.1465C44.751 96.1465 44.4531 96.0854 44.1943 95.9634C43.9355 95.8364 43.7329 95.6216 43.5864 95.3188C43.4399 95.0112 43.3667 94.5938 43.3667 94.0664V86.0391Z" fill="black"/>
<circle cx="95.5806" cy="7.58061" r="1.58061" fill="black"/>
<circle cx="95.5806" cy="12.9986" r="1.58061" fill="black"/>
<circle cx="95.5806" cy="18.4205" r="1.58061" fill="black"/>
<circle cx="101.678" cy="7.58061" r="1.58061" fill="black"/>
<circle cx="101.678" cy="12.9986" r="1.38061" stroke="black" stroke-width="0.4"/>
<circle cx="101.678" cy="18.4205" r="1.38061" stroke="black" stroke-width="0.4"/>
<circle cx="110.936" cy="7.58061" r="1.38061" stroke="black" stroke-width="0.4"/>
<circle cx="110.936" cy="12.9986" r="1.58061" fill="black"/>
<circle cx="110.936" cy="18.4205" r="1.38061" stroke="black" stroke-width="0.4"/>
<circle cx="117.034" cy="7.58061" r="1.58061" fill="black"/>
<circle cx="117.034" cy="12.9986" r="1.38061" stroke="black" stroke-width="0.4"/>
<circle cx="117.034" cy="18.4205" r="1.38061" stroke="black" stroke-width="0.4"/>
<circle cx="126.292" cy="7.58061" r="1.38061" stroke="black" stroke-width="0.4"/>
<circle cx="126.292" cy="12.9986" r="1.58061" fill="black"/>
<circle cx="126.292" cy="18.4205" r="1.58061" fill="black"/>
<circle cx="132.389" cy="7.58061" r="1.58061" fill="black"/>
<circle cx="132.389" cy="12.9986" r="1.58061" fill="black"/>
<circle cx="132.389" cy="18.4205" r="1.58061" fill="black"/>
<path d="M1.14258 4.20312H5.91504C6.89355 4.20312 7.73438 4.34961 8.4375 4.64258C9.14648 4.93555 9.69141 5.36914 10.0723 5.94336C10.4531 6.51758 10.6436 7.22363 10.6436 8.06152C10.6436 8.74707 10.5264 9.33594 10.292 9.82812C10.0635 10.3145 9.73828 10.7217 9.31641 11.0498C8.90039 11.3721 8.41113 11.6299 7.84863 11.8232L7.01367 12.2627H2.86523L2.84766 10.2061H5.93262C6.39551 10.2061 6.7793 10.124 7.08398 9.95996C7.38867 9.7959 7.61719 9.56738 7.76953 9.27441C7.92773 8.98145 8.00684 8.6416 8.00684 8.25488C8.00684 7.84473 7.93066 7.49023 7.77832 7.19141C7.62598 6.89258 7.39453 6.66406 7.08398 6.50586C6.77344 6.34766 6.38379 6.26855 5.91504 6.26855H3.7793V17H1.14258V4.20312ZM8.29688 17L5.37891 11.2959L8.16504 11.2783L11.1182 16.877V17H8.29688ZM16.8926 17.1758C16.1543 17.1758 15.4922 17.0586 14.9062 16.8242C14.3203 16.584 13.8223 16.2529 13.4121 15.8311C13.0078 15.4092 12.6973 14.9199 12.4805 14.3633C12.2637 13.8008 12.1553 13.2031 12.1553 12.5703V12.2188C12.1553 11.498 12.2578 10.8389 12.4629 10.2412C12.668 9.64355 12.9609 9.125 13.3418 8.68555C13.7285 8.24609 14.1973 7.90918 14.748 7.6748C15.2988 7.43457 15.9199 7.31445 16.6113 7.31445C17.2852 7.31445 17.8828 7.42578 18.4043 7.64844C18.9258 7.87109 19.3623 8.1875 19.7139 8.59766C20.0713 9.00781 20.3408 9.5 20.5225 10.0742C20.7041 10.6426 20.7949 11.2754 20.7949 11.9727V13.0273H13.2363V11.3398H18.3076V11.1465C18.3076 10.7949 18.2432 10.4814 18.1143 10.2061C17.9912 9.9248 17.8037 9.70215 17.5518 9.53809C17.2998 9.37402 16.9775 9.29199 16.585 9.29199C16.251 9.29199 15.9639 9.36523 15.7236 9.51172C15.4834 9.6582 15.2871 9.86328 15.1348 10.127C14.9883 10.3906 14.877 10.7012 14.8008 11.0586C14.7305 11.4102 14.6953 11.7969 14.6953 12.2188V12.5703C14.6953 12.9512 14.748 13.3027 14.8535 13.625C14.9648 13.9473 15.1201 14.2256 15.3193 14.46C15.5244 14.6943 15.7705 14.876 16.0576 15.0049C16.3506 15.1338 16.6816 15.1982 17.0508 15.1982C17.5078 15.1982 17.9326 15.1104 18.3252 14.9346C18.7236 14.7529 19.0664 14.4805 19.3535 14.1172L20.584 15.4531C20.3848 15.7402 20.1123 16.0156 19.7666 16.2793C19.4268 16.543 19.0166 16.7598 18.5361 16.9297C18.0557 17.0938 17.5078 17.1758 16.8926 17.1758ZM27.3691 14.8555V10.6191C27.3691 10.3145 27.3193 10.0537 27.2197 9.83691C27.1201 9.61426 26.9648 9.44141 26.7539 9.31836C26.5488 9.19531 26.2822 9.13379 25.9541 9.13379C25.6729 9.13379 25.4297 9.18359 25.2246 9.2832C25.0195 9.37695 24.8613 9.51465 24.75 9.69629C24.6387 9.87207 24.583 10.0801 24.583 10.3203H22.0518C22.0518 9.91602 22.1455 9.53223 22.333 9.16895C22.5205 8.80566 22.793 8.48633 23.1504 8.21094C23.5078 7.92969 23.9326 7.70996 24.4248 7.55176C24.9229 7.39355 25.4795 7.31445 26.0947 7.31445C26.833 7.31445 27.4893 7.4375 28.0635 7.68359C28.6377 7.92969 29.0889 8.29883 29.417 8.79102C29.751 9.2832 29.918 9.89844 29.918 10.6367V14.7061C29.918 15.2275 29.9502 15.6553 30.0146 15.9893C30.0791 16.3174 30.1729 16.6045 30.2959 16.8506V17H27.7383C27.6152 16.7422 27.5215 16.4199 27.457 16.0332C27.3984 15.6406 27.3691 15.248 27.3691 14.8555ZM27.7031 11.208L27.7207 12.6406H26.3057C25.9717 12.6406 25.6816 12.6787 25.4355 12.7549C25.1895 12.8311 24.9873 12.9395 24.8291 13.0801C24.6709 13.2148 24.5537 13.373 24.4775 13.5547C24.4072 13.7363 24.3721 13.9355 24.3721 14.1523C24.3721 14.3691 24.4219 14.5654 24.5215 14.7412C24.6211 14.9111 24.7646 15.0459 24.9521 15.1455C25.1396 15.2393 25.3594 15.2861 25.6113 15.2861C25.9922 15.2861 26.3232 15.21 26.6045 15.0576C26.8857 14.9053 27.1025 14.7178 27.2549 14.4951C27.4131 14.2725 27.4951 14.0615 27.501 13.8623L28.1689 14.9346C28.0752 15.1748 27.9463 15.4238 27.7822 15.6816C27.624 15.9395 27.4219 16.1826 27.1758 16.4111C26.9297 16.6338 26.6338 16.8184 26.2881 16.9648C25.9424 17.1055 25.5322 17.1758 25.0576 17.1758C24.4541 17.1758 23.9062 17.0557 23.4141 16.8154C22.9277 16.5693 22.541 16.2324 22.2539 15.8047C21.9727 15.3711 21.832 14.8789 21.832 14.3281C21.832 13.8301 21.9258 13.3877 22.1133 13.001C22.3008 12.6143 22.5762 12.2891 22.9395 12.0254C23.3086 11.7559 23.7686 11.5537 24.3193 11.4189C24.8701 11.2783 25.5088 11.208 26.2354 11.208H27.7031ZM37.4854 14.9258V3.5H40.0342V17H37.7402L37.4854 14.9258ZM31.4736 12.3594V12.1748C31.4736 11.4482 31.5557 10.7891 31.7197 10.1973C31.8838 9.59961 32.124 9.08691 32.4404 8.65918C32.7568 8.23145 33.1465 7.90039 33.6094 7.66602C34.0723 7.43164 34.5996 7.31445 35.1914 7.31445C35.748 7.31445 36.2344 7.43164 36.6504 7.66602C37.0723 7.90039 37.4297 8.23438 37.7227 8.66797C38.0215 9.0957 38.2617 9.60254 38.4434 10.1885C38.625 10.7686 38.7568 11.4043 38.8389 12.0957V12.5C38.7568 13.1621 38.625 13.7773 38.4434 14.3457C38.2617 14.9141 38.0215 15.4121 37.7227 15.8398C37.4297 16.2617 37.0723 16.5898 36.6504 16.8242C36.2285 17.0586 35.7363 17.1758 35.1738 17.1758C34.582 17.1758 34.0547 17.0557 33.5918 16.8154C33.1348 16.5752 32.748 16.2383 32.4316 15.8047C32.1211 15.3711 31.8838 14.8613 31.7197 14.2754C31.5557 13.6895 31.4736 13.0508 31.4736 12.3594ZM34.0049 12.1748V12.3594C34.0049 12.752 34.0342 13.1182 34.0928 13.458C34.1572 13.7979 34.2598 14.0996 34.4004 14.3633C34.5469 14.6211 34.7344 14.8232 34.9629 14.9697C35.1973 15.1104 35.4814 15.1807 35.8154 15.1807C36.249 15.1807 36.6064 15.084 36.8877 14.8906C37.1689 14.6914 37.3828 14.4189 37.5293 14.0732C37.6816 13.7275 37.7695 13.3291 37.793 12.8779V11.7266C37.7754 11.3574 37.7227 11.0264 37.6348 10.7334C37.5527 10.4346 37.4297 10.1797 37.2656 9.96875C37.1074 9.75781 36.9082 9.59375 36.668 9.47656C36.4336 9.35938 36.1553 9.30078 35.833 9.30078C35.5049 9.30078 35.2236 9.37695 34.9893 9.5293C34.7549 9.67578 34.5645 9.87793 34.418 10.1357C34.2773 10.3936 34.1719 10.6982 34.1016 11.0498C34.0371 11.3955 34.0049 11.7705 34.0049 12.1748ZM42.1084 15.7783C42.1084 15.4033 42.2373 15.0898 42.4951 14.8379C42.7588 14.5859 43.1074 14.46 43.541 14.46C43.9746 14.46 44.3203 14.5859 44.5781 14.8379C44.8418 15.0898 44.9736 15.4033 44.9736 15.7783C44.9736 16.1533 44.8418 16.4668 44.5781 16.7188C44.3203 16.9707 43.9746 17.0967 43.541 17.0967C43.1074 17.0967 42.7588 16.9707 42.4951 16.7188C42.2373 16.4668 42.1084 16.1533 42.1084 15.7783ZM42.1084 8.52734C42.1084 8.15234 42.2373 7.83887 42.4951 7.58691C42.7588 7.33496 43.1074 7.20898 43.541 7.20898C43.9746 7.20898 44.3203 7.33496 44.5781 7.58691C44.8418 7.83887 44.9736 8.15234 44.9736 8.52734C44.9736 8.90234 44.8418 9.21582 44.5781 9.46777C44.3203 9.71973 43.9746 9.8457 43.541 9.8457C43.1074 9.8457 42.7588 9.71973 42.4951 9.46777C42.2373 9.21582 42.1084 8.90234 42.1084 8.52734Z" fill="black"/>
<rect x="86.5" y="0.5" width="83" height="106" stroke="black"/>
<path d="M155.354 78.3536C155.549 78.1583 155.549 77.8417 155.354 77.6464L152.172 74.4645C151.976 74.2692 151.66 74.2692 151.464 74.4645C151.269 74.6597 151.269 74.9763 151.464 75.1716L154.293 78L151.464 80.8284C151.269 81.0237 151.269 81.3403 151.464 81.5355C151.66 81.7308 151.976 81.7308 152.172 81.5355L155.354 78.3536ZM69 78V78.5H155V78V77.5H69V78Z" fill="black"/>
<path d="M433.256 63.3359V74H432.355V63.3359H433.256ZM438.222 68.2432V69.0195H432.956V68.2432H438.222ZM438.961 63.3359V64.1123H432.956V63.3359H438.961ZM441.269 67.3862V74H440.397V66.0752H441.247L441.269 67.3862ZM444.074 66.0166L444.052 66.8223C443.954 66.8076 443.859 66.7954 443.766 66.7856C443.673 66.7759 443.573 66.771 443.466 66.771C443.085 66.771 442.75 66.8418 442.462 66.9834C442.179 67.1201 441.94 67.313 441.745 67.562C441.549 67.8062 441.4 68.0942 441.298 68.4263C441.195 68.7534 441.137 69.105 441.122 69.481L440.8 69.6055C440.8 69.0879 440.854 68.6069 440.961 68.1626C441.068 67.7183 441.232 67.3301 441.452 66.998C441.676 66.6611 441.957 66.3999 442.294 66.2144C442.636 66.0239 443.036 65.9287 443.495 65.9287C443.607 65.9287 443.717 65.9385 443.825 65.958C443.937 65.9727 444.02 65.9922 444.074 66.0166ZM444.821 70.1621V69.9204C444.821 69.3442 444.904 68.812 445.07 68.3237C445.236 67.8354 445.473 67.4131 445.78 67.0566C446.093 66.7002 446.466 66.4243 446.901 66.229C447.335 66.0288 447.819 65.9287 448.351 65.9287C448.888 65.9287 449.374 66.0288 449.809 66.229C450.243 66.4243 450.617 66.7002 450.929 67.0566C451.242 67.4131 451.481 67.8354 451.647 68.3237C451.813 68.812 451.896 69.3442 451.896 69.9204V70.1621C451.896 70.7383 451.813 71.2705 451.647 71.7588C451.481 72.2422 451.242 72.6621 450.929 73.0186C450.622 73.375 450.25 73.6533 449.816 73.8535C449.381 74.0488 448.898 74.1465 448.366 74.1465C447.829 74.1465 447.343 74.0488 446.908 73.8535C446.474 73.6533 446.1 73.375 445.788 73.0186C445.475 72.6621 445.236 72.2422 445.07 71.7588C444.904 71.2705 444.821 70.7383 444.821 70.1621ZM445.692 69.9204V70.1621C445.692 70.5967 445.751 71.0093 445.868 71.3999C445.985 71.7856 446.156 72.1299 446.381 72.4326C446.605 72.7305 446.884 72.9648 447.216 73.1357C447.548 73.3066 447.931 73.3921 448.366 73.3921C448.795 73.3921 449.174 73.3066 449.501 73.1357C449.833 72.9648 450.111 72.7305 450.336 72.4326C450.561 72.1299 450.729 71.7856 450.841 71.3999C450.958 71.0093 451.017 70.5967 451.017 70.1621V69.9204C451.017 69.4907 450.958 69.083 450.841 68.6973C450.729 68.3115 450.558 67.9673 450.329 67.6646C450.104 67.3618 449.826 67.1226 449.494 66.9468C449.162 66.771 448.781 66.6831 448.351 66.6831C447.921 66.6831 447.541 66.771 447.208 66.9468C446.881 67.1226 446.603 67.3618 446.374 67.6646C446.149 67.9673 445.978 68.3115 445.861 68.6973C445.749 69.083 445.692 69.4907 445.692 69.9204ZM454.54 67.7158V74H453.661V66.0752H454.503L454.54 67.7158ZM454.379 69.5469L453.954 69.3271C453.983 68.8584 454.071 68.4189 454.218 68.0088C454.369 67.5986 454.579 67.2373 454.848 66.9248C455.116 66.6123 455.438 66.3682 455.814 66.1924C456.19 66.0166 456.618 65.9287 457.096 65.9287C457.482 65.9287 457.831 65.9824 458.144 66.0898C458.461 66.1924 458.729 66.356 458.949 66.5806C459.174 66.8003 459.347 67.0884 459.469 67.4448C459.591 67.8013 459.652 68.2285 459.652 68.7266V74H458.781V68.7559C458.781 68.2285 458.698 67.8159 458.532 67.5181C458.371 67.2202 458.144 67.0078 457.851 66.8809C457.562 66.7539 457.228 66.6904 456.847 66.6904C456.398 66.6904 456.017 66.7832 455.705 66.9688C455.397 67.1494 455.146 67.3862 454.95 67.6792C454.76 67.9673 454.618 68.2773 454.525 68.6094C454.433 68.9365 454.384 69.249 454.379 69.5469ZM459.645 68.8584L459.059 68.873C459.083 68.4873 459.171 68.1187 459.323 67.7671C459.479 67.4155 459.691 67.103 459.96 66.8296C460.229 66.5513 460.548 66.3315 460.919 66.1704C461.295 66.0093 461.718 65.9287 462.187 65.9287C462.597 65.9287 462.963 65.9849 463.285 66.0972C463.607 66.2046 463.878 66.3779 464.098 66.6172C464.323 66.8516 464.494 67.1519 464.611 67.5181C464.728 67.8843 464.787 68.3237 464.787 68.8364V74H463.908V68.8291C463.908 68.2676 463.825 67.833 463.659 67.5254C463.498 67.2129 463.273 66.9956 462.985 66.8735C462.697 66.7515 462.36 66.6904 461.974 66.6904C461.593 66.6953 461.259 66.7661 460.971 66.9028C460.683 67.0347 460.441 67.2104 460.246 67.4302C460.055 67.645 459.909 67.877 459.806 68.126C459.708 68.375 459.655 68.6191 459.645 68.8584ZM471.547 67.3862V74H470.675V66.0752H471.525L471.547 67.3862ZM474.352 66.0166L474.33 66.8223C474.232 66.8076 474.137 66.7954 474.044 66.7856C473.952 66.7759 473.852 66.771 473.744 66.771C473.363 66.771 473.029 66.8418 472.741 66.9834C472.458 67.1201 472.218 67.313 472.023 67.562C471.828 67.8062 471.679 68.0942 471.576 68.4263C471.474 68.7534 471.415 69.105 471.4 69.481L471.078 69.6055C471.078 69.0879 471.132 68.6069 471.239 68.1626C471.347 67.7183 471.51 67.3301 471.73 66.998C471.955 66.6611 472.235 66.3999 472.572 66.2144C472.914 66.0239 473.314 65.9287 473.773 65.9287C473.886 65.9287 473.996 65.9385 474.103 65.958C474.215 65.9727 474.298 65.9922 474.352 66.0166ZM476.703 66.0752V74H475.832V66.0752H476.703ZM475.678 63.7827C475.678 63.6167 475.729 63.4775 475.832 63.3652C475.939 63.248 476.085 63.1895 476.271 63.1895C476.457 63.1895 476.603 63.248 476.71 63.3652C476.823 63.4775 476.879 63.6167 476.879 63.7827C476.879 63.9438 476.823 64.083 476.71 64.2002C476.603 64.3125 476.457 64.3687 476.271 64.3687C476.085 64.3687 475.939 64.3125 475.832 64.2002C475.729 64.083 475.678 63.9438 475.678 63.7827ZM484.313 66.0752H485.126V73.8608C485.126 74.5493 484.994 75.1401 484.73 75.6333C484.472 76.1265 484.103 76.5049 483.625 76.7686C483.151 77.0322 482.592 77.1641 481.947 77.1641C481.62 77.1641 481.283 77.1128 480.937 77.0103C480.595 76.9126 480.27 76.7612 479.962 76.5562C479.66 76.356 479.401 76.1069 479.186 75.8091L479.677 75.2744C479.999 75.665 480.343 75.9507 480.709 76.1313C481.076 76.3169 481.471 76.4097 481.896 76.4097C482.399 76.4097 482.824 76.3096 483.17 76.1094C483.522 75.9092 483.788 75.6211 483.969 75.2451C484.154 74.8691 484.247 74.4175 484.247 73.8901V67.8184L484.313 66.0752ZM478.747 70.1182V69.9644C478.747 69.3491 478.815 68.7949 478.952 68.3018C479.093 67.8037 479.296 67.3789 479.56 67.0273C479.823 66.6709 480.143 66.3999 480.519 66.2144C480.9 66.0239 481.33 65.9287 481.808 65.9287C482.267 65.9287 482.675 66.0044 483.031 66.1558C483.388 66.3071 483.695 66.5244 483.954 66.8076C484.213 67.0908 484.42 67.4277 484.577 67.8184C484.738 68.209 484.855 68.6436 484.928 69.1221V71.0776C484.87 71.5269 484.762 71.9395 484.606 72.3154C484.45 72.6865 484.242 73.0112 483.983 73.2896C483.725 73.563 483.412 73.7754 483.046 73.9268C482.685 74.0732 482.267 74.1465 481.793 74.1465C481.32 74.1465 480.895 74.0488 480.519 73.8535C480.143 73.6582 479.823 73.3823 479.56 73.0259C479.296 72.6646 479.093 72.2373 478.952 71.7441C478.815 71.251 478.747 70.709 478.747 70.1182ZM479.625 69.9644V70.1182C479.625 70.582 479.672 71.0117 479.765 71.4072C479.857 71.8027 479.999 72.147 480.189 72.4399C480.38 72.7329 480.622 72.9624 480.915 73.1284C481.208 73.2944 481.552 73.3774 481.947 73.3774C482.45 73.3774 482.873 73.2822 483.214 73.0918C483.556 72.8965 483.827 72.6401 484.027 72.3228C484.228 72.0005 484.374 71.6489 484.467 71.2681V68.9902C484.413 68.7314 484.33 68.4678 484.218 68.1992C484.11 67.9307 483.959 67.6841 483.764 67.4595C483.573 67.23 483.329 67.0469 483.031 66.9102C482.738 66.7686 482.382 66.6978 481.962 66.6978C481.562 66.6978 481.212 66.7808 480.915 66.9468C480.622 67.1128 480.38 67.3447 480.189 67.6426C479.999 67.9355 479.857 68.2798 479.765 68.6753C479.672 69.0708 479.625 69.5005 479.625 69.9644ZM488.29 62.75V74H487.418V62.75H488.29ZM488.092 69.5469L487.704 69.3271C487.733 68.8584 487.829 68.4189 487.99 68.0088C488.151 67.5986 488.368 67.2373 488.642 66.9248C488.92 66.6123 489.245 66.3682 489.616 66.1924C489.992 66.0166 490.407 65.9287 490.861 65.9287C491.256 65.9287 491.61 65.9824 491.923 66.0898C492.235 66.1973 492.501 66.3682 492.721 66.6025C492.941 66.8369 493.107 67.1372 493.219 67.5034C493.336 67.8696 493.395 68.3164 493.395 68.8438V74H492.516V68.8364C492.516 68.2896 492.44 67.8623 492.289 67.5547C492.138 67.2422 491.923 67.02 491.645 66.8882C491.366 66.7563 491.037 66.6904 490.656 66.6904C490.236 66.6904 489.867 66.7832 489.55 66.9688C489.237 67.1494 488.974 67.3862 488.759 67.6792C488.549 67.9673 488.388 68.2773 488.275 68.6094C488.163 68.9365 488.102 69.249 488.092 69.5469ZM498.646 66.0752V66.793H494.677V66.0752H498.646ZM496.134 64.0391H497.006V72.0737C497.006 72.4399 497.055 72.7158 497.152 72.9014C497.25 73.0869 497.377 73.2114 497.533 73.2749C497.689 73.3384 497.858 73.3701 498.039 73.3701C498.17 73.3701 498.297 73.3628 498.419 73.3481C498.542 73.3286 498.651 73.3091 498.749 73.2896L498.786 74.0293C498.678 74.0635 498.539 74.0903 498.368 74.1099C498.197 74.1343 498.026 74.1465 497.855 74.1465C497.519 74.1465 497.221 74.0854 496.962 73.9634C496.703 73.8364 496.5 73.6216 496.354 73.3188C496.208 73.0112 496.134 72.5938 496.134 72.0664V64.0391ZM435.146 84.0752V84.793H431.176V84.0752H435.146ZM432.633 82.0391H433.505V90.0737C433.505 90.4399 433.554 90.7158 433.651 90.9014C433.749 91.0869 433.876 91.2114 434.032 91.2749C434.188 91.3384 434.357 91.3701 434.538 91.3701C434.669 91.3701 434.796 91.3628 434.918 91.3481C435.041 91.3286 435.15 91.3091 435.248 91.2896L435.285 92.0293C435.177 92.0635 435.038 92.0903 434.867 92.1099C434.696 92.1343 434.525 92.1465 434.354 92.1465C434.018 92.1465 433.72 92.0854 433.461 91.9634C433.202 91.8364 433 91.6216 432.853 91.3188C432.707 91.0112 432.633 90.5938 432.633 90.0664V82.0391ZM436.354 88.1621V87.9204C436.354 87.3442 436.437 86.812 436.603 86.3237C436.769 85.8354 437.006 85.4131 437.313 85.0566C437.626 84.7002 438 84.4243 438.434 84.229C438.869 84.0288 439.352 83.9287 439.884 83.9287C440.421 83.9287 440.907 84.0288 441.342 84.229C441.776 84.4243 442.15 84.7002 442.462 85.0566C442.775 85.4131 443.014 85.8354 443.18 86.3237C443.346 86.812 443.429 87.3442 443.429 87.9204V88.1621C443.429 88.7383 443.346 89.2705 443.18 89.7588C443.014 90.2422 442.775 90.6621 442.462 91.0186C442.155 91.375 441.784 91.6533 441.349 91.8535C440.915 92.0488 440.431 92.1465 439.899 92.1465C439.362 92.1465 438.876 92.0488 438.441 91.8535C438.007 91.6533 437.633 91.375 437.321 91.0186C437.008 90.6621 436.769 90.2422 436.603 89.7588C436.437 89.2705 436.354 88.7383 436.354 88.1621ZM437.226 87.9204V88.1621C437.226 88.5967 437.284 89.0093 437.401 89.3999C437.519 89.7856 437.689 90.1299 437.914 90.4326C438.139 90.7305 438.417 90.9648 438.749 91.1357C439.081 91.3066 439.464 91.3921 439.899 91.3921C440.329 91.3921 440.707 91.3066 441.034 91.1357C441.366 90.9648 441.645 90.7305 441.869 90.4326C442.094 90.1299 442.262 89.7856 442.375 89.3999C442.492 89.0093 442.55 88.5967 442.55 88.1621V87.9204C442.55 87.4907 442.492 87.083 442.375 86.6973C442.262 86.3115 442.091 85.9673 441.862 85.6646C441.637 85.3618 441.359 85.1226 441.027 84.9468C440.695 84.771 440.314 84.6831 439.884 84.6831C439.455 84.6831 439.074 84.771 438.742 84.9468C438.415 85.1226 438.136 85.3618 437.907 85.6646C437.682 85.9673 437.511 86.3115 437.394 86.6973C437.282 87.083 437.226 87.4907 437.226 87.9204ZM449.882 80.75V92H449.01V80.75H449.882ZM455.338 92.1465C454.821 92.1465 454.345 92.0513 453.91 91.8608C453.48 91.6704 453.104 91.4019 452.782 91.0552C452.465 90.7085 452.218 90.2983 452.042 89.8247C451.872 89.3462 451.786 88.8237 451.786 88.2573V87.9424C451.786 87.332 451.876 86.7803 452.057 86.2871C452.238 85.7939 452.487 85.3716 452.804 85.02C453.122 84.6685 453.483 84.3999 453.888 84.2144C454.298 84.0239 454.728 83.9287 455.177 83.9287C455.68 83.9287 456.127 84.019 456.518 84.1997C456.908 84.3755 457.235 84.627 457.499 84.9541C457.768 85.2764 457.97 85.6597 458.107 86.104C458.244 86.5435 458.312 87.0293 458.312 87.5615V88.0962H452.313V87.3491H457.44V87.2466C457.431 86.8022 457.34 86.3872 457.169 86.0015C457.003 85.6108 456.754 85.2935 456.422 85.0493C456.09 84.8052 455.675 84.6831 455.177 84.6831C454.806 84.6831 454.464 84.7612 454.152 84.9175C453.844 85.0737 453.578 85.2983 453.354 85.5913C453.134 85.8794 452.963 86.2236 452.841 86.624C452.724 87.0195 452.665 87.459 452.665 87.9424V88.2573C452.665 88.6968 452.729 89.1069 452.855 89.4878C452.987 89.8638 453.173 90.1958 453.412 90.4839C453.656 90.772 453.944 90.9966 454.276 91.1577C454.608 91.3188 454.975 91.3994 455.375 91.3994C455.844 91.3994 456.259 91.314 456.62 91.1431C456.981 90.9673 457.306 90.6914 457.594 90.3154L458.144 90.7402C457.973 90.9941 457.758 91.2285 457.499 91.4434C457.245 91.6582 456.94 91.8291 456.583 91.9561C456.227 92.083 455.812 92.1465 455.338 92.1465ZM461.542 92H460.67V83.0938C460.67 82.5518 460.763 82.0952 460.949 81.7241C461.139 81.353 461.408 81.0723 461.754 80.8818C462.106 80.6914 462.523 80.5962 463.007 80.5962C463.158 80.5962 463.314 80.606 463.476 80.6255C463.637 80.6401 463.793 80.6719 463.944 80.7207L463.878 81.4604C463.756 81.4263 463.632 81.4043 463.505 81.3945C463.383 81.3799 463.239 81.3726 463.073 81.3726C462.755 81.3726 462.482 81.4409 462.252 81.5776C462.023 81.7095 461.847 81.9023 461.725 82.1562C461.603 82.4102 461.542 82.7227 461.542 83.0938V92ZM463.432 84.0752V84.793H459.359V84.0752H463.432ZM468.002 84.0752V84.793H464.032V84.0752H468.002ZM465.49 82.0391H466.361V90.0737C466.361 90.4399 466.41 90.7158 466.508 90.9014C466.605 91.0869 466.732 91.2114 466.889 91.2749C467.045 91.3384 467.213 91.3701 467.394 91.3701C467.526 91.3701 467.653 91.3628 467.775 91.3481C467.897 91.3286 468.007 91.3091 468.104 91.2896L468.141 92.0293C468.034 92.0635 467.895 92.0903 467.724 92.1099C467.553 92.1343 467.382 92.1465 467.211 92.1465C466.874 92.1465 466.576 92.0854 466.317 91.9634C466.059 91.8364 465.856 91.6216 465.709 91.3188C465.563 91.0112 465.49 90.5938 465.49 90.0664V82.0391Z" fill="black"/>
<circle cx="1.58061" cy="1.58061" r="1.58061" transform="matrix(-1 0 0 1 382.969 6)" fill="black"/>
<circle cx="1.58061" cy="1.58061" r="1.58061" transform="matrix(-1 0 0 1 382.969 11.418)" fill="black"/>
<circle cx="1.58061" cy="1.58061" r="1.58061" transform="matrix(-1 0 0 1 382.969 16.8398)" fill="black"/>
<circle cx="1.58061" cy="1.58061" r="1.58061" transform="matrix(-1 0 0 1 376.871 6)" fill="black"/>
<circle cx="1.58061" cy="1.58061" r="1.38061" transform="matrix(-1 0 0 1 376.871 11.418)" stroke="black" stroke-width="0.4"/>
<circle cx="1.58061" cy="1.58061" r="1.38061" transform="matrix(-1 0 0 1 376.871 16.8398)" stroke="black" stroke-width="0.4"/>
<circle cx="1.58061" cy="1.58061" r="1.38061" transform="matrix(-1 0 0 1 367.613 6)" stroke="black" stroke-width="0.4"/>
<circle cx="1.58061" cy="1.58061" r="1.58061" transform="matrix(-1 0 0 1 367.613 11.418)" fill="black"/>
<circle cx="1.58061" cy="1.58061" r="1.38061" transform="matrix(-1 0 0 1 367.613 16.8398)" stroke="black" stroke-width="0.4"/>
<circle cx="1.58061" cy="1.58061" r="1.58061" transform="matrix(-1 0 0 1 361.516 6)" fill="black"/>
<circle cx="1.58061" cy="1.58061" r="1.38061" transform="matrix(-1 0 0 1 361.516 11.418)" stroke="black" stroke-width="0.4"/>
<circle cx="1.58061" cy="1.58061" r="1.38061" transform="matrix(-1 0 0 1 361.516 16.8398)" stroke="black" stroke-width="0.4"/>
<circle cx="1.58061" cy="1.58061" r="1.38061" transform="matrix(-1 0 0 1 352.258 6)" stroke="black" stroke-width="0.4"/>
<circle cx="1.58061" cy="1.58061" r="1.58061" transform="matrix(-1 0 0 1 352.258 11.418)" fill="black"/>
<circle cx="1.58061" cy="1.58061" r="1.58061" transform="matrix(-1 0 0 1 352.258 16.8398)" fill="black"/>
<circle cx="1.58061" cy="1.58061" r="1.58061" transform="matrix(-1 0 0 1 346.16 6)" fill="black"/>
<circle cx="1.58061" cy="1.58061" r="1.58061" transform="matrix(-1 0 0 1 346.16 11.418)" fill="black"/>
<circle cx="1.58061" cy="1.58061" r="1.58061" transform="matrix(-1 0 0 1 346.16 16.8398)" fill="black"/>
<path d="M242.228 14.9697L244.776 4.20312H246.2L246.525 5.99609L243.81 17H242.28L242.228 14.9697ZM240.918 4.20312L243.027 14.9697L242.852 17H241.146L238.308 4.20312H240.918ZM248.767 14.9258L250.85 4.20312H253.46L250.63 17H248.925L248.767 14.9258ZM247 4.20312L249.566 15.0137L249.496 17H247.967L245.233 5.9873L245.585 4.20312H247ZM257.072 9.56445V17H254.541V7.49023H256.923L257.072 9.56445ZM259.938 7.42871L259.894 9.77539C259.771 9.75781 259.621 9.74316 259.445 9.73145C259.275 9.71387 259.12 9.70508 258.979 9.70508C258.622 9.70508 258.312 9.75195 258.048 9.8457C257.79 9.93359 257.573 10.0654 257.397 10.2412C257.228 10.417 257.099 10.6309 257.011 10.8828C256.929 11.1348 256.882 11.4219 256.87 11.7441L256.36 11.5859C256.36 10.9707 256.422 10.4053 256.545 9.88965C256.668 9.36816 256.847 8.91406 257.081 8.52734C257.321 8.14062 257.614 7.8418 257.96 7.63086C258.306 7.41992 258.701 7.31445 259.146 7.31445C259.287 7.31445 259.431 7.32617 259.577 7.34961C259.724 7.36719 259.844 7.39355 259.938 7.42871ZM263.805 7.49023V17H261.265V7.49023H263.805ZM261.106 5.01172C261.106 4.64258 261.235 4.33789 261.493 4.09766C261.751 3.85742 262.097 3.7373 262.53 3.7373C262.958 3.7373 263.301 3.85742 263.559 4.09766C263.822 4.33789 263.954 4.64258 263.954 5.01172C263.954 5.38086 263.822 5.68555 263.559 5.92578C263.301 6.16602 262.958 6.28613 262.53 6.28613C262.097 6.28613 261.751 6.16602 261.493 5.92578C261.235 5.68555 261.106 5.38086 261.106 5.01172ZM270.555 7.49023V9.2832H265.018V7.49023H270.555ZM266.389 5.14355H268.92V14.1348C268.92 14.4102 268.955 14.6211 269.025 14.7676C269.102 14.9141 269.213 15.0166 269.359 15.0752C269.506 15.1279 269.69 15.1543 269.913 15.1543C270.071 15.1543 270.212 15.1484 270.335 15.1367C270.464 15.1191 270.572 15.1016 270.66 15.084L270.669 16.9473C270.452 17.0176 270.218 17.0732 269.966 17.1143C269.714 17.1553 269.436 17.1758 269.131 17.1758C268.574 17.1758 268.088 17.085 267.672 16.9033C267.262 16.7158 266.945 16.417 266.723 16.0068C266.5 15.5967 266.389 15.0576 266.389 14.3896V5.14355ZM276.373 17.1758C275.635 17.1758 274.973 17.0586 274.387 16.8242C273.801 16.584 273.303 16.2529 272.893 15.8311C272.488 15.4092 272.178 14.9199 271.961 14.3633C271.744 13.8008 271.636 13.2031 271.636 12.5703V12.2188C271.636 11.498 271.738 10.8389 271.943 10.2412C272.148 9.64355 272.441 9.125 272.822 8.68555C273.209 8.24609 273.678 7.90918 274.229 7.6748C274.779 7.43457 275.4 7.31445 276.092 7.31445C276.766 7.31445 277.363 7.42578 277.885 7.64844C278.406 7.87109 278.843 8.1875 279.194 8.59766C279.552 9.00781 279.821 9.5 280.003 10.0742C280.185 10.6426 280.275 11.2754 280.275 11.9727V13.0273H272.717V11.3398H277.788V11.1465C277.788 10.7949 277.724 10.4814 277.595 10.2061C277.472 9.9248 277.284 9.70215 277.032 9.53809C276.78 9.37402 276.458 9.29199 276.065 9.29199C275.731 9.29199 275.444 9.36523 275.204 9.51172C274.964 9.6582 274.768 9.86328 274.615 10.127C274.469 10.3906 274.357 10.7012 274.281 11.0586C274.211 11.4102 274.176 11.7969 274.176 12.2188V12.5703C274.176 12.9512 274.229 13.3027 274.334 13.625C274.445 13.9473 274.601 14.2256 274.8 14.46C275.005 14.6943 275.251 14.876 275.538 15.0049C275.831 15.1338 276.162 15.1982 276.531 15.1982C276.988 15.1982 277.413 15.1104 277.806 14.9346C278.204 14.7529 278.547 14.4805 278.834 14.1172L280.064 15.4531C279.865 15.7402 279.593 16.0156 279.247 16.2793C278.907 16.543 278.497 16.7598 278.017 16.9297C277.536 17.0938 276.988 17.1758 276.373 17.1758ZM281.813 15.7783C281.813 15.4033 281.942 15.0898 282.2 14.8379C282.464 14.5859 282.812 14.46 283.246 14.46C283.68 14.46 284.025 14.5859 284.283 14.8379C284.547 15.0898 284.679 15.4033 284.679 15.7783C284.679 16.1533 284.547 16.4668 284.283 16.7188C284.025 16.9707 283.68 17.0967 283.246 17.0967C282.812 17.0967 282.464 16.9707 282.2 16.7188C281.942 16.4668 281.813 16.1533 281.813 15.7783ZM281.813 8.52734C281.813 8.15234 281.942 7.83887 282.2 7.58691C282.464 7.33496 282.812 7.20898 283.246 7.20898C283.68 7.20898 284.025 7.33496 284.283 7.58691C284.547 7.83887 284.679 8.15234 284.679 8.52734C284.679 8.90234 284.547 9.21582 284.283 9.46777C284.025 9.71973 283.68 9.8457 283.246 9.8457C282.812 9.8457 282.464 9.71973 282.2 9.46777C281.942 9.21582 281.813 8.90234 281.813 8.52734Z" fill="black"/>
<rect x="307.5" y="0.5" width="83" height="106" stroke="black"/>
<path d="M337.646 74.3536C337.451 74.1583 337.451 73.8417 337.646 73.6464L340.828 70.4645C341.024 70.2692 341.34 70.2692 341.536 70.4645C341.731 70.6597 341.731 70.9763 341.536 71.1716L338.707 74L341.536 76.8284C341.731 77.0237 341.731 77.3403 341.536 77.5355C341.34 77.7308 341.024 77.7308 340.828 77.5355L337.646 74.3536ZM424 74V74.5H338V74V73.5H424V74Z" fill="black"/>
<rect x="303" y="27" width="92" height="34" fill="black"/>
<rect x="382" y="31" width="7" height="11" fill="white"/>
<rect x="370" y="31" width="7" height="11" fill="white"/>
<rect x="358" y="31" width="7" height="11" fill="white"/>
<rect x="346" y="31" width="7" height="11" fill="white"/>
<rect x="334" y="31" width="7" height="11" fill="white"/>
<rect x="322" y="31" width="7" height="11" fill="white"/>
<rect x="310" y="31" width="7" height="11" fill="white"/>
<rect x="382" y="46" width="7" height="11" fill="white"/>
<rect x="370" y="46" width="7" height="11" fill="white"/>
<rect x="358" y="46" width="7" height="11" fill="white"/>
<rect x="346" y="46" width="7" height="11" fill="white"/>
<rect x="334" y="46" width="7" height="11" fill="white"/>
<rect x="322" y="46" width="7" height="11" fill="white"/>
<rect x="310" y="46" width="7" height="11" fill="white"/>
<rect x="282.953" y="45.125" width="1" height="17" transform="rotate(-32.0499 282.953 45.125)" fill="#9F9F9F"/>
<circle cx="277.648" cy="36.6482" r="7" transform="rotate(-32.0499 277.648 36.6482)" fill="black"/>
<rect x="278.605" y="41.9453" width="5" height="9" transform="rotate(-32.0499 278.605 41.9453)" fill="black"/>
</svg>
