<svg width="353" height="69" viewBox="0 0 353 69" fill="none" xmlns="http://www.w3.org/2000/svg">
<rect width="352.603" height="69" rx="12" fill="#F4F4F4"/>
<path d="M64.3037 34.5015H55.7031M29.9014 34.5015H21.3008M42.8022 21.6006V13M42.8022 56.0029V47.4023M60.0034 34.5015C60.0034 44.0014 52.3022 51.7026 42.8022 51.7026C33.3023 51.7026 25.6011 44.0014 25.6011 34.5015C25.6011 25.0015 33.3023 17.3003 42.8022 17.3003C52.3022 17.3003 60.0034 25.0015 60.0034 34.5015ZM49.2527 34.5015C49.2527 38.0639 46.3647 40.9519 42.8022 40.9519C39.2398 40.9519 36.3518 38.0639 36.3518 34.5015C36.3518 30.939 39.2398 28.051 42.8022 28.051C46.3647 28.051 49.2527 30.939 49.2527 34.5015Z" stroke="#FF8845" stroke-width="3.09621" stroke-linecap="round" stroke-linejoin="round"/>
<path d="M81.9873 47V20.9722H92.1045C96.8384 20.9722 99.6582 24.3901 99.6582 28.1841C99.6582 31.8926 97.0605 35.2764 92.2754 35.2764H91.25L101.213 47H95.7446L86.499 35.2764H86.311V47H81.9873ZM86.311 31.9951H91.1304C93.8306 31.9951 95.1978 30.3716 95.1978 28.3379C95.1978 26.3042 93.7793 24.8003 91.1987 24.8003H86.311V31.9951ZM111.484 47.3418C106.682 47.3418 102.649 43.5649 102.649 37.9766C102.649 32.4907 106.528 28.6626 111.501 28.6626C116.116 28.6626 119.636 32.0464 119.636 37.4639C119.636 37.9766 119.585 38.5405 119.534 38.8823H106.802C107.058 42.061 109.314 43.7188 111.587 43.7188C113.723 43.7188 115.227 42.5054 115.859 40.728L119.38 42.0269C118.474 45.1714 115.415 47.3418 111.484 47.3418ZM106.887 35.96H115.569C115.244 33.2427 113.45 31.8926 111.45 31.8926C109.331 31.8926 107.366 33.2939 106.887 35.96ZM139.597 47H135.667V44.1118H135.581C134.333 45.9917 132.437 47.2734 129.924 47.2734C125.72 47.2734 122.302 43.8213 122.302 37.9424C122.302 32.0635 125.72 28.6626 129.924 28.6626C132.231 28.6626 134.026 29.7393 135.273 31.3628H135.325V20.5791H139.597V47ZM126.643 37.9766C126.643 41.104 128.198 43.582 130.933 43.582C133.735 43.582 135.325 41.104 135.325 37.9766C135.325 34.8833 133.735 32.4224 130.933 32.4224C128.215 32.4224 126.643 34.8833 126.643 37.9766ZM152.227 47.3418C147.424 47.3418 143.391 43.5649 143.391 37.9766C143.391 32.4907 147.271 28.6626 152.244 28.6626C156.858 28.6626 160.378 32.0464 160.378 37.4639C160.378 37.9766 160.327 38.5405 160.276 38.8823H147.544C147.8 42.061 150.056 43.7188 152.329 43.7188C154.465 43.7188 155.969 42.5054 156.602 40.728L160.122 42.0269C159.216 45.1714 156.157 47.3418 152.227 47.3418ZM147.629 35.96H156.311C155.986 33.2427 154.192 31.8926 152.192 31.8926C150.073 31.8926 148.108 33.2939 147.629 35.96ZM170.496 47.3418C166.189 47.3418 163.027 44.6587 162.839 41.4287L166.685 40.8818C167.009 42.9497 168.65 44.1802 170.632 44.1802C172.444 44.1802 173.538 43.1719 173.538 41.9072C173.538 40.728 172.803 39.9761 171.23 39.6855L168.24 39.0874C165.198 38.5063 163.335 36.8486 163.335 34.1484C163.335 31.0552 166.548 28.6626 170.479 28.6626C174.187 28.6626 177.366 30.8159 177.673 34.2852L173.965 34.9517C173.76 33.106 172.307 31.7559 170.359 31.7559C168.547 31.7559 167.488 32.8325 167.488 33.9434C167.488 35.0542 168.154 35.6865 169.829 35.9941L173.11 36.5923C175.913 37.0879 177.776 38.626 177.776 41.5142C177.776 44.7783 175.024 47.3418 170.496 47.3418ZM181.826 47V29.1069H186.099V47H181.826ZM181.672 25.689V20.9722H186.27V25.689H181.672ZM198.848 54.605C193.909 54.605 190.73 51.6826 190.525 47.9399L194.609 47.4785C194.832 49.3242 196.267 51.0845 198.779 51.0845C201.104 51.0845 203.069 49.9565 203.069 46.2822V43.6675C201.838 45.2056 200.061 46.231 197.737 46.231C193.533 46.231 190.115 43.1035 190.115 37.4639C190.115 31.8242 193.533 28.6455 197.737 28.6455C200.3 28.6455 202.197 29.9102 203.428 31.7388V29.1069H207.341V46.5557C207.341 52.144 203.667 54.605 198.848 54.605ZM194.456 37.481C194.456 40.335 195.994 42.5737 198.745 42.5737C201.497 42.5737 203.069 40.4546 203.069 37.481C203.069 34.4902 201.497 32.3711 198.745 32.3711C195.994 32.3711 194.456 34.627 194.456 37.481ZM212.571 47V29.1069H216.501V31.4995H216.536C217.732 29.6367 219.595 28.6626 221.731 28.6626C225.115 28.6626 228.02 30.8843 228.02 35.5327V47H223.748V36.5068C223.748 34.0459 222.534 32.5762 220.483 32.5762C218.638 32.5762 217.031 33.9434 216.843 36.2505V47H212.571ZM254.663 47.3418C247.366 47.3418 241.982 41.6167 241.982 33.9775C241.982 26.2358 247.178 20.4937 255.005 20.4937C261.362 20.4937 265.481 24.1509 266.729 29.2266L262.747 30.7646C261.824 27.0903 258.867 24.5781 254.937 24.5781C250.168 24.5781 246.443 28.3037 246.443 33.9092C246.443 39.6172 250.339 43.3257 255.073 43.3257C258.799 43.3257 261.516 41.3604 262.456 37.9424H257.021V34.3706H267.122V47H262.969V43.2915H262.9C261.208 45.7524 258.132 47.3418 254.663 47.3418ZM279.529 47.3418C274.146 47.3418 270.71 42.8984 270.71 37.9766C270.71 33.0547 274.146 28.6626 279.529 28.6626C284.912 28.6626 288.364 33.0547 288.364 37.9766C288.364 42.8984 284.912 47.3418 279.529 47.3418ZM275.034 37.9766C275.034 41.0015 276.777 43.5308 279.529 43.5308C282.28 43.5308 284.041 41.0015 284.041 37.9766C284.041 34.9858 282.28 32.4736 279.529 32.4736C276.777 32.4736 275.034 34.9858 275.034 37.9766ZM291.167 35.0371C291.44 30.9868 295.2 28.6626 298.96 28.6626C302.925 28.6626 306.018 30.7134 306.018 35.0371V47H302.053V44.1802H301.968C301.165 45.8037 299.285 47.3076 296.499 47.3076C293.44 47.3076 290.928 45.3765 290.928 42.1978C290.928 39.5488 292.996 37.5151 296.277 36.9683L299.558 36.4043C301.267 36.1138 302.019 35.5498 302.019 34.3022C302.019 33.1572 300.925 32.0122 298.994 32.0122C296.841 32.0122 295.081 33.5332 295.012 35.6865L291.167 35.0371ZM295.269 41.9243C295.269 43.2573 296.328 44.0776 297.969 44.0776C299.661 44.0776 302.019 42.8301 302.019 39.4292V38.5747C301.489 38.7627 300.549 38.9678 299.507 39.1558L297.969 39.4292C296.123 39.771 295.269 40.7109 295.269 41.9243ZM310.872 47V20.5791H315.144V47H310.872ZM326.56 47.3418C322.253 47.3418 319.092 44.6587 318.904 41.4287L322.749 40.8818C323.074 42.9497 324.714 44.1802 326.697 44.1802C328.508 44.1802 329.602 43.1719 329.602 41.9072C329.602 40.728 328.867 39.9761 327.295 39.6855L324.304 39.0874C321.262 38.5063 319.399 36.8486 319.399 34.1484C319.399 31.0552 322.612 28.6626 326.543 28.6626C330.251 28.6626 333.43 30.8159 333.738 34.2852L330.029 34.9517C329.824 33.106 328.372 31.7559 326.423 31.7559C324.612 31.7559 323.552 32.8325 323.552 33.9434C323.552 35.0542 324.219 35.6865 325.894 35.9941L329.175 36.5923C331.978 37.0879 333.84 38.626 333.84 41.5142C333.84 44.7783 331.089 47.3418 326.56 47.3418Z" fill="black"/>
</svg>
