<svg width="928" height="318" viewBox="0 0 928 318" fill="none" xmlns="http://www.w3.org/2000/svg">
<path d="M163.763 53.7403H157.463C154.103 45.9403 151.943 35.8003 153.323 26.4403C154.943 15.6403 159.803 7.78031 165.503 1.60031H171.983C166.043 8.62031 161.963 16.6603 160.463 26.4403C159.143 34.8403 160.403 45.0403 163.763 53.7403Z" fill="#5C5858"/>
<path d="M182.631 53.7403H176.331C172.971 45.9403 170.811 35.8003 172.191 26.4403C173.811 15.6403 178.671 7.78031 184.371 1.60031H190.851C184.911 8.62031 180.831 16.6603 179.331 26.4403C178.011 34.8403 179.271 45.0403 182.631 53.7403Z" fill="#5C5858"/>
<path d="M214.022 46.0003H206.702L201.122 15.1003H207.842L211.442 39.2803L222.662 15.1003H229.322L214.022 46.0003Z" fill="#5C5858"/>
<path d="M241.834 46.7803C232.654 46.7803 227.434 40.1203 228.754 30.3403L229.114 27.8803C230.314 19.2403 235.714 14.3803 243.994 14.3803C253.234 14.3803 258.394 20.9803 257.074 30.7603L256.714 33.2803C255.514 41.9203 250.054 46.7803 241.834 46.7803ZM242.074 41.5003C246.634 41.5003 249.334 38.6203 250.114 33.1003L250.534 29.8003C251.434 23.3203 248.854 19.6003 243.814 19.6003C239.254 19.6003 236.494 22.5403 235.714 28.0003L235.294 31.3003C234.394 37.7803 237.094 41.5003 242.074 41.5003Z" fill="#5C5858"/>
<path d="M273.637 1.60031L272.137 10.6003H265.357L266.797 1.60031H273.637ZM264.757 15.1003H271.237L266.377 46.0003H259.837L264.757 15.1003Z" fill="#5C5858"/>
<path d="M286.949 46.7803C277.829 46.7803 272.609 40.0603 273.989 30.3403L274.349 27.9403C275.549 19.2403 280.889 14.3803 289.049 14.3803C296.849 14.3803 301.409 19.3603 301.229 26.3803H294.809C294.869 22.1803 292.889 19.6003 288.869 19.6003C284.489 19.6003 281.729 22.4803 280.949 28.0003L280.529 31.3003C279.629 37.7803 282.269 41.5003 287.069 41.5003C290.969 41.5003 293.249 39.4603 293.909 35.4403H300.269C299.369 42.3403 294.689 46.7803 286.949 46.7803Z" fill="#5C5858"/>
<path d="M317.243 46.7803C308.063 46.7803 302.843 40.0603 304.223 30.3403L304.583 27.9403C305.783 19.2403 311.123 14.3803 319.283 14.3803C328.823 14.3803 333.623 21.4003 331.763 32.0203H310.703L310.643 32.6803C310.283 38.3203 312.863 41.5003 317.423 41.5003C321.203 41.5003 323.543 39.6403 324.443 36.3403H330.983C329.483 42.7603 324.923 46.7803 317.243 46.7803ZM311.423 26.9203L311.363 27.2803H325.703V27.2203C325.823 22.3603 323.423 19.6003 319.163 19.6003C315.023 19.6003 312.383 22.0603 311.423 26.9203Z" fill="#5C5858"/>
<path d="M345.843 46.7803C338.343 46.7803 333.723 43.0003 333.783 36.4003H340.023C340.143 40.2403 342.663 41.8003 346.083 41.8003C349.503 41.8003 351.363 40.6603 351.663 38.2603C352.143 35.2003 350.703 33.9403 346.023 32.7403C339.243 31.0003 336.123 27.5803 336.963 22.1203C337.683 17.5603 341.583 14.3803 348.303 14.3803C355.263 14.3803 359.943 18.0403 359.703 24.0403H353.583C353.583 20.9203 351.483 19.2403 348.183 19.2403C345.183 19.2403 343.503 20.3803 343.143 22.4803C342.723 25.3003 344.043 26.5003 348.543 27.7003C356.043 29.6803 359.043 32.9203 358.083 38.6803C357.303 43.7203 352.683 46.7803 345.843 46.7803Z" fill="#5C5858"/>
<path d="M386.912 46.7803C377.732 46.7803 372.512 40.1203 373.832 30.3403L374.192 27.8803C375.392 19.2403 380.792 14.3803 389.072 14.3803C398.312 14.3803 403.472 20.9803 402.152 30.7603L401.792 33.2803C400.592 41.9203 395.132 46.7803 386.912 46.7803ZM387.152 41.5003C391.712 41.5003 394.412 38.6203 395.192 33.1003L395.612 29.8003C396.512 23.3203 393.932 19.6003 388.892 19.6003C384.332 19.6003 381.572 22.5403 380.792 28.0003L380.372 31.3003C379.472 37.7803 382.172 41.5003 387.152 41.5003Z" fill="#5C5858"/>
<path d="M413.281 46.0003H406.741L410.881 20.0803H405.421L406.201 15.1003H411.661L412.621 9.04031C413.581 3.22031 416.941 0.820312 422.881 0.820312C425.101 0.820312 426.841 1.18031 428.101 1.66031L427.261 6.64031C426.421 6.40031 425.221 6.16031 423.781 6.16031C420.541 6.16031 419.281 7.42031 418.921 10.1203L418.141 15.1003H425.821L425.041 20.0803H417.361L413.281 46.0003Z" fill="#5C5858"/>
<path d="M471.679 307.78C465.559 307.78 462.079 304.36 463.159 297.76L465.799 281.08H460.339L461.119 276.1H466.579L468.079 266.62H474.619L473.059 276.1H480.739L479.959 281.08H472.279L469.639 297.76C469.099 301.12 470.359 302.44 473.479 302.44C474.739 302.44 475.939 302.2 476.779 301.9L475.999 307.06C474.859 307.48 473.119 307.78 471.679 307.78Z" fill="#5C5858"/>
<path d="M487.349 307H480.809L487.829 262.6H494.369L491.729 279.52C493.409 277.18 496.229 275.38 499.949 275.38C506.249 275.38 510.569 279.94 509.309 287.5L506.189 307H499.709L502.709 287.86C503.489 283.36 501.689 280.78 497.789 280.78C493.469 280.78 490.949 283.78 490.229 288.46L487.349 307Z" fill="#5C5858"/>
<path d="M526.614 307.78C517.434 307.78 512.214 301.06 513.594 291.34L513.954 288.94C515.154 280.24 520.494 275.38 528.654 275.38C538.194 275.38 542.994 282.4 541.134 293.02H520.074L520.014 293.68C519.654 299.32 522.234 302.5 526.794 302.5C530.574 302.5 532.914 300.64 533.814 297.34H540.354C538.854 303.76 534.294 307.78 526.614 307.78ZM520.794 287.92L520.734 288.28H535.074V288.22C535.194 283.36 532.794 280.6 528.534 280.6C524.394 280.6 521.754 283.06 520.794 287.92Z" fill="#5C5858"/>
<path d="M561.657 262.6H568.197L561.177 307H554.637L561.657 262.6Z" fill="#5C5858"/>
<path d="M576.409 307.78C570.589 307.78 566.629 303.52 567.529 297.88C568.249 293.2 571.369 290.56 577.249 289.72L587.809 288.16L588.109 286.42C588.769 282.1 586.129 280.48 583.069 280.48C579.649 280.48 577.609 282.1 576.829 285.46H570.649C571.849 279.04 576.229 275.38 583.369 275.38C590.749 275.38 595.549 279.7 594.349 287.08L591.169 307H585.169L585.529 303.4C583.489 306.22 580.309 307.78 576.409 307.78ZM578.389 302.62C582.589 302.62 585.769 300.16 586.489 296.5L587.029 292.96L578.329 294.22C575.629 294.58 574.249 295.96 573.949 297.88C573.469 300.88 575.389 302.62 578.389 302.62Z" fill="#5C5858"/>
<path d="M609.534 317.98C601.974 317.98 597.474 314.2 597.054 308.8H603.774C604.134 311.5 606.474 313 609.834 313C614.514 313 617.034 310.78 617.694 306.64L618.294 302.56C616.554 304.9 613.554 306.64 609.474 306.64C602.274 306.64 597.354 300.28 598.674 291.16L598.974 288.94C600.114 280.48 605.274 275.38 612.474 275.38C617.454 275.38 620.814 278.08 622.074 281.08L623.034 276.1H629.094L624.294 306.22C623.214 313.3 618.894 317.98 609.534 317.98ZM612.054 301.36C616.554 301.36 619.314 298.54 620.034 293.32L620.454 290.44C621.294 284.2 618.714 280.6 613.674 280.6C609.114 280.6 606.354 283.48 605.574 288.76L605.154 291.94C604.314 297.76 607.014 301.36 612.054 301.36Z" fill="#5C5858"/>
<path d="M644.916 307.78C635.736 307.78 630.516 301.12 631.836 291.34L632.196 288.88C633.396 280.24 638.796 275.38 647.076 275.38C656.316 275.38 661.476 281.98 660.156 291.76L659.796 294.28C658.596 302.92 653.136 307.78 644.916 307.78ZM645.156 302.5C649.716 302.5 652.416 299.62 653.196 294.1L653.616 290.8C654.516 284.32 651.936 280.6 646.896 280.6C642.336 280.6 639.576 283.54 638.796 289L638.376 292.3C637.476 298.78 640.176 302.5 645.156 302.5Z" fill="#5C5858"/>
<path d="M677.377 307.78C668.197 307.78 662.977 301.12 664.297 291.34L664.657 288.88C665.857 280.24 671.257 275.38 679.537 275.38C688.777 275.38 693.937 281.98 692.617 291.76L692.257 294.28C691.057 302.92 685.597 307.78 677.377 307.78ZM677.617 302.5C682.177 302.5 684.877 299.62 685.657 294.1L686.077 290.8C686.977 284.32 684.397 280.6 679.357 280.6C674.797 280.6 672.037 283.54 671.257 289L670.837 292.3C669.937 298.78 672.637 302.5 677.617 302.5Z" fill="#5C5858"/>
<path d="M701.919 307H695.38L700.299 276.1H706.479L706.06 279.88C707.74 277.3 710.619 275.38 714.519 275.38C720.819 275.38 725.14 279.94 723.88 287.5L720.759 307H714.279L717.279 287.86C718.059 283.36 716.259 280.78 712.359 280.78C708.039 280.78 705.519 283.78 704.799 288.46L701.919 307Z" fill="#5C5858"/>
<path d="M740.748 314.74H734.268C740.148 307.72 744.228 299.68 745.788 289.9C747.108 281.5 745.848 271.3 742.488 262.6H748.728C752.088 270.4 754.308 280.54 752.868 289.9C751.248 300.7 746.388 308.56 740.748 314.74Z" fill="#5C5858"/>
<path d="M759.616 314.74H753.136C759.016 307.72 763.096 299.68 764.656 289.9C765.976 281.5 764.716 271.3 761.356 262.6H767.596C770.956 270.4 773.176 280.54 771.736 289.9C770.116 300.7 765.256 308.56 759.616 314.74Z" fill="#5C5858"/>
<path d="M0.726562 244V72.3575H93.1685C120.141 72.3575 140.983 92.2191 140.983 116.004C140.983 140.769 121.122 158.669 92.1876 158.915C82.1343 159.16 79.1918 166.761 85.8123 174.608L142.454 244H109.352L47.0701 166.271C39.2236 156.953 28.6798 160.386 28.6798 172.646V244H0.726562ZM28.6798 123.36C28.6798 131.452 33.3387 136.111 41.9208 136.111H91.6972C103.712 136.111 112.54 127.038 112.54 115.759C112.54 104.479 103.712 95.6519 91.6972 95.6519H41.9208C33.3387 95.6519 28.6798 100.311 28.6798 108.403V123.36Z" fill="#5C5858"/>
<path d="M165.607 244V72.3575H193.56V244H165.607Z" fill="#5C5858"/>
<path d="M232.31 244V72.3575H321.319C350.744 72.3575 372.076 93.4451 372.076 118.456C372.076 143.467 350.744 164.554 321.319 164.554H273.504C264.922 164.554 260.263 169.213 260.263 177.55V244H232.31ZM260.263 128.264C260.263 136.356 264.922 141.015 273.504 141.015H319.112C333.825 141.015 343.633 130.961 343.633 118.211C343.633 105.46 333.825 95.6519 319.112 95.6519H273.504C264.922 95.6519 260.263 100.311 260.263 108.403V128.264Z" fill="#5C5858"/>
<path d="M392.162 244V72.3575H481.171C510.596 72.3575 531.928 93.4451 531.928 118.456C531.928 143.467 510.596 164.554 481.171 164.554H433.356C424.774 164.554 420.115 169.213 420.115 177.55V244H392.162ZM420.115 128.264C420.115 136.356 424.774 141.015 433.356 141.015H478.964C493.677 141.015 503.485 130.961 503.485 118.211C503.485 105.46 493.677 95.6519 478.964 95.6519H433.356C424.774 95.6519 420.115 100.311 420.115 108.403V128.264Z" fill="#5C5858"/>
<path d="M552.014 244V72.3575H579.967V205.013C579.967 215.311 585.607 220.706 595.905 220.706H649.115V244H552.014Z" fill="#5C5858"/>
<path d="M669.961 244V72.3575H788.64V95.6519H712.872C704.29 95.6519 697.914 101.782 697.914 110.364V121.398C697.914 129.98 704.29 136.356 712.872 136.356H783.736V159.65H712.872C704.29 159.65 697.914 166.025 697.914 174.608V205.748C697.914 214.331 704.29 220.706 712.872 220.706H788.64V244H669.961Z" fill="#5C5858"/>
<path d="M835.483 197.657C836.954 214.085 847.989 223.648 867.36 223.648C887.221 223.648 897.765 213.595 897.765 199.128C897.765 187.603 891.635 178.04 872.999 172.401L850.195 165.29C825.185 157.689 809.001 141.26 809.001 118.946C809.001 92.2191 832.05 69.9055 867.605 69.9055C900.953 69.9055 925.473 89.2766 927.68 119.437H898.501C896.539 102.518 885.014 93.1999 867.115 93.1999C848.234 93.1999 837.2 103.744 837.2 117.72C837.2 129 844.311 136.356 860.004 141.26L883.053 148.371C911.742 157.198 925.963 175.098 925.963 197.412C925.963 225.855 903.405 246.943 867.36 246.943C832.05 246.943 808.02 227.572 806.059 197.657H835.483Z" fill="#5C5858"/>
</svg>
