<svg width="116" height="101" viewBox="0 0 116 101" fill="none" xmlns="http://www.w3.org/2000/svg">
<g filter="url(#filter0_dd_747_6494)">
<rect x="53.1477" y="57.9377" width="16.3268" height="31.4845" rx="8.05754" transform="rotate(-34.4159 53.1477 57.9377)" fill="white" stroke="white" stroke-width="4.95849"/>
<mask id="path-2-outside-1_747_6494" maskUnits="userSpaceOnUse" x="16.0492" y="4.57299" width="69.5076" height="69.5076" fill="black">
<rect fill="white" x="16.0492" y="4.57299" width="69.5076" height="69.5076"/>
<path fill-rule="evenodd" clip-rule="evenodd" d="M61.2832 55.369C70.2035 49.2575 72.4805 37.0718 66.369 28.1516C60.2575 19.2313 48.0719 16.9543 39.1516 23.0658C30.2313 29.1773 27.9543 41.3629 34.0658 50.2832C40.1773 59.2035 52.3629 61.4804 61.2832 55.369ZM57.2603 48.9382C62.8714 45.0939 64.3037 37.4288 60.4594 31.8176C56.6151 26.2065 48.9499 24.7742 43.3388 28.6185C37.7276 32.4628 36.2953 40.128 40.1397 45.7391C43.984 51.3503 51.6491 52.7825 57.2603 48.9382Z"/>
</mask>
<path fill-rule="evenodd" clip-rule="evenodd" d="M61.2832 55.369C70.2035 49.2575 72.4805 37.0718 66.369 28.1516C60.2575 19.2313 48.0719 16.9543 39.1516 23.0658C30.2313 29.1773 27.9543 41.3629 34.0658 50.2832C40.1773 59.2035 52.3629 61.4804 61.2832 55.369ZM57.2603 48.9382C62.8714 45.0939 64.3037 37.4288 60.4594 31.8176C56.6151 26.2065 48.9499 24.7742 43.3388 28.6185C37.7276 32.4628 36.2953 40.128 40.1397 45.7391C43.984 51.3503 51.6491 52.7825 57.2603 48.9382Z" fill="#EEEEEE"/>
<path d="M62.2784 30.9541C66.8421 37.6152 65.1418 46.7147 58.4807 51.2784L64.0857 59.4595C75.2651 51.8002 78.1188 36.5285 70.4595 25.349L62.2784 30.9541ZM41.9541 27.1563C48.6152 22.5926 57.7148 24.2929 62.2784 30.9541L70.4595 25.349C62.8003 14.1696 47.5285 11.316 36.3491 18.9752L41.9541 27.1563ZM38.1563 47.4807C33.5927 40.8195 35.293 31.72 41.9541 27.1563L36.3491 18.9752C25.1697 26.6345 22.316 41.9063 29.9753 53.0857L38.1563 47.4807ZM58.4807 51.2784C51.8196 55.8421 42.72 54.1418 38.1563 47.4807L29.9753 53.0857C37.6345 64.2651 52.9063 67.1188 64.0857 59.4595L58.4807 51.2784ZM56.3689 34.6201C58.6654 37.9721 57.8098 42.5512 54.4578 44.8477L60.0628 53.0288C67.9331 47.6367 69.942 36.8854 64.5499 29.0151L56.3689 34.6201ZM46.1413 32.709C49.4933 30.4125 54.0723 31.2681 56.3689 34.6201L64.5499 29.0151C59.1578 21.1448 48.4065 19.1359 40.5363 24.528L46.1413 32.709ZM44.2302 42.9366C41.9337 39.5846 42.7893 35.0056 46.1413 32.709L40.5363 24.528C32.666 29.9201 30.657 40.6714 36.0491 48.5416L44.2302 42.9366ZM54.4578 44.8477C51.1058 47.1442 46.5267 46.2886 44.2302 42.9366L36.0491 48.5416C41.4412 56.4119 52.1925 58.4209 60.0628 53.0288L54.4578 44.8477Z" fill="white" mask="url(#path-2-outside-1_747_6494)"/>
<rect x="49.7996" y="56.4034" width="19.4846" height="11.9058" rx="5.95289" transform="rotate(-34.4159 49.7996 56.4034)" fill="#D9D9D9" stroke="white" stroke-width="4.95849"/>
<circle cx="50.272" cy="39.2717" r="9.91698" fill="white"/>
<rect x="57.4171" y="58.9169" width="10.1844" height="25.3422" rx="4.98638" transform="rotate(-34.4159 57.4171 58.9169)" fill="#4A4444" stroke="#343131" stroke-width="1.18384"/>
<g filter="url(#filter1_f_747_6494)">
<path d="M60.2812 31.7386C64.2241 37.4936 62.7551 45.3553 57.0001 49.2982C51.2451 53.2411 43.3834 51.7721 39.4405 46.017C35.4976 40.262 36.9666 32.4003 42.7216 28.4574C48.4767 24.5146 56.3384 25.9836 60.2812 31.7386Z" fill="#E9FBFF" fill-opacity="0.45"/>
</g>
<mask id="path-8-inside-2_747_6494" fill="white">
<path fill-rule="evenodd" clip-rule="evenodd" d="M61.2832 55.5505C70.2035 49.439 72.4805 37.2534 66.369 28.3331C60.2575 19.4128 48.0719 17.1358 39.1516 23.2473C30.2313 29.3588 27.9543 41.5444 34.0658 50.4647C40.1773 59.385 52.3629 61.662 61.2832 55.5505ZM57.2603 49.1198C62.8714 45.2754 64.3037 37.6103 60.4594 31.9991C56.6151 26.388 48.9499 24.9557 43.3388 28.8C37.7276 32.6443 36.2953 40.3095 40.1397 45.9206C43.984 51.5318 51.6491 52.9641 57.2603 49.1198Z"/>
</mask>
<path fill-rule="evenodd" clip-rule="evenodd" d="M61.2832 55.5505C70.2035 49.439 72.4805 37.2534 66.369 28.3331C60.2575 19.4128 48.0719 17.1358 39.1516 23.2473C30.2313 29.3588 27.9543 41.5444 34.0658 50.4647C40.1773 59.385 52.3629 61.662 61.2832 55.5505ZM57.2603 49.1198C62.8714 45.2754 64.3037 37.6103 60.4594 31.9991C56.6151 26.388 48.9499 24.9557 43.3388 28.8C37.7276 32.6443 36.2953 40.3095 40.1397 45.9206C43.984 51.5318 51.6491 52.9641 57.2603 49.1198Z" fill="#EEEEEE"/>
<path d="M65.3924 29.0022C71.1343 37.3831 68.995 48.8319 60.6141 54.5739L61.9523 56.5271C71.4119 50.0461 73.8266 37.1236 67.3456 27.664L65.3924 29.0022ZM39.8207 24.2239C48.2016 18.482 59.6504 20.6213 65.3924 29.0022L67.3456 27.664C60.8646 18.2043 47.9421 15.7897 38.4825 22.2707L39.8207 24.2239ZM35.0424 49.7956C29.3005 41.4147 31.4398 29.9659 39.8207 24.2239L38.4825 22.2707C29.0228 28.7517 26.6082 41.6742 33.0892 51.1338L35.0424 49.7956ZM60.6141 54.5739C52.2332 60.3158 40.7844 58.1765 35.0424 49.7956L33.0892 51.1338C39.5702 60.5934 52.4927 63.0081 61.9523 56.5271L60.6141 54.5739ZM59.4828 32.6682C62.9576 37.74 61.6629 44.6684 56.5912 48.1431L57.9294 50.0964C64.0799 45.8825 65.6499 37.4805 61.436 31.33L59.4828 32.6682ZM44.0079 29.7766C49.0796 26.3019 56.008 27.5965 59.4828 32.6682L61.436 31.33C57.2222 25.1795 48.8202 23.6096 42.6697 27.8234L44.0079 29.7766ZM41.1163 45.2515C37.6415 40.1798 38.9361 33.2514 44.0079 29.7766L42.6697 27.8234C36.5192 32.0373 34.9492 40.4392 39.163 46.5897L41.1163 45.2515ZM56.5912 48.1431C51.5194 51.6179 44.5911 50.3233 41.1163 45.2515L39.163 46.5897C43.3769 52.7402 51.7789 54.3102 57.9294 50.0964L56.5912 48.1431Z" fill="#343131" mask="url(#path-8-inside-2_747_6494)"/>
<rect x="54.069" y="57.3826" width="13.3423" height="5.76344" rx="2.88172" transform="rotate(-34.4159 54.069 57.3826)" fill="#D9D9D9" stroke="#343131" stroke-width="1.18384"/>
</g>
<defs>
<filter id="filter0_dd_747_6494" x="16.4166" y="10.009" width="73.5311" height="84.0305" filterUnits="userSpaceOnUse" color-interpolation-filters="sRGB">
<feFlood flood-opacity="0" result="BackgroundImageFix"/>
<feColorMatrix in="SourceAlpha" type="matrix" values="0 0 0 0 0 0 0 0 0 0 0 0 0 0 0 0 0 0 127 0" result="hardAlpha"/>
<feOffset dx="0.765385" dy="0.765385"/>
<feGaussianBlur stdDeviation="1.03327"/>
<feComposite in2="hardAlpha" operator="out"/>
<feColorMatrix type="matrix" values="0 0 0 0 0 0 0 0 0 0 0 0 0 0 0 0 0 0 0.12 0"/>
<feBlend mode="normal" in2="BackgroundImageFix" result="effect1_dropShadow_747_6494"/>
<feColorMatrix in="SourceAlpha" type="matrix" values="0 0 0 0 0 0 0 0 0 0 0 0 0 0 0 0 0 0 127 0" result="hardAlpha"/>
<feOffset dx="-1.53077" dy="3.06154"/>
<feGaussianBlur stdDeviation="3.86519"/>
<feComposite in2="hardAlpha" operator="out"/>
<feColorMatrix type="matrix" values="0 0 0 0 0 0 0 0 0 0 0 0 0 0 0 0 0 0 0.12 0"/>
<feBlend mode="normal" in2="effect1_dropShadow_747_6494" result="effect2_dropShadow_747_6494"/>
<feBlend mode="normal" in="SourceGraphic" in2="effect2_dropShadow_747_6494" result="shape"/>
</filter>
<filter id="filter1_f_747_6494" x="34.7488" y="23.766" width="30.2241" height="30.2236" filterUnits="userSpaceOnUse" color-interpolation-filters="sRGB">
<feFlood flood-opacity="0" result="BackgroundImageFix"/>
<feBlend mode="normal" in="SourceGraphic" in2="BackgroundImageFix" result="shape"/>
<feGaussianBlur stdDeviation="1.23962" result="effect1_foregroundBlur_747_6494"/>
</filter>
</defs>
</svg>
