<svg width="83" height="111" viewBox="0 0 83 111" fill="none" xmlns="http://www.w3.org/2000/svg">
<path d="M6.09961 4.15039V17H5.05371V5.47754L1.57324 6.76953V5.77637L5.92383 4.15039H6.09961Z" fill="black"/>
<path d="M9.21973 40.0947V41H1.21289V40.1826L5.40527 35.4277C5.92676 34.8359 6.34277 34.3174 6.65332 33.8721C6.96387 33.4209 7.18652 33.0107 7.32129 32.6416C7.46191 32.2666 7.53223 31.9033 7.53223 31.5518C7.53223 31.0361 7.42969 30.582 7.22461 30.1895C7.02539 29.7969 6.72656 29.4893 6.32812 29.2666C5.92969 29.0439 5.4375 28.9326 4.85156 28.9326C4.26562 28.9326 3.75586 29.0586 3.32227 29.3105C2.88867 29.5625 2.55469 29.9141 2.32031 30.3652C2.0918 30.8105 1.97754 31.3174 1.97754 31.8857H0.931641C0.931641 31.1826 1.08691 30.5381 1.39746 29.9521C1.71387 29.3662 2.16504 28.9004 2.75098 28.5547C3.33691 28.2031 4.03711 28.0273 4.85156 28.0273C5.625 28.0273 6.29004 28.165 6.84668 28.4404C7.40332 28.71 7.83105 29.0996 8.12988 29.6094C8.43457 30.1191 8.58691 30.7344 8.58691 31.4551C8.58691 31.8418 8.5166 32.2314 8.37598 32.624C8.24121 33.0166 8.05371 33.4092 7.81348 33.8018C7.5791 34.1885 7.30957 34.5723 7.00488 34.9531C6.70605 35.334 6.39258 35.709 6.06445 36.0781L2.49609 40.0947H9.21973Z" fill="black"/>
<path d="M3.55078 58.0215H4.62305C5.2793 58.0215 5.82715 57.9102 6.2666 57.6875C6.71191 57.459 7.0459 57.1572 7.26855 56.7822C7.49707 56.4072 7.61133 55.9912 7.61133 55.5342C7.61133 55.0186 7.51465 54.5674 7.32129 54.1807C7.12793 53.7881 6.83203 53.4834 6.43359 53.2666C6.04102 53.0439 5.53711 52.9326 4.92188 52.9326C4.38281 52.9326 3.90234 53.0381 3.48047 53.249C3.05859 53.46 2.72461 53.7617 2.47852 54.1543C2.23242 54.5469 2.10938 55.0156 2.10938 55.5605H1.06348C1.06348 54.8633 1.23047 54.251 1.56445 53.7236C1.89844 53.1904 2.3584 52.7744 2.94434 52.4756C3.53027 52.1768 4.18945 52.0273 4.92188 52.0273C5.67773 52.0273 6.33398 52.165 6.89062 52.4404C7.45312 52.7158 7.88672 53.1172 8.19141 53.6445C8.50195 54.1719 8.65723 54.8135 8.65723 55.5693C8.65723 55.9561 8.57227 56.3369 8.40234 56.7119C8.23828 57.0869 7.99219 57.4268 7.66406 57.7314C7.33594 58.0303 6.92871 58.2705 6.44238 58.4521C5.95605 58.6338 5.39062 58.7246 4.74609 58.7246H3.55078V58.0215ZM3.55078 58.9268V58.2324H4.74609C5.47852 58.2324 6.10547 58.3174 6.62695 58.4873C7.14844 58.6514 7.57617 58.8857 7.91016 59.1904C8.25 59.4893 8.49902 59.8379 8.65723 60.2363C8.81543 60.6348 8.89453 61.0625 8.89453 61.5195C8.89453 62.1055 8.79785 62.624 8.60449 63.0752C8.41113 63.5264 8.13574 63.9102 7.77832 64.2266C7.42676 64.5371 7.01074 64.7744 6.53027 64.9385C6.05566 65.0967 5.53418 65.1758 4.96582 65.1758C4.4502 65.1758 3.94629 65.0996 3.4541 64.9473C2.96777 64.7949 2.52832 64.5693 2.13574 64.2705C1.74902 63.9658 1.44141 63.585 1.21289 63.1279C0.984375 62.665 0.870117 62.1318 0.870117 61.5283H1.91602C1.91602 62.0674 2.04492 62.5449 2.30273 62.9609C2.56055 63.3711 2.91797 63.6934 3.375 63.9277C3.83789 64.1562 4.36816 64.2705 4.96582 64.2705C5.56934 64.2705 6.08496 64.168 6.5127 63.9629C6.94629 63.752 7.27734 63.4443 7.50586 63.04C7.73438 62.6357 7.84863 62.1406 7.84863 61.5547C7.84863 60.9395 7.71094 60.4385 7.43555 60.0518C7.16602 59.665 6.78809 59.3809 6.30176 59.1992C5.82129 59.0176 5.26172 58.9268 4.62305 58.9268H3.55078Z" fill="black"/>
<path d="M82.6592 12.8691V13.7656H73.5977V13.1592L79.5127 4.20312H80.3916L79.1436 6.37402L74.8809 12.8691H82.6592ZM80.6641 4.20312V17H79.6182V4.20312H80.6641Z" fill="black"/>
<path d="M75.751 34.6719L74.9248 34.4346L75.5488 28.2031H81.9473V29.1875H76.4453L75.9971 33.4941C76.2197 33.3359 76.542 33.1807 76.9639 33.0283C77.3916 32.8701 77.8721 32.791 78.4053 32.791C78.9736 32.791 79.4893 32.8877 79.9521 33.0811C80.4209 33.2686 80.8223 33.5439 81.1562 33.9072C81.4902 34.2646 81.748 34.6982 81.9297 35.208C82.1113 35.7119 82.2021 36.2832 82.2021 36.9219C82.2021 37.5371 82.126 38.1025 81.9736 38.6182C81.8213 39.1338 81.5898 39.585 81.2793 39.9717C80.9688 40.3525 80.5732 40.6484 80.0928 40.8594C79.6123 41.0703 79.041 41.1758 78.3789 41.1758C77.8691 41.1758 77.3887 41.1055 76.9375 40.9648C76.4922 40.8184 76.0938 40.5986 75.7422 40.3057C75.3906 40.0127 75.1035 39.6436 74.8809 39.1982C74.6641 38.7529 74.5293 38.2314 74.4766 37.6338H75.4873C75.5576 38.208 75.7129 38.6914 75.9531 39.084C76.1934 39.4766 76.5156 39.7725 76.9199 39.9717C77.3301 40.1709 77.8164 40.2705 78.3789 40.2705C78.8359 40.2705 79.2344 40.1973 79.5742 40.0508C79.9199 39.9043 80.207 39.6904 80.4355 39.4092C80.6699 39.1221 80.8457 38.7734 80.9629 38.3633C81.0859 37.9473 81.1475 37.4727 81.1475 36.9395C81.1475 36.4824 81.083 36.0635 80.9541 35.6826C80.8252 35.2959 80.6348 34.959 80.3828 34.6719C80.1367 34.3789 79.832 34.1533 79.4688 33.9951C79.1055 33.8369 78.6895 33.7578 78.2207 33.7578C77.6113 33.7578 77.125 33.8398 76.7617 34.0039C76.4043 34.168 76.0674 34.3906 75.751 34.6719Z" fill="black"/>
<path d="M80.2598 52.1064H80.4092V53.0293H80.2598C79.4512 53.0293 78.7305 53.1611 78.0977 53.4248C77.4707 53.6885 76.9404 54.0693 76.5068 54.5674C76.0791 55.0596 75.7539 55.6572 75.5312 56.3604C75.3086 57.0635 75.1973 57.8516 75.1973 58.7246V60.4912C75.1973 61.083 75.2764 61.6133 75.4346 62.082C75.5928 62.5449 75.8125 62.9404 76.0938 63.2686C76.375 63.5967 76.7031 63.8457 77.0781 64.0156C77.4531 64.1855 77.8574 64.2705 78.291 64.2705C78.7188 64.2705 79.1025 64.1826 79.4424 64.0068C79.7822 63.8311 80.0693 63.585 80.3037 63.2686C80.5439 62.9521 80.7256 62.5889 80.8486 62.1787C80.9775 61.7627 81.042 61.3174 81.042 60.8428C81.042 60.3916 80.9834 59.9668 80.8662 59.5684C80.7549 59.1641 80.582 58.8066 80.3477 58.4961C80.1133 58.1855 79.8203 57.9424 79.4688 57.7666C79.1172 57.5908 78.7041 57.5029 78.2295 57.5029C77.6904 57.5029 77.1865 57.626 76.7178 57.8721C76.249 58.1182 75.8652 58.4463 75.5664 58.8564C75.2734 59.2666 75.1182 59.7148 75.1006 60.2012L74.4941 60.1924C74.5352 59.6416 74.6611 59.1465 74.8721 58.707C75.083 58.2617 75.3613 57.8838 75.707 57.5732C76.0586 57.2568 76.46 57.0166 76.9111 56.8525C77.3682 56.6826 77.8604 56.5977 78.3877 56.5977C79.0029 56.5977 79.5391 56.709 79.9961 56.9316C80.459 57.1543 80.8428 57.4619 81.1475 57.8545C81.458 58.2412 81.6895 58.6895 81.8418 59.1992C82 59.7031 82.0791 60.2363 82.0791 60.7988C82.0791 61.4141 81.9912 61.9883 81.8154 62.5215C81.6455 63.0488 81.3936 63.5117 81.0596 63.9102C80.7314 64.3086 80.333 64.6191 79.8643 64.8418C79.4014 65.0645 78.877 65.1758 78.291 65.1758C77.6465 65.1758 77.0693 65.0527 76.5596 64.8066C76.0498 64.5605 75.6133 64.2207 75.25 63.7871C74.8926 63.3535 74.6172 62.8555 74.4238 62.293C74.2363 61.7246 74.1426 61.1182 74.1426 60.4736V59.3486C74.1426 58.2588 74.2686 57.2715 74.5205 56.3867C74.7725 55.4961 75.1504 54.7314 75.6543 54.0928C76.1641 53.4541 76.7998 52.9648 77.5615 52.625C78.3291 52.2793 79.2285 52.1064 80.2598 52.1064Z" fill="black"/>
<circle cx="28" cy="10" r="7" fill="black"/>
<circle cx="28" cy="34" r="7" fill="black"/>
<circle cx="28" cy="58" r="7" fill="black"/>
<circle cx="55" cy="10" r="7" fill="black"/>
<circle cx="55" cy="34" r="7" fill="black"/>
<circle cx="55" cy="58" r="7" fill="black"/>
<path d="M7.25977 94.1064H7.40918V95.0293H7.25977C6.45117 95.0293 5.73047 95.1611 5.09766 95.4248C4.4707 95.6885 3.94043 96.0693 3.50684 96.5674C3.0791 97.0596 2.75391 97.6572 2.53125 98.3604C2.30859 99.0635 2.19727 99.8516 2.19727 100.725V102.491C2.19727 103.083 2.27637 103.613 2.43457 104.082C2.59277 104.545 2.8125 104.94 3.09375 105.269C3.375 105.597 3.70312 105.846 4.07812 106.016C4.45312 106.186 4.85742 106.271 5.29102 106.271C5.71875 106.271 6.10254 106.183 6.44238 106.007C6.78223 105.831 7.06934 105.585 7.30371 105.269C7.54395 104.952 7.72559 104.589 7.84863 104.179C7.97754 103.763 8.04199 103.317 8.04199 102.843C8.04199 102.392 7.9834 101.967 7.86621 101.568C7.75488 101.164 7.58203 100.807 7.34766 100.496C7.11328 100.186 6.82031 99.9424 6.46875 99.7666C6.11719 99.5908 5.7041 99.5029 5.22949 99.5029C4.69043 99.5029 4.18652 99.626 3.71777 99.8721C3.24902 100.118 2.86523 100.446 2.56641 100.856C2.27344 101.267 2.11816 101.715 2.10059 102.201L1.49414 102.192C1.53516 101.642 1.66113 101.146 1.87207 100.707C2.08301 100.262 2.36133 99.8838 2.70703 99.5732C3.05859 99.2568 3.45996 99.0166 3.91113 98.8525C4.36816 98.6826 4.86035 98.5977 5.3877 98.5977C6.00293 98.5977 6.53906 98.709 6.99609 98.9316C7.45898 99.1543 7.84277 99.4619 8.14746 99.8545C8.45801 100.241 8.68945 100.689 8.8418 101.199C9 101.703 9.0791 102.236 9.0791 102.799C9.0791 103.414 8.99121 103.988 8.81543 104.521C8.64551 105.049 8.39355 105.512 8.05957 105.91C7.73145 106.309 7.33301 106.619 6.86426 106.842C6.40137 107.064 5.87695 107.176 5.29102 107.176C4.64648 107.176 4.06934 107.053 3.55957 106.807C3.0498 106.561 2.61328 106.221 2.25 105.787C1.89258 105.354 1.61719 104.855 1.42383 104.293C1.23633 103.725 1.14258 103.118 1.14258 102.474V101.349C1.14258 100.259 1.26855 99.2715 1.52051 98.3867C1.77246 97.4961 2.15039 96.7314 2.6543 96.0928C3.16406 95.4541 3.7998 94.9648 4.56152 94.625C5.3291 94.2793 6.22852 94.1064 7.25977 94.1064ZM19.6436 102.869V103.766H10.582V103.159L16.4971 94.2031H17.376L16.1279 96.374L11.8652 102.869H19.6436ZM17.6484 94.2031V107H16.6025V94.2031H17.6484ZM33.2314 103.854C33.2314 103.502 33.1729 103.188 33.0557 102.913C32.9385 102.638 32.7451 102.392 32.4756 102.175C32.2119 101.952 31.8545 101.747 31.4033 101.56C30.958 101.366 30.4014 101.176 29.7334 100.988C29.0947 100.807 28.5176 100.607 28.002 100.391C27.4863 100.174 27.0439 99.9248 26.6748 99.6436C26.3115 99.3623 26.0332 99.0342 25.8398 98.6592C25.6465 98.2783 25.5498 97.8359 25.5498 97.332C25.5498 96.8398 25.6553 96.3916 25.8662 95.9873C26.0771 95.583 26.373 95.2344 26.7539 94.9414C27.1406 94.6484 27.5947 94.4229 28.1162 94.2646C28.6436 94.1064 29.2207 94.0273 29.8477 94.0273C30.7441 94.0273 31.5176 94.1973 32.168 94.5371C32.8242 94.877 33.3311 95.3369 33.6885 95.917C34.0518 96.4912 34.2334 97.1357 34.2334 97.8506H33.1523C33.1523 97.2939 33.0205 96.7988 32.7568 96.3652C32.499 95.9258 32.124 95.583 31.6318 95.3369C31.1455 95.085 30.5508 94.959 29.8477 94.959C29.1445 94.959 28.5527 95.0674 28.0723 95.2842C27.5977 95.4951 27.2373 95.7793 26.9912 96.1367C26.751 96.4883 26.6309 96.8809 26.6309 97.3145C26.6309 97.6191 26.6895 97.9004 26.8066 98.1582C26.9238 98.4102 27.1143 98.6475 27.3779 98.8701C27.6475 99.0869 28.002 99.292 28.4414 99.4854C28.8809 99.6729 29.4229 99.8516 30.0674 100.021C30.7471 100.209 31.3506 100.417 31.8779 100.646C32.4053 100.874 32.8506 101.138 33.2139 101.437C33.5771 101.729 33.8525 102.072 34.04 102.465C34.2275 102.857 34.3213 103.314 34.3213 103.836C34.3213 104.357 34.21 104.826 33.9873 105.242C33.7705 105.652 33.4629 106.001 33.0645 106.288C32.6719 106.575 32.2061 106.795 31.667 106.947C31.1338 107.1 30.5508 107.176 29.918 107.176C29.3496 107.176 28.7842 107.103 28.2217 106.956C27.6592 106.81 27.1436 106.584 26.6748 106.279C26.2119 105.969 25.8398 105.57 25.5586 105.084C25.2832 104.598 25.1455 104.018 25.1455 103.344H26.2178C26.2178 103.883 26.3262 104.337 26.543 104.706C26.7598 105.075 27.0469 105.374 27.4043 105.603C27.7676 105.831 28.166 105.998 28.5996 106.104C29.0391 106.203 29.4785 106.253 29.918 106.253C30.5918 106.253 31.1748 106.153 31.667 105.954C32.165 105.755 32.5488 105.477 32.8184 105.119C33.0938 104.756 33.2314 104.334 33.2314 103.854ZM37.582 97.4902V107H36.5361V97.4902H37.582ZM36.3516 94.7393C36.3516 94.54 36.4131 94.373 36.5361 94.2383C36.665 94.0977 36.8408 94.0273 37.0635 94.0273C37.2861 94.0273 37.4619 94.0977 37.5908 94.2383C37.7256 94.373 37.793 94.54 37.793 94.7393C37.793 94.9326 37.7256 95.0996 37.5908 95.2402C37.4619 95.375 37.2861 95.4424 37.0635 95.4424C36.8408 95.4424 36.665 95.375 36.5361 95.2402C36.4131 95.0996 36.3516 94.9326 36.3516 94.7393ZM46.7139 97.4902H47.6895V106.833C47.6895 107.659 47.5312 108.368 47.2148 108.96C46.9043 109.552 46.4619 110.006 45.8877 110.322C45.3193 110.639 44.6484 110.797 43.875 110.797C43.4824 110.797 43.0781 110.735 42.6621 110.612C42.252 110.495 41.8623 110.313 41.4932 110.067C41.1299 109.827 40.8193 109.528 40.5615 109.171L41.1504 108.529C41.5371 108.998 41.9502 109.341 42.3896 109.558C42.8291 109.78 43.3037 109.892 43.8135 109.892C44.417 109.892 44.9268 109.771 45.3428 109.531C45.7646 109.291 46.084 108.945 46.3008 108.494C46.5234 108.043 46.6348 107.501 46.6348 106.868V99.582L46.7139 97.4902ZM40.0342 102.342V102.157C40.0342 101.419 40.1162 100.754 40.2803 100.162C40.4502 99.5645 40.6934 99.0547 41.0098 98.6328C41.3262 98.2051 41.71 97.8799 42.1611 97.6572C42.6182 97.4287 43.1338 97.3145 43.708 97.3145C44.2588 97.3145 44.748 97.4053 45.1758 97.5869C45.6035 97.7686 45.9727 98.0293 46.2832 98.3691C46.5938 98.709 46.8428 99.1133 47.0303 99.582C47.2236 100.051 47.3643 100.572 47.4521 101.146V103.493C47.3818 104.032 47.2529 104.527 47.0654 104.979C46.8779 105.424 46.6289 105.813 46.3184 106.147C46.0078 106.476 45.6328 106.73 45.1934 106.912C44.7598 107.088 44.2588 107.176 43.6904 107.176C43.1221 107.176 42.6123 107.059 42.1611 106.824C41.71 106.59 41.3262 106.259 41.0098 105.831C40.6934 105.397 40.4502 104.885 40.2803 104.293C40.1162 103.701 40.0342 103.051 40.0342 102.342ZM41.0889 102.157V102.342C41.0889 102.898 41.1445 103.414 41.2559 103.889C41.3672 104.363 41.5371 104.776 41.7656 105.128C41.9941 105.479 42.2842 105.755 42.6357 105.954C42.9873 106.153 43.4004 106.253 43.875 106.253C44.4785 106.253 44.9854 106.139 45.3955 105.91C45.8057 105.676 46.1309 105.368 46.3711 104.987C46.6113 104.601 46.7871 104.179 46.8984 103.722V100.988C46.834 100.678 46.7344 100.361 46.5996 100.039C46.4707 99.7168 46.2891 99.4209 46.0547 99.1514C45.8262 98.876 45.5332 98.6562 45.1758 98.4922C44.8242 98.3223 44.3965 98.2373 43.8926 98.2373C43.4121 98.2373 42.9932 98.3369 42.6357 98.5361C42.2842 98.7354 41.9941 99.0137 41.7656 99.3711C41.5371 99.7227 41.3672 100.136 41.2559 100.61C41.1445 101.085 41.0889 101.601 41.0889 102.157ZM51.4863 99.5205V107H50.4404V97.4902H51.4424L51.4863 99.5205ZM51.249 101.656L50.7832 101.393C50.8184 100.83 50.9326 100.303 51.126 99.8105C51.3193 99.3184 51.5801 98.8848 51.9082 98.5098C52.2422 98.1348 52.6318 97.8418 53.0771 97.6309C53.5283 97.4199 54.0264 97.3145 54.5713 97.3145C55.0459 97.3145 55.4707 97.3789 55.8457 97.5078C56.2207 97.6367 56.54 97.8418 56.8037 98.123C57.0674 98.4043 57.2666 98.7646 57.4014 99.2041C57.542 99.6436 57.6123 100.18 57.6123 100.812V107H56.5576V100.804C56.5576 100.147 56.4668 99.6348 56.2852 99.2656C56.1035 98.8906 55.8457 98.624 55.5117 98.4658C55.1777 98.3076 54.7822 98.2285 54.3252 98.2285C53.8213 98.2285 53.3789 98.3398 52.998 98.5625C52.623 98.7793 52.3066 99.0635 52.0488 99.415C51.7969 99.7607 51.6035 100.133 51.4688 100.531C51.334 100.924 51.2607 101.299 51.249 101.656ZM66.0322 104.574C66.0322 104.316 65.9678 104.062 65.8389 103.81C65.71 103.558 65.4609 103.326 65.0918 103.115C64.7285 102.904 64.1924 102.726 63.4834 102.579C62.9561 102.462 62.4844 102.33 62.0684 102.184C61.6582 102.037 61.3125 101.861 61.0312 101.656C60.75 101.451 60.5361 101.205 60.3896 100.918C60.2432 100.631 60.1699 100.291 60.1699 99.8984C60.1699 99.5469 60.2461 99.2158 60.3984 98.9053C60.5566 98.5889 60.7793 98.3135 61.0664 98.0791C61.3594 97.8389 61.7109 97.6514 62.1211 97.5166C62.5371 97.3818 63.0029 97.3145 63.5186 97.3145C64.251 97.3145 64.8779 97.4404 65.3994 97.6924C65.9268 97.9385 66.3281 98.2754 66.6035 98.7031C66.8848 99.1309 67.0254 99.6143 67.0254 100.153H65.9795C65.9795 99.8252 65.8828 99.5146 65.6895 99.2217C65.502 98.9287 65.2236 98.6885 64.8545 98.501C64.4912 98.3135 64.0459 98.2197 63.5186 98.2197C62.9736 98.2197 62.5312 98.3018 62.1914 98.4658C61.8516 98.6299 61.6025 98.8379 61.4443 99.0898C61.292 99.3418 61.2158 99.6025 61.2158 99.8721C61.2158 100.083 61.248 100.276 61.3125 100.452C61.3828 100.622 61.5059 100.78 61.6816 100.927C61.8633 101.073 62.1211 101.211 62.4551 101.34C62.7891 101.469 63.2227 101.595 63.7559 101.718C64.5234 101.888 65.1504 102.096 65.6367 102.342C66.1289 102.582 66.4922 102.881 66.7266 103.238C66.9609 103.59 67.0781 104.018 67.0781 104.521C67.0781 104.914 66.9961 105.274 66.832 105.603C66.668 105.925 66.4307 106.203 66.1201 106.438C65.8154 106.672 65.4463 106.854 65.0127 106.982C64.585 107.111 64.1045 107.176 63.5713 107.176C62.7686 107.176 62.0889 107.044 61.5322 106.78C60.9814 106.511 60.5625 106.159 60.2754 105.726C59.9941 105.286 59.8535 104.82 59.8535 104.328H60.8994C60.9346 104.82 61.0898 105.21 61.3652 105.497C61.6406 105.778 61.9775 105.978 62.376 106.095C62.7803 106.212 63.1787 106.271 63.5713 106.271C64.1104 106.271 64.5615 106.191 64.9248 106.033C65.2881 105.875 65.5635 105.667 65.751 105.409C65.9385 105.151 66.0322 104.873 66.0322 104.574Z" fill="black"/>
<line y1="84.5" x2="83" y2="84.5" stroke="black"/>
</svg>
