<svg width="1185" height="271" viewBox="0 0 1185 271" fill="none" xmlns="http://www.w3.org/2000/svg">
<line x1="1.5301" y1="241.574" x2="423.53" y2="198.574" stroke="#EC748E" stroke-width="29.0004"/>
<path d="M563.166 67C562.782 67 562.446 66.8561 562.159 66.5683C561.871 66.2804 561.727 65.9447 561.727 65.5609C561.727 65.321 561.775 65.0572 561.871 64.7694L580.076 18.0703C580.267 17.5906 580.507 17.2308 580.795 16.9909C581.131 16.7511 581.587 16.6312 582.162 16.6312H584.609C585.184 16.6312 585.616 16.7511 585.904 16.9909C586.24 17.2308 586.504 17.5906 586.695 18.0703L604.9 64.7694C604.996 65.0572 605.044 65.321 605.044 65.5609C605.044 65.9447 604.9 66.2804 604.612 66.5683C604.325 66.8561 603.989 67 603.605 67H602.166C601.686 67 601.326 66.8801 601.087 66.6402C600.847 66.3524 600.679 66.1125 600.583 65.9207L596.122 54.4078H570.649L566.188 65.9207C566.14 66.1125 565.972 66.3524 565.684 66.6402C565.445 66.8801 565.085 67 564.605 67H563.166ZM572.376 50.0905H594.395L583.386 21.74L572.376 50.0905ZM626.165 82.8302C623.095 82.8302 620.577 82.4225 618.61 81.607C616.691 80.7915 615.18 79.7841 614.077 78.5848C613.021 77.4335 612.278 76.2583 611.846 75.059C611.414 73.9077 611.175 72.9723 611.127 72.2527C611.079 71.773 611.223 71.3653 611.558 71.0295C611.894 70.7417 612.278 70.5978 612.71 70.5978H613.717C614.101 70.5978 614.437 70.6697 614.724 70.8136C615.012 71.0055 615.252 71.4373 615.444 72.1088C615.732 72.8764 616.187 73.7638 616.811 74.7712C617.483 75.8265 618.514 76.738 619.905 77.5055C621.344 78.273 623.311 78.6568 625.806 78.6568C628.444 78.6568 630.651 78.321 632.425 77.6494C634.2 76.9778 635.543 75.7786 636.455 74.0516C637.414 72.3727 637.894 70.0221 637.894 67V62.0351C636.695 63.6661 635.112 65.0332 633.145 66.1365C631.226 67.1919 628.78 67.7196 625.806 67.7196C623.023 67.7196 620.649 67.2159 618.682 66.2085C616.763 65.2011 615.204 63.8579 614.005 62.179C612.806 60.5 611.918 58.6292 611.342 56.5665C610.767 54.5037 610.455 52.417 610.407 50.3063C610.359 48.9632 610.359 47.62 610.407 46.2768C610.455 44.1661 610.767 42.0794 611.342 40.0167C611.918 37.954 612.806 36.0831 614.005 34.4042C615.204 32.7252 616.763 31.382 618.682 30.3747C620.649 29.3673 623.023 28.8636 625.806 28.8636C628.78 28.8636 631.226 29.4153 633.145 30.5186C635.112 31.6219 636.695 32.9651 637.894 34.5481V31.2381C637.894 30.7584 638.038 30.3747 638.326 30.0868C638.614 29.7511 638.997 29.5832 639.477 29.5832H640.628C641.108 29.5832 641.492 29.7511 641.78 30.0868C642.115 30.3747 642.283 30.7584 642.283 31.2381V66.2804C642.283 69.3505 641.828 72.1328 640.916 74.6273C640.005 77.1217 638.374 79.1125 636.023 80.5996C633.721 82.0867 630.435 82.8302 626.165 82.8302ZM626.237 63.5461C628.972 63.5461 631.178 62.8985 632.857 61.6033C634.536 60.3081 635.759 58.7011 636.527 56.7823C637.342 54.8155 637.798 52.8488 637.894 50.882C637.942 50.1624 637.966 49.299 637.966 48.2916C637.966 47.2842 637.942 46.4207 637.894 45.7012C637.798 43.7344 637.342 41.7916 636.527 39.8728C635.759 37.906 634.536 36.275 632.857 34.9798C631.178 33.6846 628.972 33.037 626.237 33.037C623.455 33.037 621.224 33.6606 619.545 34.9079C617.914 36.1551 616.739 37.7861 616.02 39.8008C615.3 41.8156 614.892 43.9742 614.796 46.2768C614.748 47.62 614.748 48.9632 614.796 50.3063C614.892 52.6089 615.3 54.7676 616.02 56.7823C616.739 58.7971 617.914 60.4281 619.545 61.6753C621.224 62.9225 623.455 63.5461 626.237 63.5461ZM667.903 67.7196C663.25 67.7196 659.557 66.2085 656.822 63.1864C654.088 60.1163 652.529 56.1107 652.145 51.1698C652.097 50.4502 652.073 49.4908 652.073 48.2916C652.073 47.0923 652.097 46.1329 652.145 45.4134C652.385 42.1514 653.153 39.2732 654.448 36.7787C655.743 34.2842 657.518 32.3414 659.772 30.9503C662.075 29.5592 664.785 28.8636 667.903 28.8636C671.261 28.8636 674.116 29.6071 676.466 31.0942C678.817 32.5813 680.616 34.716 681.863 37.4983C683.158 40.2805 683.806 43.5905 683.806 47.4281V48.5074C683.806 48.9871 683.638 49.3709 683.302 49.6587C683.014 49.9466 682.63 50.0905 682.151 50.0905H656.534C656.534 50.0905 656.534 50.1864 656.534 50.3783C656.534 50.5702 656.534 50.7141 656.534 50.81C656.63 52.9687 657.134 55.0314 658.046 56.9982C658.957 58.917 660.252 60.5 661.931 61.7473C663.61 62.9465 665.601 63.5461 667.903 63.5461C669.966 63.5461 671.669 63.2343 673.012 62.6107C674.403 61.9871 675.507 61.3155 676.322 60.596C677.138 59.8284 677.665 59.2528 677.905 58.869C678.337 58.2454 678.673 57.8856 678.913 57.7897C679.152 57.6458 679.536 57.5738 680.064 57.5738H681.215C681.647 57.5738 682.007 57.7177 682.295 58.0056C682.63 58.2454 682.774 58.5812 682.726 59.0129C682.678 59.6845 682.295 60.524 681.575 61.5314C680.903 62.4908 679.92 63.4502 678.625 64.4096C677.378 65.369 675.842 66.1605 674.02 66.7841C672.197 67.4077 670.158 67.7196 667.903 67.7196ZM656.534 46.061H679.416V45.7731C679.416 43.3746 678.961 41.216 678.049 39.2971C677.138 37.3783 675.819 35.8673 674.092 34.7639C672.365 33.6127 670.302 33.037 667.903 33.037C665.505 33.037 663.442 33.6127 661.715 34.7639C660.036 35.8673 658.741 37.3783 657.83 39.2971C656.966 41.216 656.534 43.3746 656.534 45.7731V46.061ZM694.879 67C694.4 67 694.016 66.8561 693.728 66.5683C693.44 66.2804 693.296 65.8967 693.296 65.417V31.1662C693.296 30.6865 693.44 30.3027 693.728 30.0149C694.016 29.7271 694.4 29.5832 694.879 29.5832H696.103C696.582 29.5832 696.966 29.7271 697.254 30.0149C697.542 30.3027 697.686 30.6865 697.686 31.1662V65.417C697.686 65.8967 697.542 66.2804 697.254 66.5683C696.966 66.8561 696.582 67 696.103 67H694.879ZM694.088 21.8839C693.608 21.8839 693.224 21.74 692.937 21.4522C692.649 21.1644 692.505 20.7806 692.505 20.3009V17.5666C692.505 17.0869 692.649 16.7031 692.937 16.4153C693.224 16.0795 693.608 15.9116 694.088 15.9116H696.822C697.302 15.9116 697.686 16.0795 697.973 16.4153C698.309 16.7031 698.477 17.0869 698.477 17.5666V20.3009C698.477 20.7806 698.309 21.1644 697.973 21.4522C697.686 21.74 697.302 21.8839 696.822 21.8839H694.088ZM710.901 67C710.421 67 710.037 66.8561 709.749 66.5683C709.462 66.2804 709.318 65.8967 709.318 65.417V31.1662C709.318 30.6865 709.462 30.3027 709.749 30.0149C710.037 29.7271 710.421 29.5832 710.901 29.5832H712.124C712.604 29.5832 712.987 29.7271 713.275 30.0149C713.563 30.3027 713.707 30.6865 713.707 31.1662V34.5481C715.002 32.8691 716.561 31.502 718.384 30.4466C720.255 29.3913 722.725 28.8636 725.796 28.8636C729.057 28.8636 731.768 29.5832 733.926 31.0223C736.133 32.4134 737.764 34.3322 738.819 36.7787C739.923 39.1772 740.474 41.9115 740.474 44.9816V65.417C740.474 65.8967 740.331 66.2804 740.043 66.5683C739.755 66.8561 739.371 67 738.891 67H737.668C737.188 67 736.805 66.8561 736.517 66.5683C736.229 66.2804 736.085 65.8967 736.085 65.417V45.3414C736.085 41.5038 735.15 38.5056 733.279 36.347C731.408 34.1403 728.674 33.037 725.076 33.037C721.67 33.037 718.912 34.1403 716.801 36.347C714.738 38.5056 713.707 41.5038 713.707 45.3414V65.417C713.707 65.8967 713.563 66.2804 713.275 66.5683C712.987 66.8561 712.604 67 712.124 67H710.901ZM765.72 82.8302C762.649 82.8302 760.131 82.4225 758.164 81.607C756.245 80.7915 754.734 79.7841 753.631 78.5848C752.576 77.4335 751.832 76.2583 751.4 75.059C750.969 73.9077 750.729 72.9723 750.681 72.2527C750.633 71.773 750.777 71.3653 751.113 71.0295C751.448 70.7417 751.832 70.5978 752.264 70.5978H753.271C753.655 70.5978 753.991 70.6697 754.279 70.8136C754.566 71.0055 754.806 71.4373 754.998 72.1088C755.286 72.8764 755.742 73.7638 756.365 74.7712C757.037 75.8265 758.068 76.738 759.459 77.5055C760.899 78.273 762.865 78.6568 765.36 78.6568C767.998 78.6568 770.205 78.321 771.98 77.6494C773.755 76.9778 775.098 75.7786 776.009 74.0516C776.969 72.3727 777.448 70.0221 777.448 67V62.0351C776.249 63.6661 774.666 65.0332 772.699 66.1365C770.78 67.1919 768.334 67.7196 765.36 67.7196C762.578 67.7196 760.203 67.2159 758.236 66.2085C756.317 65.2011 754.758 63.8579 753.559 62.179C752.36 60.5 751.472 58.6292 750.897 56.5665C750.321 54.5037 750.009 52.417 749.961 50.3063C749.913 48.9632 749.913 47.62 749.961 46.2768C750.009 44.1661 750.321 42.0794 750.897 40.0167C751.472 37.954 752.36 36.0831 753.559 34.4042C754.758 32.7252 756.317 31.382 758.236 30.3747C760.203 29.3673 762.578 28.8636 765.36 28.8636C768.334 28.8636 770.78 29.4153 772.699 30.5186C774.666 31.6219 776.249 32.9651 777.448 34.5481V31.2381C777.448 30.7584 777.592 30.3747 777.88 30.0868C778.168 29.7511 778.552 29.5832 779.031 29.5832H780.183C780.662 29.5832 781.046 29.7511 781.334 30.0868C781.67 30.3747 781.838 30.7584 781.838 31.2381V66.2804C781.838 69.3505 781.382 72.1328 780.47 74.6273C779.559 77.1217 777.928 79.1125 775.577 80.5996C773.275 82.0867 769.989 82.8302 765.72 82.8302ZM765.792 63.5461C768.526 63.5461 770.732 62.8985 772.411 61.6033C774.09 60.3081 775.314 58.7011 776.081 56.7823C776.897 54.8155 777.352 52.8488 777.448 50.882C777.496 50.1624 777.52 49.299 777.52 48.2916C777.52 47.2842 777.496 46.4207 777.448 45.7012C777.352 43.7344 776.897 41.7916 776.081 39.8728C775.314 37.906 774.09 36.275 772.411 34.9798C770.732 33.6846 768.526 33.037 765.792 33.037C763.009 33.037 760.779 33.6606 759.1 34.9079C757.469 36.1551 756.293 37.7861 755.574 39.8008C754.854 41.8156 754.447 43.9742 754.351 46.2768C754.303 47.62 754.303 48.9632 754.351 50.3063C754.447 52.6089 754.854 54.7676 755.574 56.7823C756.293 58.7971 757.469 60.4281 759.1 61.6753C760.779 62.9225 763.009 63.5461 765.792 63.5461ZM820.358 67C819.782 67 819.327 66.8801 818.991 66.6402C818.703 66.3524 818.487 65.8967 818.343 65.2731L808.485 18.9337C808.437 18.7419 808.389 18.574 808.341 18.4301C808.341 18.2382 808.341 18.1183 808.341 18.0703C808.341 17.6865 808.485 17.3507 808.773 17.0629C809.061 16.7751 809.397 16.6312 809.78 16.6312H811.292C812.203 16.6312 812.731 16.9909 812.875 17.7105L821.293 58.7251L830.216 29.4392C830.36 29.0075 830.6 28.6237 830.935 28.288C831.319 27.9522 831.823 27.7843 832.446 27.7843H834.029C834.701 27.7843 835.205 27.9522 835.541 28.288C835.876 28.6237 836.116 29.0075 836.26 29.4392L845.183 58.7251L853.601 17.7105C853.745 16.9909 854.273 16.6312 855.184 16.6312H856.695C857.079 16.6312 857.415 16.7751 857.703 17.0629C857.991 17.3507 858.135 17.6865 858.135 18.0703C858.135 18.1183 858.111 18.2382 858.063 18.4301C858.063 18.574 858.039 18.7419 857.991 18.9337L848.133 65.2731C847.989 65.8967 847.749 66.3524 847.413 66.6402C847.125 66.8801 846.694 67 846.118 67H845.039C844.463 67 843.983 66.8561 843.6 66.5683C843.264 66.2804 843 65.8487 842.808 65.2731L833.238 34.9079L823.668 65.2731C823.476 65.8487 823.188 66.2804 822.804 66.5683C822.469 66.8561 822.013 67 821.437 67H820.358ZM879.694 67.7196C875.041 67.7196 871.347 66.2085 868.613 63.1864C865.879 60.1163 864.32 56.1107 863.936 51.1698C863.888 50.4502 863.864 49.4908 863.864 48.2916C863.864 47.0923 863.888 46.1329 863.936 45.4134C864.176 42.1514 864.943 39.2732 866.239 36.7787C867.534 34.2842 869.309 32.3414 871.563 30.9503C873.866 29.5592 876.576 28.8636 879.694 28.8636C883.052 28.8636 885.906 29.6071 888.257 31.0942C890.607 32.5813 892.406 34.716 893.654 37.4983C894.949 40.2805 895.596 43.5905 895.596 47.4281V48.5074C895.596 48.9871 895.428 49.3709 895.093 49.6587C894.805 49.9466 894.421 50.0905 893.941 50.0905H868.325C868.325 50.0905 868.325 50.1864 868.325 50.3783C868.325 50.5702 868.325 50.7141 868.325 50.81C868.421 52.9687 868.925 55.0314 869.836 56.9982C870.748 58.917 872.043 60.5 873.722 61.7473C875.401 62.9465 877.392 63.5461 879.694 63.5461C881.757 63.5461 883.46 63.2343 884.803 62.6107C886.194 61.9871 887.297 61.3155 888.113 60.596C888.928 59.8284 889.456 59.2528 889.696 58.869C890.128 58.2454 890.464 57.8856 890.703 57.7897C890.943 57.6458 891.327 57.5738 891.855 57.5738H893.006C893.438 57.5738 893.797 57.7177 894.085 58.0056C894.421 58.2454 894.565 58.5812 894.517 59.0129C894.469 59.6845 894.085 60.524 893.366 61.5314C892.694 62.4908 891.711 63.4502 890.416 64.4096C889.168 65.369 887.633 66.1605 885.81 66.7841C883.988 67.4077 881.949 67.7196 879.694 67.7196ZM868.325 46.061H891.207V45.7731C891.207 43.3746 890.751 41.216 889.84 39.2971C888.928 37.3783 887.609 35.8673 885.882 34.7639C884.155 33.6127 882.093 33.037 879.694 33.037C877.296 33.037 875.233 33.6127 873.506 34.7639C871.827 35.8673 870.532 37.3783 869.62 39.2971C868.757 41.216 868.325 43.3746 868.325 45.7731V46.061ZM906.742 67C906.262 67 905.879 66.8561 905.591 66.5683C905.303 66.2804 905.159 65.8967 905.159 65.417V17.4946C905.159 17.0149 905.303 16.6312 905.591 16.3433C905.879 16.0555 906.262 15.9116 906.742 15.9116H907.965C908.445 15.9116 908.829 16.0555 909.117 16.3433C909.405 16.6312 909.548 17.0149 909.548 17.4946V65.417C909.548 65.8967 909.405 66.2804 909.117 66.5683C908.829 66.8561 908.445 67 907.965 67H906.742ZM922.904 67C922.424 67 922.041 66.8561 921.753 66.5683C921.465 66.2804 921.321 65.8967 921.321 65.417V17.4946C921.321 17.0149 921.465 16.6312 921.753 16.3433C922.041 16.0555 922.424 15.9116 922.904 15.9116H924.127C924.607 15.9116 924.991 16.0555 925.279 16.3433C925.566 16.6312 925.71 17.0149 925.71 17.4946V65.417C925.71 65.8967 925.566 66.2804 925.279 66.5683C924.991 66.8561 924.607 67 924.127 67H922.904ZM972.512 67.7196C969.538 67.7196 967.067 67.1919 965.1 66.1365C963.181 65.0332 961.622 63.6661 960.423 62.0351V65.417C960.423 65.8967 960.279 66.2804 959.991 66.5683C959.704 66.8561 959.32 67 958.84 67H957.617C957.137 67 956.753 66.8561 956.466 66.5683C956.178 66.2804 956.034 65.8967 956.034 65.417V17.4946C956.034 17.0149 956.178 16.6312 956.466 16.3433C956.753 16.0555 957.137 15.9116 957.617 15.9116H958.84C959.32 15.9116 959.704 16.0555 959.991 16.3433C960.279 16.6312 960.423 17.0149 960.423 17.4946V34.5481C961.622 32.9651 963.181 31.6219 965.1 30.5186C967.067 29.4153 969.538 28.8636 972.512 28.8636C975.342 28.8636 977.716 29.3673 979.635 30.3747C981.554 31.382 983.113 32.7252 984.312 34.4042C985.512 36.0831 986.399 37.954 986.975 40.0167C987.55 42.0794 987.862 44.1661 987.91 46.2768C987.958 46.9964 987.982 47.668 987.982 48.2916C987.982 48.9152 987.958 49.5868 987.91 50.3063C987.862 52.417 987.55 54.5037 986.975 56.5665C986.399 58.6292 985.512 60.5 984.312 62.179C983.113 63.8579 981.554 65.2011 979.635 66.2085C977.716 67.2159 975.342 67.7196 972.512 67.7196ZM972.08 63.5461C974.91 63.5461 977.141 62.9225 978.772 61.6753C980.403 60.4281 981.578 58.7971 982.298 56.7823C983.017 54.7676 983.425 52.6089 983.521 50.3063C983.569 48.9632 983.569 47.62 983.521 46.2768C983.425 43.9742 983.017 41.8156 982.298 39.8008C981.578 37.7861 980.403 36.1551 978.772 34.9079C977.141 33.6606 974.91 33.037 972.08 33.037C969.442 33.037 967.259 33.6606 965.532 34.9079C963.853 36.1551 962.582 37.7141 961.718 39.585C960.903 41.4558 960.471 43.3506 960.423 45.2694C960.375 45.989 960.351 46.9244 960.351 48.0757C960.351 49.227 960.375 50.1624 960.423 50.882C960.519 52.8488 960.951 54.8155 961.718 56.7823C962.534 58.7011 963.781 60.3081 965.46 61.6033C967.139 62.8985 969.346 63.5461 972.08 63.5461ZM1002.7 80.6715C1002.31 80.6715 1001.98 80.5276 1001.69 80.2398C1001.4 79.952 1001.26 79.6162 1001.26 79.2324C1001.26 79.0405 1001.28 78.8247 1001.33 78.5848C1001.43 78.3929 1001.55 78.1291 1001.69 77.7933L1007.23 64.8413L993.488 32.4614C993.201 31.7418 993.057 31.2621 993.057 31.0223C993.057 30.6385 993.201 30.3027 993.488 30.0149C993.776 29.7271 994.112 29.5832 994.496 29.5832H996.007C996.487 29.5832 996.846 29.7031 997.086 29.9429C997.374 30.1348 997.566 30.3747 997.662 30.6625L1009.75 59.1569L1022.13 30.6625C1022.27 30.3747 1022.46 30.1348 1022.7 29.9429C1022.94 29.7031 1023.3 29.5832 1023.78 29.5832H1025.22C1025.6 29.5832 1025.94 29.7271 1026.23 30.0149C1026.52 30.3027 1026.66 30.6385 1026.66 31.0223C1026.66 31.2621 1026.52 31.7418 1026.23 32.4614L1005.79 79.5922C1005.65 79.88 1005.46 80.1199 1005.22 80.3118C1004.98 80.5516 1004.62 80.6715 1004.14 80.6715H1002.7ZM568.347 152C567.867 152 567.483 151.856 567.196 151.568C566.908 151.28 566.764 150.897 566.764 150.417V103.286C566.764 102.758 566.908 102.351 567.196 102.063C567.483 101.775 567.867 101.631 568.347 101.631H596.409C596.937 101.631 597.345 101.775 597.633 102.063C597.921 102.351 598.064 102.758 598.064 103.286V104.365C598.064 104.845 597.921 105.229 597.633 105.517C597.345 105.805 596.937 105.948 596.409 105.948H571.297V124.297H594.826C595.354 124.297 595.762 124.441 596.05 124.729C596.338 125.017 596.481 125.424 596.481 125.952V127.031C596.481 127.511 596.338 127.895 596.05 128.183C595.762 128.471 595.354 128.614 594.826 128.614H571.297V147.683H596.985C597.513 147.683 597.921 147.827 598.208 148.114C598.496 148.402 598.64 148.81 598.64 149.338V150.417C598.64 150.897 598.496 151.28 598.208 151.568C597.921 151.856 597.513 152 596.985 152H568.347ZM609.994 152C609.515 152 609.131 151.856 608.843 151.568C608.555 151.28 608.411 150.897 608.411 150.417V116.166C608.411 115.686 608.555 115.303 608.843 115.015C609.131 114.727 609.515 114.583 609.994 114.583H611.218C611.697 114.583 612.081 114.727 612.369 115.015C612.657 115.303 612.801 115.686 612.801 116.166V119.548C614.096 117.869 615.655 116.502 617.478 115.447C619.349 114.391 621.819 113.864 624.889 113.864C628.151 113.864 630.862 114.583 633.02 116.022C635.227 117.413 636.858 119.332 637.913 121.779C639.016 124.177 639.568 126.912 639.568 129.982V150.417C639.568 150.897 639.424 151.28 639.136 151.568C638.849 151.856 638.465 152 637.985 152H636.762C636.282 152 635.898 151.856 635.611 151.568C635.323 151.28 635.179 150.897 635.179 150.417V130.341C635.179 126.504 634.243 123.506 632.373 121.347C630.502 119.14 627.767 118.037 624.17 118.037C620.764 118.037 618.005 119.14 615.895 121.347C613.832 123.506 612.801 126.504 612.801 130.341V150.417C612.801 150.897 612.657 151.28 612.369 151.568C612.081 151.856 611.697 152 611.218 152H609.994ZM652.509 152C652.029 152 651.645 151.856 651.358 151.568C651.07 151.28 650.926 150.897 650.926 150.417V102.495C650.926 102.015 651.07 101.631 651.358 101.343C651.645 101.056 652.029 100.912 652.509 100.912H653.732C654.212 100.912 654.596 101.056 654.883 101.343C655.171 101.631 655.315 102.015 655.315 102.495V119.548C656.61 117.869 658.169 116.502 659.992 115.447C661.863 114.391 664.334 113.864 667.404 113.864C670.666 113.864 673.376 114.583 675.535 116.022C677.741 117.413 679.372 119.332 680.428 121.779C681.531 124.177 682.083 126.912 682.083 129.982V150.417C682.083 150.897 681.939 151.28 681.651 151.568C681.363 151.856 680.979 152 680.5 152H679.276C678.797 152 678.413 151.856 678.125 151.568C677.837 151.28 677.693 150.897 677.693 150.417V130.341C677.693 126.504 676.758 123.506 674.887 121.347C673.016 119.14 670.282 118.037 666.684 118.037C663.278 118.037 660.52 119.14 658.409 121.347C656.346 123.506 655.315 126.504 655.315 130.341V150.417C655.315 150.897 655.171 151.28 654.883 151.568C654.596 151.856 654.212 152 653.732 152H652.509ZM703.44 152.72C701.138 152.72 699.003 152.24 697.036 151.28C695.118 150.321 693.559 149.05 692.359 147.467C691.16 145.836 690.56 144.013 690.56 141.998C690.56 138.736 691.88 136.122 694.518 134.155C697.156 132.188 700.586 130.917 704.808 130.341L716.177 128.758V126.24C716.177 123.698 715.385 121.707 713.802 120.268C712.267 118.781 709.796 118.037 706.391 118.037C703.896 118.037 701.881 118.541 700.346 119.548C698.811 120.507 697.756 121.779 697.18 123.362C696.94 124.081 696.485 124.441 695.813 124.441H694.662C694.086 124.441 693.678 124.297 693.439 124.009C693.199 123.674 693.079 123.29 693.079 122.858C693.079 122.186 693.319 121.347 693.798 120.34C694.326 119.332 695.118 118.349 696.173 117.389C697.228 116.382 698.595 115.543 700.274 114.871C701.953 114.199 703.992 113.864 706.391 113.864C709.221 113.864 711.547 114.247 713.37 115.015C715.241 115.782 716.68 116.79 717.688 118.037C718.743 119.236 719.486 120.579 719.918 122.067C720.35 123.554 720.566 125.017 720.566 126.456V150.417C720.566 150.897 720.422 151.28 720.134 151.568C719.846 151.856 719.462 152 718.983 152H717.76C717.28 152 716.896 151.856 716.608 151.568C716.32 151.28 716.177 150.897 716.177 150.417V147.035C715.601 147.899 714.785 148.762 713.73 149.625C712.675 150.489 711.308 151.232 709.629 151.856C707.998 152.432 705.935 152.72 703.44 152.72ZM704.16 148.546C706.367 148.546 708.381 148.066 710.204 147.107C712.027 146.148 713.466 144.685 714.522 142.718C715.625 140.703 716.177 138.185 716.177 135.162V132.716L706.894 134.011C702.961 134.539 699.987 135.45 697.972 136.745C695.957 138.041 694.95 139.672 694.95 141.638C694.95 143.221 695.405 144.517 696.317 145.524C697.228 146.531 698.38 147.299 699.771 147.827C701.21 148.306 702.673 148.546 704.16 148.546ZM733.527 152C733.048 152 732.664 151.856 732.376 151.568C732.088 151.28 731.944 150.897 731.944 150.417V116.166C731.944 115.686 732.088 115.303 732.376 115.015C732.664 114.727 733.048 114.583 733.527 114.583H734.751C735.23 114.583 735.614 114.727 735.902 115.015C736.19 115.303 736.334 115.686 736.334 116.166V119.548C737.629 117.869 739.188 116.502 741.011 115.447C742.882 114.391 745.352 113.864 748.422 113.864C751.684 113.864 754.394 114.583 756.553 116.022C758.76 117.413 760.391 119.332 761.446 121.779C762.549 124.177 763.101 126.912 763.101 129.982V150.417C763.101 150.897 762.957 151.28 762.669 151.568C762.381 151.856 761.998 152 761.518 152H760.295C759.815 152 759.431 151.856 759.143 151.568C758.856 151.28 758.712 150.897 758.712 150.417V130.341C758.712 126.504 757.776 123.506 755.906 121.347C754.035 119.14 751.3 118.037 747.703 118.037C744.297 118.037 741.538 119.14 739.428 121.347C737.365 123.506 736.334 126.504 736.334 130.341V150.417C736.334 150.897 736.19 151.28 735.902 151.568C735.614 151.856 735.23 152 734.751 152H733.527ZM788.562 152.72C785.204 152.72 782.35 152.072 779.999 150.777C777.649 149.434 775.85 147.515 774.603 145.02C773.403 142.526 772.756 139.576 772.66 136.17C772.612 135.45 772.588 134.491 772.588 133.292C772.588 132.092 772.612 131.133 772.66 130.413C772.756 126.959 773.403 124.009 774.603 121.563C775.85 119.068 777.649 117.174 779.999 115.878C782.35 114.535 785.204 113.864 788.562 113.864C791.104 113.864 793.287 114.223 795.11 114.943C796.981 115.615 798.516 116.526 799.715 117.677C800.914 118.781 801.826 120.004 802.449 121.347C803.073 122.69 803.409 124.009 803.457 125.305C803.505 125.784 803.361 126.168 803.025 126.456C802.689 126.744 802.306 126.888 801.874 126.888H800.866C800.387 126.888 800.027 126.792 799.787 126.6C799.595 126.36 799.379 125.952 799.14 125.376C798.132 122.642 796.741 120.747 794.966 119.692C793.239 118.589 791.104 118.037 788.562 118.037C785.3 118.037 782.59 119.044 780.431 121.059C778.32 123.026 777.193 126.264 777.049 130.773C776.953 132.452 776.953 134.131 777.049 135.81C777.193 140.319 778.32 143.581 780.431 145.596C782.59 147.563 785.3 148.546 788.562 148.546C791.104 148.546 793.239 148.018 794.966 146.963C796.741 145.86 798.132 143.941 799.14 141.207C799.379 140.631 799.595 140.247 799.787 140.055C800.027 139.816 800.387 139.696 800.866 139.696H801.874C802.306 139.696 802.689 139.84 803.025 140.127C803.361 140.415 803.505 140.799 803.457 141.279C803.409 142.334 803.193 143.389 802.809 144.445C802.425 145.5 801.826 146.531 801.01 147.539C800.243 148.546 799.283 149.434 798.132 150.201C796.981 150.969 795.59 151.568 793.959 152C792.376 152.48 790.577 152.72 788.562 152.72ZM814.548 152C814.068 152 813.684 151.856 813.396 151.568C813.108 151.28 812.965 150.897 812.965 150.417V116.166C812.965 115.686 813.108 115.303 813.396 115.015C813.684 114.727 814.068 114.583 814.548 114.583H815.771C816.25 114.583 816.634 114.727 816.922 115.015C817.21 115.303 817.354 115.686 817.354 116.166V150.417C817.354 150.897 817.21 151.28 816.922 151.568C816.634 151.856 816.25 152 815.771 152H814.548ZM813.756 106.884C813.276 106.884 812.893 106.74 812.605 106.452C812.317 106.164 812.173 105.781 812.173 105.301V102.567C812.173 102.087 812.317 101.703 812.605 101.415C812.893 101.08 813.276 100.912 813.756 100.912H816.49C816.97 100.912 817.354 101.08 817.642 101.415C817.977 101.703 818.145 102.087 818.145 102.567V105.301C818.145 105.781 817.977 106.164 817.642 106.452C817.354 106.74 816.97 106.884 816.49 106.884H813.756ZM830.569 152C830.089 152 829.705 151.856 829.418 151.568C829.13 151.28 828.986 150.897 828.986 150.417V116.166C828.986 115.686 829.13 115.303 829.418 115.015C829.705 114.727 830.089 114.583 830.569 114.583H831.792C832.272 114.583 832.656 114.727 832.943 115.015C833.231 115.303 833.375 115.686 833.375 116.166V119.548C834.67 117.869 836.229 116.502 838.052 115.447C839.923 114.391 842.394 113.864 845.464 113.864C848.726 113.864 851.436 114.583 853.595 116.022C855.801 117.413 857.432 119.332 858.488 121.779C859.591 124.177 860.143 126.912 860.143 129.982V150.417C860.143 150.897 859.999 151.28 859.711 151.568C859.423 151.856 859.039 152 858.56 152H857.336C856.857 152 856.473 151.856 856.185 151.568C855.897 151.28 855.753 150.897 855.753 150.417V130.341C855.753 126.504 854.818 123.506 852.947 121.347C851.076 119.14 848.342 118.037 844.744 118.037C841.338 118.037 838.58 119.14 836.469 121.347C834.406 123.506 833.375 126.504 833.375 130.341V150.417C833.375 150.897 833.231 151.28 832.943 151.568C832.656 151.856 832.272 152 831.792 152H830.569ZM885.388 167.83C882.318 167.83 879.799 167.422 877.832 166.607C875.914 165.791 874.402 164.784 873.299 163.585C872.244 162.434 871.5 161.258 871.069 160.059C870.637 158.908 870.397 157.972 870.349 157.253C870.301 156.773 870.445 156.365 870.781 156.03C871.117 155.742 871.5 155.598 871.932 155.598H872.939C873.323 155.598 873.659 155.67 873.947 155.814C874.235 156.006 874.474 156.437 874.666 157.109C874.954 157.876 875.41 158.764 876.033 159.771C876.705 160.827 877.736 161.738 879.128 162.505C880.567 163.273 882.533 163.657 885.028 163.657C887.666 163.657 889.873 163.321 891.648 162.649C893.423 161.978 894.766 160.779 895.677 159.052C896.637 157.373 897.116 155.022 897.116 152V147.035C895.917 148.666 894.334 150.033 892.367 151.137C890.449 152.192 888.002 152.72 885.028 152.72C882.246 152.72 879.871 152.216 877.904 151.208C875.985 150.201 874.426 148.858 873.227 147.179C872.028 145.5 871.14 143.629 870.565 141.566C869.989 139.504 869.677 137.417 869.629 135.306C869.581 133.963 869.581 132.62 869.629 131.277C869.677 129.166 869.989 127.079 870.565 125.017C871.14 122.954 872.028 121.083 873.227 119.404C874.426 117.725 875.985 116.382 877.904 115.375C879.871 114.367 882.246 113.864 885.028 113.864C888.002 113.864 890.449 114.415 892.367 115.519C894.334 116.622 895.917 117.965 897.116 119.548V116.238C897.116 115.758 897.26 115.375 897.548 115.087C897.836 114.751 898.22 114.583 898.699 114.583H899.851C900.33 114.583 900.714 114.751 901.002 115.087C901.338 115.375 901.506 115.758 901.506 116.238V151.28C901.506 154.351 901.05 157.133 900.139 159.627C899.227 162.122 897.596 164.113 895.246 165.6C892.943 167.087 889.657 167.83 885.388 167.83ZM885.46 148.546C888.194 148.546 890.401 147.899 892.08 146.603C893.758 145.308 894.982 143.701 895.749 141.782C896.565 139.816 897.02 137.849 897.116 135.882C897.164 135.162 897.188 134.299 897.188 133.292C897.188 132.284 897.164 131.421 897.116 130.701C897.02 128.734 896.565 126.792 895.749 124.873C894.982 122.906 893.758 121.275 892.08 119.98C890.401 118.685 888.194 118.037 885.46 118.037C882.677 118.037 880.447 118.661 878.768 119.908C877.137 121.155 875.962 122.786 875.242 124.801C874.522 126.816 874.115 128.974 874.019 131.277C873.971 132.62 873.971 133.963 874.019 135.306C874.115 137.609 874.522 139.768 875.242 141.782C875.962 143.797 877.137 145.428 878.768 146.675C880.447 147.923 882.677 148.546 885.46 148.546ZM568.347 237C567.867 237 567.483 236.856 567.196 236.568C566.908 236.28 566.764 235.897 566.764 235.417V188.286C566.764 187.758 566.908 187.351 567.196 187.063C567.483 186.775 567.867 186.631 568.347 186.631H569.642C570.17 186.631 570.577 186.775 570.865 187.063C571.153 187.351 571.297 187.758 571.297 188.286V209.297H599.072V188.286C599.072 187.758 599.216 187.351 599.504 187.063C599.791 186.775 600.175 186.631 600.655 186.631H601.95C602.478 186.631 602.885 186.775 603.173 187.063C603.461 187.351 603.605 187.758 603.605 188.286V235.417C603.605 235.897 603.461 236.28 603.173 236.568C602.885 236.856 602.478 237 601.95 237H600.655C600.175 237 599.791 236.856 599.504 236.568C599.216 236.28 599.072 235.897 599.072 235.417V213.614H571.297V235.417C571.297 235.897 571.153 236.28 570.865 236.568C570.577 236.856 570.17 237 569.642 237H568.347ZM630.099 237.72C625.446 237.72 621.752 236.208 619.018 233.186C616.283 230.116 614.724 226.111 614.34 221.17C614.292 220.45 614.268 219.491 614.268 218.292C614.268 217.092 614.292 216.133 614.34 215.413C614.58 212.151 615.348 209.273 616.643 206.779C617.938 204.284 619.713 202.341 621.968 200.95C624.27 199.559 626.981 198.864 630.099 198.864C633.457 198.864 636.311 199.607 638.661 201.094C641.012 202.581 642.811 204.716 644.058 207.498C645.353 210.281 646.001 213.59 646.001 217.428V218.507C646.001 218.987 645.833 219.371 645.497 219.659C645.209 219.947 644.826 220.09 644.346 220.09H618.73C618.73 220.09 618.73 220.186 618.73 220.378C618.73 220.57 618.73 220.714 618.73 220.81C618.826 222.969 619.329 225.031 620.241 226.998C621.152 228.917 622.447 230.5 624.126 231.747C625.805 232.947 627.796 233.546 630.099 233.546C632.161 233.546 633.864 233.234 635.208 232.611C636.599 231.987 637.702 231.316 638.517 230.596C639.333 229.828 639.861 229.253 640.1 228.869C640.532 228.245 640.868 227.886 641.108 227.79C641.348 227.646 641.731 227.574 642.259 227.574H643.41C643.842 227.574 644.202 227.718 644.49 228.006C644.826 228.245 644.969 228.581 644.922 229.013C644.874 229.685 644.49 230.524 643.77 231.531C643.099 232.491 642.115 233.45 640.82 234.41C639.573 235.369 638.038 236.161 636.215 236.784C634.392 237.408 632.353 237.72 630.099 237.72ZM618.73 216.061H641.612V215.773C641.612 213.375 641.156 211.216 640.244 209.297C639.333 207.378 638.014 205.867 636.287 204.764C634.56 203.613 632.497 203.037 630.099 203.037C627.7 203.037 625.637 203.613 623.911 204.764C622.232 205.867 620.936 207.378 620.025 209.297C619.161 211.216 618.73 213.375 618.73 215.773V216.061ZM665.565 237.72C663.263 237.72 661.128 237.24 659.161 236.28C657.243 235.321 655.684 234.05 654.484 232.467C653.285 230.836 652.685 229.013 652.685 226.998C652.685 223.736 654.005 221.122 656.643 219.155C659.281 217.188 662.711 215.917 666.933 215.341L678.302 213.758V211.24C678.302 208.698 677.51 206.707 675.927 205.268C674.392 203.781 671.921 203.037 668.516 203.037C666.021 203.037 664.006 203.541 662.471 204.548C660.936 205.507 659.881 206.779 659.305 208.362C659.065 209.081 658.61 209.441 657.938 209.441H656.787C656.211 209.441 655.803 209.297 655.564 209.009C655.324 208.674 655.204 208.29 655.204 207.858C655.204 207.186 655.444 206.347 655.923 205.34C656.451 204.332 657.243 203.349 658.298 202.389C659.353 201.382 660.72 200.543 662.399 199.871C664.078 199.199 666.117 198.864 668.516 198.864C671.346 198.864 673.672 199.247 675.495 200.015C677.366 200.782 678.805 201.79 679.813 203.037C680.868 204.236 681.611 205.579 682.043 207.067C682.475 208.554 682.691 210.017 682.691 211.456V235.417C682.691 235.897 682.547 236.28 682.259 236.568C681.971 236.856 681.587 237 681.108 237H679.885C679.405 237 679.021 236.856 678.733 236.568C678.445 236.28 678.302 235.897 678.302 235.417V232.035C677.726 232.899 676.91 233.762 675.855 234.625C674.8 235.489 673.433 236.232 671.754 236.856C670.123 237.432 668.06 237.72 665.565 237.72ZM666.285 233.546C668.492 233.546 670.506 233.066 672.329 232.107C674.152 231.148 675.591 229.685 676.647 227.718C677.75 225.703 678.302 223.185 678.302 220.162V217.716L669.019 219.011C665.086 219.539 662.112 220.45 660.097 221.745C658.082 223.041 657.075 224.672 657.075 226.638C657.075 228.221 657.53 229.517 658.442 230.524C659.353 231.531 660.505 232.299 661.896 232.827C663.335 233.306 664.798 233.546 666.285 233.546ZM695.724 237C695.245 237 694.861 236.856 694.573 236.568C694.285 236.28 694.141 235.897 694.141 235.417V187.495C694.141 187.015 694.285 186.631 694.573 186.343C694.861 186.056 695.245 185.912 695.724 185.912H696.948C697.427 185.912 697.811 186.056 698.099 186.343C698.387 186.631 698.531 187.015 698.531 187.495V235.417C698.531 235.897 698.387 236.28 698.099 236.568C697.811 236.856 697.427 237 696.948 237H695.724ZM722.823 237C720.329 237 718.362 236.472 716.923 235.417C715.484 234.362 714.477 232.923 713.901 231.1C713.325 229.277 713.037 227.238 713.037 224.983V203.757H707.425C706.945 203.757 706.561 203.613 706.274 203.325C705.986 203.037 705.842 202.653 705.842 202.174V201.166C705.842 200.686 705.986 200.303 706.274 200.015C706.561 199.727 706.945 199.583 707.425 199.583H713.037V187.495C713.037 187.015 713.181 186.631 713.469 186.343C713.757 186.056 714.141 185.912 714.62 185.912H715.844C716.323 185.912 716.707 186.056 716.995 186.343C717.283 186.631 717.427 187.015 717.427 187.495V199.583H726.349C726.829 199.583 727.213 199.727 727.501 200.015C727.788 200.303 727.932 200.686 727.932 201.166V202.174C727.932 202.653 727.788 203.037 727.501 203.325C727.213 203.613 726.829 203.757 726.349 203.757H717.427V224.696C717.427 227.238 717.835 229.229 718.65 230.668C719.513 232.107 721.025 232.827 723.183 232.827H727.069C727.548 232.827 727.932 232.97 728.22 233.258C728.508 233.546 728.652 233.93 728.652 234.41V235.417C728.652 235.897 728.508 236.28 728.22 236.568C727.932 236.856 727.548 237 727.069 237H722.823ZM737.745 237C737.265 237 736.882 236.856 736.594 236.568C736.306 236.28 736.162 235.897 736.162 235.417V187.495C736.162 187.015 736.306 186.631 736.594 186.343C736.882 186.056 737.265 185.912 737.745 185.912H738.968C739.448 185.912 739.832 186.056 740.12 186.343C740.408 186.631 740.551 187.015 740.551 187.495V204.548C741.847 202.869 743.406 201.502 745.229 200.447C747.099 199.391 749.57 198.864 752.64 198.864C755.902 198.864 758.612 199.583 760.771 201.022C762.978 202.413 764.609 204.332 765.664 206.779C766.767 209.177 767.319 211.912 767.319 214.982V235.417C767.319 235.897 767.175 236.28 766.887 236.568C766.599 236.856 766.216 237 765.736 237H764.513C764.033 237 763.649 236.856 763.361 236.568C763.074 236.28 762.93 235.897 762.93 235.417V215.341C762.93 211.504 761.994 208.506 760.123 206.347C758.252 204.14 755.518 203.037 751.92 203.037C748.515 203.037 745.756 204.14 743.646 206.347C741.583 208.506 740.551 211.504 740.551 215.341V235.417C740.551 235.897 740.408 236.28 740.12 236.568C739.832 236.856 739.448 237 738.968 237H737.745ZM792.778 237.72C789.42 237.72 786.566 237.072 784.215 235.777C781.865 234.434 780.066 232.515 778.819 230.02C777.62 227.526 776.972 224.576 776.876 221.17C776.828 220.45 776.804 219.491 776.804 218.292C776.804 217.092 776.828 216.133 776.876 215.413C776.972 211.959 777.62 209.009 778.819 206.563C780.066 204.068 781.865 202.174 784.215 200.878C786.566 199.535 789.42 198.864 792.778 198.864C795.321 198.864 797.503 199.223 799.326 199.943C801.197 200.615 802.732 201.526 803.931 202.677C805.131 203.781 806.042 205.004 806.666 206.347C807.289 207.69 807.625 209.009 807.673 210.305C807.721 210.784 807.577 211.168 807.241 211.456C806.905 211.744 806.522 211.888 806.09 211.888H805.083C804.603 211.888 804.243 211.792 804.003 211.6C803.811 211.36 803.595 210.952 803.356 210.376C802.348 207.642 800.957 205.747 799.182 204.692C797.455 203.589 795.321 203.037 792.778 203.037C789.516 203.037 786.806 204.044 784.647 206.059C782.537 208.026 781.409 211.264 781.265 215.773C781.169 217.452 781.169 219.131 781.265 220.81C781.409 225.319 782.537 228.581 784.647 230.596C786.806 232.563 789.516 233.546 792.778 233.546C795.321 233.546 797.455 233.018 799.182 231.963C800.957 230.86 802.348 228.941 803.356 226.207C803.595 225.631 803.811 225.247 804.003 225.055C804.243 224.816 804.603 224.696 805.083 224.696H806.09C806.522 224.696 806.905 224.84 807.241 225.127C807.577 225.415 807.721 225.799 807.673 226.279C807.625 227.334 807.409 228.389 807.025 229.445C806.642 230.5 806.042 231.531 805.226 232.539C804.459 233.546 803.5 234.434 802.348 235.201C801.197 235.969 799.806 236.568 798.175 237C796.592 237.48 794.793 237.72 792.778 237.72ZM827.254 237.72C824.952 237.72 822.817 237.24 820.85 236.28C818.932 235.321 817.373 234.05 816.173 232.467C814.974 230.836 814.374 229.013 814.374 226.998C814.374 223.736 815.694 221.122 818.332 219.155C820.97 217.188 824.4 215.917 828.622 215.341L839.991 213.758V211.24C839.991 208.698 839.199 206.707 837.616 205.268C836.081 203.781 833.61 203.037 830.205 203.037C827.71 203.037 825.695 203.541 824.16 204.548C822.625 205.507 821.57 206.779 820.994 208.362C820.754 209.081 820.299 209.441 819.627 209.441H818.476C817.9 209.441 817.492 209.297 817.253 209.009C817.013 208.674 816.893 208.29 816.893 207.858C816.893 207.186 817.133 206.347 817.612 205.34C818.14 204.332 818.932 203.349 819.987 202.389C821.042 201.382 822.409 200.543 824.088 199.871C825.767 199.199 827.806 198.864 830.205 198.864C833.035 198.864 835.361 199.247 837.184 200.015C839.055 200.782 840.494 201.79 841.502 203.037C842.557 204.236 843.3 205.579 843.732 207.067C844.164 208.554 844.38 210.017 844.38 211.456V235.417C844.38 235.897 844.236 236.28 843.948 236.568C843.66 236.856 843.276 237 842.797 237H841.574C841.094 237 840.71 236.856 840.422 236.568C840.134 236.28 839.991 235.897 839.991 235.417V232.035C839.415 232.899 838.599 233.762 837.544 234.625C836.489 235.489 835.122 236.232 833.443 236.856C831.812 237.432 829.749 237.72 827.254 237.72ZM827.974 233.546C830.181 233.546 832.195 233.066 834.018 232.107C835.841 231.148 837.28 229.685 838.336 227.718C839.439 225.703 839.991 223.185 839.991 220.162V217.716L830.708 219.011C826.775 219.539 823.801 220.45 821.786 221.745C819.771 223.041 818.764 224.672 818.764 226.638C818.764 228.221 819.219 229.517 820.131 230.524C821.042 231.531 822.194 232.299 823.585 232.827C825.024 233.306 826.487 233.546 827.974 233.546ZM857.341 237C856.862 237 856.478 236.856 856.19 236.568C855.902 236.28 855.758 235.897 855.758 235.417V201.238C855.758 200.758 855.902 200.375 856.19 200.087C856.478 199.751 856.862 199.583 857.341 199.583H858.493C858.972 199.583 859.356 199.751 859.644 200.087C859.98 200.375 860.148 200.758 860.148 201.238V204.548C861.011 202.869 862.258 201.622 863.889 200.806C865.52 199.991 867.535 199.583 869.934 199.583H872.596C873.076 199.583 873.459 199.727 873.747 200.015C874.035 200.303 874.179 200.686 874.179 201.166V202.174C874.179 202.653 874.035 203.037 873.747 203.325C873.459 203.613 873.076 203.757 872.596 203.757H869.502C866.624 203.757 864.345 204.596 862.666 206.275C860.987 207.954 860.148 210.233 860.148 213.111V235.417C860.148 235.897 859.98 236.28 859.644 236.568C859.356 236.856 858.972 237 858.493 237H857.341ZM893.818 237.72C889.165 237.72 885.471 236.208 882.737 233.186C880.003 230.116 878.444 226.111 878.06 221.17C878.012 220.45 877.988 219.491 877.988 218.292C877.988 217.092 878.012 216.133 878.06 215.413C878.3 212.151 879.067 209.273 880.363 206.779C881.658 204.284 883.433 202.341 885.687 200.95C887.99 199.559 890.7 198.864 893.818 198.864C897.176 198.864 900.03 199.607 902.381 201.094C904.732 202.581 906.53 204.716 907.778 207.498C909.073 210.281 909.72 213.59 909.72 217.428V218.507C909.72 218.987 909.553 219.371 909.217 219.659C908.929 219.947 908.545 220.09 908.065 220.09H882.449C882.449 220.09 882.449 220.186 882.449 220.378C882.449 220.57 882.449 220.714 882.449 220.81C882.545 222.969 883.049 225.031 883.96 226.998C884.872 228.917 886.167 230.5 887.846 231.747C889.525 232.947 891.516 233.546 893.818 233.546C895.881 233.546 897.584 233.234 898.927 232.611C900.318 231.987 901.422 231.316 902.237 230.596C903.053 229.828 903.58 229.253 903.82 228.869C904.252 228.245 904.588 227.886 904.827 227.79C905.067 227.646 905.451 227.574 905.979 227.574H907.13C907.562 227.574 907.922 227.718 908.209 228.006C908.545 228.245 908.689 228.581 908.641 229.013C908.593 229.685 908.209 230.524 907.49 231.531C906.818 232.491 905.835 233.45 904.54 234.41C903.292 235.369 901.757 236.161 899.934 236.784C898.112 237.408 896.073 237.72 893.818 237.72ZM882.449 216.061H905.331V215.773C905.331 213.375 904.875 211.216 903.964 209.297C903.053 207.378 901.733 205.867 900.006 204.764C898.28 203.613 896.217 203.037 893.818 203.037C891.42 203.037 889.357 203.613 887.63 204.764C885.951 205.867 884.656 207.378 883.745 209.297C882.881 211.216 882.449 213.375 882.449 215.773V216.061ZM933.132 237C932.749 237 932.413 236.856 932.125 236.568C931.837 236.28 931.693 235.945 931.693 235.561C931.693 235.321 931.741 235.057 931.837 234.769L950.042 188.07C950.234 187.591 950.474 187.231 950.761 186.991C951.097 186.751 951.553 186.631 952.129 186.631H954.575C955.151 186.631 955.582 186.751 955.87 186.991C956.206 187.231 956.47 187.591 956.662 188.07L974.867 234.769C974.962 235.057 975.01 235.321 975.01 235.561C975.01 235.945 974.867 236.28 974.579 236.568C974.291 236.856 973.955 237 973.571 237H972.132C971.653 237 971.293 236.88 971.053 236.64C970.813 236.352 970.645 236.113 970.549 235.921L966.088 224.408H940.616L936.155 235.921C936.107 236.113 935.939 236.352 935.651 236.64C935.411 236.88 935.051 237 934.571 237H933.132ZM942.343 220.09H964.361L953.352 191.74L942.343 220.09ZM996.348 237.72C992.99 237.72 990.135 237.072 987.785 235.777C985.434 234.434 983.635 232.515 982.388 230.02C981.189 227.526 980.541 224.576 980.445 221.17C980.397 220.45 980.373 219.491 980.373 218.292C980.373 217.092 980.397 216.133 980.445 215.413C980.541 211.959 981.189 209.009 982.388 206.563C983.635 204.068 985.434 202.174 987.785 200.878C990.135 199.535 992.99 198.864 996.348 198.864C998.89 198.864 1001.07 199.223 1002.9 199.943C1004.77 200.615 1006.3 201.526 1007.5 202.677C1008.7 203.781 1009.61 205.004 1010.23 206.347C1010.86 207.69 1011.19 209.009 1011.24 210.305C1011.29 210.784 1011.15 211.168 1010.81 211.456C1010.47 211.744 1010.09 211.888 1009.66 211.888H1008.65C1008.17 211.888 1007.81 211.792 1007.57 211.6C1007.38 211.36 1007.16 210.952 1006.92 210.376C1005.92 207.642 1004.53 205.747 1002.75 204.692C1001.02 203.589 998.89 203.037 996.348 203.037C993.086 203.037 990.375 204.044 988.217 206.059C986.106 208.026 984.979 211.264 984.835 215.773C984.739 217.452 984.739 219.131 984.835 220.81C984.979 225.319 986.106 228.581 988.217 230.596C990.375 232.563 993.086 233.546 996.348 233.546C998.89 233.546 1001.02 233.018 1002.75 231.963C1004.53 230.86 1005.92 228.941 1006.92 226.207C1007.16 225.631 1007.38 225.247 1007.57 225.055C1007.81 224.816 1008.17 224.696 1008.65 224.696H1009.66C1010.09 224.696 1010.47 224.84 1010.81 225.127C1011.15 225.415 1011.29 225.799 1011.24 226.279C1011.19 227.334 1010.98 228.389 1010.59 229.445C1010.21 230.5 1009.61 231.531 1008.8 232.539C1008.03 233.546 1007.07 234.434 1005.92 235.201C1004.77 235.969 1003.38 236.568 1001.74 237C1000.16 237.48 998.362 237.72 996.348 237.72ZM1034.93 237.72C1031.57 237.72 1028.71 237.072 1026.36 235.777C1024.01 234.434 1022.21 232.515 1020.97 230.02C1019.77 227.526 1019.12 224.576 1019.02 221.17C1018.98 220.45 1018.95 219.491 1018.95 218.292C1018.95 217.092 1018.98 216.133 1019.02 215.413C1019.12 211.959 1019.77 209.009 1020.97 206.563C1022.21 204.068 1024.01 202.174 1026.36 200.878C1028.71 199.535 1031.57 198.864 1034.93 198.864C1037.47 198.864 1039.65 199.223 1041.47 199.943C1043.34 200.615 1044.88 201.526 1046.08 202.677C1047.28 203.781 1048.19 205.004 1048.81 206.347C1049.44 207.69 1049.77 209.009 1049.82 210.305C1049.87 210.784 1049.72 211.168 1049.39 211.456C1049.05 211.744 1048.67 211.888 1048.24 211.888H1047.23C1046.75 211.888 1046.39 211.792 1046.15 211.6C1045.96 211.36 1045.74 210.952 1045.5 210.376C1044.5 207.642 1043.1 205.747 1041.33 204.692C1039.6 203.589 1037.47 203.037 1034.93 203.037C1031.66 203.037 1028.95 204.044 1026.79 206.059C1024.68 208.026 1023.56 211.264 1023.41 215.773C1023.32 217.452 1023.32 219.131 1023.41 220.81C1023.56 225.319 1024.68 228.581 1026.79 230.596C1028.95 232.563 1031.66 233.546 1034.93 233.546C1037.47 233.546 1039.6 233.018 1041.33 231.963C1043.1 230.86 1044.5 228.941 1045.5 226.207C1045.74 225.631 1045.96 225.247 1046.15 225.055C1046.39 224.816 1046.75 224.696 1047.23 224.696H1048.24C1048.67 224.696 1049.05 224.84 1049.39 225.127C1049.72 225.415 1049.87 225.799 1049.82 226.279C1049.77 227.334 1049.56 228.389 1049.17 229.445C1048.79 230.5 1048.19 231.531 1047.37 232.539C1046.61 233.546 1045.65 234.434 1044.5 235.201C1043.34 235.969 1041.95 236.568 1040.32 237C1038.74 237.48 1036.94 237.72 1034.93 237.72ZM1073.22 237.72C1068.56 237.72 1064.87 236.208 1062.13 233.186C1059.4 230.116 1057.84 226.111 1057.46 221.17C1057.41 220.45 1057.38 219.491 1057.38 218.292C1057.38 217.092 1057.41 216.133 1057.46 215.413C1057.7 212.151 1058.46 209.273 1059.76 206.779C1061.05 204.284 1062.83 202.341 1065.08 200.95C1067.39 199.559 1070.1 198.864 1073.22 198.864C1076.57 198.864 1079.43 199.607 1081.78 201.094C1084.13 202.581 1085.93 204.716 1087.17 207.498C1088.47 210.281 1089.12 213.59 1089.12 217.428V218.507C1089.12 218.987 1088.95 219.371 1088.61 219.659C1088.33 219.947 1087.94 220.09 1087.46 220.09H1061.85C1061.85 220.09 1061.85 220.186 1061.85 220.378C1061.85 220.57 1061.85 220.714 1061.85 220.81C1061.94 222.969 1062.45 225.031 1063.36 226.998C1064.27 228.917 1065.56 230.5 1067.24 231.747C1068.92 232.947 1070.91 233.546 1073.22 233.546C1075.28 233.546 1076.98 233.234 1078.32 232.611C1079.72 231.987 1080.82 231.316 1081.63 230.596C1082.45 229.828 1082.98 229.253 1083.22 228.869C1083.65 228.245 1083.98 227.886 1084.22 227.79C1084.46 227.646 1084.85 227.574 1085.38 227.574H1086.53C1086.96 227.574 1087.32 227.718 1087.61 228.006C1087.94 228.245 1088.09 228.581 1088.04 229.013C1087.99 229.685 1087.61 230.524 1086.89 231.531C1086.22 232.491 1085.23 233.45 1083.94 234.41C1082.69 235.369 1081.15 236.161 1079.33 236.784C1077.51 237.408 1075.47 237.72 1073.22 237.72ZM1061.85 216.061H1084.73V215.773C1084.73 213.375 1084.27 211.216 1083.36 209.297C1082.45 207.378 1081.13 205.867 1079.4 204.764C1077.68 203.613 1075.61 203.037 1073.22 203.037C1070.82 203.037 1068.75 203.613 1067.03 204.764C1065.35 205.867 1064.05 207.378 1063.14 209.297C1062.28 211.216 1061.85 213.375 1061.85 215.773V216.061ZM1110.48 237.72C1107.99 237.72 1105.83 237.384 1104 236.712C1102.23 236.041 1100.77 235.249 1099.62 234.338C1098.46 233.378 1097.6 232.443 1097.03 231.531C1096.5 230.62 1096.21 229.924 1096.16 229.445C1096.11 228.917 1096.28 228.533 1096.67 228.293C1097.05 228.006 1097.41 227.862 1097.74 227.862H1098.82C1099.11 227.862 1099.35 227.91 1099.54 228.006C1099.78 228.102 1100.07 228.365 1100.41 228.797C1101.03 229.613 1101.75 230.404 1102.57 231.172C1103.38 231.891 1104.41 232.467 1105.66 232.899C1106.95 233.33 1108.56 233.546 1110.48 233.546C1113.36 233.546 1115.73 232.994 1117.6 231.891C1119.48 230.788 1120.41 229.157 1120.41 226.998C1120.41 225.655 1120.03 224.576 1119.26 223.76C1118.54 222.945 1117.29 222.225 1115.52 221.602C1113.74 220.978 1111.34 220.33 1108.32 219.659C1105.3 218.939 1102.97 218.076 1101.34 217.068C1099.76 216.061 1098.68 214.91 1098.1 213.614C1097.53 212.271 1097.24 210.832 1097.24 209.297C1097.24 207.618 1097.72 205.987 1098.68 204.404C1099.64 202.773 1101.05 201.454 1102.93 200.447C1104.84 199.391 1107.24 198.864 1110.12 198.864C1112.47 198.864 1114.46 199.175 1116.09 199.799C1117.77 200.423 1119.14 201.19 1120.19 202.102C1121.25 202.965 1122.02 203.829 1122.5 204.692C1123.02 205.555 1123.31 206.251 1123.36 206.779C1123.41 207.258 1123.26 207.642 1122.93 207.93C1122.59 208.218 1122.21 208.362 1121.78 208.362H1120.7C1120.31 208.362 1120 208.29 1119.76 208.146C1119.52 207.954 1119.31 207.714 1119.12 207.426C1118.64 206.659 1118.06 205.939 1117.39 205.268C1116.72 204.596 1115.81 204.068 1114.65 203.685C1113.55 203.253 1112.04 203.037 1110.12 203.037C1107.24 203.037 1105.11 203.637 1103.72 204.836C1102.33 205.987 1101.63 207.474 1101.63 209.297C1101.63 210.352 1101.92 211.288 1102.49 212.103C1103.07 212.871 1104.15 213.59 1105.73 214.262C1107.31 214.886 1109.62 215.557 1112.64 216.277C1115.71 216.948 1118.13 217.788 1119.91 218.795C1121.68 219.755 1122.93 220.906 1123.65 222.249C1124.42 223.592 1124.8 225.175 1124.8 226.998C1124.8 228.917 1124.25 230.692 1123.14 232.323C1122.09 233.954 1120.48 235.273 1118.32 236.28C1116.21 237.24 1113.6 237.72 1110.48 237.72ZM1145.9 237.72C1143.4 237.72 1141.24 237.384 1139.42 236.712C1137.65 236.041 1136.18 235.249 1135.03 234.338C1133.88 233.378 1133.02 232.443 1132.44 231.531C1131.91 230.62 1131.63 229.924 1131.58 229.445C1131.53 228.917 1131.7 228.533 1132.08 228.293C1132.46 228.006 1132.82 227.862 1133.16 227.862H1134.24C1134.53 227.862 1134.77 227.91 1134.96 228.006C1135.2 228.102 1135.49 228.365 1135.82 228.797C1136.45 229.613 1137.17 230.404 1137.98 231.172C1138.8 231.891 1139.83 232.467 1141.08 232.899C1142.37 233.33 1143.98 233.546 1145.9 233.546C1148.77 233.546 1151.15 232.994 1153.02 231.891C1154.89 230.788 1155.83 229.157 1155.83 226.998C1155.83 225.655 1155.44 224.576 1154.67 223.76C1153.96 222.945 1152.71 222.225 1150.93 221.602C1149.16 220.978 1146.76 220.33 1143.74 219.659C1140.72 218.939 1138.39 218.076 1136.76 217.068C1135.17 216.061 1134.1 214.91 1133.52 213.614C1132.94 212.271 1132.66 210.832 1132.66 209.297C1132.66 207.618 1133.14 205.987 1134.1 204.404C1135.05 202.773 1136.47 201.454 1138.34 200.447C1140.26 199.391 1142.66 198.864 1145.54 198.864C1147.89 198.864 1149.88 199.175 1151.51 199.799C1153.19 200.423 1154.55 201.19 1155.61 202.102C1156.67 202.965 1157.43 203.829 1157.91 204.692C1158.44 205.555 1158.73 206.251 1158.78 206.779C1158.82 207.258 1158.68 207.642 1158.34 207.93C1158.01 208.218 1157.62 208.362 1157.19 208.362H1156.11C1155.73 208.362 1155.42 208.29 1155.18 208.146C1154.94 207.954 1154.72 207.714 1154.53 207.426C1154.05 206.659 1153.48 205.939 1152.8 205.268C1152.13 204.596 1151.22 204.068 1150.07 203.685C1148.97 203.253 1147.46 203.037 1145.54 203.037C1142.66 203.037 1140.52 203.637 1139.13 204.836C1137.74 205.987 1137.05 207.474 1137.05 209.297C1137.05 210.352 1137.33 211.288 1137.91 212.103C1138.48 212.871 1139.56 213.59 1141.15 214.262C1142.73 214.886 1145.03 215.557 1148.05 216.277C1151.13 216.948 1153.55 217.788 1155.32 218.795C1157.1 219.755 1158.34 220.906 1159.06 222.249C1159.83 223.592 1160.22 225.175 1160.22 226.998C1160.22 228.917 1159.66 230.692 1158.56 232.323C1157.51 233.954 1155.9 235.273 1153.74 236.28C1151.63 237.24 1149.01 237.72 1145.9 237.72Z" fill="black"/>
<path d="M567.816 88.3824C567.816 88.0281 567.883 87.696 568.015 87.3861C568.148 87.0613 568.333 86.7809 568.569 86.5447C568.805 86.3086 569.078 86.1241 569.388 85.9912C569.713 85.8584 570.052 85.792 570.406 85.792C570.761 85.792 571.093 85.8584 571.403 85.9912C571.728 86.1241 572.008 86.3086 572.244 86.5447C572.48 86.7809 572.665 87.0613 572.798 87.3861C572.93 87.696 572.997 88.0281 572.997 88.3824C572.997 88.7366 572.93 89.0761 572.798 89.4008C572.665 89.7108 572.48 89.9838 572.244 90.22C572.008 90.4562 571.728 90.6407 571.403 90.7735C571.093 90.9063 570.761 90.9728 570.406 90.9728C570.052 90.9728 569.713 90.9063 569.388 90.7735C569.078 90.6407 568.805 90.4562 568.569 90.22C568.333 89.9838 568.148 89.7108 568.015 89.4008C567.883 89.0761 567.816 88.7366 567.816 88.3824ZM584.418 88.3824C584.418 88.0281 584.484 87.696 584.617 87.3861C584.75 87.0613 584.934 86.7809 585.17 86.5447C585.407 86.3086 585.68 86.1241 585.99 85.9912C586.314 85.8584 586.654 85.792 587.008 85.792C587.362 85.792 587.694 85.8584 588.004 85.9912C588.329 86.1241 588.61 86.3086 588.846 86.5447C589.082 86.7809 589.266 87.0613 589.399 87.3861C589.532 87.696 589.599 88.0281 589.599 88.3824C589.599 88.7366 589.532 89.0761 589.399 89.4008C589.266 89.7108 589.082 89.9838 588.846 90.22C588.61 90.4562 588.329 90.6407 588.004 90.7735C587.694 90.9063 587.362 90.9728 587.008 90.9728C586.654 90.9728 586.314 90.9063 585.99 90.7735C585.68 90.6407 585.407 90.4562 585.17 90.22C584.934 89.9838 584.75 89.7108 584.617 89.4008C584.484 89.0761 584.418 88.7366 584.418 88.3824ZM601.019 88.3824C601.019 88.0281 601.086 87.696 601.219 87.3861C601.351 87.0613 601.536 86.7809 601.772 86.5447C602.008 86.3086 602.281 86.1241 602.591 85.9912C602.916 85.8584 603.256 85.792 603.61 85.792C603.964 85.792 604.296 85.8584 604.606 85.9912C604.931 86.1241 605.211 86.3086 605.447 86.5447C605.684 86.7809 605.868 87.0613 606.001 87.3861C606.134 87.696 606.2 88.0281 606.2 88.3824C606.2 88.7366 606.134 89.0761 606.001 89.4008C605.868 89.7108 605.684 89.9838 605.447 90.22C605.211 90.4562 604.931 90.6407 604.606 90.7735C604.296 90.9063 603.964 90.9728 603.61 90.9728C603.256 90.9728 602.916 90.9063 602.591 90.7735C602.281 90.6407 602.008 90.4562 601.772 90.22C601.536 89.9838 601.351 89.7108 601.219 89.4008C601.086 89.0761 601.019 88.7366 601.019 88.3824ZM617.621 88.3824C617.621 88.0281 617.687 87.696 617.82 87.3861C617.953 87.0613 618.138 86.7809 618.374 86.5447C618.61 86.3086 618.883 86.1241 619.193 85.9912C619.518 85.8584 619.857 85.792 620.211 85.792C620.566 85.792 620.898 85.8584 621.208 85.9912C621.532 86.1241 621.813 86.3086 622.049 86.5447C622.285 86.7809 622.47 87.0613 622.603 87.3861C622.735 87.696 622.802 88.0281 622.802 88.3824C622.802 88.7366 622.735 89.0761 622.603 89.4008C622.47 89.7108 622.285 89.9838 622.049 90.22C621.813 90.4562 621.532 90.6407 621.208 90.7735C620.898 90.9063 620.566 90.9728 620.211 90.9728C619.857 90.9728 619.518 90.9063 619.193 90.7735C618.883 90.6407 618.61 90.4562 618.374 90.22C618.138 89.9838 617.953 89.7108 617.82 89.4008C617.687 89.0761 617.621 88.7366 617.621 88.3824ZM634.223 88.3824C634.223 88.0281 634.289 87.696 634.422 87.3861C634.555 87.0613 634.739 86.7809 634.975 86.5447C635.212 86.3086 635.485 86.1241 635.795 85.9912C636.119 85.8584 636.459 85.792 636.813 85.792C637.167 85.792 637.499 85.8584 637.809 85.9912C638.134 86.1241 638.415 86.3086 638.651 86.5447C638.887 86.7809 639.071 87.0613 639.204 87.3861C639.337 87.696 639.403 88.0281 639.403 88.3824C639.403 88.7366 639.337 89.0761 639.204 89.4008C639.071 89.7108 638.887 89.9838 638.651 90.22C638.415 90.4562 638.134 90.6407 637.809 90.7735C637.499 90.9063 637.167 90.9728 636.813 90.9728C636.459 90.9728 636.119 90.9063 635.795 90.7735C635.485 90.6407 635.212 90.4562 634.975 90.22C634.739 89.9838 634.555 89.7108 634.422 89.4008C634.289 89.0761 634.223 88.7366 634.223 88.3824ZM650.824 88.3824C650.824 88.0281 650.891 87.696 651.024 87.3861C651.156 87.0613 651.341 86.7809 651.577 86.5447C651.813 86.3086 652.086 86.1241 652.396 85.9912C652.721 85.8584 653.06 85.792 653.415 85.792C653.769 85.792 654.101 85.8584 654.411 85.9912C654.736 86.1241 655.016 86.3086 655.252 86.5447C655.489 86.7809 655.673 87.0613 655.806 87.3861C655.939 87.696 656.005 88.0281 656.005 88.3824C656.005 88.7366 655.939 89.0761 655.806 89.4008C655.673 89.7108 655.489 89.9838 655.252 90.22C655.016 90.4562 654.736 90.6407 654.411 90.7735C654.101 90.9063 653.769 90.9728 653.415 90.9728C653.06 90.9728 652.721 90.9063 652.396 90.7735C652.086 90.6407 651.813 90.4562 651.577 90.22C651.341 89.9838 651.156 89.7108 651.024 89.4008C650.891 89.0761 650.824 88.7366 650.824 88.3824ZM667.426 88.3824C667.426 88.0281 667.492 87.696 667.625 87.3861C667.758 87.0613 667.943 86.7809 668.179 86.5447C668.415 86.3086 668.688 86.1241 668.998 85.9912C669.323 85.8584 669.662 85.792 670.016 85.792C670.371 85.792 670.703 85.8584 671.013 85.9912C671.337 86.1241 671.618 86.3086 671.854 86.5447C672.09 86.7809 672.275 87.0613 672.408 87.3861C672.54 87.696 672.607 88.0281 672.607 88.3824C672.607 88.7366 672.54 89.0761 672.408 89.4008C672.275 89.7108 672.09 89.9838 671.854 90.22C671.618 90.4562 671.337 90.6407 671.013 90.7735C670.703 90.9063 670.371 90.9728 670.016 90.9728C669.662 90.9728 669.323 90.9063 668.998 90.7735C668.688 90.6407 668.415 90.4562 668.179 90.22C667.943 89.9838 667.758 89.7108 667.625 89.4008C667.492 89.0761 667.426 88.7366 667.426 88.3824ZM684.028 88.3824C684.028 88.0281 684.094 87.696 684.227 87.3861C684.36 87.0613 684.544 86.7809 684.78 86.5447C685.017 86.3086 685.29 86.1241 685.6 85.9912C685.924 85.8584 686.264 85.792 686.618 85.792C686.972 85.792 687.304 85.8584 687.614 85.9912C687.939 86.1241 688.22 86.3086 688.456 86.5447C688.692 86.7809 688.876 87.0613 689.009 87.3861C689.142 87.696 689.208 88.0281 689.208 88.3824C689.208 88.7366 689.142 89.0761 689.009 89.4008C688.876 89.7108 688.692 89.9838 688.456 90.22C688.22 90.4562 687.939 90.6407 687.614 90.7735C687.304 90.9063 686.972 90.9728 686.618 90.9728C686.264 90.9728 685.924 90.9063 685.6 90.7735C685.29 90.6407 685.017 90.4562 684.78 90.22C684.544 89.9838 684.36 89.7108 684.227 89.4008C684.094 89.0761 684.028 88.7366 684.028 88.3824ZM700.629 88.3824C700.629 88.0281 700.696 87.696 700.829 87.3861C700.961 87.0613 701.146 86.7809 701.382 86.5447C701.618 86.3086 701.891 86.1241 702.201 85.9912C702.526 85.8584 702.865 85.792 703.22 85.792C703.574 85.792 703.906 85.8584 704.216 85.9912C704.541 86.1241 704.821 86.3086 705.057 86.5447C705.293 86.7809 705.478 87.0613 705.611 87.3861C705.744 87.696 705.81 88.0281 705.81 88.3824C705.81 88.7366 705.744 89.0761 705.611 89.4008C705.478 89.7108 705.293 89.9838 705.057 90.22C704.821 90.4562 704.541 90.6407 704.216 90.7735C703.906 90.9063 703.574 90.9728 703.22 90.9728C702.865 90.9728 702.526 90.9063 702.201 90.7735C701.891 90.6407 701.618 90.4562 701.382 90.22C701.146 89.9838 700.961 89.7108 700.829 89.4008C700.696 89.0761 700.629 88.7366 700.629 88.3824ZM717.231 88.3824C717.231 88.0281 717.297 87.696 717.43 87.3861C717.563 87.0613 717.748 86.7809 717.984 86.5447C718.22 86.3086 718.493 86.1241 718.803 85.9912C719.128 85.8584 719.467 85.792 719.821 85.792C720.176 85.792 720.508 85.8584 720.818 85.9912C721.142 86.1241 721.423 86.3086 721.659 86.5447C721.895 86.7809 722.08 87.0613 722.212 87.3861C722.345 87.696 722.412 88.0281 722.412 88.3824C722.412 88.7366 722.345 89.0761 722.212 89.4008C722.08 89.7108 721.895 89.9838 721.659 90.22C721.423 90.4562 721.142 90.6407 720.818 90.7735C720.508 90.9063 720.176 90.9728 719.821 90.9728C719.467 90.9728 719.128 90.9063 718.803 90.7735C718.493 90.6407 718.22 90.4562 717.984 90.22C717.748 89.9838 717.563 89.7108 717.43 89.4008C717.297 89.0761 717.231 88.7366 717.231 88.3824ZM733.833 88.3824C733.833 88.0281 733.899 87.696 734.032 87.3861C734.165 87.0613 734.349 86.7809 734.585 86.5447C734.822 86.3086 735.095 86.1241 735.405 85.9912C735.729 85.8584 736.069 85.792 736.423 85.792C736.777 85.792 737.109 85.8584 737.419 85.9912C737.744 86.1241 738.024 86.3086 738.261 86.5447C738.497 86.7809 738.681 87.0613 738.814 87.3861C738.947 87.696 739.013 88.0281 739.013 88.3824C739.013 88.7366 738.947 89.0761 738.814 89.4008C738.681 89.7108 738.497 89.9838 738.261 90.22C738.024 90.4562 737.744 90.6407 737.419 90.7735C737.109 90.9063 736.777 90.9728 736.423 90.9728C736.069 90.9728 735.729 90.9063 735.405 90.7735C735.095 90.6407 734.822 90.4562 734.585 90.22C734.349 89.9838 734.165 89.7108 734.032 89.4008C733.899 89.0761 733.833 88.7366 733.833 88.3824ZM750.434 88.3824C750.434 88.0281 750.501 87.696 750.634 87.3861C750.766 87.0613 750.951 86.7809 751.187 86.5447C751.423 86.3086 751.696 86.1241 752.006 85.9912C752.331 85.8584 752.67 85.792 753.025 85.792C753.379 85.792 753.711 85.8584 754.021 85.9912C754.346 86.1241 754.626 86.3086 754.862 86.5447C755.098 86.7809 755.283 87.0613 755.416 87.3861C755.549 87.696 755.615 88.0281 755.615 88.3824C755.615 88.7366 755.549 89.0761 755.416 89.4008C755.283 89.7108 755.098 89.9838 754.862 90.22C754.626 90.4562 754.346 90.6407 754.021 90.7735C753.711 90.9063 753.379 90.9728 753.025 90.9728C752.67 90.9728 752.331 90.9063 752.006 90.7735C751.696 90.6407 751.423 90.4562 751.187 90.22C750.951 89.9838 750.766 89.7108 750.634 89.4008C750.501 89.0761 750.434 88.7366 750.434 88.3824ZM767.036 88.3824C767.036 88.0281 767.102 87.696 767.235 87.3861C767.368 87.0613 767.552 86.7809 767.789 86.5447C768.025 86.3086 768.298 86.1241 768.608 85.9912C768.933 85.8584 769.272 85.792 769.626 85.792C769.981 85.792 770.313 85.8584 770.623 85.9912C770.947 86.1241 771.228 86.3086 771.464 86.5447C771.7 86.7809 771.885 87.0613 772.017 87.3861C772.15 87.696 772.217 88.0281 772.217 88.3824C772.217 88.7366 772.15 89.0761 772.017 89.4008C771.885 89.7108 771.7 89.9838 771.464 90.22C771.228 90.4562 770.947 90.6407 770.623 90.7735C770.313 90.9063 769.981 90.9728 769.626 90.9728C769.272 90.9728 768.933 90.9063 768.608 90.7735C768.298 90.6407 768.025 90.4562 767.789 90.22C767.552 89.9838 767.368 89.7108 767.235 89.4008C767.102 89.0761 767.036 88.7366 767.036 88.3824ZM783.638 88.3824C783.638 88.0281 783.704 87.696 783.837 87.3861C783.97 87.0613 784.154 86.7809 784.39 86.5447C784.626 86.3086 784.9 86.1241 785.209 85.9912C785.534 85.8584 785.874 85.792 786.228 85.792C786.582 85.792 786.914 85.8584 787.224 85.9912C787.549 86.1241 787.829 86.3086 788.066 86.5447C788.302 86.7809 788.486 87.0613 788.619 87.3861C788.752 87.696 788.818 88.0281 788.818 88.3824C788.818 88.7366 788.752 89.0761 788.619 89.4008C788.486 89.7108 788.302 89.9838 788.066 90.22C787.829 90.4562 787.549 90.6407 787.224 90.7735C786.914 90.9063 786.582 90.9728 786.228 90.9728C785.874 90.9728 785.534 90.9063 785.209 90.7735C784.9 90.6407 784.626 90.4562 784.39 90.22C784.154 89.9838 783.97 89.7108 783.837 89.4008C783.704 89.0761 783.638 88.7366 783.638 88.3824ZM800.239 88.3824C800.239 88.0281 800.306 87.696 800.438 87.3861C800.571 87.0613 800.756 86.7809 800.992 86.5447C801.228 86.3086 801.501 86.1241 801.811 85.9912C802.136 85.8584 802.475 85.792 802.83 85.792C803.184 85.792 803.516 85.8584 803.826 85.9912C804.151 86.1241 804.431 86.3086 804.667 86.5447C804.903 86.7809 805.088 87.0613 805.221 87.3861C805.354 87.696 805.42 88.0281 805.42 88.3824C805.42 88.7366 805.354 89.0761 805.221 89.4008C805.088 89.7108 804.903 89.9838 804.667 90.22C804.431 90.4562 804.151 90.6407 803.826 90.7735C803.516 90.9063 803.184 90.9728 802.83 90.9728C802.475 90.9728 802.136 90.9063 801.811 90.7735C801.501 90.6407 801.228 90.4562 800.992 90.22C800.756 89.9838 800.571 89.7108 800.438 89.4008C800.306 89.0761 800.239 88.7366 800.239 88.3824ZM816.841 88.3824C816.841 88.0281 816.907 87.696 817.04 87.3861C817.173 87.0613 817.357 86.7809 817.594 86.5447C817.83 86.3086 818.103 86.1241 818.413 85.9912C818.738 85.8584 819.077 85.792 819.431 85.792C819.785 85.792 820.118 85.8584 820.428 85.9912C820.752 86.1241 821.033 86.3086 821.269 86.5447C821.505 86.7809 821.69 87.0613 821.822 87.3861C821.955 87.696 822.022 88.0281 822.022 88.3824C822.022 88.7366 821.955 89.0761 821.822 89.4008C821.69 89.7108 821.505 89.9838 821.269 90.22C821.033 90.4562 820.752 90.6407 820.428 90.7735C820.118 90.9063 819.785 90.9728 819.431 90.9728C819.077 90.9728 818.738 90.9063 818.413 90.7735C818.103 90.6407 817.83 90.4562 817.594 90.22C817.357 89.9838 817.173 89.7108 817.04 89.4008C816.907 89.0761 816.841 88.7366 816.841 88.3824Z" fill="#EC748E"/>
<path d="M910.924 268.998L921.355 255.714C926.666 248.951 936.908 248.951 942.218 255.714V255.714C947.529 262.476 957.771 262.476 963.081 255.714V255.714C968.391 248.951 978.634 248.951 983.944 255.714V255.714C989.254 262.476 999.497 262.476 1004.81 255.714V255.714C1010.12 248.951 1020.36 248.951 1025.67 255.714V255.714C1030.98 262.476 1041.22 262.476 1046.53 255.714V255.714C1051.84 248.951 1062.09 248.951 1067.4 255.714V255.714C1072.71 262.476 1082.95 262.476 1088.26 255.714V255.714C1093.57 248.951 1103.81 248.951 1109.12 255.714V255.714C1114.43 262.476 1124.67 262.476 1129.98 255.714V255.714C1135.29 248.951 1145.54 248.951 1150.85 255.714V255.714C1156.16 262.476 1166.4 262.476 1171.71 255.714L1182.14 242.43" stroke="#3BC3EE" stroke-width="5.53504"/>
<path d="M37.2356 81C36.5999 81 36.0797 80.7977 35.6752 80.3932C35.2706 79.9308 35.0683 79.4107 35.0683 78.8327V22.484C35.0683 21.8483 35.2706 21.3281 35.6752 20.9236C36.0797 20.519 36.5999 20.3167 37.2356 20.3167H48.8521C49.4878 20.3167 50.008 20.519 50.4125 20.9236C50.8749 21.3281 51.1061 21.8483 51.1061 22.484V78.8327C51.1061 79.4107 50.8749 79.9308 50.4125 80.3932C50.008 80.7977 49.4878 81 48.8521 81H37.2356ZM64.3886 81C63.7529 81 63.2328 80.7977 62.8282 80.3932C62.4237 79.9308 62.2214 79.4107 62.2214 78.8327V38.0883C62.2214 37.4525 62.4237 36.9324 62.8282 36.5278C63.2328 36.1233 63.7529 35.921 64.3886 35.921H74.358C74.9938 35.921 75.5139 36.1233 75.9185 36.5278C76.3808 36.9324 76.612 37.4525 76.612 38.0883V41.3825C78.0568 39.5909 79.9929 38.0883 82.4202 36.8746C84.8476 35.6609 87.7084 35.0541 91.0026 35.0541C94.3546 35.0541 97.3021 35.8054 99.845 37.308C102.446 38.8107 104.469 41.0068 105.913 43.8965C107.416 46.7862 108.167 50.3694 108.167 54.6461V78.8327C108.167 79.4107 107.965 79.9308 107.56 80.3932C107.156 80.7977 106.636 81 106 81H95.077C94.4991 81 93.979 80.7977 93.5166 80.3932C93.1121 79.9308 92.9098 79.4107 92.9098 78.8327V55.1663C92.9098 52.45 92.2452 50.3694 90.9159 48.9246C89.6444 47.4219 87.7373 46.6706 85.1943 46.6706C82.8248 46.6706 80.9176 47.4219 79.4728 48.9246C78.0857 50.3694 77.3922 52.45 77.3922 55.1663V78.8327C77.3922 79.4107 77.161 79.9308 76.6987 80.3932C76.2941 80.7977 75.8029 81 75.2249 81H64.3886ZM159.962 81.8669C154.183 81.8669 149.386 81.0578 145.571 79.4396C141.757 77.7636 138.867 75.5963 136.902 72.9378C134.937 70.2793 133.897 67.4474 133.782 64.4421C133.782 63.9798 133.955 63.5752 134.302 63.2285C134.706 62.8239 135.169 62.6216 135.689 62.6216H146.612C147.421 62.6216 148.028 62.7661 148.432 63.0551C148.895 63.3441 149.299 63.7197 149.646 64.1821C150.108 65.049 150.744 65.887 151.553 66.6961C152.42 67.5052 153.547 68.1698 154.934 68.69C156.321 69.1523 157.997 69.3835 159.962 69.3835C163.314 69.3835 165.828 68.8633 167.504 67.8231C169.238 66.7828 170.105 65.3668 170.105 63.5752C170.105 62.246 169.643 61.1768 168.718 60.3677C167.793 59.5586 166.29 58.8362 164.21 58.2004C162.187 57.5069 159.471 56.8134 156.061 56.1199C151.669 55.1952 147.912 54.0104 144.791 52.5656C141.728 51.0629 139.388 49.1268 137.769 46.7573C136.151 44.33 135.342 41.3247 135.342 37.7415C135.342 34.2161 136.325 31.0663 138.289 28.2922C140.312 25.5181 143.115 23.3509 146.698 21.7905C150.282 20.23 154.529 19.4498 159.442 19.4498C163.43 19.4498 166.926 19.97 169.931 21.0102C172.995 22.0505 175.566 23.4376 177.647 25.1714C179.728 26.9052 181.288 28.7546 182.328 30.7196C183.426 32.6268 184.004 34.505 184.062 36.3544C184.062 36.8168 183.889 37.2502 183.542 37.6548C183.253 38.0016 182.819 38.1749 182.242 38.1749H170.798C170.163 38.1749 169.614 38.0594 169.151 37.8282C168.689 37.597 168.284 37.2213 167.938 36.7012C167.591 35.4297 166.666 34.3317 165.164 33.407C163.719 32.4245 161.811 31.9332 159.442 31.9332C156.899 31.9332 154.905 32.3956 153.46 33.3203C152.073 34.1872 151.38 35.5453 151.38 37.3947C151.38 38.5506 151.755 39.562 152.507 40.4289C153.316 41.2958 154.616 42.0471 156.408 42.6828C158.257 43.3186 160.771 43.9832 163.95 44.6767C169.209 45.6592 173.457 46.9018 176.693 48.4044C179.93 49.8493 182.299 51.7564 183.802 54.126C185.362 56.4377 186.143 59.3563 186.143 62.8817C186.143 66.8117 185.016 70.1926 182.762 73.0245C180.508 75.8564 177.416 78.0525 173.486 79.613C169.614 81.1156 165.106 81.8669 159.962 81.8669ZM216.925 81C213.226 81 210.019 80.4221 207.302 79.2662C204.644 78.0525 202.592 76.2031 201.147 73.718C199.703 71.1751 198.98 67.9098 198.98 63.922V47.2774H192.218C191.583 47.2774 191.034 47.0752 190.571 46.6706C190.167 46.266 189.964 45.7459 189.964 45.1102V38.0883C189.964 37.4525 190.167 36.9324 190.571 36.5278C191.034 36.1233 191.583 35.921 192.218 35.921H198.98V21.6171C198.98 20.9813 199.182 20.4612 199.587 20.0567C200.049 19.6521 200.57 19.4498 201.147 19.4498H211.204C211.839 19.4498 212.359 19.6521 212.764 20.0567C213.169 20.4612 213.371 20.9813 213.371 21.6171V35.921H224.207C224.843 35.921 225.363 36.1233 225.768 36.5278C226.23 36.9324 226.461 37.4525 226.461 38.0883V45.1102C226.461 45.7459 226.23 46.266 225.768 46.6706C225.363 47.0752 224.843 47.2774 224.207 47.2774H213.371V62.7083C213.371 64.6733 213.746 66.2337 214.498 67.3896C215.249 68.5455 216.521 69.1234 218.312 69.1234H224.987C225.623 69.1234 226.143 69.3257 226.548 69.7302C226.952 70.1348 227.155 70.6549 227.155 71.2907V78.8327C227.155 79.4107 226.952 79.9308 226.548 80.3932C226.143 80.7977 225.623 81 224.987 81H216.925ZM255.138 81.8669C248.318 81.8669 242.886 80.0175 238.84 76.3187C234.795 72.6199 232.685 67.1295 232.512 59.8475C232.512 59.443 232.512 58.9228 232.512 58.2871C232.512 57.6514 232.512 57.1601 232.512 56.8134C232.685 52.2477 233.697 48.3466 235.546 45.1102C237.453 41.8159 240.054 39.3308 243.348 37.6548C246.7 35.921 250.601 35.0541 255.051 35.0541C260.137 35.0541 264.327 36.0655 267.621 38.0883C270.973 40.111 273.487 42.8562 275.163 46.3238C276.839 49.7915 277.677 53.7503 277.677 58.2004V60.281C277.677 60.9167 277.475 61.4369 277.071 61.8414C276.666 62.246 276.146 62.4483 275.51 62.4483H247.769C247.769 62.506 247.769 62.5927 247.769 62.7083C247.769 62.8239 247.769 62.9395 247.769 63.0551C247.827 64.7311 248.116 66.2626 248.636 67.6497C249.214 69.0367 250.023 70.1348 251.064 70.9439C252.162 71.753 253.491 72.1576 255.051 72.1576C256.207 72.1576 257.161 71.9842 257.912 71.6374C258.721 71.2329 259.386 70.7994 259.906 70.3371C260.426 69.8169 260.831 69.3835 261.12 69.0367C261.64 68.401 262.044 68.0253 262.333 67.9098C262.68 67.7364 263.2 67.6497 263.894 67.6497H274.643C275.221 67.6497 275.684 67.8231 276.03 68.1698C276.435 68.5166 276.608 68.9789 276.551 69.5569C276.493 70.5394 276.001 71.7241 275.077 73.1112C274.152 74.4982 272.794 75.8853 271.002 77.2723C269.269 78.6016 267.072 79.6996 264.414 80.5665C261.755 81.4335 258.663 81.8669 255.138 81.8669ZM247.769 53.8659H262.42V53.6925C262.42 51.7853 262.131 50.1671 261.553 48.8379C261.033 47.4508 260.195 46.3816 259.039 45.6303C257.941 44.879 256.612 44.5033 255.051 44.5033C253.549 44.5033 252.248 44.879 251.15 45.6303C250.052 46.3816 249.214 47.4508 248.636 48.8379C248.058 50.1671 247.769 51.7853 247.769 53.6925V53.8659ZM287.972 97.4712C287.336 97.4712 286.816 97.24 286.412 96.7777C286.007 96.3731 285.805 95.8819 285.805 95.3039V38.0883C285.805 37.4525 286.007 36.9324 286.412 36.5278C286.816 36.1233 287.336 35.921 287.972 35.921H297.768C298.346 35.921 298.837 36.1233 299.242 36.5278C299.704 36.9324 299.935 37.4525 299.935 38.0883V41.2091C301.322 39.4753 303.114 38.0305 305.31 36.8746C307.506 35.6609 310.194 35.0541 313.372 35.0541C316.262 35.0541 318.805 35.5164 321.001 36.4411C323.197 37.308 325.075 38.6084 326.636 40.3422C328.254 42.076 329.497 44.1855 330.364 46.6706C331.23 49.1557 331.722 52.0165 331.837 55.253C331.895 56.4088 331.924 57.478 331.924 58.4605C331.924 59.443 331.895 60.5122 331.837 61.668C331.722 64.7889 331.23 67.5919 330.364 70.077C329.497 72.5621 328.283 74.6716 326.723 76.4054C325.162 78.1392 323.255 79.4974 321.001 80.4799C318.805 81.4046 316.262 81.8669 313.372 81.8669C310.54 81.8669 308.055 81.3757 305.917 80.3932C303.836 79.3529 302.103 77.908 300.715 76.0586V95.3039C300.715 95.8819 300.513 96.3731 300.109 96.7777C299.704 97.24 299.184 97.4712 298.548 97.4712H287.972ZM308.691 70.2504C310.656 70.2504 312.187 69.8458 313.286 69.0367C314.384 68.2276 315.164 67.1295 315.626 65.7425C316.146 64.3554 316.464 62.8239 316.58 61.1479C316.695 59.3563 316.695 57.5647 316.58 55.7731C316.464 54.0971 316.146 52.5655 315.626 51.1785C315.164 49.7915 314.384 48.6934 313.286 47.8843C312.187 47.0752 310.656 46.6706 308.691 46.6706C306.842 46.6706 305.339 47.1041 304.183 47.971C303.027 48.7801 302.189 49.8493 301.669 51.1785C301.149 52.5078 300.831 53.9526 300.715 55.513C300.658 56.6111 300.629 57.6803 300.629 58.7206C300.629 59.7609 300.658 60.8589 300.715 62.0148C300.773 63.4596 301.091 64.8178 301.669 66.0893C302.247 67.3029 303.114 68.3143 304.27 69.1234C305.426 69.8747 306.899 70.2504 308.691 70.2504ZM50.5859 184C49.9502 184 49.43 183.798 49.0255 183.393C48.6209 182.931 48.4186 182.411 48.4186 181.833V136.927H32.9878C32.352 136.927 31.8319 136.725 31.4273 136.32C31.0228 135.858 30.8205 135.338 30.8205 134.76V125.484C30.8205 124.848 31.0228 124.328 31.4273 123.924C31.8319 123.519 32.352 123.317 32.9878 123.317H79.6272C80.2629 123.317 80.7831 123.519 81.1876 123.924C81.5922 124.328 81.7945 124.848 81.7945 125.484V134.76C81.7945 135.338 81.5922 135.858 81.1876 136.32C80.7831 136.725 80.2629 136.927 79.6272 136.927H64.1963V181.833C64.1963 182.411 63.994 182.931 63.5895 183.393C63.1849 183.798 62.6648 184 62.029 184H50.5859ZM102.426 184.867C97.5714 184.867 93.4681 184.087 90.116 182.526C86.8218 180.966 84.2789 178.741 82.4873 175.851C80.7535 172.904 79.771 169.407 79.5398 165.362C79.482 164.206 79.4531 162.905 79.4531 161.46C79.4531 159.958 79.482 158.658 79.5398 157.559C79.771 153.456 80.8113 149.96 82.6607 147.07C84.5101 144.18 87.0819 141.955 90.3761 140.395C93.7281 138.834 97.7448 138.054 102.426 138.054C107.165 138.054 111.182 138.834 114.476 140.395C117.828 141.955 120.429 144.18 122.278 147.07C124.128 149.96 125.168 153.456 125.399 157.559C125.457 158.658 125.486 159.958 125.486 161.46C125.486 162.905 125.457 164.206 125.399 165.362C125.168 169.407 124.156 172.904 122.365 175.851C120.631 178.741 118.088 180.966 114.736 182.526C111.442 184.087 107.339 184.867 102.426 184.867ZM102.426 174.291C105.027 174.291 106.905 173.51 108.061 171.95C109.275 170.39 109.968 168.049 110.142 164.928C110.199 164.061 110.228 162.905 110.228 161.46C110.228 160.016 110.199 158.86 110.142 157.993C109.968 154.93 109.275 152.618 108.061 151.058C106.905 149.439 105.027 148.63 102.426 148.63C99.941 148.63 98.0627 149.439 96.7912 151.058C95.5775 152.618 94.9129 154.93 94.7973 157.993C94.7395 158.86 94.7106 160.016 94.7106 161.46C94.7106 162.905 94.7395 164.061 94.7973 164.928C94.9129 168.049 95.5775 170.39 96.7912 171.95C98.0627 173.51 99.941 174.291 102.426 174.291ZM156.203 203.072C151.752 203.072 148.054 202.494 145.106 201.338C142.217 200.182 139.905 198.795 138.171 197.177C136.495 195.559 135.281 193.94 134.53 192.322C133.779 190.762 133.374 189.519 133.316 188.595C133.259 187.959 133.461 187.41 133.923 186.947C134.385 186.543 134.935 186.341 135.57 186.341H146.58C147.158 186.341 147.62 186.485 147.967 186.774C148.314 187.063 148.603 187.525 148.834 188.161C149.181 188.797 149.585 189.433 150.048 190.068C150.51 190.762 151.175 191.34 152.041 191.802C152.966 192.264 154.209 192.496 155.769 192.496C157.503 192.496 158.948 192.207 160.104 191.629C161.26 191.109 162.126 190.213 162.704 188.941C163.282 187.728 163.571 186.081 163.571 184V178.192C162.242 179.637 160.537 180.821 158.457 181.746C156.376 182.613 153.862 183.046 150.914 183.046C147.967 183.046 145.366 182.613 143.112 181.746C140.858 180.879 138.98 179.579 137.477 177.845C135.975 176.111 134.79 174.002 133.923 171.517C133.114 169.031 132.623 166.171 132.449 162.934C132.392 161.432 132.392 159.9 132.449 158.34C132.623 155.277 133.114 152.502 133.923 150.017C134.732 147.474 135.888 145.336 137.391 143.602C138.951 141.811 140.858 140.453 143.112 139.528C145.366 138.545 147.967 138.054 150.914 138.054C154.035 138.054 156.694 138.661 158.89 139.875C161.144 141.03 162.993 142.504 164.438 144.296V141.088C164.438 140.51 164.64 140.019 165.045 139.615C165.45 139.152 165.97 138.921 166.605 138.921H176.575C177.211 138.921 177.731 139.152 178.135 139.615C178.598 140.019 178.829 140.51 178.829 141.088V182.786C178.829 187.179 177.933 190.877 176.141 193.883C174.408 196.888 171.836 199.171 168.426 200.731C165.074 202.292 160.999 203.072 156.203 203.072ZM155.596 171.777C157.445 171.777 158.948 171.372 160.104 170.563C161.26 169.754 162.098 168.714 162.618 167.442C163.196 166.171 163.513 164.813 163.571 163.368C163.629 162.732 163.658 161.836 163.658 160.68C163.658 159.524 163.629 158.658 163.571 158.08C163.513 156.577 163.196 155.19 162.618 153.918C162.098 152.647 161.26 151.636 160.104 150.884C158.948 150.075 157.445 149.671 155.596 149.671C153.689 149.671 152.157 150.075 151.001 150.884C149.903 151.693 149.094 152.791 148.574 154.179C148.111 155.566 147.823 157.097 147.707 158.773C147.649 160.045 147.649 161.345 147.707 162.674C147.823 164.35 148.111 165.882 148.574 167.269C149.094 168.656 149.903 169.754 151.001 170.563C152.157 171.372 153.689 171.777 155.596 171.777ZM209.846 184.867C203.026 184.867 197.593 183.018 193.548 179.319C189.502 175.62 187.393 170.13 187.219 162.848C187.219 162.443 187.219 161.923 187.219 161.287C187.219 160.651 187.219 160.16 187.219 159.813C187.393 155.248 188.404 151.347 190.254 148.11C192.161 144.816 194.762 142.331 198.056 140.655C201.408 138.921 205.309 138.054 209.759 138.054C214.845 138.054 219.035 139.065 222.329 141.088C225.681 143.111 228.195 145.856 229.871 149.324C231.547 152.791 232.385 156.75 232.385 161.2V163.281C232.385 163.917 232.183 164.437 231.778 164.841C231.374 165.246 230.854 165.448 230.218 165.448H202.477C202.477 165.506 202.477 165.593 202.477 165.708C202.477 165.824 202.477 165.94 202.477 166.055C202.535 167.731 202.824 169.263 203.344 170.65C203.922 172.037 204.731 173.135 205.771 173.944C206.869 174.753 208.199 175.158 209.759 175.158C210.915 175.158 211.868 174.984 212.62 174.637C213.429 174.233 214.093 173.799 214.614 173.337C215.134 172.817 215.538 172.383 215.827 172.037C216.347 171.401 216.752 171.025 217.041 170.91C217.388 170.736 217.908 170.65 218.601 170.65H229.351C229.929 170.65 230.391 170.823 230.738 171.17C231.143 171.517 231.316 171.979 231.258 172.557C231.2 173.539 230.709 174.724 229.784 176.111C228.86 177.498 227.502 178.885 225.71 180.272C223.976 181.602 221.78 182.7 219.122 183.567C216.463 184.433 213.371 184.867 209.846 184.867ZM202.477 156.866H217.128V156.693C217.128 154.785 216.839 153.167 216.261 151.838C215.741 150.451 214.903 149.382 213.747 148.63C212.649 147.879 211.319 147.503 209.759 147.503C208.256 147.503 206.956 147.879 205.858 148.63C204.76 149.382 203.922 150.451 203.344 151.838C202.766 153.167 202.477 154.785 202.477 156.693V156.866ZM263.487 184C259.789 184 256.581 183.422 253.865 182.266C251.206 181.053 249.155 179.203 247.71 176.718C246.265 174.175 245.542 170.91 245.542 166.922V150.277H238.781C238.145 150.277 237.596 150.075 237.133 149.671C236.729 149.266 236.527 148.746 236.527 148.11V141.088C236.527 140.453 236.729 139.932 237.133 139.528C237.596 139.123 238.145 138.921 238.781 138.921H245.542V124.617C245.542 123.981 245.745 123.461 246.149 123.057C246.612 122.652 247.132 122.45 247.71 122.45H257.766C258.402 122.45 258.922 122.652 259.326 123.057C259.731 123.461 259.933 123.981 259.933 124.617V138.921H270.769C271.405 138.921 271.925 139.123 272.33 139.528C272.792 139.932 273.023 140.453 273.023 141.088V148.11C273.023 148.746 272.792 149.266 272.33 149.671C271.925 150.075 271.405 150.277 270.769 150.277H259.933V165.708C259.933 167.673 260.309 169.234 261.06 170.39C261.811 171.545 263.083 172.123 264.874 172.123H271.55C272.185 172.123 272.705 172.326 273.11 172.73C273.515 173.135 273.717 173.655 273.717 174.291V181.833C273.717 182.411 273.515 182.931 273.11 183.393C272.705 183.798 272.185 184 271.55 184H263.487ZM283.062 184C282.426 184 281.906 183.798 281.501 183.393C281.097 182.931 280.895 182.411 280.895 181.833V124.617C280.895 123.981 281.097 123.461 281.501 123.057C281.906 122.652 282.426 122.45 283.062 122.45H294.158C294.794 122.45 295.314 122.652 295.719 123.057C296.123 123.461 296.325 123.981 296.325 124.617V143.949C297.886 142.157 299.793 140.741 302.047 139.701C304.359 138.603 307.017 138.054 310.022 138.054C313.375 138.054 316.351 138.805 318.952 140.308C321.61 141.811 323.691 144.007 325.193 146.897C326.696 149.786 327.447 153.369 327.447 157.646V181.833C327.447 182.411 327.245 182.931 326.84 183.393C326.436 183.798 325.916 184 325.28 184H314.097C313.519 184 312.999 183.798 312.536 183.393C312.132 182.931 311.93 182.411 311.93 181.833V158.166C311.93 155.45 311.265 153.369 309.936 151.925C308.664 150.422 306.786 149.671 304.301 149.671C301.874 149.671 299.937 150.422 298.493 151.925C297.048 153.369 296.325 155.45 296.325 158.166V181.833C296.325 182.411 296.123 182.931 295.719 183.393C295.314 183.798 294.794 184 294.158 184H283.062ZM358.083 184.867C351.263 184.867 345.831 183.018 341.785 179.319C337.739 175.62 335.63 170.13 335.457 162.848C335.457 162.443 335.457 161.923 335.457 161.287C335.457 160.651 335.457 160.16 335.457 159.813C335.63 155.248 336.641 151.347 338.491 148.11C340.398 144.816 342.999 142.331 346.293 140.655C349.645 138.921 353.546 138.054 357.996 138.054C363.082 138.054 367.272 139.065 370.566 141.088C373.918 143.111 376.432 145.856 378.108 149.324C379.784 152.791 380.622 156.75 380.622 161.2V163.281C380.622 163.917 380.42 164.437 380.015 164.841C379.611 165.246 379.091 165.448 378.455 165.448H350.714C350.714 165.506 350.714 165.593 350.714 165.708C350.714 165.824 350.714 165.94 350.714 166.055C350.772 167.731 351.061 169.263 351.581 170.65C352.159 172.037 352.968 173.135 354.008 173.944C355.106 174.753 356.436 175.158 357.996 175.158C359.152 175.158 360.106 174.984 360.857 174.637C361.666 174.233 362.331 173.799 362.851 173.337C363.371 172.817 363.775 172.383 364.064 172.037C364.585 171.401 364.989 171.025 365.278 170.91C365.625 170.736 366.145 170.65 366.839 170.65H377.588C378.166 170.65 378.628 170.823 378.975 171.17C379.38 171.517 379.553 171.979 379.495 172.557C379.438 173.539 378.946 174.724 378.022 176.111C377.097 177.498 375.739 178.885 373.947 180.272C372.213 181.602 370.017 182.7 367.359 183.567C364.7 184.433 361.608 184.867 358.083 184.867ZM350.714 156.866H365.365V156.693C365.365 154.785 365.076 153.167 364.498 151.838C363.978 150.451 363.14 149.382 361.984 148.63C360.886 147.879 359.557 147.503 357.996 147.503C356.493 147.503 355.193 147.879 354.095 148.63C352.997 149.382 352.159 150.451 351.581 151.838C351.003 153.167 350.714 154.785 350.714 156.693V156.866ZM390.917 184C390.281 184 389.761 183.798 389.356 183.393C388.952 182.931 388.75 182.411 388.75 181.833V141.088C388.75 140.51 388.952 140.019 389.356 139.615C389.761 139.152 390.281 138.921 390.917 138.921H400.886C401.522 138.921 402.042 139.152 402.447 139.615C402.909 140.019 403.14 140.51 403.14 141.088V144.556C404.643 142.764 406.463 141.377 408.602 140.395C410.798 139.412 413.254 138.921 415.97 138.921H419.785C420.42 138.921 420.941 139.123 421.345 139.528C421.75 139.932 421.952 140.453 421.952 141.088V150.017C421.952 150.595 421.75 151.115 421.345 151.578C420.941 151.982 420.42 152.185 419.785 152.185H411.376C409.006 152.185 407.157 152.849 405.828 154.179C404.556 155.45 403.92 157.27 403.92 159.64V181.833C403.92 182.411 403.689 182.931 403.227 183.393C402.822 183.798 402.302 184 401.666 184H390.917Z" fill="black"/>
</svg>
