<svg width="160" height="48" viewBox="0 0 160 48" fill="none" xmlns="http://www.w3.org/2000/svg">
<rect x="0.369507" y="0.419434" width="158.922" height="47.3466" rx="12.6258" fill="#E5EDFD"/>
<rect x="7.94495" y="7.99512" width="32.1957" height="32.1957" rx="10.1006" fill="white"/>
<circle cx="24.3585" cy="23.7775" r="3.15644" fill="white"/>
<path d="M21.9912 18.8849C21.9912 17.5775 23.051 16.5176 24.3585 16.5176C25.6659 16.5176 26.7258 17.5775 26.7258 18.8849V24.4087C26.7258 25.7161 25.6659 26.776 24.3585 26.776C23.051 26.776 21.9912 25.7161 21.9912 24.4087V18.8849Z" fill="#1F3074"/>
<path d="M29.8823 22.8305V24.4087C29.8823 27.4594 27.4092 29.9325 24.3585 29.9325M18.8347 22.8305V24.4087C18.8347 27.4594 21.3078 29.9325 24.3585 29.9325M24.3585 29.9325V32.2998M21.202 32.2998H27.5149M24.3585 26.776C23.051 26.776 21.9912 25.7161 21.9912 24.4087V18.8849C21.9912 17.5775 23.051 16.5176 24.3585 16.5176C25.6659 16.5176 26.7258 17.5775 26.7258 18.8849V24.4087C26.7258 25.7161 25.6659 26.776 24.3585 26.776Z" stroke="#1F3074" stroke-width="1.26258" stroke-linecap="round" stroke-linejoin="round"/>
<path d="M51.7483 29.5928C51.6433 29.5928 51.554 29.556 51.4805 29.4825C51.407 29.409 51.3703 29.3198 51.3703 29.2148V20.5045H48.4564C48.3513 20.5045 48.2621 20.4678 48.1886 20.3943C48.1151 20.3208 48.0783 20.2315 48.0783 20.1265V18.961C48.0783 18.8454 48.1151 18.7509 48.1886 18.6774C48.2621 18.6039 48.3513 18.5672 48.4564 18.5672H56.4893C56.6048 18.5672 56.6993 18.6039 56.7728 18.6774C56.8463 18.7509 56.8831 18.8454 56.8831 18.961V20.1265C56.8831 20.2315 56.8463 20.3208 56.7728 20.3943C56.6993 20.4678 56.6048 20.5045 56.4893 20.5045H53.5911V29.2148C53.5911 29.3198 53.5544 29.409 53.4809 29.4825C53.4074 29.556 53.3129 29.5928 53.1974 29.5928H51.7483ZM59.2555 29.7503C58.7095 29.7503 58.216 29.6453 57.7749 29.4353C57.3339 29.2148 56.9822 28.926 56.7196 28.569C56.4676 28.2014 56.3416 27.7919 56.3416 27.3404C56.3416 26.6054 56.6356 26.0226 57.2237 25.5921C57.8222 25.151 58.6097 24.857 59.5863 24.71L61.7442 24.395V24.0642C61.7442 23.6232 61.6339 23.2819 61.4134 23.0404C61.1929 22.7989 60.8149 22.6782 60.2793 22.6782C59.9013 22.6782 59.5915 22.7569 59.35 22.9144C59.119 23.0614 58.9458 23.2609 58.8303 23.5129C58.7463 23.6495 58.6255 23.7177 58.468 23.7177H57.2237C57.1082 23.7177 57.0189 23.6862 56.9559 23.6232C56.9034 23.5602 56.8772 23.4762 56.8772 23.3712C56.8877 23.2032 56.9559 22.9984 57.0819 22.7569C57.2079 22.5154 57.4074 22.2844 57.6804 22.0639C57.9535 21.8329 58.3052 21.6386 58.7358 21.4811C59.1663 21.3236 59.6861 21.2448 60.2951 21.2448C60.9566 21.2448 61.5132 21.3288 61.9647 21.4968C62.4267 21.6543 62.7942 21.8696 63.0672 22.1426C63.3402 22.4156 63.5398 22.7359 63.6658 23.1034C63.7918 23.4709 63.8548 23.8595 63.8548 24.269V29.2148C63.8548 29.3198 63.818 29.409 63.7445 29.4825C63.671 29.556 63.5818 29.5928 63.4768 29.5928H62.2009C62.0854 29.5928 61.9909 29.556 61.9174 29.4825C61.8544 29.409 61.8229 29.3198 61.8229 29.2148V28.6005C61.6864 28.8 61.5026 28.989 61.2716 29.1675C61.0406 29.3355 60.7571 29.4773 60.4211 29.5928C60.0956 29.6978 59.7071 29.7503 59.2555 29.7503ZM59.7911 28.254C60.1586 28.254 60.4893 28.1752 60.7834 28.0177C61.0879 27.8602 61.3241 27.6187 61.4921 27.2931C61.6707 26.9571 61.7599 26.5371 61.7599 26.0331V25.7023L60.1848 25.9543C59.5653 26.0488 59.1033 26.2011 58.7988 26.4111C58.4942 26.6211 58.342 26.8784 58.342 27.1829C58.342 27.4139 58.4102 27.6134 58.5467 27.7814C58.6937 27.9389 58.8775 28.0597 59.098 28.1437C59.3185 28.2172 59.5495 28.254 59.7911 28.254ZM66.2692 29.5928C66.1642 29.5928 66.0749 29.556 66.0014 29.4825C65.9279 29.409 65.8912 29.3198 65.8912 29.2148V18.7877C65.8912 18.6827 65.9279 18.5934 66.0014 18.5199C66.0749 18.4464 66.1642 18.4097 66.2692 18.4097H67.5765C67.6815 18.4097 67.7708 18.4464 67.8443 18.5199C67.9178 18.5934 67.9545 18.6827 67.9545 18.7877V29.2148C67.9545 29.3198 67.9178 29.409 67.8443 29.4825C67.7708 29.556 67.6815 29.5928 67.5765 29.5928H66.2692ZM70.4376 29.5928C70.3326 29.5928 70.2434 29.556 70.1699 29.4825C70.0964 29.409 70.0596 29.3198 70.0596 29.2148V18.7877C70.0596 18.6827 70.0964 18.5934 70.1699 18.5199C70.2434 18.4464 70.3326 18.4097 70.4376 18.4097H71.7135C71.829 18.4097 71.9182 18.4464 71.9812 18.5199C72.0547 18.5934 72.0915 18.6827 72.0915 18.7877V24.1745L74.7376 21.6701C74.8321 21.5861 74.9161 21.5231 74.9896 21.4811C75.0631 21.4286 75.1734 21.4023 75.3204 21.4023H76.7852C76.8902 21.4023 76.9742 21.4338 77.0373 21.4968C77.1003 21.5598 77.1318 21.6438 77.1318 21.7489C77.1318 21.7909 77.1213 21.8381 77.1003 21.8906C77.0793 21.9431 77.0373 21.9904 76.9742 22.0324L73.7296 25.0723L77.368 28.9785C77.473 29.0835 77.5255 29.1728 77.5255 29.2463C77.5255 29.3513 77.4888 29.4353 77.4153 29.4983C77.3523 29.5613 77.2735 29.5928 77.179 29.5928H75.6827C75.5252 29.5928 75.4097 29.5718 75.3362 29.5298C75.2732 29.4773 75.1944 29.409 75.0999 29.325L72.0915 26.1591V29.2148C72.0915 29.3198 72.0547 29.409 71.9812 29.4825C71.9182 29.556 71.829 29.5928 71.7135 29.5928H70.4376ZM84.0782 29.5928C83.9312 29.5928 83.821 29.556 83.7475 29.4825C83.674 29.409 83.611 29.3145 83.5585 29.199L81.3061 21.8906C81.2956 21.8381 81.2903 21.7909 81.2903 21.7489C81.2903 21.6543 81.3218 21.5756 81.3849 21.5126C81.4584 21.4391 81.5371 21.4023 81.6211 21.4023H82.7867C82.9127 21.4023 83.0124 21.4391 83.0859 21.5126C83.1594 21.5756 83.2014 21.6386 83.212 21.7016L84.7555 26.9151L86.3936 21.7489C86.4146 21.6753 86.4619 21.6018 86.5354 21.5283C86.6089 21.4443 86.7191 21.4023 86.8661 21.4023H87.6537C87.8007 21.4023 87.911 21.4443 87.9845 21.5283C88.058 21.6018 88.1052 21.6753 88.1262 21.7489L89.7643 26.9151L91.3079 21.7016C91.3184 21.6386 91.3551 21.5756 91.4181 21.5126C91.4916 21.4391 91.5914 21.4023 91.7174 21.4023H92.883C92.9775 21.4023 93.0562 21.4391 93.1192 21.5126C93.1927 21.5756 93.2295 21.6543 93.2295 21.7489C93.2295 21.7909 93.219 21.8381 93.198 21.8906L90.9456 29.199C90.9141 29.3145 90.8564 29.409 90.7724 29.4825C90.6989 29.556 90.5886 29.5928 90.4416 29.5928H89.4178C89.2708 29.5928 89.1553 29.556 89.0713 29.4825C88.9873 29.409 88.9295 29.3145 88.898 29.199L87.2599 24.2217L85.6218 29.199C85.5798 29.3145 85.5168 29.409 85.4328 29.4825C85.3593 29.556 85.2438 29.5928 85.0863 29.5928H84.0782ZM95.1403 29.5928C95.0353 29.5928 94.946 29.556 94.8725 29.4825C94.799 29.409 94.7622 29.3198 94.7622 29.2148V21.7804C94.7622 21.6753 94.799 21.5861 94.8725 21.5126C94.946 21.4391 95.0353 21.4023 95.1403 21.4023H96.4476C96.5631 21.4023 96.6523 21.4391 96.7153 21.5126C96.7889 21.5861 96.8256 21.6753 96.8256 21.7804V29.2148C96.8256 29.3198 96.7889 29.409 96.7153 29.4825C96.6523 29.556 96.5631 29.5928 96.4476 29.5928H95.1403ZM95.0773 20.0478C94.9618 20.0478 94.8672 20.0163 94.7937 19.9533C94.7307 19.8798 94.6992 19.7852 94.6992 19.6697V18.5357C94.6992 18.4307 94.7307 18.3414 94.7937 18.2679C94.8672 18.1944 94.9618 18.1577 95.0773 18.1577H96.5106C96.6261 18.1577 96.7206 18.1944 96.7941 18.2679C96.8676 18.3414 96.9044 18.4307 96.9044 18.5357V19.6697C96.9044 19.7852 96.8676 19.8798 96.7941 19.9533C96.7206 20.0163 96.6261 20.0478 96.5106 20.0478H95.0773ZM102.617 29.5928C101.987 29.5928 101.456 29.4825 101.026 29.262C100.595 29.0415 100.275 28.716 100.065 28.2855C99.8551 27.8444 99.7501 27.2984 99.7501 26.6474V23.0719H98.5058C98.4008 23.0719 98.3115 23.0352 98.238 22.9617C98.1645 22.8882 98.1278 22.7989 98.1278 22.6939V21.7804C98.1278 21.6753 98.1645 21.5861 98.238 21.5126C98.3115 21.4391 98.4008 21.4023 98.5058 21.4023H99.7501V18.7877C99.7501 18.6827 99.7816 18.5934 99.8446 18.5199C99.9181 18.4464 100.013 18.4097 100.128 18.4097H101.404C101.509 18.4097 101.598 18.4464 101.672 18.5199C101.745 18.5934 101.782 18.6827 101.782 18.7877V21.4023H103.751C103.856 21.4023 103.945 21.4391 104.019 21.5126C104.092 21.5861 104.129 21.6753 104.129 21.7804V22.6939C104.129 22.7989 104.092 22.8882 104.019 22.9617C103.945 23.0352 103.856 23.0719 103.751 23.0719H101.782V26.4899C101.782 26.9204 101.855 27.2564 102.002 27.4979C102.16 27.7394 102.428 27.8602 102.806 27.8602H103.893C103.998 27.8602 104.087 27.8969 104.16 27.9704C104.234 28.0439 104.271 28.1332 104.271 28.2382V29.2148C104.271 29.3198 104.234 29.409 104.16 29.4825C104.087 29.556 103.998 29.5928 103.893 29.5928H102.617ZM106.062 29.5928C105.957 29.5928 105.867 29.556 105.794 29.4825C105.72 29.409 105.684 29.3198 105.684 29.2148V18.7877C105.684 18.6827 105.72 18.5934 105.794 18.5199C105.867 18.4464 105.957 18.4097 106.062 18.4097H107.463C107.579 18.4097 107.668 18.4464 107.731 18.5199C107.805 18.5934 107.841 18.6827 107.841 18.7877V22.3789C108.125 22.0429 108.472 21.7699 108.881 21.5598C109.291 21.3498 109.795 21.2448 110.393 21.2448C111.034 21.2448 111.59 21.3918 112.063 21.6858C112.546 21.9694 112.918 22.3736 113.181 22.8987C113.444 23.4237 113.575 24.0537 113.575 24.7888V29.2148C113.575 29.3198 113.538 29.409 113.465 29.4825C113.391 29.556 113.302 29.5928 113.197 29.5928H111.779C111.674 29.5928 111.585 29.556 111.511 29.4825C111.438 29.409 111.401 29.3198 111.401 29.2148V24.8833C111.401 24.2742 111.249 23.7965 110.944 23.4499C110.65 23.1034 110.22 22.9302 109.653 22.9302C109.107 22.9302 108.666 23.1034 108.33 23.4499C108.004 23.7965 107.841 24.2742 107.841 24.8833V29.2148C107.841 29.3198 107.805 29.409 107.731 29.4825C107.668 29.556 107.579 29.5928 107.463 29.5928H106.062ZM119.74 29.5928C119.635 29.5928 119.546 29.556 119.472 29.4825C119.399 29.409 119.362 29.3198 119.362 29.2148V18.961C119.362 18.8454 119.399 18.7509 119.472 18.6774C119.546 18.6039 119.635 18.5672 119.74 18.5672H123.961C124.78 18.5672 125.494 18.6984 126.103 18.961C126.712 19.213 127.185 19.6015 127.521 20.1265C127.857 20.641 128.025 21.2868 128.025 22.0639C128.025 22.8514 127.857 23.5024 127.521 24.017C127.185 24.521 126.712 24.899 126.103 25.151C125.494 25.403 124.78 25.5291 123.961 25.5291H121.614V29.2148C121.614 29.3198 121.578 29.409 121.504 29.4825C121.441 29.556 121.352 29.5928 121.236 29.5928H119.74ZM121.583 23.7807H123.882C124.492 23.7807 124.959 23.639 125.284 23.3554C125.61 23.0614 125.773 22.6309 125.773 22.0639C125.773 21.5388 125.62 21.1188 125.316 20.8038C125.011 20.4783 124.534 20.3155 123.882 20.3155H121.583V23.7807ZM129.949 29.5928C129.844 29.5928 129.755 29.556 129.682 29.4825C129.608 29.409 129.571 29.3198 129.571 29.2148V18.7877C129.571 18.6827 129.608 18.5934 129.682 18.5199C129.755 18.4464 129.844 18.4097 129.949 18.4097H131.257C131.362 18.4097 131.451 18.4464 131.524 18.5199C131.598 18.5934 131.635 18.6827 131.635 18.7877V29.2148C131.635 29.3198 131.598 29.409 131.524 29.4825C131.451 29.556 131.362 29.5928 131.257 29.5928H129.949ZM136.764 29.7503C136.123 29.7503 135.567 29.6085 135.094 29.325C134.632 29.031 134.275 28.6215 134.023 28.0964C133.771 27.5609 133.645 26.9309 133.645 26.2063V21.7804C133.645 21.6753 133.682 21.5861 133.756 21.5126C133.829 21.4391 133.918 21.4023 134.023 21.4023H135.409C135.525 21.4023 135.614 21.4391 135.677 21.5126C135.751 21.5861 135.787 21.6753 135.787 21.7804V26.1118C135.787 27.4139 136.36 28.0649 137.504 28.0649C138.05 28.0649 138.481 27.8917 138.796 27.5452C139.121 27.1986 139.284 26.7209 139.284 26.1118V21.7804C139.284 21.6753 139.321 21.5861 139.394 21.5126C139.468 21.4391 139.557 21.4023 139.662 21.4023H141.048C141.153 21.4023 141.242 21.4391 141.316 21.5126C141.389 21.5861 141.426 21.6753 141.426 21.7804V29.2148C141.426 29.3198 141.389 29.409 141.316 29.4825C141.242 29.556 141.153 29.5928 141.048 29.5928H139.772C139.657 29.5928 139.562 29.556 139.489 29.4825C139.426 29.409 139.394 29.3198 139.394 29.2148V28.569C139.111 28.9365 138.759 29.2253 138.339 29.4353C137.919 29.6453 137.394 29.7503 136.764 29.7503ZM146.61 29.7503C145.98 29.7503 145.439 29.6768 144.987 29.5298C144.546 29.3828 144.184 29.199 143.901 28.9785C143.617 28.758 143.407 28.5375 143.271 28.317C143.134 28.0964 143.061 27.9127 143.05 27.7657C143.04 27.6502 143.071 27.5609 143.145 27.4979C143.229 27.4244 143.318 27.3877 143.412 27.3877H144.657C144.699 27.3877 144.735 27.3929 144.767 27.4034C144.798 27.4139 144.84 27.4454 144.893 27.4979C145.029 27.6134 145.171 27.7342 145.318 27.8602C145.476 27.9862 145.659 28.0964 145.869 28.1909C146.079 28.275 146.342 28.317 146.657 28.317C147.067 28.317 147.408 28.2382 147.681 28.0807C147.964 27.9127 148.106 27.6764 148.106 27.3719C148.106 27.1514 148.043 26.9729 147.917 26.8364C147.802 26.6999 147.581 26.5791 147.256 26.4741C146.93 26.3586 146.468 26.2378 145.869 26.1118C145.281 25.9753 144.793 25.8021 144.405 25.5921C144.016 25.382 143.727 25.1195 143.538 24.8045C143.349 24.4895 143.255 24.122 143.255 23.702C143.255 23.2924 143.376 22.9039 143.617 22.5364C143.869 22.1584 144.237 21.8486 144.72 21.6071C145.213 21.3656 145.822 21.2448 146.547 21.2448C147.114 21.2448 147.607 21.3183 148.027 21.4653C148.447 21.6018 148.794 21.7751 149.067 21.9851C149.35 22.1951 149.566 22.4104 149.713 22.6309C149.86 22.8409 149.938 23.0247 149.949 23.1822C149.959 23.2977 149.928 23.3922 149.854 23.4657C149.781 23.5287 149.697 23.5602 149.602 23.5602H148.437C148.384 23.5602 148.337 23.5497 148.295 23.5287C148.253 23.5077 148.211 23.4814 148.169 23.4499C148.054 23.3449 147.928 23.2347 147.791 23.1192C147.655 23.0037 147.487 22.9039 147.287 22.8199C147.098 22.7254 146.846 22.6782 146.531 22.6782C146.132 22.6782 145.827 22.7674 145.617 22.9459C145.407 23.1139 145.302 23.3292 145.302 23.5917C145.302 23.7702 145.35 23.9277 145.444 24.0642C145.549 24.1902 145.754 24.311 146.058 24.4265C146.363 24.542 146.825 24.6628 147.445 24.7888C148.148 24.9148 148.705 25.1038 149.114 25.3558C149.534 25.5973 149.828 25.8808 149.996 26.2063C150.175 26.5214 150.264 26.8731 150.264 27.2616C150.264 27.7342 150.122 28.1594 149.839 28.5375C149.566 28.9155 149.156 29.2148 148.61 29.4353C148.075 29.6453 147.408 29.7503 146.61 29.7503Z" fill="#12255D"/>
</svg>
