<svg width="1832" height="678" viewBox="0 0 1832 678" fill="none" xmlns="http://www.w3.org/2000/svg">
<mask id="mask0_982_14759" style="mask-type:alpha" maskUnits="userSpaceOnUse" x="0" y="0" width="1832" height="678">
<rect width="1832" height="678" fill="#D9D9D9"/>
</mask>
<g mask="url(#mask0_982_14759)">
<circle cx="946.769" cy="586.953" r="359.358" fill="#E6F8FF" stroke="#214573" stroke-width="9.94762"/>
<path d="M730.885 571.042L729.817 567.594C719.698 534.925 720.223 499.886 731.314 467.535L746.616 422.906C754.609 399.591 753.933 374.176 744.71 351.319L731.511 317.46C730.783 315.593 729.733 313.868 728.408 312.363L725.191 308.71C723.985 307.34 722.248 306.555 720.423 306.555C718.848 306.555 717.329 307.14 716.16 308.197L704.919 318.367L684.173 341.419C675.639 350.901 665.988 359.379 657.611 369.001C623.862 407.765 579.035 501.35 589.9 636.07C602.239 789.073 711.034 872.08 764.343 899.065C765.174 899.485 766.056 899.682 766.987 899.682C770.768 899.682 773.612 896.237 772.896 892.525L750.634 777.038C746.647 756.357 750.601 734.934 761.709 717.039C778.537 689.927 778.49 655.606 761.588 628.54L745.173 602.256C739.087 592.509 734.284 582.018 730.885 571.042Z" fill="#36CF33"/>
<path d="M740.576 596.147L733.59 580.148C715.993 539.844 716.738 493.89 735.633 454.178L737.491 450.273C756.549 410.22 755.944 363.59 735.852 324.045L728.972 310.502C728.688 309.944 728.342 309.419 727.941 308.938L727.365 308.247C726.143 306.78 724.332 305.932 722.422 305.932C720.974 305.932 719.568 306.42 718.431 307.319L703.676 318.988L671.967 349.452C642.747 376.187 574.978 473.798 587.413 627.986C600.339 788.279 713.21 861.706 765.14 895.489L765.548 895.754C765.755 895.889 765.962 896 766.188 896.1C769.603 897.612 773.309 894.662 772.602 890.995L749.502 771.166C746.243 754.26 749.476 736.746 758.556 722.118L761.41 717.519C778.347 690.231 777.858 655.583 760.156 628.785L749.747 613.026C746.211 607.673 743.143 602.026 740.576 596.147Z" stroke="#214573" stroke-width="9.94762"/>
<path d="M1091.07 335.765L1111.42 276.316C1112.23 273.95 1114.45 272.359 1116.95 272.359C1117.88 272.359 1118.8 272.58 1119.62 273.004L1142.61 284.794C1263.48 357.909 1301.98 488.098 1306.13 544.054C1326.4 670.625 1254.97 786.383 1216.05 829.284C1215.58 829.809 1215.05 830.233 1214.44 830.597C1211.38 832.436 1207.43 831.804 1205.1 829.1L1189.47 811.02C1176.37 795.865 1178.27 772.911 1193.69 760.117L1198.55 756.076C1216.25 741.387 1217.48 714.669 1201.22 698.409C1188.96 686.148 1186.25 667.272 1194.57 652.058L1210.71 622.532C1223.76 598.654 1224.44 569.93 1212.52 545.465L1209.46 539.186C1200.75 521.306 1186.78 506.518 1169.43 496.805L1159.27 491.123C1129.4 474.402 1107.02 446.928 1096.68 414.291L1090.39 394.45C1084.33 375.32 1084.57 354.751 1091.07 335.765Z" fill="#36CF33"/>
<path d="M1079.33 354.029L1106.11 279.38C1108.83 271.804 1118.03 268.925 1124.58 273.603L1142.61 284.794C1263.48 357.909 1301.98 488.099 1306.13 544.054C1326.4 670.625 1254.97 786.384 1216.05 829.285C1215.57 829.809 1215.05 830.233 1214.44 830.598C1211.37 832.436 1207.43 831.805 1205.09 829.101L1189.47 811.02C1176.37 795.866 1178.27 772.911 1193.68 760.117L1198.55 756.076C1216.24 741.388 1217.48 714.669 1201.22 698.409C1188.96 686.149 1186.25 667.273 1194.57 652.059L1211.01 621.985C1223.81 598.567 1223.97 570.28 1211.43 546.719C1201.23 527.55 1183.62 513.404 1162.7 507.584L1157.78 506.217C1129.52 498.355 1106.77 477.373 1096.65 449.84L1079.53 403.251C1073.69 387.374 1073.62 369.951 1079.33 354.029Z" fill="#36CF33" stroke="#214573" stroke-width="9.94762"/>
<path d="M900.371 742.436L935.884 937.136C936.722 941.73 940.724 945.068 945.393 945.068C982.81 944.259 1071.78 930.191 1128.34 880.389L1133.77 875.672C1137.41 872.506 1139.51 867.915 1139.51 863.088C1139.51 861.692 1139.33 860.301 1138.98 858.949L1060.2 551.568C1055.41 532.878 1038.57 519.807 1019.27 519.807C995.938 519.807 977.022 538.724 977.022 562.059V658.225C977.022 679.565 959.722 696.864 938.383 696.864C914.267 696.864 896.044 718.712 900.371 742.436Z" fill="#36CF33"/>
<path d="M899.211 741.432L934.851 935.854C935.698 940.47 939.721 943.823 944.415 943.823C982.02 943.015 1071.44 928.947 1128.28 879.145L1133.76 874.412C1137.41 871.257 1139.5 866.671 1139.5 861.847C1139.5 860.449 1139.33 859.056 1138.98 857.703L1059.83 550.452C1055 531.681 1038.07 518.562 1018.69 518.562C995.225 518.562 976.202 537.585 976.202 561.05V656.806C976.202 678.242 958.825 695.62 937.389 695.62C913.149 695.62 894.84 717.591 899.211 741.432Z" stroke="#214573" stroke-width="9.94762"/>
<ellipse cx="911.388" cy="350.074" rx="15.6024" ry="19.2735" fill="#214573"/>
<ellipse cx="978.532" cy="350.074" rx="15.6024" ry="19.2735" fill="#214573"/>
<path d="M992.774 396.704V410.578C992.774 435.988 972.176 456.586 946.767 456.586C921.357 456.586 900.759 435.987 900.759 410.578V396.704H992.774Z" fill="#214573" stroke="#214573" stroke-width="9.94762"/>
<path d="M898.942 398.897C898.739 397.194 900.021 395.675 901.735 395.589L935.891 393.888C959.459 392.714 979.21 411.506 979.21 435.103V435.103C979.21 449.342 967.035 460.537 952.846 459.344L937.187 458.028C918.842 456.487 904.109 442.258 901.931 423.977L898.942 398.897Z" fill="#FF6954"/>
<path d="M992.774 396.704V410.578C992.774 435.988 972.176 456.586 946.767 456.586C921.357 456.586 900.759 435.987 900.759 410.578V396.704H992.774Z" stroke="#214573" stroke-width="9.94762"/>
<path d="M906.273 396.704H987.26C990.305 396.704 992.774 399.173 992.774 402.219C992.774 409.72 986.694 415.801 979.192 415.801H914.341C906.84 415.801 900.759 409.72 900.759 402.219C900.759 399.173 903.228 396.704 906.273 396.704Z" fill="white" stroke="#214573" stroke-width="9.94762"/>
<rect width="31.3986" height="67.392" transform="matrix(-0.919647 0.392745 0.392745 0.919647 618.871 267.98)" fill="#214573"/>
<rect width="31.3986" height="67.392" transform="matrix(-0.919647 0.392745 0.392745 0.919647 557.602 294.146)" fill="#FF6954"/>
<mask id="path-17-inside-1_982_14759" fill="white">
<rect width="105.683" height="75.0502" rx="4.97381" transform="matrix(-0.919647 0.392745 0.392745 0.919647 620.188 263.256)"/>
</mask>
<rect width="105.683" height="75.0502" rx="4.97381" transform="matrix(-0.919647 0.392745 0.392745 0.919647 620.188 263.256)" stroke="#214573" stroke-width="19.8952" mask="url(#path-17-inside-1_982_14759)"/>
<line y1="-4.97381" x2="82.7084" y2="-4.97381" transform="matrix(0.392745 0.919647 0.919647 -0.392745 645.148 321.711)" stroke="#214573" stroke-width="9.94762"/>
<mask id="path-19-inside-2_982_14759" fill="white">
<rect x="1299.16" y="246.494" width="116.491" height="82.7256" rx="4.97381" transform="rotate(34.8119 1299.16 246.494)"/>
</mask>
<rect x="1299.16" y="246.494" width="116.491" height="82.7256" rx="4.97381" transform="rotate(34.8119 1299.16 246.494)" stroke="#214573" stroke-width="19.8952" mask="url(#path-19-inside-2_982_14759)"/>
<line x1="1263.24" y1="306.857" x2="1211.2" y2="381.708" stroke="#214573" stroke-width="9.94762"/>
<circle cx="1323.53" cy="313.394" r="18.6518" fill="#FF6954"/>
<path d="M881.575 138.428C881.316 138.485 881.086 138.449 880.885 138.321C880.678 138.168 880.549 137.975 880.498 137.739L875.449 114.778C875.392 114.519 875.428 114.289 875.557 114.088C875.685 113.886 875.879 113.757 876.138 113.7L892.635 110.073C892.894 110.016 893.124 110.052 893.325 110.181C893.526 110.309 893.655 110.503 893.712 110.762L894.442 114.083C894.499 114.342 894.463 114.572 894.335 114.773C894.206 114.974 894.012 115.103 893.753 115.16L882.485 117.638L883.533 122.407L894.025 120.1C894.284 120.043 894.516 120.091 894.723 120.243C894.924 120.371 895.053 120.565 895.11 120.824L895.785 123.898C895.837 124.133 895.801 124.363 895.678 124.588C895.549 124.789 895.356 124.918 895.097 124.975L884.605 127.282L885.685 132.192L897.236 129.652C897.495 129.595 897.725 129.631 897.926 129.759C898.127 129.888 898.256 130.082 898.313 130.341L899.043 133.662C899.095 133.897 899.059 134.127 898.936 134.352C898.807 134.553 898.613 134.682 898.354 134.739L881.575 138.428ZM909.692 132.616C908.561 132.865 907.498 132.914 906.502 132.762C905.524 132.582 904.628 132.211 903.813 131.65C903.017 131.06 902.331 130.297 901.755 129.362C901.174 128.404 900.714 127.27 900.377 125.962C900.25 125.496 900.148 125.086 900.07 124.733C899.987 124.356 899.906 123.93 899.826 123.454C899.599 122.195 899.55 121.021 899.681 119.93C899.806 118.816 900.109 117.836 900.59 116.99C901.065 116.12 901.721 115.396 902.556 114.817C903.387 114.215 904.367 113.789 905.497 113.541C906.675 113.282 907.732 113.26 908.667 113.474C909.598 113.664 910.425 114.001 911.149 114.483L909.486 106.924C909.429 106.665 909.465 106.435 909.594 106.234C909.723 106.033 909.916 105.904 910.175 105.847L914.485 104.899C914.721 104.847 914.939 104.886 915.14 105.014C915.365 105.138 915.505 105.329 915.562 105.588L920.688 128.903C920.74 129.138 920.693 129.371 920.546 129.601C920.417 129.802 920.235 129.928 919.999 129.98L916.008 130.857C915.749 130.914 915.519 130.879 915.317 130.75C915.111 130.598 914.982 130.404 914.93 130.168L914.682 129.038C914.267 129.845 913.661 130.571 912.865 131.215C912.068 131.859 911.01 132.327 909.692 132.616ZM910.594 127.456C911.371 127.285 911.947 126.985 912.322 126.557C912.715 126.101 912.958 125.578 913.051 124.99C913.168 124.396 913.168 123.779 913.051 123.138C912.971 122.662 912.885 122.212 912.792 121.788C912.698 121.364 912.591 120.931 912.469 120.489C912.316 119.905 912.067 119.392 911.723 118.949C911.374 118.483 910.93 118.148 910.391 117.946C909.848 117.72 909.211 117.687 908.481 117.847C907.704 118.018 907.116 118.32 906.718 118.754C906.343 119.182 906.111 119.702 906.024 120.313C905.96 120.92 905.979 121.57 906.082 122.263C906.172 123.009 906.332 123.739 906.564 124.453C906.761 125.126 907.016 125.724 907.328 126.248C907.665 126.767 908.093 127.142 908.613 127.373C909.156 127.599 909.817 127.627 910.594 127.456ZM933.602 127.36C930.823 127.97 928.443 127.704 926.463 126.559C924.484 125.414 923.132 123.366 922.409 120.414C922.373 120.249 922.326 120.037 922.269 119.778C922.212 119.519 922.168 119.319 922.137 119.178C921.799 117.302 921.861 115.621 922.325 114.137C922.807 112.624 923.644 111.378 924.836 110.4C926.047 109.393 927.559 108.69 929.372 108.292C931.445 107.836 933.243 107.873 934.766 108.402C936.313 108.926 937.584 109.819 938.577 111.082C939.571 112.345 940.267 113.883 940.666 115.696L940.852 116.544C940.909 116.803 940.873 117.033 940.745 117.234C940.616 117.436 940.422 117.565 940.163 117.622L928.859 120.107C928.864 120.13 928.872 120.166 928.883 120.213C928.893 120.26 928.903 120.307 928.914 120.354C929.087 121.032 929.342 121.63 929.679 122.149C930.038 122.662 930.466 123.037 930.963 123.274C931.483 123.505 932.061 123.551 932.696 123.411C933.167 123.307 933.54 123.151 933.816 122.943C934.109 122.705 934.341 122.469 934.512 122.234C934.677 121.976 934.803 121.763 934.89 121.595C935.045 121.29 935.176 121.101 935.283 121.028C935.409 120.926 935.613 120.844 935.896 120.782L940.276 119.819C940.512 119.767 940.715 119.796 940.888 119.906C941.084 120.011 941.196 120.184 941.224 120.425C941.289 120.83 941.194 121.357 940.942 122.005C940.689 122.653 940.26 123.34 939.654 124.066C939.067 124.763 938.271 125.407 937.265 125.999C936.259 126.59 935.038 127.044 933.602 127.36ZM928.09 116.61L934.06 115.297L934.045 115.226C933.874 114.449 933.611 113.816 933.257 113.326C932.92 112.807 932.483 112.447 931.945 112.244C931.43 112.036 930.855 112.002 930.219 112.142C929.607 112.277 929.11 112.546 928.73 112.951C928.35 113.355 928.104 113.866 927.993 114.483C927.877 115.077 927.904 115.762 928.075 116.539L928.09 116.61ZM946.903 124.065C946.644 124.122 946.414 124.086 946.213 123.957C946.007 123.805 945.878 123.611 945.826 123.376L942.176 106.773C942.119 106.514 942.155 106.284 942.283 106.083C942.412 105.882 942.606 105.753 942.865 105.696L946.927 104.802C947.186 104.745 947.416 104.781 947.617 104.91C947.842 105.033 947.983 105.225 948.04 105.484L948.335 106.826C948.763 105.966 949.417 105.181 950.298 104.469C951.178 103.757 952.289 103.253 953.632 102.958C954.998 102.658 956.266 102.7 957.437 103.084C958.631 103.463 959.652 104.177 960.5 105.225C961.371 106.268 961.998 107.661 962.381 109.404L964.548 119.259C964.6 119.495 964.564 119.725 964.441 119.95C964.312 120.151 964.118 120.28 963.859 120.337L959.408 121.315C959.173 121.367 958.943 121.331 958.718 121.208C958.512 121.056 958.383 120.862 958.331 120.626L956.211 110.982C955.967 109.876 955.51 109.087 954.839 108.618C954.186 108.119 953.342 107.984 952.306 108.212C951.34 108.424 950.63 108.901 950.176 109.643C949.74 110.356 949.644 111.266 949.888 112.373L952.008 122.016C952.06 122.252 952.012 122.485 951.865 122.714C951.737 122.916 951.554 123.042 951.319 123.094L946.903 124.065Z" fill="#214573"/>
<mask id="path-23-inside-3_982_14759" fill="white">
<rect x="841.074" y="86.4824" width="141.949" height="100.804" rx="4.97381" transform="rotate(-12.4015 841.074 86.4824)"/>
</mask>
<rect x="841.074" y="86.4824" width="141.949" height="100.804" rx="4.97381" transform="rotate(-12.4015 841.074 86.4824)" stroke="#214573" stroke-width="19.8952" mask="url(#path-23-inside-3_982_14759)"/>
<line x1="864.268" y1="168.797" x2="888.126" y2="277.295" stroke="#214573" stroke-width="9.94762"/>
<path d="M1794.27 481.846C1813.32 481.846 1829.03 498.275 1829.03 518.881C1829.03 539.486 1813.32 555.915 1794.27 555.915C1775.23 555.915 1759.52 539.486 1759.52 518.881C1759.52 498.275 1775.23 481.846 1794.27 481.846Z" fill="#D9D9D9" stroke="#214573" stroke-width="5.37089"/>
<path d="M1794.27 481.846C1813.32 481.846 1829.03 498.275 1829.03 518.881C1829.03 539.486 1813.32 555.915 1794.27 555.915C1775.23 555.915 1759.52 539.486 1759.52 518.881C1759.52 498.275 1775.23 481.846 1794.27 481.846Z" fill="#F9C87F" stroke="#214573" stroke-width="5.37089"/>
<path d="M1794.27 500.078C1804 500.078 1812.1 508.378 1812.1 518.881C1812.1 529.384 1804 537.683 1794.27 537.684C1784.54 537.684 1776.45 529.384 1776.45 518.881C1776.45 508.377 1784.54 500.078 1794.27 500.078Z" fill="#FFFDF9" stroke="#214573" stroke-width="5.37089"/>
<path d="M1793.62 500.973C1795.25 493.159 1812.83 491.922 1824.55 499.997" stroke="#214573" stroke-width="5.37089"/>
<path d="M1810.55 526.369C1815 530.385 1820.64 541.411 1807.62 553.392" stroke="#214573" stroke-width="5.37089"/>
<path d="M1783.2 534.183C1776.69 536.245 1762.3 536.527 1759.44 521.16" stroke="#214573" stroke-width="5.37089"/>
<path d="M1745.44 446.684C1764.49 446.684 1780.19 463.113 1780.19 483.719C1780.19 504.324 1764.49 520.753 1745.44 520.753C1726.39 520.753 1710.68 504.324 1710.68 483.719C1710.68 463.113 1726.39 446.684 1745.44 446.684Z" fill="#D9D9D9" stroke="#214573" stroke-width="5.37089"/>
<path d="M1745.44 446.684C1764.49 446.684 1780.19 463.113 1780.19 483.719C1780.19 504.324 1764.49 520.753 1745.44 520.753C1726.39 520.753 1710.68 504.324 1710.68 483.719C1710.68 463.113 1726.39 446.684 1745.44 446.684Z" fill="#F9C87F" stroke="#214573" stroke-width="5.37089"/>
<path d="M1745.44 464.916C1755.17 464.916 1763.26 473.215 1763.26 483.719C1763.26 494.222 1755.17 502.521 1745.44 502.521C1735.71 502.521 1727.61 494.222 1727.61 483.719C1727.61 473.215 1735.71 464.916 1745.44 464.916Z" fill="#FFFDF9" stroke="#214573" stroke-width="5.37089"/>
<path d="M1744.79 465.811C1746.41 457.997 1763.99 456.76 1775.71 464.834" stroke="#214573" stroke-width="5.37089"/>
<path d="M1761.72 491.207C1766.16 495.222 1771.81 506.249 1758.79 518.23" stroke="#214573" stroke-width="5.37089"/>
<path d="M1734.37 499.021C1727.86 501.083 1713.47 501.365 1710.6 485.998" stroke="#214573" stroke-width="5.37089"/>
<rect x="115.363" y="386.436" width="38.4582" height="114.441" rx="19.2291" transform="rotate(-31.636 115.363 386.436)" fill="#F9C87F" stroke="#214573" stroke-width="5.37089"/>
<path d="M147.754 406.457C141.198 418.516 144.206 430.067 146.529 434.335C170.229 430.23 162.491 396.601 155.66 380.299C155.756 383.994 154.31 394.399 147.754 406.457Z" fill="#FFEBCE" stroke="#214573" stroke-width="5.37089"/>
<path d="M167.93 438.073C161.374 450.131 164.382 461.682 166.705 465.951C190.405 461.845 182.667 428.216 175.836 411.914C175.932 415.609 174.485 426.014 167.93 438.073Z" fill="#FFEBCE" stroke="#214573" stroke-width="5.37089"/>
<path d="M1624.28 161.176C1629.51 157.16 1639.55 144.873 1637.87 127.845C1637.86 127.834 1637.86 127.823 1637.85 127.814L1624.66 110.306C1622.92 107.996 1623.07 104.771 1625.03 102.643V102.643C1627.21 100.278 1630.87 100.053 1633.32 102.134L1638.04 106.144C1638.06 106.158 1638.08 106.144 1638.08 106.123L1635.53 86.0243C1635.15 83.0461 1637.06 80.2562 1639.97 79.5327V79.5327C1642.57 78.8886 1645.3 80.0594 1646.26 82.5544C1648.19 87.5649 1649.83 94.8538 1647.65 100.876C1648.81 96.429 1650.67 88.7137 1651.63 83.0234C1652.21 79.5919 1655.24 76.3101 1658.72 76.0791V76.0791C1661.61 75.8866 1664.2 77.8777 1664.31 80.776C1664.52 86.1261 1663.85 93.8151 1660.46 100.92L1667.71 84.9016C1668.83 82.4345 1671.71 81.3081 1674.2 82.3631V82.3631C1676.72 83.427 1677.91 86.3147 1676.88 88.844L1670.56 104.364C1670.54 104.401 1670.59 104.432 1670.62 104.403L1678.7 95.9228C1679.92 94.6445 1681.85 94.3642 1683.38 95.244V95.244C1684.9 96.1168 1685.64 97.904 1685.15 99.5854C1680.43 115.743 1669.38 148.079 1656.82 168.418" stroke="#214573" stroke-width="5.37089"/>
<circle cx="1654.62" cy="110.332" r="1.62788" transform="rotate(7.50409 1654.62 110.332)" fill="#214573"/>
<circle cx="1661.8" cy="110.621" r="1.62788" transform="rotate(7.50409 1661.8 110.621)" fill="#214573"/>
<path d="M1652 115.24V115.24C1651.6 118.271 1653.73 121.051 1656.76 121.45L1657.73 121.578C1660.76 121.977 1663.54 119.844 1663.94 116.813V116.813" stroke="#214573" stroke-width="5.37089"/>
<path d="M1735.32 175.802C1731.3 170.568 1724.78 156.1 1730.82 140.09C1730.82 140.079 1730.83 140.07 1730.84 140.063L1748.12 126.569C1750.4 124.789 1751.08 121.633 1749.74 119.07V119.07C1748.25 116.222 1744.78 115.058 1741.87 116.433L1736.27 119.083C1736.25 119.093 1736.23 119.073 1736.24 119.053L1743.91 100.301C1745.05 97.5222 1743.92 94.3327 1741.3 92.8794V92.8794C1738.96 91.5853 1736.02 92.0092 1734.44 94.1706C1731.28 98.5111 1727.81 105.126 1728.35 111.506C1728.38 106.91 1728.59 98.9772 1729.13 93.2322C1729.46 89.7678 1727.38 85.8124 1724.09 84.6901V84.6901C1721.34 83.7548 1718.33 85.0074 1717.47 87.7776C1715.88 92.8914 1714.54 100.493 1715.97 108.234L1713.12 90.8829C1712.68 88.2106 1710.19 86.3767 1707.5 86.7498V86.7498C1704.8 87.126 1702.9 89.6061 1703.24 92.3159L1705.32 108.944C1705.33 108.983 1705.28 109.001 1705.26 108.966L1699.65 98.6819C1698.8 97.1317 1697 96.3601 1695.3 96.8135V96.8135C1693.61 97.2632 1692.43 98.7985 1692.47 100.55C1692.85 117.379 1695.14 151.472 1702.01 174.37" stroke="#214573" stroke-width="5.37089"/>
<line x1="1610.09" y1="94.3675" x2="1588.78" y2="91.5612" stroke="#214573" stroke-width="5.37089"/>
<line x1="1610.57" y1="78.8284" x2="1600.62" y2="69.6358" stroke="#214573" stroke-width="5.37089"/>
<line x1="1747.99" y1="79.7059" x2="1765.61" y2="65.6074" stroke="#214573" stroke-width="5.37089"/>
<line x1="1756.09" y1="90.4672" x2="1778.38" y2="90.7762" stroke="#214573" stroke-width="5.37089"/>
<path d="M455.488 492.743C447.093 472.709 459.302 461.079 470.597 455.948C474.737 454.068 479.478 454.949 483.328 457.368L493.348 463.66C495.808 465.205 496.498 468.482 494.869 470.887C493.39 473.07 490.499 473.779 488.179 472.527L476.937 466.461L486.798 473.23C488.773 474.585 489.517 477.147 488.575 479.349C487.484 481.901 484.53 483.085 481.978 481.994L470.36 477.025L478.621 481.849C480.174 482.756 480.809 484.676 480.102 486.33C479.506 487.723 478.095 488.587 476.583 488.485L465.772 487.754L476.57 490.776C479.638 491.634 481.528 494.711 480.905 497.835C480.21 501.324 476.688 503.478 473.266 502.508L464.089 499.906C460.317 498.837 457.003 496.359 455.488 492.743Z" stroke="#214573" stroke-width="5.37089"/>
<path d="M516.372 483.327C511.719 482.709 503.324 479.187 506.961 470.041C509.197 464.419 512.519 460.48 515.397 458C517.366 456.303 517.889 453.002 516.039 451.176V451.176C509.548 444.768 498.591 442.482 493.639 450.142C491.944 452.762 491.07 455.707 491.879 458.789" stroke="#214573" stroke-width="5.37089"/>
<path d="M460.772 501.05C467.139 506.746 483.866 516.826 499.83 511.58" stroke="#214573" stroke-width="5.37089"/>
<path d="M450.743 439.481C452.495 437.257 458.068 432.941 466.351 433.465" stroke="#214573" stroke-width="5.37089"/>
<path d="M449.741 424.987C450.913 422.515 455.12 418.026 462.575 419.843" stroke="#214573" stroke-width="5.37089"/>
<path d="M358.274 138.834V127.764L257.996 119.625V138.834C257.996 151.78 268.491 162.276 281.438 162.276H334.832C347.779 162.276 358.274 151.78 358.274 138.834Z" fill="#F9C87F" stroke="#214573" stroke-width="5.37089"/>
<path d="M328.438 89.998H289.251C271.99 89.998 257.996 103.992 257.996 121.253C257.996 130.783 265.722 138.509 275.252 138.509H278.759C283.448 138.509 287.735 135.863 289.837 131.672L290.705 129.941C292.275 126.811 295.477 124.835 298.978 124.835C302.815 124.835 306.254 127.202 307.623 130.786L308.721 133.66C309.837 136.58 312.639 138.509 315.765 138.509C318.419 138.509 320.878 137.113 322.239 134.834L322.499 134.399C325.365 129.599 332.023 128.865 335.865 132.926L340.275 137.586C342.89 140.349 346.836 141.409 350.484 140.328C354.231 139.217 357.001 136.045 357.597 132.183L358.58 125.811C361.821 107.107 347.421 89.998 328.438 89.998Z" fill="#FFEBCE" stroke="#214573" stroke-width="5.37089"/>
<path d="M308.136 101.799C313.987 101.799 319.158 102.78 322.768 104.267C324.579 105.012 325.867 105.832 326.661 106.605C327.447 107.37 327.589 107.918 327.589 108.229C327.589 108.541 327.447 109.089 326.661 109.854C325.867 110.627 324.578 111.447 322.768 112.192C319.158 113.679 313.987 114.66 308.136 114.66C302.285 114.66 297.112 113.679 293.503 112.192C291.692 111.447 290.403 110.627 289.609 109.854C288.824 109.089 288.682 108.541 288.682 108.229C288.682 107.918 288.824 107.37 289.609 106.605C290.403 105.832 291.692 105.012 293.503 104.267C297.112 102.78 302.285 101.799 308.136 101.799Z" fill="#FFFDF9" stroke="#214573" stroke-width="5.37089"/>
<path d="M1329.83 157.601V127.648L1413.83 128.625V156.625L1406.02 164.439L1397.55 173.555L1383.55 176.159L1372.16 180.392L1360.76 176.159H1353.92L1341.23 170.625L1329.83 157.601Z" fill="#F9C87F"/>
<path d="M1413.33 148.811L1413.91 151.499C1414.85 155.846 1413.1 160.332 1409.46 162.89L1406.77 164.783C1405.82 165.446 1404.99 166.251 1404.3 167.17L1401.53 170.841C1399.7 173.257 1396.97 174.82 1393.96 175.169L1385.62 176.135C1384.83 176.226 1384.05 176.403 1383.3 176.663L1375.11 179.479C1372.77 180.281 1370.24 180.281 1367.91 179.479L1359.72 176.663C1358.96 176.403 1358.18 176.226 1357.39 176.135L1349.05 175.169C1346.04 174.82 1343.31 173.257 1341.49 170.841L1338.72 167.17C1338.02 166.251 1337.19 165.446 1336.25 164.783L1333.56 162.89C1329.92 160.332 1328.16 155.846 1329.1 151.499L1329.68 148.811" stroke="#214573" stroke-width="5.37089"/>
<path d="M1368.83 88.7383C1370.46 88.1876 1372.21 88.1529 1373.86 88.6348L1374.19 88.7383L1383.1 91.7451C1384.02 92.0569 1384.97 92.2698 1385.94 92.3799L1395.05 93.416C1397.17 93.6567 1399.11 94.6935 1400.49 96.3066L1400.75 96.6367L1403.84 100.649C1404.6 101.641 1405.49 102.523 1406.49 103.272L1406.93 103.586L1410 105.705C1412.71 107.58 1414.07 110.866 1413.49 114.094L1413.42 114.405L1413.31 114.928C1412.91 116.752 1412.88 118.638 1413.23 120.47L1413.31 120.835L1413.42 121.357C1414.16 124.684 1412.8 128.123 1410 130.058L1406.93 132.177C1405.75 132.989 1404.71 133.98 1403.84 135.113L1400.75 139.126C1399.37 140.928 1397.31 142.09 1395.05 142.347L1385.94 143.383C1385.1 143.479 1384.26 143.654 1383.44 143.905L1383.1 144.018L1374.19 147.024C1372.45 147.612 1370.56 147.612 1368.83 147.024L1359.92 144.018C1358.99 143.706 1358.04 143.493 1357.07 143.383L1347.96 142.347C1345.84 142.106 1343.9 141.069 1342.53 139.456L1342.26 139.126L1339.18 135.113C1338.41 134.121 1337.52 133.239 1336.52 132.489L1336.09 132.177L1333.02 130.058C1330.21 128.123 1328.86 124.684 1329.59 121.357L1329.71 120.835C1330.11 119.011 1330.13 117.125 1329.78 115.293L1329.71 114.928L1329.59 114.405C1328.88 111.183 1330.13 107.855 1332.76 105.891L1333.02 105.705L1336.09 103.586C1337.12 102.875 1338.04 102.028 1338.84 101.067L1339.18 100.649L1342.26 96.6367C1343.65 94.8351 1345.7 93.6728 1347.96 93.416L1357.07 92.3799C1357.92 92.2835 1358.75 92.1085 1359.57 91.8574L1359.92 91.7451L1368.83 88.7383Z" fill="#F9C87F" stroke="#214573" stroke-width="5.37089"/>
<line x1="1329.43" y1="157.926" x2="1329.43" y2="120.81" stroke="#214573" stroke-width="5.37089"/>
<line x1="1413.43" y1="157.926" x2="1413.43" y2="120.81" stroke="#214573" stroke-width="5.37089"/>
<line x1="1347.17" y1="141.648" x2="1347.17" y2="174.857" stroke="#214573" stroke-width="5.37089"/>
<line x1="1374.52" y1="146.857" x2="1374.52" y2="180.066" stroke="#214573" stroke-width="5.37089"/>
<line x1="1401.87" y1="139.043" x2="1401.87" y2="172.252" stroke="#214573" stroke-width="5.37089"/>
<path d="M506.345 126.261C498.791 143.972 504.934 160.772 508.949 166.958L500.697 171.674C496.425 174.115 494.902 179.533 497.276 183.842C499.74 188.313 505.423 189.846 509.8 187.219L518.065 182.26C536.819 200.492 554.096 190.725 560.39 183.562L568.626 187.337C572.779 189.24 577.695 187.581 579.845 183.55C582.059 179.398 580.542 174.238 576.433 171.945L569.832 168.26C581.813 146.382 578.948 129.191 576.018 123.331C564.037 101.192 544.98 109.548 536.949 116.494C529.895 112.37 513.898 108.55 506.345 126.261Z" fill="#F9C87F" stroke="#214573" stroke-width="5.37089"/>
<path d="M528.599 168.076L535.458 161.021C536.661 159.784 538.62 159.695 539.88 160.873C543.953 164.679 549.101 170.217 548.018 172.167C546.84 174.288 544.328 177.369 538.555 177.936C537.275 178.062 535.979 177.921 534.736 177.59C530.96 176.585 528.656 175.121 527.407 173.66C525.962 171.97 527.049 169.67 528.599 168.076Z" fill="#FFFDF9" stroke="#214573" stroke-width="5.37089"/>
<path d="M530.688 135.164L524.32 153.229C523.085 156.731 517.891 155.768 517.995 152.056L518.53 132.909C518.631 129.305 521.749 126.531 525.34 126.85C529.409 127.212 532.046 131.312 530.688 135.164Z" fill="#FFFDF9" stroke="#214573" stroke-width="5.37089"/>
<path d="M549.054 134.096L558.021 151.022C559.76 154.303 564.755 152.583 564.104 148.927L560.745 130.069C560.113 126.52 556.62 124.237 553.115 125.083C549.144 126.042 547.142 130.487 549.054 134.096Z" fill="#FFFDF9" stroke="#214573" stroke-width="5.37089"/>
<circle cx="541.507" cy="139.935" r="1.62788" fill="white"/>
<circle cx="541.507" cy="151.005" r="1.62788" fill="white"/>
<circle cx="535.647" cy="151.005" r="1.62788" fill="white"/>
<circle cx="568.206" cy="121.702" r="1.62788" fill="white"/>
<circle cx="559.741" cy="118.446" r="1.62788" fill="white"/>
<circle cx="571.46" cy="136.679" r="1.62788" fill="white"/>
<circle cx="1.62788" cy="1.62788" r="1.62788" transform="matrix(1 0 0 -1 522.949 123.33)" fill="white"/>
<circle cx="1.62788" cy="1.62788" r="1.62788" transform="matrix(1 0 0 -1 507.973 133.098)" fill="white"/>
<circle cx="1.62788" cy="1.62788" r="1.62788" transform="matrix(1 0 0 -1 507.973 143.516)" fill="white"/>
<path d="M62.7295 533.45C63.129 534.903 64.2178 536.057 65.6289 536.547L65.916 536.637L71.543 538.184L65.916 539.731C64.4634 540.131 63.3082 541.22 62.8184 542.631L62.7295 542.918L61.1816 548.545L59.6348 542.918L59.5449 542.631C59.0877 541.314 58.0515 540.277 56.7344 539.82L56.4482 539.731L50.8203 538.184L56.4482 536.637C57.9009 536.237 59.0551 535.148 59.5449 533.736L59.6348 533.45L61.1816 527.822L62.7295 533.45Z" fill="#214573" stroke="#214573" stroke-width="5.20922"/>
<path d="M681.729 100.45C682.129 101.903 683.218 103.057 684.629 103.547L684.916 103.637L690.543 105.184L684.916 106.731C683.463 107.131 682.308 108.22 681.818 109.631L681.729 109.918L680.182 115.545L678.635 109.918L678.545 109.631C678.088 108.314 677.052 107.277 675.734 106.82L675.448 106.731L669.82 105.184L675.448 103.637C676.901 103.237 678.055 102.148 678.545 100.736L678.635 100.45L680.182 94.8223L681.729 100.45Z" fill="#214573" stroke="#214573" stroke-width="5.20922"/>
<path d="M1173.73 97.4502C1174.13 98.9026 1175.22 100.057 1176.63 100.547L1176.92 100.637L1182.54 102.184L1176.92 103.731C1175.46 104.131 1174.31 105.22 1173.82 106.631L1173.73 106.918L1172.18 112.545L1170.63 106.918L1170.54 106.631C1170.09 105.314 1169.05 104.277 1167.73 103.82L1167.45 103.731L1161.82 102.184L1167.45 100.637C1168.9 100.237 1170.06 99.1476 1170.54 97.7363L1170.63 97.4502L1172.18 91.8223L1173.73 97.4502Z" fill="#214573" stroke="#214573" stroke-width="5.20922"/>
<path d="M1550.73 317.45C1551.13 318.903 1552.22 320.057 1553.63 320.547L1553.92 320.637L1559.54 322.184L1553.92 323.731C1552.46 324.131 1551.31 325.22 1550.82 326.631L1550.73 326.918L1549.18 332.545L1547.63 326.918L1547.54 326.631C1547.09 325.314 1546.05 324.277 1544.73 323.82L1544.45 323.731L1538.82 322.184L1544.45 320.637C1545.9 320.237 1547.06 319.148 1547.54 317.736L1547.63 317.45L1549.18 311.822L1550.73 317.45Z" fill="#214573" stroke="#214573" stroke-width="5.20922"/>
<rect x="4.74219" y="312.09" width="72.781" height="99.6783" transform="rotate(-86.1117 4.74219 312.09)" fill="#FF4B33"/>
<mask id="path-83-inside-4_982_14759" fill="white">
<rect x="5.15625" y="235.998" width="107.123" height="76.0728" rx="4.57382" transform="rotate(3.88831 5.15625 235.998)"/>
</mask>
<rect x="5.15625" y="235.998" width="107.123" height="76.0728" rx="4.57382" transform="rotate(3.88831 5.15625 235.998)" stroke="#214573" stroke-width="9.49317" mask="url(#path-83-inside-4_982_14759)"/>
<path d="M44.2282 256.099C47.9076 256.349 51.3056 257.517 54.2142 259.364C55.0031 259.865 54.4211 261.073 53.4888 261.01V261.01C44.0734 260.37 35.9225 267.484 35.2824 276.899C34.6425 286.315 41.7559 294.467 51.1712 295.107V295.107C52.1037 295.17 52.517 296.445 51.6676 296.834C48.5357 298.272 45.011 298.97 41.3313 298.72C29.562 297.92 20.6696 287.73 21.4696 275.961C22.2696 264.191 32.4589 255.299 44.2282 256.099Z" fill="white"/>
<path d="M55.1613 271.104C55.4928 270.503 56.3754 270.563 56.6225 271.204L57.9425 274.625C58.0428 274.885 58.2701 275.075 58.5438 275.128L62.1452 275.82C62.8194 275.949 63.0351 276.807 62.5023 277.24L59.6562 279.553C59.4399 279.728 59.3295 280.003 59.3641 280.28L59.819 283.919C59.9042 284.6 59.1549 285.07 58.5785 284.697L55.4995 282.705C55.2655 282.554 54.97 282.534 54.7176 282.652L51.3974 284.209C50.7759 284.501 50.0971 283.933 50.2737 283.27L51.2168 279.726C51.2885 279.457 51.2163 279.169 51.0258 278.966L48.5188 276.289C48.0495 275.788 48.3793 274.968 49.0647 274.93L52.7267 274.732C53.005 274.717 53.2559 274.56 53.3905 274.316L55.1613 271.104Z" fill="white"/>
<rect x="1463.22" y="503.912" width="99.6783" height="7.91098" transform="rotate(7.80765 1463.22 503.912)" fill="#FF6954"/>
<rect x="1465.15" y="489.805" width="99.6783" height="7.91098" transform="rotate(7.80765 1465.15 489.805)" fill="#FF6954"/>
<rect x="1467.3" y="474.129" width="99.6783" height="7.91098" transform="rotate(7.80765 1467.3 474.129)" fill="#FF6954"/>
<rect x="1470.8" y="460.236" width="98.0961" height="7.91098" transform="rotate(7.80765 1470.8 460.236)" fill="#FF6954"/>
<rect x="1472.95" y="444.561" width="98.0961" height="9.49317" transform="rotate(7.80765 1472.95 444.561)" fill="#FF6954"/>
<rect width="36.5905" height="30.8733" transform="matrix(-0.99073 -0.135848 -0.135848 0.99073 1507.64 449.316)" fill="#214573"/>
<mask id="path-92-inside-5_982_14759" fill="white">
<rect width="107.123" height="76.0728" rx="4.57382" transform="matrix(-0.99073 -0.135848 -0.135848 0.99073 1573.46 453.551)"/>
</mask>
<rect width="107.123" height="76.0728" rx="4.57382" transform="matrix(-0.99073 -0.135848 -0.135848 0.99073 1573.46 453.551)" stroke="#214573" stroke-width="9.49317" mask="url(#path-92-inside-5_982_14759)"/>
<path d="M1477.12 447.745C1477.37 447.253 1478.09 447.353 1478.2 447.893L1478.42 449.059C1478.46 449.298 1478.65 449.483 1478.9 449.518L1480.07 449.69C1480.61 449.769 1480.74 450.494 1480.26 450.757L1479.22 451.327C1479.01 451.444 1478.89 451.684 1478.93 451.925L1479.13 453.095C1479.22 453.636 1478.58 453.983 1478.18 453.607L1477.31 452.793C1477.13 452.626 1476.87 452.59 1476.65 452.703L1475.6 453.254C1475.12 453.509 1474.59 453 1474.82 452.504L1475.33 451.431C1475.43 451.21 1475.38 450.948 1475.21 450.777L1474.36 449.948C1473.97 449.565 1474.29 448.902 1474.83 448.972L1476.01 449.123C1476.25 449.154 1476.49 449.028 1476.6 448.809L1477.12 447.745Z" fill="white"/>
<path d="M1475.88 456.808C1476.12 456.316 1476.85 456.416 1476.95 456.955L1477.17 458.121C1477.22 458.361 1477.41 458.545 1477.65 458.581L1478.83 458.753C1479.37 458.832 1479.5 459.556 1479.02 459.82L1477.98 460.39C1477.76 460.507 1477.65 460.747 1477.69 460.987L1477.89 462.157C1477.98 462.698 1477.33 463.046 1476.93 462.67L1476.07 461.856C1475.89 461.688 1475.63 461.652 1475.41 461.766L1474.36 462.317C1473.88 462.572 1473.34 462.062 1473.58 461.566L1474.09 460.493C1474.19 460.273 1474.14 460.01 1473.97 459.84L1473.12 459.011C1472.73 458.627 1473.05 457.965 1473.59 458.034L1474.77 458.185C1475.01 458.216 1475.25 458.09 1475.35 457.872L1475.88 456.808Z" fill="white"/>
<path d="M1474.64 465.87C1474.88 465.378 1475.61 465.478 1475.71 466.018L1475.93 467.184C1475.98 467.423 1476.17 467.608 1476.41 467.643L1477.59 467.815C1478.13 467.894 1478.26 468.619 1477.78 468.882L1476.74 469.452C1476.52 469.569 1476.41 469.809 1476.45 470.05L1476.65 471.22C1476.74 471.761 1476.09 472.108 1475.69 471.732L1474.83 470.918C1474.65 470.751 1474.39 470.715 1474.17 470.828L1473.12 471.379C1472.63 471.634 1472.1 471.125 1472.34 470.629L1472.84 469.556C1472.95 469.335 1472.9 469.073 1472.73 468.902L1471.88 468.073C1471.48 467.69 1471.8 467.027 1472.35 467.097L1473.53 467.248C1473.77 467.279 1474 467.153 1474.11 466.934L1474.64 465.87Z" fill="white"/>
<path d="M1488.45 449.298C1488.69 448.806 1489.42 448.906 1489.52 449.445L1489.74 450.611C1489.79 450.851 1489.98 451.036 1490.22 451.071L1491.4 451.243C1491.94 451.322 1492.07 452.046 1491.59 452.31L1490.55 452.88C1490.34 452.997 1490.22 453.237 1490.26 453.478L1490.46 454.648C1490.55 455.188 1489.9 455.536 1489.5 455.16L1488.64 454.346C1488.46 454.179 1488.2 454.143 1487.98 454.256L1486.93 454.807C1486.45 455.062 1485.91 454.553 1486.15 454.057L1486.66 452.983C1486.76 452.763 1486.71 452.501 1486.54 452.33L1485.69 451.501C1485.3 451.117 1485.62 450.455 1486.16 450.525L1487.34 450.675C1487.58 450.706 1487.82 450.58 1487.92 450.362L1488.45 449.298Z" fill="white"/>
<path d="M1487.21 458.362C1487.45 457.871 1488.18 457.971 1488.28 458.51L1488.5 459.676C1488.55 459.916 1488.74 460.1 1488.98 460.135L1490.16 460.307C1490.7 460.387 1490.83 461.111 1490.35 461.374L1489.31 461.944C1489.09 462.062 1488.98 462.302 1489.02 462.542L1489.22 463.712C1489.31 464.253 1488.66 464.6 1488.26 464.224L1487.4 463.41C1487.22 463.243 1486.96 463.207 1486.74 463.32L1485.69 463.872C1485.2 464.126 1484.67 463.617 1484.91 463.121L1485.41 462.048C1485.52 461.827 1485.47 461.565 1485.3 461.395L1484.45 460.565C1484.05 460.182 1484.38 459.52 1484.92 459.589L1486.1 459.74C1486.34 459.771 1486.57 459.645 1486.68 459.426L1487.21 458.362Z" fill="white"/>
<path d="M1485.97 467.425C1486.21 466.933 1486.94 467.033 1487.04 467.572L1487.26 468.738C1487.31 468.978 1487.5 469.163 1487.74 469.198L1488.91 469.37C1489.46 469.449 1489.59 470.173 1489.11 470.437L1488.06 471.007C1487.85 471.124 1487.73 471.364 1487.78 471.605L1487.98 472.775C1488.07 473.315 1487.42 473.663 1487.02 473.287L1486.16 472.473C1485.98 472.306 1485.71 472.269 1485.5 472.383L1484.45 472.934C1483.96 473.189 1483.43 472.68 1483.66 472.183L1484.17 471.11C1484.28 470.89 1484.23 470.627 1484.05 470.457L1483.21 469.628C1482.81 469.244 1483.13 468.582 1483.68 468.652L1484.85 468.802C1485.1 468.833 1485.33 468.707 1485.44 468.489L1485.97 467.425Z" fill="white"/>
<path d="M1499.78 450.853C1500.02 450.361 1500.75 450.461 1500.85 451L1501.07 452.166C1501.12 452.406 1501.31 452.59 1501.55 452.626L1502.73 452.797C1503.27 452.877 1503.4 453.601 1502.92 453.865L1501.88 454.435C1501.66 454.552 1501.55 454.792 1501.59 455.032L1501.79 456.202C1501.88 456.743 1501.23 457.091 1500.83 456.715L1499.97 455.901C1499.79 455.733 1499.53 455.697 1499.31 455.81L1498.26 456.362C1497.77 456.617 1497.24 456.107 1497.48 455.611L1497.98 454.538C1498.09 454.318 1498.04 454.055 1497.87 453.885L1497.02 453.056C1496.63 452.672 1496.95 452.01 1497.49 452.079L1498.67 452.23C1498.91 452.261 1499.14 452.135 1499.25 451.916L1499.78 450.853Z" fill="white"/>
<path d="M1498.54 459.915C1498.78 459.423 1499.51 459.523 1499.61 460.062L1499.83 461.229C1499.88 461.468 1500.07 461.653 1500.31 461.688L1501.48 461.86C1502.03 461.939 1502.16 462.664 1501.68 462.927L1500.64 463.497C1500.42 463.614 1500.31 463.854 1500.35 464.095L1500.55 465.265C1500.64 465.806 1499.99 466.153 1499.59 465.777L1498.73 464.963C1498.55 464.796 1498.28 464.76 1498.07 464.873L1497.02 465.424C1496.53 465.679 1496 465.17 1496.23 464.674L1496.74 463.601C1496.85 463.38 1496.8 463.118 1496.62 462.947L1495.78 462.118C1495.38 461.735 1495.7 461.072 1496.25 461.142L1497.42 461.293C1497.67 461.323 1497.9 461.198 1498.01 460.979L1498.54 459.915Z" fill="white"/>
<path d="M1497.29 468.978C1497.54 468.486 1498.27 468.586 1498.37 469.125L1498.59 470.291C1498.63 470.531 1498.83 470.715 1499.07 470.751L1500.24 470.922C1500.78 471.002 1500.92 471.726 1500.43 471.99L1499.39 472.56C1499.18 472.677 1499.06 472.917 1499.1 473.157L1499.3 474.327C1499.4 474.868 1498.75 475.216 1498.35 474.84L1497.48 474.026C1497.31 473.858 1497.04 473.822 1496.83 473.935L1495.78 474.487C1495.29 474.742 1494.76 474.232 1494.99 473.736L1495.5 472.663C1495.6 472.443 1495.56 472.18 1495.38 472.01L1494.53 471.181C1494.14 470.797 1494.46 470.135 1495.01 470.204L1496.18 470.355C1496.42 470.386 1496.66 470.26 1496.77 470.041L1497.29 468.978Z" fill="white"/>
<path d="M1769.67 297.665L1771.22 304.766L1775.06 298.594L1773.14 305.604L1779.4 301.923L1774.44 307.235L1781.7 306.889L1774.84 309.287L1781.43 312.355L1774.24 311.29L1778.65 317.069L1772.78 312.784L1774 319.95L1770.79 313.427L1768.54 320.339L1768.73 313.072L1763.52 318.146L1767.07 311.8L1760.1 313.874L1766.19 309.903L1759.06 308.502L1766.3 307.815L1760.63 303.259L1767.36 306.015L1764.46 299.348L1769.14 304.914L1769.67 297.665Z" fill="#214573"/>
<rect x="1718.92" y="277.205" width="99.4805" height="18.2953" transform="rotate(-4.07238 1718.92 277.205)" fill="#FEB24C"/>
<rect x="1722.66" y="329.67" width="99.4805" height="18.2953" transform="rotate(-4.07238 1722.66 329.67)" fill="#36CF33"/>
<mask id="path-105-inside-6_982_14759" fill="white">
<rect x="1714.2" y="275.248" width="107.123" height="76.0728" rx="4.57382" transform="rotate(-4.07238 1714.2 275.248)"/>
</mask>
<rect x="1714.2" y="275.248" width="107.123" height="76.0728" rx="4.57382" transform="rotate(-4.07238 1714.2 275.248)" stroke="#214573" stroke-width="9.49317" mask="url(#path-105-inside-6_982_14759)"/>
<circle cx="1770.48" cy="309.07" r="12.9304" transform="rotate(-4.07238 1770.48 309.07)" stroke="#214573" stroke-width="1.5822"/>
<circle cx="1769.95" cy="309.68" r="4.00209" transform="rotate(-4.07238 1769.95 309.68)" fill="#214573"/>
<rect x="226.184" y="539.012" width="99.6783" height="68.0344" transform="rotate(-22.1607 226.184 539.012)" fill="#FF4B33"/>
<mask id="path-109-inside-7_982_14759" fill="white">
<rect x="219.996" y="536.406" width="107.123" height="76.0728" rx="4.57382" transform="rotate(-22.1607 219.996 536.406)"/>
</mask>
<rect x="219.996" y="536.406" width="107.123" height="76.0728" rx="4.57382" transform="rotate(-22.1607 219.996 536.406)" stroke="#214573" stroke-width="9.49317" mask="url(#path-109-inside-7_982_14759)"/>
<path d="M238.839 539.006C238.873 538.321 239.692 537.987 240.196 538.454L243.174 541.217C243.378 541.407 243.666 541.478 243.935 541.405L247.856 540.341C248.519 540.161 249.089 540.838 248.801 541.46L247.093 545.147C246.976 545.4 246.997 545.695 247.15 545.929L249.373 549.329C249.749 549.904 249.282 550.655 248.6 550.573L244.567 550.089C244.29 550.055 244.016 550.167 243.841 550.384L241.294 553.549C240.863 554.084 240.004 553.873 239.872 553.199L239.086 549.213C239.032 548.939 238.841 548.713 238.581 548.614L234.783 547.17C234.142 546.926 234.078 546.043 234.677 545.709L238.226 543.73C238.469 543.594 238.625 543.343 238.639 543.064L238.839 539.006Z" fill="#FFEBCE"/>
<path d="M243.537 562.416C243.554 562.074 243.964 561.907 244.215 562.14L245.605 563.429C245.707 563.524 245.851 563.56 245.986 563.523L247.815 563.027C248.146 562.937 248.432 563.275 248.287 563.587L247.491 565.307C247.432 565.433 247.443 565.581 247.519 565.697L248.556 567.284C248.744 567.571 248.511 567.947 248.17 567.906L246.288 567.68C246.15 567.663 246.012 567.719 245.925 567.828L244.737 569.305C244.521 569.572 244.092 569.466 244.026 569.129L243.659 567.27C243.632 567.133 243.537 567.02 243.406 566.97L241.635 566.296C241.314 566.174 241.282 565.733 241.581 565.566L243.237 564.643C243.359 564.575 243.437 564.449 243.444 564.31L243.537 562.416Z" fill="#FFEBCE"/>
<path d="M253.733 557.301C253.637 556.971 253.97 556.68 254.284 556.819L256.038 557.594C256.166 557.651 256.313 557.637 256.428 557.559L258.015 556.482C258.299 556.289 258.679 556.516 258.644 556.857L258.448 558.765C258.434 558.904 258.492 559.04 258.602 559.125L260.117 560.302C260.388 560.512 260.29 560.943 259.954 561.016L258.079 561.419C257.943 561.448 257.832 561.546 257.784 561.677L257.134 563.481C257.017 563.804 256.577 563.844 256.405 563.547L255.441 561.888C255.371 561.768 255.244 561.692 255.105 561.687L253.188 561.626C252.845 561.615 252.671 561.209 252.9 560.953L254.18 559.525C254.273 559.421 254.306 559.276 254.267 559.143L253.733 557.301Z" fill="#FFEBCE"/>
<path d="M258.926 546.79C258.673 546.559 258.804 546.137 259.144 546.091L261.045 545.835C261.183 545.817 261.302 545.728 261.359 545.601L262.148 543.853C262.29 543.54 262.732 543.535 262.881 543.844L263.712 545.573C263.772 545.698 263.893 545.784 264.031 545.799L265.938 546.01C266.279 546.047 266.42 546.466 266.172 546.703L264.785 548.028C264.684 548.124 264.64 548.265 264.668 548.402L265.057 550.28C265.127 550.616 264.772 550.88 264.47 550.717L262.782 549.807C262.659 549.741 262.511 549.743 262.39 549.812L260.724 550.762C260.426 550.932 260.065 550.677 260.127 550.339L260.471 548.452C260.496 548.315 260.448 548.175 260.345 548.081L258.926 546.79Z" fill="#FFEBCE"/>
<path d="M254.689 533.166C254.478 532.895 254.68 532.501 255.023 532.514L256.939 532.585C257.079 532.59 257.211 532.523 257.289 532.407L258.364 530.819C258.556 530.535 258.993 530.605 259.087 530.935L259.612 532.779C259.65 532.914 259.754 533.018 259.888 533.057L261.731 533.588C262.061 533.684 262.129 534.121 261.844 534.312L260.252 535.381C260.136 535.459 260.069 535.591 260.074 535.73L260.138 537.647C260.149 537.99 259.755 538.19 259.485 537.978L257.976 536.794C257.866 536.708 257.72 536.685 257.589 536.732L255.786 537.386C255.463 537.502 255.151 537.189 255.269 536.867L255.928 535.066C255.976 534.935 255.953 534.789 255.868 534.679L254.689 533.166Z" fill="#FFEBCE"/>
<rect x="268.691" y="278.297" width="99.4805" height="21.7256" transform="rotate(-1.5232 268.691 278.297)" fill="#214573"/>
<rect x="269.266" y="300.014" width="99.4805" height="24.0125" transform="rotate(-1.5232 269.266 300.014)" fill="#FF4B33"/>
<rect x="269.906" y="324.018" width="99.4805" height="22.8691" transform="rotate(-1.5232 269.906 324.018)" fill="#FFC450"/>
<mask id="path-118-inside-8_982_14759" fill="white">
<rect x="263.996" y="273.846" width="107.123" height="76.0728" rx="4.57382" transform="rotate(-1.5232 263.996 273.846)"/>
</mask>
<rect x="263.996" y="273.846" width="107.123" height="76.0728" rx="4.57382" transform="rotate(-1.5232 263.996 273.846)" stroke="#214573" stroke-width="9.49317" mask="url(#path-118-inside-8_982_14759)"/>
<rect x="83.2227" y="88.1152" width="71.1988" height="31.6439" transform="rotate(-98.1376 83.2227 88.1152)" fill="#36CF33"/>
<rect x="114.773" y="85.2031" width="72.781" height="34.8083" transform="rotate(-98.1376 114.773 85.2031)" fill="white"/>
<rect x="149.23" y="80.2754" width="72.781" height="33.2261" transform="rotate(-98.1376 149.23 80.2754)" fill="#FF4B33"/>
<mask id="path-122-inside-9_982_14759" fill="white">
<rect x="67.9961" y="15.1621" width="107.123" height="76.0728" rx="4.57382" transform="rotate(-8.13756 67.9961 15.1621)"/>
</mask>
<rect x="67.9961" y="15.1621" width="107.123" height="76.0728" rx="4.57382" transform="rotate(-8.13756 67.9961 15.1621)" stroke="#214573" stroke-width="9.49317" mask="url(#path-122-inside-9_982_14759)"/>
</g>
</svg>
